<svg width="634" height="548" viewBox="0 0 634 548" fill="none" xmlns="http://www.w3.org/2000/svg">
<path d="M-0.00012207 489.512V547.799H634C634 547.799 607.099 499.912 546.236 463.427C546.236 463.427 535.002 464.551 535.705 457.003C536.408 449.458 540.62 440.334 535.705 444.545C530.79 448.757 530.79 459.767 528.685 454.964C526.579 450.16 529.386 439.608 525.875 443.481C522.365 447.354 518.855 454.882 516.046 450.768C513.237 446.653 458.472 431.213 454.261 430.51C450.047 429.808 452.263 420.807 451.085 420.583C445.132 419.456 451.045 429.105 444.577 426.298C438.112 423.491 419.154 423.316 410.729 418.139C402.303 412.964 247.137 398.225 133.394 423.139C19.6535 448.054 -0.00012207 489.512 -0.00012207 489.512Z" fill="#FEFA9C"/>
<path d="M347.767 274.019C348.109 274.019 348.45 273.86 348.664 273.559C351.639 269.392 357.107 257.194 357.667 251.564C358.23 245.941 355.027 232.504 354.892 231.937C354.754 231.346 354.17 230.989 353.566 231.122C352.975 231.265 352.61 231.859 352.751 232.449C352.783 232.585 356.002 246.091 355.478 251.346C354.953 256.572 349.653 268.386 346.87 272.278C346.519 272.774 346.633 273.461 347.127 273.816C347.323 273.953 347.545 274.019 347.767 274.019Z" fill="#1D191F"/>
<path d="M332.13 398.267L339.371 397.745C331.518 395.643 326.646 383 323.608 374.311C323.037 372.686 322.492 371.127 321.945 369.698C319.236 362.643 318.998 340.697 319.141 332.263C320.276 328.289 323.298 318.619 325.415 315.466C326.335 314.101 326.65 312.577 326.333 311.058C325.662 307.867 322.408 305.809 319.535 303.992C318.618 303.412 317.29 302.57 316.737 302.059C316.095 297.988 311.353 296.717 307.842 295.778C306.744 295.483 305.7 295.204 304.868 294.894C301.464 291.768 286.577 263.294 283.302 248.009C280.535 235.093 285.22 230.547 285.27 230.501L280.972 225.488C280.168 226.157 273.229 232.52 276.844 249.393C279.655 262.511 295.937 298.42 302.139 300.919C303.382 301.417 304.781 301.793 306.136 302.154C307.417 302.498 309.479 303.051 310.26 303.54C310.67 306.197 313.265 307.839 316.001 309.57C317.071 310.247 318.938 311.429 319.658 312.208C316.543 317.252 313.065 329.467 312.668 330.881L312.546 331.708C312.485 334.819 312.062 362.381 315.779 372.062C316.306 373.435 316.828 374.93 317.374 376.489C320.778 386.22 320.903 395.26 332.13 398.267ZM316.803 302.713C316.803 302.715 316.803 302.717 316.803 302.719C316.803 302.719 316.803 302.715 316.803 302.713Z" fill="#FEF86B"/>
<path d="M209.629 332.357C214.837 329.798 228.346 327.151 236.433 325.439C239.892 324.705 242.879 324.072 245.118 323.5C249.911 322.278 253.234 323.631 256.166 324.827C257.238 325.264 258.251 325.676 259.276 325.935C263.387 326.955 266.175 322.924 268.204 319.973C268.417 319.661 268.68 319.281 268.93 318.927C268.951 318.939 268.974 318.95 268.993 318.962C271.564 320.465 275.088 322.518 278.416 321.541C279.999 321.077 281.259 320.005 282.061 318.441C283.076 316.457 283.559 314.404 283.985 312.591C284.608 309.949 285.055 308.275 286.356 307.235C290.844 303.645 290.827 301.957 290.929 301.442L287.556 295.948C287.55 295.976 284.846 299.986 282.232 302.079C279.087 304.595 278.275 308.039 277.559 311.078C277.211 312.555 276.882 313.954 276.312 315.166C275.267 314.978 273.169 313.752 272.325 313.258C271.112 312.551 270.236 312.04 269.31 311.812C266.338 311.061 264.508 313.693 262.761 316.23C262.136 317.143 261.039 318.737 260.334 319.363C259.855 319.197 259.287 318.967 258.662 318.711C255.366 317.367 250.392 315.335 243.486 317.103C241.38 317.641 238.453 318.258 235.064 318.977C226.166 320.864 217.593 323.356 211.649 326.275L209.629 332.357Z" fill="#FEF86B"/>
<path d="M172.205 368.129C172.413 368.129 172.619 368.07 172.808 367.951C185.083 359.945 212.74 357.691 213.018 357.669C213.624 357.621 214.076 357.093 214.027 356.486C213.979 355.88 213.436 355.386 212.845 355.475C211.687 355.565 184.352 357.792 171.603 366.107C171.093 366.44 170.951 367.122 171.282 367.631C171.494 367.952 171.846 368.129 172.205 368.129Z" fill="#1D191F"/>
<path d="M182.084 346.493C182.793 346.493 183.633 346.352 184.616 346.071C188.537 344.951 209.27 333.797 210.152 333.326C210.688 333.037 210.887 332.37 210.598 331.834C210.308 331.3 209.638 331.102 209.106 331.387C201.719 335.367 186.967 343.112 184.01 343.957C182.354 344.429 181.71 344.282 181.533 344.218C181.421 343.728 180.982 343.364 180.461 343.364C179.853 343.364 179.361 343.857 179.361 344.465C179.361 344.893 179.57 345.508 180.153 345.949C180.634 346.31 181.277 346.493 182.084 346.493ZM181.562 344.461V344.463V344.461Z" fill="#1D191F"/>
<path d="M170.556 331.805C170.556 331.805 181.012 341.986 181.012 343.086C181.012 344.187 173.583 350.791 173.032 352.992C172.483 355.193 167.528 352.441 166.152 352.992C164.776 353.543 165.052 357.396 168.904 358.221C172.756 359.045 172.481 368.953 171.105 370.329C169.729 371.705 157.896 377.758 151.292 384.638C144.687 391.518 141.11 398.396 138.358 399.497C135.606 400.597 132.854 401.422 132.03 395.92C131.205 390.416 130.378 378.585 137.534 370.053C144.689 361.524 147.715 360.697 149.916 360.697C152.117 360.697 155.695 360.973 154.319 357.945C152.943 354.917 149.916 352.165 151.018 349.689C152.118 347.214 160.648 330.98 170.556 331.805Z" fill="#1D191F"/>
<path d="M132.313 403.53C134.58 403.53 135.895 402.213 136.317 401.366C136.587 400.822 136.368 400.163 135.825 399.889C135.281 399.623 134.633 399.836 134.356 400.364C134.27 400.518 133.516 401.755 131.195 401.181C128.035 400.392 125.562 399.488 124.855 395.719C124.062 391.483 124.657 380.178 129.665 372.006C132.206 367.857 135.623 364.649 138.37 362.07C141.34 359.28 143.691 357.075 143.859 354.722C143.92 353.871 143.94 353.006 143.961 352.12C144.037 349.043 144.115 345.862 145.946 342.203C148.433 337.228 154.355 330.714 159.962 328.42C165.111 326.316 167.437 327.242 169.537 332.233C169.775 332.79 170.417 333.052 170.98 332.82C171.538 332.583 171.802 331.938 171.567 331.378C168.993 325.267 165.388 323.823 159.128 326.383C152.814 328.968 146.607 335.956 143.977 341.219C141.928 345.318 141.84 348.905 141.762 352.067C141.741 352.917 141.719 353.747 141.662 354.566C141.555 356.058 139.381 358.101 136.863 360.466C134.021 363.134 130.484 366.454 127.786 370.854C122.152 380.049 121.928 392.059 122.69 396.122C123.633 401.158 127.145 402.437 130.659 403.317C131.262 403.466 131.809 403.53 132.313 403.53Z" fill="#1D191F"/>
<path d="M328.203 231.118C333.606 231.118 343.39 230.407 348.514 225.663C351.272 223.109 352.629 221.066 353.826 219.262C354.86 217.704 355.753 216.36 357.386 214.834C361.613 210.885 359.874 206.299 359.796 206.105C359.573 205.537 358.933 205.263 358.368 205.483C357.806 205.706 357.528 206.341 357.745 206.905C357.798 207.044 358.99 210.32 355.881 213.226C354.062 214.927 353.056 216.442 351.992 218.044C350.808 219.827 349.582 221.672 347.018 224.048C341.733 228.944 330.005 229.003 326.519 228.891C325.909 228.864 325.403 229.351 325.386 229.959C325.369 230.567 325.846 231.072 326.454 231.091C326.964 231.107 327.553 231.118 328.203 231.118Z" fill="#1D191F"/>
<path d="M320.114 240.917C330.915 240.917 341.459 238.902 347.068 236.703C358.724 232.132 358.378 227.238 357.996 225.847C357.844 225.294 357.656 224.819 357.483 224.382C357.034 223.249 356.865 222.827 357.551 221.797C359.125 219.437 357.849 214.328 357.699 213.752C357.547 213.167 356.948 212.807 356.357 212.967C355.768 213.121 355.417 213.722 355.571 214.309C356.076 216.245 356.456 219.471 355.719 220.575C354.392 222.565 354.923 223.901 355.436 225.193C355.584 225.566 355.745 225.965 355.873 226.433C356.384 228.287 354.176 231.553 346.266 234.652C336.74 238.393 312.517 241.597 298.164 234.687C274.884 223.477 273.239 219.324 273.288 218.319C273.335 217.365 273.448 216.339 273.56 215.282C273.885 212.239 274.254 208.791 273.214 206.114C271.916 202.767 270.625 199.445 271.956 195.29C272.897 192.34 273.108 187.933 273.313 183.672C273.438 181.08 273.554 178.632 273.828 176.769C274.607 171.522 276.259 167.738 276.929 167.181C277.395 166.791 277.458 166.097 277.07 165.63C276.679 165.164 275.985 165.105 275.519 165.487C273.915 166.823 272.292 172.109 271.652 176.444C271.359 178.415 271.239 180.916 271.112 183.564C270.916 187.682 270.713 191.941 269.856 194.615C268.288 199.511 269.787 203.369 271.108 206.773C272.005 209.086 271.682 212.116 271.368 215.046C271.251 216.145 271.138 217.215 271.089 218.207C270.967 220.674 273.541 225.271 297.208 236.667C303.636 239.763 311.947 240.917 320.114 240.917Z" fill="#1D191F"/>
<path d="M221.082 242.812C226.694 242.812 232.911 241.56 235.741 240.91C240.161 239.899 241.045 234.092 241.689 229.856C241.925 228.301 242.284 225.952 242.72 225.582C245.348 223.829 245.77 222.294 245.77 218.263C245.77 216.178 246.965 214.587 248.347 212.743C249.201 211.607 250.082 210.434 250.789 209.018C252.329 205.941 257.663 190.9 256.364 186.563C255.459 183.53 259.15 176.701 265.234 174.329C271.842 171.754 285.049 163.58 285.608 163.232C286.123 162.913 286.282 162.234 285.963 161.717C285.64 161.2 284.958 161.046 284.448 161.362C284.313 161.445 270.857 169.778 264.435 172.279C257.498 174.983 252.966 182.872 254.256 187.196C255.197 190.334 250.755 204.17 248.822 208.036C248.205 209.271 247.384 210.366 246.589 211.422C245.107 213.399 243.571 215.444 243.571 218.263C243.571 222.016 243.204 222.615 241.492 223.755C240.272 224.571 239.952 226.648 239.517 229.525C238.938 233.34 238.213 238.087 235.254 238.766C225.071 241.1 213.561 241.717 212.339 237.568C211.319 234.098 211.759 228.585 212.145 223.721C212.427 220.186 212.693 216.849 212.373 214.612C211.894 211.249 218.141 187.856 221.876 173.879C223.689 167.09 225.12 161.729 225.569 159.592C226.892 153.319 265.331 125.504 275.173 121.492C283.654 118.039 296.3 113.519 308.479 113.867C308.804 113.899 309.119 113.742 309.334 113.5C311.508 111.062 314.281 108.336 315.364 107.709C315.537 107.892 315.796 108.171 316.035 108.428C318.664 111.267 324.804 117.919 333.602 116.796C341.189 115.828 345.587 114.065 347.664 113.177C347.7 114.051 347.854 115.14 348.645 115.931C348.698 115.984 348.759 116.034 348.822 116.075C349.008 116.197 353.516 119.016 365.851 117.9C377.817 116.813 384.408 116.212 395.881 104.741C399.088 101.534 402.826 97.6135 406.783 93.4608C416.006 83.7869 426.457 72.8227 430.452 70.8252C435.012 68.5446 443.228 67.6266 446.183 67.3605C446.512 70.8309 448.204 80.9874 456.804 84.3894C456.783 85.7521 456.194 89.7888 450.916 96.6898C450.142 97.7028 449.16 98.999 448.016 100.512C439.134 112.252 418.334 139.745 411.732 142.577C409.6 143.491 406.063 144.761 401.967 146.23C390.841 150.221 376.996 155.189 372.864 159.321C369.374 162.81 366.36 176.086 363.701 187.799C362.147 194.648 360.539 201.73 359.589 202.87C358.167 204.577 355.24 206.067 352.887 207.264C350.496 208.48 349.114 209.212 348.51 210.121C348.174 210.626 348.31 211.308 348.816 211.647C349.32 211.979 350.004 211.848 350.342 211.341C350.656 210.869 352.446 209.957 353.885 209.225C356.418 207.937 359.569 206.333 361.278 204.28C362.508 202.803 363.753 197.512 365.849 188.285C368.183 178.001 371.379 163.914 374.42 160.875C378.204 157.091 392.369 152.009 402.712 148.299C406.84 146.819 410.405 145.54 412.601 144.599C419.739 141.539 440.026 114.726 449.773 101.84C450.916 100.333 451.893 99.0389 452.666 98.0278C459.932 88.5251 459.039 83.8364 458.913 83.3346C458.82 82.9716 458.552 82.6789 458.201 82.5591C448.787 79.3662 448.312 66.2772 448.306 66.1441C448.297 65.8457 448.168 65.5626 447.947 65.3611C447.727 65.1597 447.44 65.0627 447.136 65.0741C446.662 65.1046 435.47 65.8572 429.47 68.8562C425.131 71.0248 414.995 81.6583 405.192 91.9422C401.243 96.0854 397.514 99.9968 394.327 103.184C383.418 114.093 377.48 114.633 365.655 115.707C355.242 116.659 350.872 114.675 350.133 114.287C349.875 113.913 349.861 113.145 349.854 112.624C349.844 112.008 349.823 110.566 348.51 110.566C348.164 110.566 347.866 110.693 347.149 111.003C345.329 111.788 341.068 113.626 333.327 114.61C325.667 115.576 320.053 109.519 317.655 106.93C316.868 106.082 316.535 105.731 316.165 105.546C315.524 105.227 314.352 104.64 308.038 111.655C295.639 111.429 282.895 115.971 274.348 119.455C264.431 123.493 225.054 151.382 223.419 159.138C222.982 161.217 221.559 166.554 219.751 173.309C214.228 193.992 209.698 211.402 210.197 214.921C210.484 216.917 210.228 220.137 209.954 223.544C209.551 228.598 209.097 234.328 210.231 238.188C211.273 241.753 215.924 242.812 221.082 242.812Z" fill="#1D191F"/>
<path d="M333.741 126.069C337.304 126.069 340.706 125.49 343.725 124.45C354.712 120.662 354.59 116.954 354.455 116.249C354.337 115.648 353.754 115.263 353.165 115.377C352.596 115.485 352.216 116.011 352.279 116.576C352.26 116.766 351.84 119.324 343.006 122.369C333.192 125.752 318.987 123.88 309.363 112.074C308.977 111.6 308.283 111.534 307.812 111.916C307.34 112.3 307.27 112.993 307.654 113.465C315.003 122.473 324.867 126.067 333.741 126.069Z" fill="#1D191F"/>
<path d="M429.953 39.0216L566.072 15.1733L440.225 19.5751L429.953 39.0216Z" fill="#FEF86B"/>
<path d="M452.356 19.1508V12.9702L566.072 15.173L452.356 19.1508Z" fill="#A9A547"/>
<path d="M444.984 12.8273L468.477 0.496582L566.072 15.1726L444.984 12.8273Z" fill="#FEF86B"/>
<path d="M457.836 84.6997C458.146 84.6997 458.454 84.5686 458.67 84.3177C458.838 84.1219 475.538 64.7248 480.529 60.8002C481.543 60.0039 482.608 59.1353 483.714 58.2325C488.197 54.5758 493.283 50.4308 498.44 48.2432C505.282 45.343 514.028 31.2827 514.397 30.686C514.716 30.169 514.556 29.4904 514.039 29.1711C513.526 28.8499 512.846 29.0097 512.525 29.5285C512.437 29.6672 503.78 43.5849 497.58 46.2153C492.135 48.5245 486.922 52.776 482.323 56.5258C481.226 57.4191 480.173 58.2781 479.17 59.0688C474.008 63.1245 457.694 82.0769 457.002 82.8808C456.605 83.3426 456.658 84.0383 457.118 84.4336C457.327 84.6122 457.583 84.6997 457.836 84.6997Z" fill="#1D191F"/>
<path d="M491.181 28.1294L563.136 15.1733L488.562 37.5942L491.181 28.1294Z" fill="#A9A547"/>
<path d="M477.596 40.8896L450.866 48.927L449.032 35.7181L480.81 29.9956C480.81 29.9956 480.106 34.1103 479.705 35.741C479.302 37.3698 477.596 40.8896 477.596 40.8896Z" fill="#A9A547"/>
<path d="M343.365 114.698C343.466 114.698 343.567 114.685 343.671 114.654C344.257 114.485 344.591 113.875 344.424 113.291C344.403 113.217 342.356 105.969 344.388 100.945C344.616 100.383 344.342 99.7405 343.78 99.5125C343.219 99.2806 342.577 99.5562 342.347 100.121C340.028 105.855 342.215 113.576 342.31 113.903C342.447 114.384 342.888 114.698 343.365 114.698Z" fill="#1D191F"/>
<path d="M318.86 110.863C319.2 110.863 319.535 110.705 319.749 110.408C322.76 106.267 327.777 99.0164 327.583 96.979C327.524 96.3709 326.951 95.9147 326.384 95.9889C325.778 96.0459 325.335 96.5837 325.39 97.1881C325.314 98.3303 321.479 104.281 317.969 109.116C317.611 109.608 317.72 110.296 318.212 110.654C318.41 110.794 318.636 110.863 318.86 110.863Z" fill="#1D191F"/>
<path d="M195.875 282.06C196.126 282.06 196.392 282.032 196.66 281.973C199.699 281.298 211.59 269.114 213.812 266.149C215.884 263.387 218.942 261.694 220.071 261.179C220.759 261.937 222.089 264.569 222.279 266.953C222.503 269.767 222.935 272.525 224.577 273.645C225.101 274.006 226.002 274.352 227.262 273.971C230.638 272.951 230.119 269.811 229.401 265.466L229.154 263.94C228.589 260.362 226.567 256.562 225.36 254.291C225.058 253.719 224.721 253.09 224.558 252.727C225.428 251.248 229.015 245.368 231.453 241.383C231.769 240.864 231.605 240.187 231.088 239.87C230.577 239.556 229.893 239.716 229.575 240.235C228.427 242.111 222.688 251.499 222.406 252.064C222.057 252.765 222.372 253.358 223.419 255.327C224.564 257.475 226.474 261.069 226.981 264.286L227.232 265.828C227.977 270.349 228.013 271.447 226.627 271.866C226.105 272.023 225.904 271.887 225.82 271.83C224.822 271.147 224.56 267.859 224.474 266.778C224.225 263.64 222.424 260.05 221.097 259.172C220.496 258.776 219.993 258.86 219.74 258.942C218.575 259.331 214.589 261.447 212.052 264.83C209.137 268.716 198.034 279.415 196.185 279.825C195.977 279.869 195.622 279.918 195.523 279.723C195.329 279.352 195.476 278.022 197.163 276.488C199.339 274.513 206.539 265.16 205.91 262.887C205.775 262.391 205.395 262.034 204.895 261.935C203.865 261.732 202.831 262.477 196.964 267.663C193.95 270.33 189.392 274.359 188.229 274.593C187.594 274.72 187.174 274.773 186.898 274.792C187.031 274.53 187.267 274.139 187.683 273.567C188.601 272.305 190.414 270.317 192.167 268.391C194.704 265.605 197.101 262.973 197.946 261.409C198.233 260.873 198.034 260.206 197.5 259.917C196.969 259.636 196.299 259.827 196.008 260.363C195.291 261.692 192.767 264.463 190.54 266.907C188.666 268.967 186.894 270.91 185.904 272.27C184.907 273.643 184.082 275.062 184.785 276.161C185.5 277.275 187.094 277.062 188.662 276.748C190.291 276.421 193.438 273.721 198.427 269.309C199.756 268.133 201.362 266.715 202.65 265.649C200.932 268.54 197.648 273.074 195.688 274.855C193.588 276.763 192.739 279.128 193.573 280.735C194.008 281.589 194.856 282.06 195.875 282.06Z" fill="#1D191F"/>
<path d="M184.74 272.86C186.277 272.86 188.21 272.159 189.196 271.604C189.725 271.305 189.913 270.634 189.612 270.104C189.314 269.576 188.641 269.388 188.111 269.688C186.699 270.486 184.781 270.777 184.359 270.627C184.314 270.575 184.28 270.532 184.272 270.516C184.287 270.518 184.319 269.863 186.37 267.943C189.358 265.144 194.047 259.022 195.926 256.517C196.232 256.108 196.249 255.401 195.922 255.01C194.603 253.423 183.382 258.67 183.27 258.725C183.152 258.786 183.076 258.788 183.054 258.786C183.033 258.714 183.018 257.891 184.46 256.709C186.199 255.286 195.998 251.69 210.673 247.085L210.935 247.001C214.044 246.026 215.361 241.607 215.502 241.105C215.665 240.52 215.325 239.914 214.742 239.748C214.141 239.589 213.548 239.927 213.383 240.509C213.088 241.552 211.955 244.373 210.279 244.901L210.015 244.983C199.142 248.394 185.637 252.902 183.069 255.004C180.627 257.002 180.562 258.948 181.248 260.008C181.881 260.981 183.118 261.261 184.259 260.693C185.391 260.124 189.609 258.45 192.425 257.481C190.295 260.236 187.043 264.3 184.869 266.333C182.875 268.202 182.046 269.492 182.092 270.648C182.13 271.642 182.818 272.191 183.078 272.4C183.485 272.729 184.074 272.86 184.74 272.86Z" fill="#1D191F"/>
<path d="M359.111 19.1511C359.111 19.1511 372.715 22.6614 374.551 30.1078C376.385 37.5542 374.551 45.259 368.68 44.5254C362.81 43.7918 355.105 38.6546 349.97 39.0214C344.832 39.3882 345.933 41.3191 347.769 44.5729C349.603 47.8266 346.302 53.3307 337.129 50.7611C327.957 48.1935 327.591 43.4231 320.986 45.2571C314.382 47.0912 320.408 62.1341 318.863 64.3368C317.318 66.5377 317.037 69.474 313.507 64.3368C309.978 59.1996 304.843 52.2283 299.339 54.0643C293.835 55.8983 304.476 66.5395 309.978 68.7403C315.482 70.9412 315.482 70.9412 315.482 70.9412C315.482 70.9412 317.683 86.3432 320.986 88.5479C320.986 88.5479 298.972 85.6173 290.533 77.9125C282.095 70.2076 289.433 70.2076 287.966 66.1728C286.499 62.136 278.06 61.8452 278.06 56.8543C278.06 51.8634 279.161 52.5971 286.865 48.929C294.57 45.261 292.37 43.425 291.269 41.5909C290.169 39.7569 289.068 36.4537 295.306 34.6197C301.544 32.7856 316.305 28.3821 313.509 24.3472C310.716 20.3123 309.402 12.2388 318.865 12.9743C328.328 13.7098 337.38 19.8296 342.761 19.1549C348.134 18.4745 353.153 16.9712 359.111 19.1511Z" fill="#1D191F"/>
<path d="M341.163 102.128C341.246 102.128 341.332 102.118 341.419 102.097C342.045 101.947 342.888 101.763 343.898 101.542C350.304 100.145 363.631 97.2374 370.728 92.2009C379.413 86.0393 377.84 70.7209 376.283 65.8365C374.799 61.1725 371.203 44.4476 371.169 44.2785C371.106 43.9877 370.927 43.7349 370.676 43.5771C370.42 43.4194 370.116 43.3719 369.829 43.4422C369.47 43.5297 369.274 43.5373 369.175 43.5392C369.063 43.4841 368.943 43.4461 368.816 43.4309C366.315 43.1173 363.333 41.9085 360.448 40.7358C356.599 39.1755 352.954 37.6968 349.892 37.9211C348.208 38.0408 346.18 38.3602 345.424 39.7647C344.629 41.2452 345.585 42.9405 346.796 45.09C347.374 46.1144 347.231 47.4105 346.442 48.414C344.912 50.3716 341.541 50.8506 337.424 49.6988C333.676 48.6497 331.436 47.1996 329.634 46.0326C327.022 44.345 324.96 43.009 320.692 44.193C315.412 45.6602 316.621 53.2186 317.505 58.7378C317.803 60.608 318.214 63.1681 317.947 63.7249C317.668 64.1203 317.417 64.5631 317.18 64.9774C316.95 65.3841 316.602 65.9981 316.421 66.1083C316.471 66.0703 315.897 65.865 314.416 63.7097C311.326 59.2073 305.567 50.8164 298.991 53.0173C297.556 53.4943 296.745 54.5225 296.705 55.9099C296.578 60.2602 304.754 67.8302 309.574 69.7573L314.553 71.7491C315.216 74.3984 318.079 85.5452 320.027 89.0746C320.129 89.2608 320.253 89.5041 320.401 89.7929C321.627 92.1991 324.177 97.2051 329.1 99.7956C329.634 100.079 330.299 99.8716 330.586 99.3338C330.869 98.7959 330.664 98.1306 330.124 97.8475C325.825 95.5839 323.486 90.9979 322.364 88.7933C322.203 88.4797 322.068 88.2155 321.956 88.0103C319.926 84.3327 316.592 70.8083 316.558 70.6734C316.474 70.3275 316.227 70.0462 315.899 69.9131L310.395 67.7123C306.162 66.019 298.822 58.9526 298.912 55.9745C298.921 55.6761 298.989 55.3378 299.695 55.1022C304.087 53.6387 308.498 58.9716 312.609 64.9546C314.293 67.4044 315.481 68.3186 316.611 68.2843C317.871 68.2311 318.525 67.0775 319.103 66.0607C319.305 65.7034 319.519 65.3214 319.772 64.9622C320.525 63.8903 320.261 61.9688 319.687 58.3862C318.936 53.6881 317.904 47.2529 321.291 46.3121C324.605 45.3884 325.972 46.274 328.45 47.8781C330.377 49.1249 332.774 50.6757 336.843 51.8141C344.042 53.8325 347.178 51.0559 348.187 49.7673C349.527 48.0587 349.742 45.8046 348.738 44.0238C348.064 42.8245 347.153 41.2129 347.376 40.8004C347.404 40.7472 347.722 40.2778 350.061 40.1106C352.619 39.9224 356.188 41.3725 359.632 42.7694C362.569 43.9611 365.604 45.1927 368.337 45.5785C368.586 45.6849 368.839 45.7381 369.243 45.7324C370.051 49.4632 372.877 62.349 374.196 66.496C375.566 70.7912 377.056 85.0092 369.466 90.3973C362.734 95.1734 349.702 98.0167 343.44 99.3832C342.409 99.6074 341.552 99.7956 340.917 99.9476C340.326 100.09 339.962 100.683 340.102 101.276C340.212 101.789 340.665 102.128 341.163 102.128ZM369.492 43.7825C369.492 43.7844 369.492 43.7843 369.494 43.7843C369.492 43.7824 369.492 43.7825 369.492 43.7825ZM369.49 43.7786C369.49 43.7786 369.49 43.7805 369.492 43.7805C369.49 43.7805 369.49 43.7786 369.49 43.7786ZM369.443 43.7311C369.458 43.7463 369.473 43.7615 369.49 43.7786C369.475 43.7615 369.458 43.7463 369.443 43.7311Z" fill="#1D191F"/>
<path d="M373.51 60.7237C373.685 60.7237 373.86 60.6819 374.023 60.5963C379.723 57.5878 382.992 51.6314 384.151 47.0606C384.501 45.677 384.972 43.1777 384.18 41.988C383.608 41.127 382.629 40.6899 381.506 40.804C379.7 40.9731 377.142 42.6379 375.376 46.8002C373.276 51.753 371.516 54.0451 371.495 54.0679C371.123 54.5469 371.21 55.2387 371.687 55.6131C372.168 55.9856 372.858 55.9001 373.231 55.4249C373.309 55.3242 375.175 52.9161 377.4 47.6611C378.887 44.1584 380.808 43.079 381.711 42.9953C382.152 42.9516 382.304 43.1454 382.348 43.2101C382.975 44.5937 380.736 54.5621 372.997 58.6502C372.459 58.9334 372.254 59.5985 372.537 60.1364C372.735 60.5108 373.117 60.7237 373.51 60.7237Z" fill="#1D191F"/>
<path d="M328.63 57.6885C328.826 57.6885 329.02 57.6696 329.208 57.6277C330.149 57.4282 330.818 56.7535 331.044 55.7766C331.34 54.4918 334.094 52.6464 335.953 51.7456C336.498 51.4814 336.728 50.8218 336.464 50.2745C336.198 49.7271 335.541 49.4991 334.993 49.7632C334.089 50.2004 329.533 52.5228 328.896 55.2824C328.858 55.4516 328.813 55.4611 328.748 55.4744C328.427 55.5485 327.841 55.3109 327.513 54.8719C327.237 54.5051 327.218 54.1079 327.459 53.6575C328.887 50.9796 329.89 49.4667 331.11 49.1512C331.7 48.9992 332.051 48.3986 331.899 47.8094C331.747 47.2222 331.15 46.8611 330.555 47.0208C328.347 47.5947 327.02 49.8013 325.517 52.6236C324.873 53.8361 324.958 55.138 325.757 56.1966C326.456 57.126 327.573 57.6885 328.63 57.6885Z" fill="#1D191F"/>
<path d="M368.129 50.0282C368.247 50.0282 368.363 50.0091 368.477 49.9711C369.855 49.5112 370.691 48.7623 370.963 47.7398C371.377 46.1757 370.188 44.7902 370.049 44.6362C369.642 44.1858 368.947 44.1478 368.494 44.5526C368.044 44.9574 368.004 45.6474 368.403 46.0997C368.597 46.3202 368.918 46.8637 368.832 47.1792C368.783 47.3636 368.546 47.5573 368.177 47.7265C367.168 47.2609 364.651 46.2422 361.751 46.1301C361.097 46.1035 360.613 45.7329 360.308 45.0259C359.959 44.2048 360.029 43.3192 360.17 42.9581C360.666 43.0246 361.175 42.7376 361.354 42.253C361.555 41.6942 361.312 41.086 360.761 40.8655C360.012 40.5652 359.244 40.7192 358.691 41.2665C357.657 42.2909 357.678 44.3341 358.224 45.7348C358.841 47.3217 360.096 48.2682 361.668 48.329C364.864 48.4563 367.586 49.8836 367.614 49.8988C367.772 49.9844 367.951 50.0282 368.129 50.0282Z" fill="#1D191F"/>
<path d="M365.377 56.5887C366.89 56.0166 367.812 55.6708 368.785 55.4579C369.264 55.3363 369.754 55.2279 370.334 55.1347C370.914 55.0264 371.55 54.9637 372.366 54.7471C371.56 53.335 369.832 52.7324 368.202 53.1106C366.584 53.5136 365.273 54.9314 365.377 56.5887Z" fill="#1D191F"/>
<path d="M345.381 59.6215C344.701 58.6979 343.682 58.1068 342.595 57.7875C341.502 57.4511 340.305 57.4226 339.167 57.6697C338.047 57.9662 336.949 58.4279 336.118 59.2129C335.252 59.937 334.611 60.8854 334.252 61.9517C335.341 61.581 336.219 61.1458 337.11 60.8208C337.983 60.4654 338.838 60.2278 339.691 60.0321C340.541 59.8021 341.421 59.7299 342.348 59.6519C343.283 59.5987 344.252 59.5987 345.381 59.6215Z" fill="#1D191F"/>
<path d="M358.952 72.7295C359.022 72.7295 359.091 72.7239 359.163 72.7087C359.313 72.6801 362.858 71.9827 364.922 71.0096C365.638 70.6713 366.123 70.1087 366.322 69.3827C366.769 67.7596 365.602 65.9104 365.363 65.5569L359.931 54.8606C359.881 54.7636 359.817 54.6724 359.743 54.5945C358.604 53.418 357.512 53.2774 356.799 53.3572C355.088 53.5625 354.079 55.2007 353.969 55.387C353.842 55.6055 353.792 55.8602 353.832 56.1092C353.845 56.1909 355.062 64.2056 355.195 67.5449C355.362 71.7413 358.525 72.6535 358.659 72.6896C358.756 72.7162 358.855 72.7295 358.952 72.7295ZM358.051 56.0142L363.472 66.6706C363.899 67.3282 364.331 68.3317 364.199 68.7992C364.184 68.8543 364.163 68.9322 363.981 69.0178C362.487 69.7248 359.917 70.3007 359.043 70.485C358.572 70.2608 357.481 69.5196 357.399 67.4556C357.276 64.4185 356.339 57.9775 356.077 56.2175C356.308 55.9363 356.683 55.5846 357.069 55.5409C357.375 55.5105 357.686 55.6664 358.051 56.0142Z" fill="#1D191F"/>
<path d="M372.364 59.557C371.288 59.2187 370.819 59.4258 369.764 59.8401C366.91 60.9596 365.917 65.2339 366.526 66.7847C367.134 68.3375 369.114 66.5796 371.969 65.4601C372.894 65.0971 372.993 65.3898 373.771 65.1636L372.364 59.557Z" fill="#FEF86B"/>
<path d="M349.837 70.1954C350.156 72.1796 346.648 71.6302 342.535 72.2935C338.422 72.9568 335.263 74.5837 334.944 72.5977C334.625 70.6135 337.263 65.7689 341.376 65.1056C345.488 64.4423 349.516 68.2093 349.837 70.1954Z" fill="#FEF86B"/>
<path d="M360.123 81.0315C357.641 80.2694 355.535 79.8778 353.509 79.2526C352.483 78.9903 351.544 78.5836 350.544 78.1921C349.533 77.7892 348.611 77.2171 347.401 76.6279C347.631 77.9051 348.286 79.1405 349.273 80.028C350.232 80.9479 351.434 81.6131 352.688 81.9913C353.954 82.3334 355.256 82.4779 356.527 82.3182C357.791 82.1719 359.044 81.8108 360.123 81.0315Z" fill="#1D191F"/>
<path d="M311.811 172.98C311.811 183.494 316.214 192.018 332.006 192.018C343.158 192.018 349.856 183.494 349.856 172.98C349.856 162.466 345.382 153.942 332.006 153.942C318.807 153.942 311.811 162.466 311.811 172.98Z" fill="#FEF86B"/>
<path d="M333.954 175.332C334.081 175.332 334.197 175.33 334.308 175.324C334.931 175.292 336.092 175.231 336.417 174.275C336.723 173.376 335.986 172.747 335.448 172.289C335.248 172.118 334.859 171.785 334.72 171.576C334.752 171.557 334.806 171.512 334.884 171.458C336.315 170.457 345.859 170.77 354.26 171.65C354.86 171.713 355.406 171.276 355.468 170.672C355.533 170.067 355.094 169.526 354.488 169.463C351.5 169.149 336.446 167.686 333.623 169.655C332.901 170.16 332.515 170.767 332.485 171.458C332.453 172.108 332.745 172.65 333.12 173.099C332.206 173.032 330.959 172.884 329.503 172.709C323.142 171.949 312.499 170.675 303.095 173.163C302.507 173.319 302.158 173.922 302.312 174.509C302.468 175.096 303.064 175.448 303.657 175.292C312.653 172.911 323.035 174.152 329.243 174.895C331.335 175.144 332.913 175.332 333.954 175.332Z" fill="#1D191F"/>
<path d="M487.555 46.7264C487.98 46.7264 488.387 46.4775 488.568 46.0594C489.647 43.5393 489.668 38.7175 489.662 37.7425L492.266 28.5913C492.373 28.2264 492.28 27.835 492.025 27.5537C491.774 27.2724 491.398 27.1393 491.019 27.2058L481.809 28.8194C481.37 28.8973 479.164 29.5322 478.755 34.5287C478.571 36.7752 477.879 38.2995 476.663 40.3274C476.349 40.8481 476.518 41.5246 477.041 41.8363C477.56 42.1461 478.236 41.9808 478.55 41.4581C479.905 39.2003 480.73 37.3719 480.947 34.7092C481.218 31.4289 482.273 30.969 482.283 30.9652L489.666 29.6766L487.5 37.2959C487.469 37.4004 487.454 37.5069 487.456 37.6171C487.483 39.0729 487.367 43.2694 486.54 45.1946C486.302 45.7534 486.559 46.3996 487.118 46.6391C487.262 46.698 487.408 46.7264 487.555 46.7264Z" fill="#1D191F"/>
<path d="M447.197 67.2728C447.391 67.2728 447.583 67.2234 447.759 67.1189C450.268 65.6231 472.352 52.3553 475.313 46.8836C475.505 46.532 475.49 46.1044 475.272 45.768C475.266 45.7566 474.375 44.3122 474.188 42.1512C474.135 41.5449 473.582 41.0908 472.997 41.1497C472.39 41.201 471.944 41.7351 471.995 42.3414C472.153 44.1488 472.704 45.5533 473.073 46.3154C469.846 50.8178 453.064 61.3944 446.632 65.2278C446.11 65.5395 445.939 66.2142 446.25 66.7369C446.457 67.0809 446.822 67.2728 447.197 67.2728Z" fill="#1D191F"/>
<path d="M335.396 444.039C335.396 444.039 336.438 427.979 337.359 427.19C338.281 426.402 349.141 427.897 351.382 426.782C353.621 425.666 354.864 431.79 356.312 432.548C357.758 433.306 360.791 430.317 358.722 426.495C356.652 422.673 365.153 415.806 367.293 415.973C369.433 416.14 382.986 421.72 393.485 422.327C403.983 422.933 412.312 421.002 415.206 422.521C418.101 424.039 420.763 425.753 416.742 430.389C412.72 435.024 403.394 444.194 391.117 444.31C378.841 444.426 375.979 442.48 374.401 440.635C372.824 438.789 370.492 435.594 368.939 438.917C367.386 442.239 367.249 446.747 364.385 447.6C361.523 448.45 341.801 452.933 335.396 444.039Z" fill="#1D191F"/>
<path d="M353.759 460.396C356.909 460.396 359.896 460.056 362.301 459.459C367.181 458.245 370.239 455.757 372.938 453.564C373.664 452.971 374.378 452.389 375.106 451.853C376.473 450.848 379.767 451.211 383.57 451.627C387.836 452.096 393.148 452.678 398.749 451.79C410.466 449.93 420.661 441.539 423.513 437.996C427.016 433.65 425.587 429.828 423.819 426.285C422.185 423.007 419.473 422.71 418.262 423.003C417.671 423.149 417.312 423.746 417.458 424.335C417.605 424.919 418.184 425.283 418.775 425.143C418.973 425.105 420.64 424.837 421.849 427.268C423.47 430.518 424.496 433.272 421.797 436.617C418.81 440.328 408.879 447.955 398.405 449.616C393.097 450.462 387.949 449.894 383.811 449.44C379.371 448.953 375.859 448.565 373.799 450.082C373.042 450.641 372.303 451.241 371.549 451.855C368.905 454.005 366.172 456.226 361.768 457.323C355.803 458.807 346.06 458.507 340.094 455.441C334.566 452.596 333.663 449.945 336.377 444.529C336.649 443.987 336.428 443.325 335.885 443.052C335.351 442.78 334.684 442.995 334.408 443.544C331.168 450.006 332.523 454.022 339.089 457.397C343.202 459.512 348.687 460.396 353.759 460.396Z" fill="#1D191F"/>
<path d="M363.272 423.49C363.675 423.49 364.062 423.268 364.256 422.884C364.522 422.35 364.317 421.706 363.798 421.422C363.638 421.322 358.68 417.935 353.273 395.653C353.128 395.064 352.537 394.714 351.942 394.843C351.351 394.988 350.99 395.583 351.131 396.174C356.867 419.809 362.19 423.078 362.776 423.374C362.935 423.454 363.103 423.49 363.272 423.49Z" fill="#1D191F"/>
<path d="M340.944 431.161C341.52 431.161 342.005 430.712 342.041 430.129C342.56 421.848 331.616 398.895 331.151 397.922C330.888 397.369 330.227 397.143 329.681 397.403C329.134 397.665 328.9 398.323 329.163 398.872C329.275 399.106 340.325 422.28 339.844 429.99C339.806 430.596 340.267 431.119 340.874 431.157C340.897 431.161 340.919 431.161 340.944 431.161Z" fill="#1D191F"/>
<path d="M332.361 399.666C339.581 399.666 352.554 395.825 358.779 392.193C365.269 388.407 363.306 374.372 361.576 361.987C361.363 360.461 361.154 358.967 360.968 357.529C360.2 351.647 360.4 340.314 360.596 329.351C360.826 316.399 361.042 304.167 359.845 299.083C357.634 289.69 338.538 254.616 337.726 253.129C337.439 252.594 336.766 252.396 336.234 252.69C335.7 252.981 335.503 253.648 335.795 254.182C335.991 254.545 355.561 290.481 357.703 299.587C358.836 304.403 358.61 317.066 358.393 329.311C358.197 340.355 357.996 351.772 358.782 357.814C358.973 359.258 359.182 360.762 359.395 362.294C360.949 373.412 362.884 387.25 357.669 390.292C351.194 394.067 335.961 398.347 330.354 397.313C327.611 396.815 318.253 394.12 313.023 380.394C308.775 369.238 307.593 332.339 307.593 328.504C307.593 327.487 309.406 324.433 310.731 322.203C313.367 317.762 314.583 315.57 313.471 314.331C312.571 313.326 311.025 314.031 310.44 314.295C307.884 315.456 305.525 317.355 303.805 318.74C303.391 319.073 302.925 319.447 302.517 319.757C302.543 319.658 302.568 319.554 302.6 319.44C303.073 317.701 303.606 316.161 304.031 314.926C304.959 312.248 305.468 310.771 304.602 309.779C304.132 309.241 303.402 309.07 302.424 309.266C299.537 309.842 297.965 309.616 296.813 308.466C295.329 306.877 269.248 264.649 267.393 255.638C265.31 245.512 265.49 234.27 267.799 230.576C270.492 226.265 273.767 221.892 273.801 221.846C274.164 221.36 274.065 220.67 273.579 220.307C273.094 219.944 272.404 220.039 272.037 220.527C272.005 220.571 268.677 225.018 265.933 229.41C262.911 234.245 263.32 246.761 265.239 256.081C267.159 265.413 293.626 308.39 295.257 310.021C297.385 312.149 300.143 311.959 302.811 311.431C302.693 312.06 302.304 313.187 301.95 314.206C301.513 315.471 300.968 317.051 300.475 318.858C300.088 320.282 299.793 321.724 300.802 322.384C301.905 323.1 303.066 322.159 305.183 320.455C306.903 319.069 309.047 317.343 311.348 316.296C311.394 316.277 311.434 316.258 311.476 316.241C310.989 317.444 309.733 319.567 308.834 321.08C306.69 324.689 305.39 326.989 305.39 328.504C305.39 328.884 306.246 368.786 310.967 381.177C316.606 395.981 326.929 398.929 329.957 399.482C330.654 399.607 331.462 399.666 332.361 399.666Z" fill="#1D191F"/>
<path d="M232.396 364.919C233.363 364.919 234.251 364.883 235.03 364.823C239.592 364.473 255.446 359.269 269.434 354.679C277.829 351.923 285.762 349.32 289.711 348.28C300.398 345.469 307.073 337.245 307.352 336.898C307.73 336.422 307.654 335.731 307.179 335.352C306.706 334.972 306.016 335.046 305.632 335.522C305.569 335.601 299.113 343.531 289.152 346.153C285.136 347.208 277.175 349.823 268.746 352.591C255.566 356.916 239.16 362.3 234.863 362.633C228.431 363.129 217.539 361.765 213.862 355.983C210.158 350.162 209.7 336.128 210.688 332.661L210.821 332.188C211.999 328.013 214.759 318.234 223.737 315.241C234.985 311.491 254.621 306.107 256.714 306.464C257.149 306.572 257.628 307.642 257.915 308.281C258.356 309.26 258.81 310.271 259.865 310.294C260.978 310.284 261.543 309.136 261.798 308.636C262.193 307.846 262.59 306.899 262.993 305.936C263.605 304.472 264.88 301.428 265.585 301.259C266.285 301.793 267.218 302.978 268.039 304.024C269.799 306.266 270.979 307.732 272.312 307.274C273.473 306.875 273.473 305.398 273.473 304.843C273.473 303.423 273.212 302.076 272.98 300.888C272.384 297.799 272.363 296.735 274.41 295.967C279.283 294.141 280.351 286.064 280.351 283.104C280.351 282.496 279.859 282.004 279.251 282.004C278.642 282.004 278.15 282.496 278.15 283.104C278.15 285.028 277.384 292.501 273.636 293.907C269.677 295.393 270.286 298.533 270.82 301.304C271.019 302.338 271.226 303.404 271.264 304.489C270.785 303.953 270.211 303.224 269.771 302.665C268.777 301.399 267.838 300.206 266.979 299.557C266.205 298.98 265.483 299.006 265.01 299.134C263.255 299.611 262.193 302.148 260.965 305.084C260.619 305.907 260.281 306.719 259.945 307.422C259.939 307.407 259.931 307.393 259.926 307.378C259.416 306.247 258.719 304.695 257.231 304.324C254.427 303.638 230.461 310.683 223.043 313.154C212.959 316.516 209.869 327.469 208.708 331.593L208.576 332.057C207.448 336.004 207.856 350.642 212.007 357.167C215.941 363.35 225.925 364.919 232.396 364.919Z" fill="#1D191F"/>
<path d="M85.498 436.852C86.1651 436.852 86.5679 436.799 86.6591 436.784C87.2597 436.691 87.6721 436.13 87.579 435.53C87.4859 434.929 86.9101 434.513 86.3304 434.61C86.184 434.627 73.1121 436.197 61.4617 414.04C51.4724 395.031 51.0049 389.312 51.1455 387.894C51.5219 388.151 51.9913 388.588 52.4227 388.989C53.4281 389.924 54.6805 391.087 56.334 391.756C58.5273 392.638 82.115 412.708 86.9424 433.766C87.0754 434.359 87.6608 434.735 88.2595 434.593C88.8525 434.458 89.2232 433.867 89.0863 433.276C84.0233 411.191 59.7417 390.754 57.1551 389.715C55.8779 389.2 54.8382 388.231 53.9203 387.377C52.9624 386.488 52.1357 385.718 51.1379 385.522C50.4917 385.399 49.8626 385.642 49.4559 386.189C46.8445 389.696 54.6349 405.788 59.5136 415.064C70.0693 435.14 81.8033 436.852 85.498 436.852Z" fill="#1D191F"/>
<path d="M83.8145 434.251C84.1281 434.251 84.4379 434.118 84.6564 433.86C85.048 433.392 84.9872 432.699 84.5235 432.307C84.3734 432.182 69.492 419.554 63.0453 405.855C62.7868 405.308 62.1292 405.072 61.5818 405.329C61.0307 405.587 60.795 406.243 61.0554 406.792C67.7112 420.934 82.4802 433.465 83.1055 433.991C83.3127 434.168 83.5636 434.251 83.8145 434.251Z" fill="#1D191F"/>
<path d="M86.4216 407.718C86.4539 407.718 86.4845 407.716 86.5149 407.714C87.1212 407.665 87.5734 407.131 87.5202 406.528C86.0187 388.452 77.204 369.821 61.3154 351.142C60.6483 350.359 60.1883 349.821 60.0002 349.551C59.6961 349.11 59.3389 348.43 58.955 347.708C57.6683 345.287 56.6267 343.375 55.1196 343.802C53.8101 344.165 53.2171 345.737 53.6143 353.32C54.4126 368.58 64.7724 397.945 65.2095 399.188C65.4129 399.762 66.0479 400.064 66.6162 399.859C67.1901 399.654 67.4883 399.025 67.2869 398.453C67.1785 398.152 56.5944 368.145 55.8114 353.204C55.6175 349.492 55.703 347.598 55.8246 346.642C56.2332 347.282 56.7065 348.17 57.0125 348.744C57.4401 349.551 57.8487 350.314 58.1908 350.806C58.398 351.106 58.9018 351.705 59.6392 352.573C75.2237 370.891 83.8655 389.108 85.3271 406.711C85.3765 407.283 85.8572 407.718 86.4216 407.718Z" fill="#1D191F"/>
<path d="M85.8649 418.547C85.9656 418.547 86.0719 418.532 86.1746 418.501C86.758 418.332 87.0927 417.72 86.9198 417.137C80.5092 395.212 65.5803 367.656 65.4302 367.378C65.1375 366.848 64.4685 366.652 63.9363 366.938C63.4023 367.228 63.2045 367.895 63.4953 368.431C63.6454 368.705 78.4621 396.058 84.8081 417.756C84.9506 418.235 85.3878 418.547 85.8649 418.547Z" fill="#1D191F"/>
<path d="M92.4656 434.625C92.7412 434.625 93.0167 434.522 93.2296 434.317C93.9879 433.585 111.785 416.167 109.711 394.47C107.904 375.554 103.291 357.59 99.6421 355.243C98.9351 354.788 98.3193 354.851 97.9297 354.986C95.746 355.739 95.2917 358.958 94.7158 363.039C94.2863 366.097 93.7959 369.561 92.5491 372.486C89.4816 379.695 82.1038 412.681 86.0626 430.55C86.1938 431.143 86.764 431.518 87.376 431.387C87.969 431.255 88.3433 430.666 88.2121 430.073C84.3483 412.643 91.5724 380.4 94.5734 373.351C95.9342 370.156 96.4455 366.538 96.8959 363.347C97.2532 360.811 97.696 357.687 98.5227 357.13C100.562 358.428 105.502 373.56 107.52 394.681C109.493 415.331 91.8822 432.559 91.7035 432.73C91.2645 433.152 91.2512 433.85 91.6731 434.287C91.8898 434.513 92.1767 434.625 92.4656 434.625Z" fill="#1D191F"/>
<path d="M91.0251 432.019C91.4451 432.019 91.8462 431.776 92.0287 431.367C101.444 410.355 103.067 380.841 103.082 380.545C103.114 379.938 102.647 379.42 102.043 379.391C102.022 379.389 102.003 379.389 101.984 379.389C101.4 379.389 100.916 379.845 100.885 380.434C100.87 380.725 99.2641 409.838 90.0198 430.47C89.7708 431.025 90.0198 431.677 90.5747 431.924C90.723 431.989 90.8749 432.019 91.0251 432.019Z" fill="#1D191F"/>
<path d="M92.3194 377.626C92.899 377.626 93.3837 377.175 93.4179 376.59C95.1075 347.597 83.0884 322.572 77.3126 310.544C75.9271 307.663 74.8362 305.388 74.4713 304.164C73.196 299.889 71.5636 299.175 70.4479 299.319C68.7906 299.538 66.5423 301.535 66.1431 316.27C65.6452 334.854 71.0445 367.355 71.0978 367.682C71.1985 368.283 71.761 368.687 72.3654 368.585C72.9622 368.484 73.3691 367.916 73.2684 367.317C73.2151 366.994 67.8479 334.698 68.3439 316.331C68.7126 302.62 70.7518 301.503 70.7727 301.493C70.8697 301.569 71.6224 302.32 72.3598 304.791C72.7761 306.184 73.8461 308.413 75.3285 311.498C81.0226 323.355 92.8762 348.036 91.2227 376.461C91.1866 377.067 91.6505 377.59 92.2567 377.624C92.2776 377.626 92.2985 377.626 92.3194 377.626Z" fill="#1D191F"/>
<path d="M86.9447 403.016C87.4978 403.016 87.975 402.6 88.0377 402.036C88.4007 398.738 87.2167 393.713 85.0671 384.592C83.9838 380.001 82.6361 374.284 81.1157 367.217C76.676 346.623 74.1351 318.092 74.1104 317.807C74.0591 317.203 73.5135 316.763 72.9168 316.807C72.3105 316.86 71.8639 317.394 71.9171 318.001C71.9437 318.286 74.4962 346.954 78.9625 367.683C80.4886 374.768 81.838 380.497 82.9251 385.098C85.0195 393.981 86.1732 398.873 85.8501 401.796C85.7836 402.401 86.2207 402.944 86.8232 403.011C86.8631 403.014 86.9048 403.016 86.9447 403.016Z" fill="#1D191F"/>
<path d="M69.8985 442.361C70.3717 442.361 70.809 442.053 70.9515 441.578C71.1283 440.998 70.7993 440.382 70.2159 440.205C69.4766 439.981 68.7241 439.749 67.9733 439.514C68.0836 439.453 68.1843 439.381 68.2812 439.293C68.5264 439.069 68.9103 438.562 68.726 437.691C68.5169 436.726 67.7833 435.619 67.0725 434.546C66.9984 434.435 66.9203 434.316 66.8386 434.19C70.959 435.735 76.6702 437.436 80.6158 435.732C81.1746 435.49 81.4311 434.842 81.1898 434.285C80.9465 433.726 80.3003 433.466 79.7435 433.711C75.9918 435.334 69.3492 432.793 67.1674 431.961C66.3976 431.664 64.9627 431.111 64.1987 432.071C63.4271 433.033 64.1873 434.177 65.2364 435.762C65.5899 436.292 65.9967 436.91 66.2723 437.429C65.647 437.282 64.7937 437.018 64.1038 436.803C62.2793 436.233 60.2132 435.589 58.478 435.589C58.4723 435.589 58.4647 435.589 58.4571 435.589C57.2237 435.591 56.8777 436.178 56.8055 436.669C56.6554 437.697 56.5548 438.373 69.5793 442.313C69.6857 442.345 69.794 442.361 69.8985 442.361Z" fill="#1D191F"/>
<path d="M96.1661 433.97C96.3352 433.97 96.51 433.93 96.6735 433.844C96.8578 433.747 101.252 431.425 104.776 427.624C106.564 425.693 107.896 425.218 108.483 425.389C108.723 425.457 108.871 425.664 108.93 425.997C109.082 426.852 109.614 427.173 109.917 427.284C110.962 427.679 111.994 426.847 113.185 425.883C113.279 425.811 113.379 425.729 113.486 425.643C113.472 425.777 113.463 425.91 113.452 426.033C113.258 428.249 112.963 431.6 115.346 432.693C115.892 432.945 116.553 432.708 116.806 432.153C117.061 431.6 116.819 430.946 116.266 430.693C115.293 430.247 115.514 427.728 115.645 426.223C115.789 424.581 115.882 423.496 114.976 422.979C113.986 422.418 112.973 423.228 111.806 424.167C111.547 424.376 111.188 424.663 110.882 424.883C110.546 424.093 109.915 423.511 109.107 423.275C108.128 422.988 106.074 422.981 103.158 426.126C99.9025 429.644 95.6947 431.87 95.6529 431.893C95.1131 432.176 94.904 432.841 95.1891 433.379C95.3849 433.755 95.767 433.97 96.1661 433.97Z" fill="#1D191F"/>
<path d="M477.377 432.626C479.17 432.626 481.137 432.513 483.237 432.23C491.873 431.063 504.449 426.607 515.33 412.006C533.356 387.809 534.054 368.113 534.352 359.703C534.398 358.436 534.43 357.43 534.519 356.714C534.989 352.932 534.495 348.433 532.302 347.488C531.722 347.237 530.564 347.044 529.327 348.543C528.394 349.674 528.175 351.002 527.964 352.287C527.563 354.728 527.109 357.493 521.719 360.619C510.478 367.144 472.989 391.213 462.62 426.939C462.45 427.524 462.787 428.135 463.37 428.304C463.959 428.475 464.566 428.136 464.735 427.553C474.872 392.613 511.76 368.946 522.823 362.524C529.114 358.873 529.703 355.273 530.135 352.643C530.321 351.51 530.467 350.615 531.022 349.942C531.283 349.626 531.461 349.528 531.509 349.516C531.883 349.735 532.857 352.217 532.332 356.438C532.237 357.2 532.197 358.272 532.149 359.622C531.859 367.824 531.178 387.041 513.562 410.686C503.172 424.63 491.232 428.901 483.045 430.03C474.139 431.253 467.603 429.148 467.54 429.127C466.972 428.933 466.341 429.246 466.149 429.826C465.957 430.404 466.27 431.025 466.848 431.217C467.071 431.295 471.17 432.626 477.377 432.626Z" fill="#1D191F"/>
<path d="M466.953 428.757C467.016 428.757 467.078 428.753 467.139 428.741C467.846 428.622 484.653 425.611 502.759 409.457C520.885 393.283 526.303 371.293 526.357 371.075C526.497 370.484 526.132 369.891 525.541 369.748C524.946 369.619 524.355 369.973 524.215 370.564C524.163 370.776 518.887 392.118 501.292 407.814C483.689 423.521 466.936 426.543 466.767 426.571C466.166 426.674 465.765 427.244 465.868 427.841C465.963 428.378 466.428 428.757 466.953 428.757Z" fill="#1D191F"/>
<path d="M456.192 428.376C456.713 428.376 457.173 428.004 457.271 427.476C457.382 426.877 456.986 426.303 456.389 426.193C456.18 426.155 435.558 421.846 434.702 383.485C433.758 341.154 442.369 320.883 447.605 315.58C448.713 314.459 449.669 313.914 450.15 314.104C452.185 314.917 452.358 324.236 452.461 329.804C452.6 337.26 456.186 344.431 461.148 354.356C462.84 357.74 464.758 361.576 466.738 365.829C474.171 381.811 470.182 409.38 470.142 409.658C470.053 410.258 470.467 410.819 471.069 410.907C471.659 411.003 472.231 410.583 472.318 409.981C472.493 408.827 476.45 381.488 468.735 364.902C466.746 360.622 464.818 356.771 463.119 353.373C458.286 343.707 454.795 336.722 454.664 329.764C454.481 319.891 454.124 313.323 450.969 312.063C448.823 311.202 446.729 313.34 446.041 314.035C438.697 321.474 431.661 345.851 432.501 383.537C433.402 423.821 455.072 428.196 455.994 428.365C456.061 428.371 456.125 428.376 456.192 428.376Z" fill="#1D191F"/>
<path d="M481.87 438.177C481.884 438.177 481.897 438.177 481.908 438.177C488.395 437.953 488.617 436.801 488.739 436.183C488.891 435.393 488.395 434.737 487.262 434.235C485.175 433.306 483.68 433.393 482.247 433.467C481.076 433.532 479.966 433.593 478.398 433.106C475.486 432.205 475.034 431.109 475.03 431.099C474.897 430.506 474.296 430.176 473.724 430.303C473.131 430.436 472.768 431.061 472.902 431.654C472.985 432.025 473.608 433.929 477.748 435.208C479.696 435.811 481.121 435.731 482.366 435.666C483.227 435.617 483.968 435.579 484.812 435.742C483.928 435.854 482.868 435.94 481.832 435.974C481.226 435.995 480.751 436.505 480.77 437.113C480.793 437.708 481.279 438.177 481.87 438.177Z" fill="#1D191F"/>
<path d="M448.551 431.835C448.848 431.835 449.144 431.715 449.363 431.479C449.773 431.033 449.745 430.335 449.298 429.923C448.582 429.263 447.89 428.476 447.424 427.828C447.462 427.872 447.496 427.912 447.533 427.952C448.317 428.872 449.5 430.265 451.003 429.482C452.875 428.511 453.443 426.355 453.5 426.114C453.643 425.523 453.28 424.93 452.687 424.786C452.09 424.649 451.503 425.008 451.358 425.599C451.261 425.987 450.821 427.097 449.984 427.532C449.981 427.433 449.494 426.863 449.203 426.525C448.399 425.588 447.057 424.01 445.461 425.12C444.976 425.453 444.687 425.962 444.645 426.551C444.524 428.321 446.814 430.634 447.806 431.546C448.017 431.738 448.285 431.835 448.551 431.835Z" fill="#1D191F"/>
<path d="M456.323 423.554C456.475 423.554 456.629 423.522 456.778 423.457C457.331 423.206 457.578 422.554 457.329 421.999C457.158 421.621 440.258 383.49 445.642 337.778C445.716 337.174 445.283 336.628 444.679 336.558C444.09 336.461 443.529 336.919 443.458 337.522C437.996 383.863 455.147 422.522 455.322 422.908C455.504 423.313 455.903 423.554 456.323 423.554Z" fill="#1D191F"/>
<path d="M471.919 405.428C472.316 405.428 472.704 405.212 472.897 404.832C473.044 404.549 487.427 375.976 482.786 333.143C479.855 306.09 473.912 289.635 469.978 278.749C467.777 272.648 466.322 268.619 466.721 266.116C466.928 264.822 468.652 253.428 465.501 252.016C464.86 251.725 463.845 251.694 462.667 253.143C459.352 257.21 449.363 287.997 449.946 313.409C449.962 314.016 450.435 314.494 451.074 314.485C451.68 314.47 452.161 313.966 452.149 313.358C451.562 287.748 461.821 257.668 464.375 254.53C464.495 254.384 464.594 254.279 464.672 254.207C465.24 255.42 465.461 260.057 464.547 265.766C464.058 268.832 465.592 273.074 467.908 279.492C471.807 290.281 477.696 306.588 480.598 333.376C485.166 375.516 471.084 403.545 470.942 403.822C470.664 404.364 470.877 405.026 471.417 405.303C471.577 405.39 471.75 405.428 471.919 405.428Z" fill="#1D191F"/>
<path d="M471.56 380.717C472.153 380.717 472.643 380.246 472.66 379.649C472.671 379.266 472.898 369.995 469.313 349.98C465.755 330.127 461.709 282.51 461.669 282.031C461.618 281.425 461.074 280.999 460.481 281.028C459.875 281.079 459.427 281.611 459.478 282.216C459.518 282.695 463.574 330.414 467.149 350.366C470.687 370.114 470.463 379.492 470.461 379.583C470.444 380.191 470.921 380.697 471.529 380.716C471.539 380.718 471.55 380.717 471.56 380.717Z" fill="#1D191F"/>
<path d="M498.732 379.256C499.04 379.256 499.344 379.129 499.562 378.878C499.722 378.697 515.489 360.381 519.362 335.811C523.234 311.262 524.838 303.051 527.331 299.507C528.781 297.445 528.84 295.21 527.476 293.942C526.723 293.237 523.728 291.376 516.928 296.929C507.968 304.25 486.87 331.134 481.557 348.678C481.38 349.257 481.708 349.873 482.292 350.05C482.868 350.229 483.487 349.9 483.664 349.315C488.777 332.443 509.765 305.626 518.321 298.636C522.607 295.137 525.25 294.879 525.978 295.553C526.412 295.958 526.398 297.011 525.532 298.241C522.763 302.177 521.183 310.138 517.188 335.469C513.41 359.422 498.057 377.256 497.903 377.435C497.504 377.893 497.55 378.587 498.011 378.988C498.219 379.167 498.473 379.256 498.732 379.256Z" fill="#1D191F"/>
<path d="M474.483 399.37C474.798 399.37 475.113 399.235 475.33 398.972C475.419 398.862 484.62 387.75 496.808 370.027C509.095 352.16 515.656 320.086 515.93 318.729C516.05 318.134 515.664 317.553 515.069 317.433C514.472 317.313 513.892 317.699 513.773 318.294C513.706 318.621 507.026 351.287 494.995 368.78C482.868 386.413 473.728 397.456 473.637 397.566C473.247 398.032 473.312 398.727 473.781 399.117C473.985 399.284 474.232 399.37 474.483 399.37Z" fill="#1D191F"/>
<path d="M506.629 310.565C507.102 310.565 507.539 310.257 507.684 309.78C507.754 309.546 514.685 286.251 516.84 271.086C517.361 267.414 517.857 264.398 518.26 261.945C519.32 255.485 519.718 253.065 518.45 251.836C517.591 251.005 516.356 251.243 515.951 251.324C512.376 252.026 482.302 274.994 475.041 301.501C474.88 302.086 475.226 302.692 475.813 302.854C476.406 303.016 477.007 302.67 477.166 302.082C484.052 276.942 513.087 254.131 516.375 253.483C516.818 253.398 516.96 253.449 516.962 253.447C517.334 254 516.757 257.516 516.088 261.589C515.683 264.056 515.187 267.086 514.662 270.778C512.532 285.781 505.646 308.921 505.578 309.15C505.403 309.734 505.735 310.348 506.317 310.523C506.42 310.549 506.524 310.565 506.629 310.565Z" fill="#1D191F"/>
<path d="M482.412 343.44C482.932 343.44 483.394 343.068 483.493 342.537C483.512 342.427 485.61 331.364 494.153 318.932C502.977 306.09 508.32 277.421 508.542 276.208C508.652 275.607 508.257 275.035 507.658 274.925C507.054 274.828 506.488 275.214 506.378 275.809C506.324 276.103 500.898 305.231 492.338 317.688C483.512 330.535 481.41 341.676 481.324 342.144C481.216 342.741 481.613 343.317 482.21 343.425C482.278 343.433 482.345 343.44 482.412 343.44Z" fill="#1D191F"/>
<path d="M469.421 281.547C469.435 281.547 469.45 281.547 469.461 281.547C470.07 281.524 470.543 281.011 470.522 280.404C470.128 269.902 471.427 262.963 475.15 255.653L475.574 254.823C482.923 240.396 491.523 223.065 492.789 217.07C493.606 213.206 494.87 211.724 495.476 211.699C495.476 211.699 495.478 211.697 495.48 211.697C495.606 211.697 497.185 211.83 499.116 218.209C502.373 228.962 494.693 269.047 494.613 269.451C494.499 270.048 494.889 270.626 495.486 270.742C496.073 270.846 496.66 270.468 496.776 269.87C497.099 268.199 504.635 228.842 501.224 217.572C499.58 212.142 497.706 209.497 495.499 209.497C495.461 209.497 495.421 209.498 495.381 209.498C492.534 209.622 491.185 214.01 490.634 216.614C489.265 223.093 477.892 245.419 473.612 253.823L473.188 254.656C469.279 262.328 467.913 269.571 468.319 280.486C468.344 281.081 468.832 281.547 469.421 281.547Z" fill="#1D191F"/>
<path d="M477.294 299.159C477.864 299.159 478.345 298.72 478.39 298.142C478.4 298.002 479.462 284.05 480.508 275.159C481.526 266.489 491.957 249.895 492.063 249.728C492.388 249.215 492.232 248.534 491.719 248.209C491.215 247.888 490.531 248.034 490.2 248.553C489.759 249.251 479.398 265.742 478.322 274.9C477.271 283.839 476.203 297.835 476.191 297.973C476.146 298.58 476.6 299.108 477.206 299.155C477.237 299.159 477.267 299.159 477.294 299.159Z" fill="#1D191F"/>
</svg>
