<svg width="37" height="37" viewBox="0 0 37 37" fill="none" xmlns="http://www.w3.org/2000/svg">
<g clip-path="url(#clip0_301_5589)">
<path d="M14.6678 36.98C14.5277 36.98 14.3859 36.952 14.2505 36.8936C13.7765 36.6892 13.5202 36.1717 13.6446 35.6708L17.2112 21.3146H7.60159C7.25375 21.3146 6.92828 21.1431 6.73161 20.8562C6.53495 20.5692 6.49241 20.2038 6.61792 19.8794L13.6676 1.6542C13.8247 1.24787 14.2155 0.97998 14.6512 0.97998H24.3515C24.7079 0.97998 25.0402 1.15998 25.235 1.45853C25.4296 1.75707 25.4604 2.13373 25.3167 2.45991L21.1423 11.9352H29.3984C29.7841 11.9352 30.139 12.1458 30.324 12.4843C30.5089 12.8228 30.4943 13.2353 30.2858 13.5598L15.5557 36.4951C15.3565 36.8053 15.0177 36.98 14.6678 36.98ZM9.14037 19.2053H18.5599C18.8844 19.2053 19.1908 19.3547 19.3907 19.6103C19.5906 19.8659 19.6617 20.1994 19.5834 20.5143L17.2312 29.9829L27.4675 14.0445H19.5251C19.1687 14.0445 18.8364 13.8645 18.6417 13.5659C18.447 13.2674 18.4162 12.8907 18.56 12.5646L22.7344 3.08935H15.374L9.14037 19.2053Z" fill="#040505"/>
</g>
<defs>
<clipPath id="clip0_301_5589">
<rect width="36" height="36" fill="white" transform="translate(0.5 0.97998)"/>
</clipPath>
</defs>
</svg>
