<svg width="37" height="37" viewBox="0 0 37 37" fill="none" xmlns="http://www.w3.org/2000/svg">
<g clip-path="url(#clip0_301_5567)">
<path d="M35.375 23.4797C34.754 23.4797 34.25 23.9837 34.25 24.6047V32.4797H2.75V18.9797H15.125C15.746 18.9797 16.25 18.4757 16.25 17.8547C16.25 17.2337 15.746 16.7297 15.125 16.7297H2.75V12.2297H15.125C15.746 12.2297 16.25 11.7257 16.25 11.1047C16.25 10.4837 15.746 9.97974 15.125 9.97974H2.75C1.508 9.97974 0.5 10.9877 0.5 12.2297V32.4797C0.5 33.7217 1.508 34.7297 2.75 34.7297H34.25C35.492 34.7297 36.5 33.7217 36.5 32.4797V24.6047C36.5 23.9837 35.996 23.4797 35.375 23.4797Z" fill="black"/>
<path d="M10.625 23.4797H6.125C5.504 23.4797 5 23.9837 5 24.6047C5 25.2257 5.504 25.7297 6.125 25.7297H10.625C11.246 25.7297 11.75 25.2257 11.75 24.6047C11.75 23.9837 11.246 23.4797 10.625 23.4797Z" fill="black"/>
<path d="M35.8182 6.69466L27.9432 3.31966C27.6575 3.20041 27.3403 3.20041 27.0545 3.31966L19.1795 6.69466C18.7678 6.87241 18.5 7.27966 18.5 7.72966V12.2297C18.5 18.4194 20.7883 22.0374 26.9398 25.5812C27.113 25.6802 27.3065 25.7297 27.5 25.7297C27.6935 25.7297 27.887 25.6802 28.0602 25.5812C34.2117 22.0464 36.5 18.4284 36.5 12.2297V7.72966C36.5 7.27966 36.2322 6.87241 35.8182 6.69466ZM34.25 12.2297C34.25 17.4249 32.531 20.2847 27.5 23.2997C22.469 20.2779 20.75 17.4182 20.75 12.2297V8.47216L27.5 5.57866L34.25 8.47216V12.2297Z" fill="black"/>
<path d="M31.5792 10.225C31.0954 9.84253 30.3889 9.91678 29.9974 10.4005L26.4604 14.824L25.0609 12.7315C24.7122 12.214 24.0124 12.0768 23.5017 12.4188C22.9864 12.763 22.8447 13.4628 23.1889 13.978L25.4389 17.353C25.6392 17.6523 25.9677 17.8368 26.3277 17.8548C26.3434 17.8548 26.3614 17.8548 26.3749 17.8548C26.7147 17.8548 27.0387 17.7018 27.2547 17.4318L31.7547 11.8068C32.1417 11.3208 32.0652 10.6143 31.5792 10.225Z" fill="black"/>
</g>
<defs>
<clipPath id="clip0_301_5567">
<rect width="36" height="36" fill="white" transform="translate(0.5 0.97998)"/>
</clipPath>
</defs>
</svg>
