<svg width="37" height="37" viewBox="0 0 37 37" fill="none" xmlns="http://www.w3.org/2000/svg">
<g clip-path="url(#clip0_301_5600)">
<path d="M12.106 19.2231C11.5146 19.2231 11.0513 18.7798 11.0513 18.2139H8.94189C8.94189 19.5864 9.81792 20.7331 11.0468 21.1566V23.417H13.1562V21.1525C14.3861 20.7184 15.27 19.545 15.27 18.1684C15.27 16.4237 13.8506 15.0043 12.106 15.0043C11.5244 15.0043 11.0513 14.5312 11.0513 13.9496C11.0513 13.3681 11.5244 12.8949 12.106 12.8949C12.6777 12.8949 13.1606 13.3988 13.1606 13.9951H15.27C15.27 12.5987 14.3861 11.4084 13.1562 10.968V8.72168H11.0468V10.9684C9.82157 11.4051 8.94189 12.5763 8.94189 13.9496C8.94189 15.6942 10.3613 17.1136 12.106 17.1136C12.6875 17.1136 13.1606 17.5867 13.1606 18.1683C13.1606 18.7499 12.6875 19.2231 12.106 19.2231Z" fill="black"/>
<path d="M32.211 14.9796H23.7031V5.05054L20.5391 1.88647L18.4297 3.99585L16.3203 1.88647L14.2109 3.99585L12.1016 1.88647L9.99219 3.99585L7.88281 1.88647L5.77344 3.99585L3.66406 1.88647L0.5 5.05054V30.7999C0.5 33.7077 2.86566 36.0733 5.77344 36.0733H25.8125C28.1254 36.0733 30.1016 34.2041 30.1016 31.8546V29.7452H36.5V19.1983C36.5 16.8483 34.5234 14.9796 32.211 14.9796ZM5.77344 33.964C4.02877 33.964 2.60938 32.5446 2.60938 30.8V5.92431L3.66406 4.86962L5.77344 6.979L7.88281 4.86962L9.99219 6.979L12.1016 4.86962L14.2109 6.979L16.3203 4.86962L18.4297 6.979L20.5391 4.86962L21.5938 5.92431V31.8546C21.5938 32.6228 21.8011 33.343 22.1613 33.964H5.77344ZM27.9922 19.1984V31.8546C27.9922 32.9981 26.994 33.964 25.8125 33.964C24.6494 33.964 23.7031 33.0178 23.7031 31.8546V17.0883H28.5597C28.1995 17.71 27.9922 18.4302 27.9922 19.1984ZM34.3906 27.6359H30.1016V19.1984C30.1016 18.0353 31.0478 17.089 32.2109 17.089C33.3925 17.089 34.3906 18.055 34.3906 19.1984V27.6359Z" fill="black"/>
<path d="M8.9375 29.7454H19.4844V31.8547H8.9375V29.7454Z" fill="black"/>
<path d="M4.71875 29.7454H6.82812V31.8547H4.71875V29.7454Z" fill="black"/>
<path d="M8.9375 25.5266H19.4844V27.636H8.9375V25.5266Z" fill="black"/>
<path d="M4.71875 25.5266H6.82812V27.636H4.71875V25.5266Z" fill="black"/>
</g>
<defs>
<clipPath id="clip0_301_5600">
<rect width="36" height="36" fill="white" transform="translate(0.5 0.97998)"/>
</clipPath>
</defs>
</svg>
