<svg width="37" height="37" viewBox="0 0 37 37" fill="none" xmlns="http://www.w3.org/2000/svg">
<path d="M23.607 23.2691C22.1345 24.3758 20.3423 24.9742 18.5002 24.9742C16.6582 24.9742 14.866 24.3758 13.3934 23.2691C13.073 23.0458 12.678 22.9562 12.2926 23.0195C11.9071 23.0828 11.5616 23.2939 11.3293 23.6079C11.097 23.9219 10.9964 24.3142 11.0487 24.7012C11.101 25.0883 11.3023 25.4397 11.6096 25.6808C13.5991 27.1706 16.0176 27.9758 18.5031 27.9758C20.9885 27.9758 23.407 27.1706 25.3965 25.6808C25.7163 25.4435 25.9288 25.0889 25.9871 24.6949C26.0455 24.301 25.9449 23.9 25.7076 23.5802C25.5901 23.4219 25.4426 23.2882 25.2734 23.1869C25.1043 23.0855 24.9168 23.0185 24.7218 22.9896C24.3278 22.9313 23.9269 23.0318 23.607 23.2691Z" fill="black"/>
<path d="M33.7027 12.5569C32.027 8.60137 28.8784 5.45273 24.9228 3.77701C22.8897 2.92081 20.7058 2.47974 18.4998 2.47974C16.2937 2.47974 14.1099 2.92081 12.0767 3.77701C8.12115 5.45273 4.97251 8.60137 3.29679 12.5569C2.44058 14.5901 1.99951 16.7739 1.99951 18.98C1.99951 21.1861 2.44058 23.3699 3.29679 25.403C4.97251 29.3586 8.12115 32.5072 12.0767 34.183C14.1099 35.0392 16.2937 35.4802 18.4998 35.4802C20.7058 35.4802 22.8897 35.0392 24.9228 34.183C28.8784 32.5072 32.027 29.3586 33.7027 25.403C34.5589 23.3699 35 21.1861 35 18.98C35 16.7739 34.5589 14.5901 33.7027 12.5569ZM30.9394 24.2344C29.6363 27.3318 27.2287 29.8344 24.1841 31.2564C21.1395 32.6783 17.6751 32.9182 14.4635 31.9294C11.252 30.9406 8.52249 28.7937 6.80493 25.9055C5.08738 23.0173 4.50435 19.5939 5.16904 16.2999C5.83373 13.006 7.69871 10.0766 10.4019 8.08049C13.1051 6.08436 16.4536 5.16393 19.7972 5.49792C23.1409 5.83192 26.2412 7.39649 28.4961 9.88787C30.751 12.3792 31.9997 15.6197 31.9998 18.98C32.0023 20.7848 31.6417 22.5718 30.9394 24.2344Z" fill="black"/>
<path d="M14 18.2297H14.0077C14.6045 18.2297 15.1768 17.9927 15.5987 17.5707C16.0207 17.1488 16.2577 16.5765 16.2577 15.9797C16.2577 15.383 16.0207 14.8107 15.5987 14.3887C15.1768 13.9668 14.6045 13.7297 14.0077 13.7297H14C13.4033 13.7297 12.831 13.9668 12.409 14.3887C11.9871 14.8107 11.75 15.383 11.75 15.9797C11.75 16.5765 11.9871 17.1488 12.409 17.5707C12.831 17.9927 13.4033 18.2297 14 18.2297Z" fill="black"/>
<path d="M22.9922 18.2297C24.2348 18.2297 25.2422 17.2224 25.2422 15.9797C25.2422 14.7371 24.2348 13.7297 22.9922 13.7297C21.7495 13.7297 20.7422 14.7371 20.7422 15.9797C20.7422 17.2224 21.7495 18.2297 22.9922 18.2297Z" fill="black"/>
</svg>
