<svg width="50" height="50" viewBox="0 0 50 50" fill="none" xmlns="http://www.w3.org/2000/svg">
<path d="M3.125 10.9375C3.125 11.3519 3.28962 11.7493 3.58265 12.0424C3.87567 12.3354 4.2731 12.5 4.6875 12.5H45.3125C45.7269 12.5 46.1243 12.3354 46.4174 12.0424C46.7104 11.7493 46.875 11.3519 46.875 10.9375C46.875 10.5231 46.7104 10.1257 46.4174 9.83265C46.1243 9.53962 45.7269 9.375 45.3125 9.375H4.6875C4.2731 9.375 3.87567 9.53962 3.58265 9.83265C3.28962 10.1257 3.125 10.5231 3.125 10.9375ZM10.9375 23.4375H45.3125C45.7269 23.4375 46.1243 23.6021 46.4174 23.8951C46.7104 24.1882 46.875 24.5856 46.875 25C46.875 25.4144 46.7104 25.8118 46.4174 26.1049C46.1243 26.3979 45.7269 26.5625 45.3125 26.5625H10.9375C10.5231 26.5625 10.1257 26.3979 9.83265 26.1049C9.53962 25.8118 9.375 25.4144 9.375 25C9.375 24.5856 9.53962 24.1882 9.83265 23.8951C10.1257 23.6021 10.5231 23.4375 10.9375 23.4375ZM25 37.5H45.3125C45.7269 37.5 46.1243 37.6646 46.4174 37.9576C46.7104 38.2507 46.875 38.6481 46.875 39.0625C46.875 39.4769 46.7104 39.8743 46.4174 40.1674C46.1243 40.4604 45.7269 40.625 45.3125 40.625H25C24.5856 40.625 24.1882 40.4604 23.8951 40.1674C23.6021 39.8743 23.4375 39.4769 23.4375 39.0625C23.4375 38.6481 23.6021 38.2507 23.8951 37.9576C24.1882 37.6646 24.5856 37.5 25 37.5Z" fill="#1D191F"/>
</svg>
