<svg width="104" height="53" viewBox="0 0 104 53" fill="none" xmlns="http://www.w3.org/2000/svg">
<path fill-rule="evenodd" clip-rule="evenodd" d="M0 34.6134V28.334C0 23.5613 2.31096 18.9521 7.60452 15.9063V34.1176C7.60452 34.7103 8.09151 35.1913 8.69151 35.1913C9.29151 35.1913 9.77851 34.7103 9.77851 34.1176V14.6639L17 10.5C17 11.5108 17 41.254 17 42.5C16.6514 42.5 8.28688 42.5 7.98295 42.5C3.575 42.5 0 38.9687 0 34.6134Z" fill="#1D191F"/>
<path d="M35 38.82C33.016 38.82 31.5333 38.276 30.552 37.188C29.5707 36.1 29.08 34.436 29.08 32.196V22.34H33.08V32.164C33.08 33.3587 33.3253 34.244 33.816 34.82C34.3067 35.3747 35.0533 35.652 36.056 35.652C37.1867 35.652 38.104 35.268 38.808 34.5C39.5333 33.732 39.896 32.7187 39.896 31.46V22.34H43.896V38.5H39.992V35.204H40.44C39.9707 36.356 39.256 37.252 38.296 37.892C37.3573 38.5107 36.2587 38.82 35 38.82ZM48.2385 45.412V26.372C48.2385 25.7107 48.2172 25.0387 48.1745 24.356C48.1318 23.6733 48.0678 23.0013 47.9825 22.34H51.8545L52.2065 25.732H51.8545C52.1745 24.6013 52.8465 23.7053 53.8705 23.044C54.9158 22.3613 56.1212 22.02 57.4865 22.02C58.9158 22.02 60.1638 22.3613 61.2305 23.044C62.2972 23.7053 63.1292 24.6653 63.7265 25.924C64.3238 27.1613 64.6225 28.6547 64.6225 30.404C64.6225 32.1533 64.3238 33.6573 63.7265 34.916C63.1292 36.1747 62.2972 37.1453 61.2305 37.828C60.1638 38.4893 58.9158 38.82 57.4865 38.82C56.1425 38.82 54.9585 38.4893 53.9345 37.828C52.9105 37.1667 52.2278 36.2813 51.8865 35.172H52.2385V45.412H48.2385ZM56.3665 35.748C57.6465 35.748 58.6705 35.3107 59.4385 34.436C60.2065 33.54 60.5905 32.196 60.5905 30.404C60.5905 28.612 60.2065 27.2787 59.4385 26.404C58.6705 25.5293 57.6465 25.092 56.3665 25.092C55.1078 25.092 54.0945 25.5293 53.3265 26.404C52.5585 27.2787 52.1745 28.612 52.1745 30.404C52.1745 32.196 52.5585 33.54 53.3265 34.436C54.0945 35.3107 55.1078 35.748 56.3665 35.748ZM74.3223 38.82C72.9143 38.82 71.6769 38.4893 70.6102 37.828C69.5436 37.1453 68.7116 36.1747 68.1143 34.916C67.5169 33.6573 67.2183 32.1533 67.2183 30.404C67.2183 28.6547 67.5169 27.1613 68.1143 25.924C68.7116 24.6653 69.5436 23.7053 70.6102 23.044C71.6769 22.3613 72.9143 22.02 74.3223 22.02C75.6876 22.02 76.8823 22.3613 77.9063 23.044C78.9516 23.7053 79.6449 24.6013 79.9863 25.732H79.6343L79.9863 22.34H83.8263C83.7623 23.0013 83.6983 23.6733 83.6343 24.356C83.5916 25.0387 83.5703 25.7107 83.5703 26.372V38.5H79.6023L79.5703 35.172H79.9543C79.6129 36.2813 78.9196 37.1667 77.8743 37.828C76.8289 38.4893 75.6449 38.82 74.3223 38.82ZM75.4423 35.748C76.7009 35.748 77.7143 35.3107 78.4823 34.436C79.2503 33.54 79.6343 32.196 79.6343 30.404C79.6343 28.612 79.2503 27.2787 78.4823 26.404C77.7143 25.5293 76.7009 25.092 75.4423 25.092C74.1836 25.092 73.1703 25.5293 72.4023 26.404C71.6343 27.2787 71.2503 28.612 71.2503 30.404C71.2503 32.196 71.6236 33.54 72.3703 34.436C73.1383 35.3107 74.1623 35.748 75.4423 35.748ZM87.4498 45.764L86.5218 42.596C87.5244 42.3827 88.3671 42.1373 89.0498 41.86C89.7324 41.5827 90.2978 41.22 90.7458 40.772C91.1938 40.324 91.5671 39.748 91.8658 39.044L92.6658 37.156L92.5698 38.724L85.5297 22.34H89.7858L94.8418 34.948H93.9138L99.0018 22.34H103.034L95.6738 39.396C95.1831 40.548 94.6498 41.4973 94.0738 42.244C93.4978 43.012 92.8791 43.62 92.2178 44.068C91.5564 44.5373 90.8311 44.9 90.0418 45.156C89.2524 45.412 88.3884 45.6147 87.4498 45.764Z" fill="#1D191F"/>
</svg>
