<svg width="553" height="498" viewBox="0 0 553 498" fill="none" xmlns="http://www.w3.org/2000/svg">
<path d="M512.502 242.449C506.932 289.627 485.391 344.479 442.369 369.678C377.366 407.758 382.808 466.33 255.93 491.793C236.149 495.764 217.376 497.436 199.674 497.106C190.159 496.93 180.946 496.163 172.063 494.856C91.4253 483.076 37.1597 427.024 17.2515 359.364C-8.94879 270.379 43.3658 212.122 78.0404 177.022C112.715 141.922 138.112 32.5553 262.644 6.54326C281.632 2.58555 301.05 0.566033 320.462 1.05058C364.769 2.13819 413.098 16.6873 446.539 47.0533C449.05 49.3355 451.491 51.7013 453.872 54.1391C500.35 101.846 520.1 178.132 512.502 242.449Z" fill="#FEF989"/>
<path opacity="0.7" d="M512.502 242.449C506.932 289.627 485.391 344.479 442.369 369.678C377.366 407.758 382.808 466.33 255.93 491.793C236.149 495.764 217.376 497.436 199.674 497.106C190.159 496.93 180.946 496.163 172.063 494.856C91.4253 483.076 37.1597 427.024 17.2515 359.364C-8.94879 270.379 43.3658 212.122 78.0404 177.022C112.715 141.922 138.112 32.5553 262.644 6.54326C281.632 2.58555 301.05 0.566033 320.462 1.05058C364.769 2.13819 413.098 16.6873 446.539 47.0533C449.05 49.3355 451.491 51.7013 453.872 54.1391C500.35 101.846 520.1 178.132 512.502 242.449Z" fill="#F0FAF5"/>
<path d="M475.82 445.972V314.844" stroke="#1D191F" stroke-miterlimit="10" stroke-linecap="round" stroke-linejoin="round"/>
<path d="M465.191 445.971V380.947" stroke="#1D191F" stroke-miterlimit="10" stroke-linecap="round" stroke-linejoin="round"/>
<path d="M479.141 336.347C479.141 336.347 468.422 335.12 464.071 326.636C459.718 318.153 459.255 296.274 475.946 272.079C492.637 247.884 501.377 247.574 504.283 267.358C507.189 287.142 506.775 315.882 499.943 326.771C493.112 337.66 479.141 336.347 479.141 336.347Z" fill="#FAFAFA" stroke="#1D191F" stroke-miterlimit="10" stroke-linecap="round" stroke-linejoin="round"/>
<path d="M482.941 290.663C484.919 283.922 487.272 277.855 490.021 273.752" stroke="#1D191F" stroke-miterlimit="10" stroke-linecap="round" stroke-linejoin="round"/>
<path d="M474.685 334.83C474.685 334.83 476.889 313.675 481.682 295.23" stroke="#1D191F" stroke-miterlimit="10" stroke-linecap="round" stroke-linejoin="round"/>
<path d="M485.522 378.905C485.522 378.905 478.645 373.573 479.196 365.903C479.747 358.233 488.585 342.955 510.218 333.261C531.852 323.566 538.007 327.01 531.73 341.866C525.453 356.722 513.137 376.362 503.871 381.01C494.604 385.658 485.522 378.905 485.522 378.905Z" fill="#FAFAFA" stroke="#1D191F" stroke-miterlimit="10" stroke-linecap="round" stroke-linejoin="round"/>
<path d="M507.263 349.001C511.448 345.181 515.609 341.984 519.222 340.306" stroke="#1D191F" stroke-miterlimit="10" stroke-linecap="round" stroke-linejoin="round"/>
<path d="M504.482 351.623C493.457 362.333 483.083 375.994 483.083 375.994C483.083 375.994 477.542 383.447 475.895 398.269" stroke="#1D191F" stroke-miterlimit="10" stroke-linecap="round" stroke-linejoin="round"/>
<path d="M481.584 423.252C481.584 423.252 477.601 420.163 477.919 415.719C478.238 411.276 483.359 402.424 495.893 396.807C508.427 391.19 511.993 393.186 508.356 401.793C504.719 410.4 497.585 421.779 492.215 424.471C486.846 427.165 481.584 423.252 481.584 423.252Z" fill="#FAFAFA" stroke="#1D191F" stroke-miterlimit="10" stroke-linecap="round" stroke-linejoin="round"/>
<path d="M494.18 405.928C496.605 403.714 499.016 401.862 501.109 400.889" stroke="#1D191F" stroke-miterlimit="10" stroke-linecap="round" stroke-linejoin="round"/>
<path d="M492.57 407.446C486.182 413.651 480.171 421.567 480.171 421.567C480.171 421.567 476.961 425.885 476.007 434.473" stroke="#1D191F" stroke-miterlimit="10" stroke-linecap="round" stroke-linejoin="round"/>
<path d="M466.1 361.176C466.1 361.176 472.976 355.844 472.425 348.174C471.875 340.504 463.037 325.226 441.403 315.532C419.769 305.837 413.614 309.281 419.891 324.137C426.168 338.993 438.484 358.633 447.751 363.281C457.018 367.929 466.1 361.176 466.1 361.176Z" fill="#FAFAFA" stroke="#1D191F" stroke-miterlimit="10" stroke-linecap="round" stroke-linejoin="round"/>
<path d="M444.359 331.272C440.174 327.453 436.012 324.255 432.4 322.577" stroke="#1D191F" stroke-miterlimit="10" stroke-linecap="round" stroke-linejoin="round"/>
<path d="M447.139 333.893C458.164 344.603 468.538 358.264 468.538 358.264C468.538 358.264 474.079 365.717 475.726 380.54" stroke="#1D191F" stroke-miterlimit="10" stroke-linecap="round" stroke-linejoin="round"/>
<path d="M462.723 420.401C462.723 420.401 469.688 420.622 473.17 416.426C476.653 412.23 478.742 400.525 470.036 386.172C461.33 371.818 455.758 370.935 452.275 381.313C448.793 391.692 446.704 407.151 450.186 413.555C453.668 419.96 462.723 420.401 462.723 420.401Z" fill="#FAFAFA" stroke="#1D191F" stroke-miterlimit="10" stroke-linecap="round" stroke-linejoin="round"/>
<path d="M463.813 409.741C463.918 411.167 463.991 412.594 464.026 414.007" stroke="#1D191F" stroke-miterlimit="10" stroke-linecap="round" stroke-linejoin="round"/>
<path d="M458.471 380.681C458.471 380.681 462.119 393.042 463.514 406.396" stroke="#1D191F" stroke-miterlimit="10" stroke-linecap="round" stroke-linejoin="round"/>
<path d="M13.2075 335.704H174.036V7.44849" stroke="#1D191F" stroke-miterlimit="10" stroke-linecap="round" stroke-linejoin="round"/>
<path d="M344.712 335.704H183.883V7.44873" stroke="#1D191F" stroke-miterlimit="10" stroke-linecap="round" stroke-linejoin="round"/>
<path d="M249.527 335.704H410.357V7.44873" stroke="#1D191F" stroke-miterlimit="10" stroke-linecap="round" stroke-linejoin="round"/>
<path d="M377.534 84.5264L321.326 146.64" stroke="#1D191F" stroke-miterlimit="10" stroke-linecap="round" stroke-linejoin="round"/>
<path d="M346.353 132.586L330.762 149.814" stroke="#1D191F" stroke-miterlimit="10" stroke-linecap="round" stroke-linejoin="round"/>
<path d="M222.449 68.2043L192.088 101.755" stroke="#1D191F" stroke-miterlimit="10" stroke-linecap="round" stroke-linejoin="round"/>
<path d="M230.654 60.0423L251.168 37.3733" stroke="#1D191F" stroke-miterlimit="10" stroke-linecap="round" stroke-linejoin="round"/>
<path d="M167.472 267.696L147.778 289.459" stroke="#1D191F" stroke-miterlimit="10" stroke-linecap="round" stroke-linejoin="round"/>
<path d="M160.908 238.679L124.393 279.031" stroke="#1D191F" stroke-miterlimit="10" stroke-linecap="round" stroke-linejoin="round"/>
<path d="M531.385 111.7C543.323 81.8477 528.8 47.97 498.947 36.0322C469.095 24.0944 435.217 38.6172 423.279 68.4697C411.342 98.3222 425.864 132.2 455.717 144.138C485.569 156.076 519.447 141.553 531.385 111.7Z" stroke="#1D191F" stroke-miterlimit="10" stroke-linecap="round" stroke-linejoin="round"/>
<path d="M477.314 140.882C505.38 140.882 528.133 118.129 528.133 90.0626C528.133 61.9959 505.38 39.2434 477.314 39.2434C449.247 39.2434 426.495 61.9959 426.495 90.0626C426.495 118.129 449.247 140.882 477.314 140.882Z" stroke="#1D191F" stroke-miterlimit="10" stroke-linecap="round" stroke-linejoin="round"/>
<path d="M477.314 93.5346C479.231 93.5346 480.786 91.9801 480.786 90.0626C480.786 88.145 479.231 86.5906 477.314 86.5906C475.396 86.5906 473.842 88.145 473.842 90.0626C473.842 91.9801 475.396 93.5346 477.314 93.5346Z" stroke="#1D191F" stroke-miterlimit="10" stroke-linecap="round" stroke-linejoin="round"/>
<path d="M477.314 93.5359V110.61" stroke="#1D191F" stroke-miterlimit="10" stroke-linecap="round" stroke-linejoin="round"/>
<path d="M473.841 90.063H432.407" stroke="#1D191F" stroke-miterlimit="10" stroke-linecap="round" stroke-linejoin="round"/>
<path d="M368.53 326.957H430.78C430.78 326.957 397.131 409.817 403.441 446.83H340.35C340.35 446.83 352.127 352.193 368.53 326.957Z" fill="#1D191F" stroke="#1D191F" stroke-miterlimit="10" stroke-linecap="round" stroke-linejoin="round"/>
<path d="M314.673 208.012C314.673 208.012 315.296 219.23 336.174 225.774C357.052 232.318 378.241 225.774 390.082 235.122C401.923 244.47 401.611 258.804 397.561 265.971C393.51 273.138 386.966 280.306 406.286 288.719C425.606 297.133 414.076 321.75 405.974 330.787C397.872 339.823 383.85 344.185 368.269 341.07C352.688 337.954 334.304 300.25 314.362 280.307C294.419 260.364 291.984 223.552 304.702 212.999C317.419 202.445 314.673 208.012 314.673 208.012Z" fill="#1D191F" stroke="#1D191F" stroke-miterlimit="10" stroke-linecap="round" stroke-linejoin="round"/>
<path d="M311.466 167.681C311.466 167.681 320.066 163.932 322.271 171.209C324.477 178.486 325.138 198.332 325.138 198.332L320.507 197.229C320.507 197.229 321.61 174.736 316.538 171.208C311.466 167.68 307.497 175.618 307.497 175.618L311.466 167.681Z" fill="#C9CEDD" stroke="#1D191F" stroke-miterlimit="10" stroke-linecap="round" stroke-linejoin="round"/>
<path d="M214.944 409.7L244.318 393.995C244.318 393.995 242.282 363.166 242.572 362.003C242.863 360.84 250.223 300.523 250.223 300.523L230.067 360.259L214.944 409.7Z" fill="#1D191F" stroke="#1D191F" stroke-miterlimit="10" stroke-linecap="round" stroke-linejoin="round"/>
<path d="M344.803 269.546C344.803 269.546 373.803 285.364 377.758 287.011C381.712 288.659 379.406 308.761 379.406 321.943C379.406 335.124 359.632 446.512 359.632 446.512H213.313C213.313 446.512 238.03 408.614 238.689 398.727C239.348 388.841 235.063 380.932 234.405 371.376C233.746 361.82 247.916 303.489 250.223 300.524C252.529 297.557 262.416 289.978 262.416 289.978L297.348 259.329L313.496 255.704L344.803 269.546Z" fill="#FEF989" stroke="#1D191F" stroke-miterlimit="10" stroke-linecap="round" stroke-linejoin="round"/>
<path d="M247.855 409.439L242.973 419.489" stroke="#1D191F" stroke-miterlimit="10" stroke-linecap="round" stroke-linejoin="round"/>
<path d="M252.53 380.602C252.53 380.602 245.281 385.545 248.905 388.182C252.53 390.818 254.178 396.42 254.178 396.42L249.545 405.47" stroke="#1D191F" stroke-miterlimit="10" stroke-linecap="round" stroke-linejoin="round"/>
<path d="M286.682 404.58C288.649 404.731 290.715 404.84 292.881 404.901" stroke="#1D191F" stroke-miterlimit="10" stroke-linecap="round" stroke-linejoin="round"/>
<path d="M255.488 396.421C255.488 396.421 263.372 401.692 280.564 403.948" stroke="#1D191F" stroke-miterlimit="10" stroke-linecap="round" stroke-linejoin="round"/>
<path d="M235.828 185.764C235.828 185.764 231.417 187.527 231.417 193.261C231.417 198.994 236.047 210.241 236.047 210.241L238.693 209.359C238.693 209.359 233.842 197.672 234.503 193.481C235.164 189.291 239.134 188.189 239.134 188.189L238.252 185.322L235.828 185.764Z" fill="#C9CEDD" stroke="#1D191F" stroke-miterlimit="10" stroke-linecap="round" stroke-linejoin="round"/>
<path d="M247.177 215.29C248.299 221.089 246.35 226.343 242.822 227.026C239.294 227.708 235.526 223.561 234.403 217.761C233.281 211.962 235.231 206.707 238.758 206.025C242.285 205.343 246.054 209.49 247.177 215.29Z" fill="#FAFAFA" stroke="#1D191F" stroke-miterlimit="10" stroke-linecap="round" stroke-linejoin="round"/>
<path d="M257.902 213.42C260.101 220.835 257.53 228.137 252.159 229.73C246.789 231.323 240.651 226.604 238.453 219.19C236.253 211.776 238.824 204.474 244.195 202.881C249.566 201.287 255.702 206.005 257.902 213.42Z" fill="#1D191F" stroke="#1D191F" stroke-miterlimit="10" stroke-linecap="round" stroke-linejoin="round"/>
<path d="M277.806 253.838L283.024 270.798L265.868 292.412L263.016 309.11C263.016 309.11 260.166 356.76 261.795 364.091C263.424 371.422 263.424 373.458 263.424 373.458C263.424 373.458 298.856 332.324 316.37 307.073C333.882 281.822 337.954 266.345 337.954 266.345L320.849 256.979L312.704 219.103L277.806 253.838Z" fill="#FAFAFA" stroke="#1D191F" stroke-miterlimit="10" stroke-linecap="round" stroke-linejoin="round"/>
<path d="M304.851 237.415L283.024 270.798L276.94 251.148L304.851 237.415Z" fill="#1D191F" stroke="#1D191F" stroke-miterlimit="10" stroke-linecap="round" stroke-linejoin="round"/>
<path d="M263.178 308.162L263.016 309.11C263.016 309.11 260.166 356.761 261.795 364.092C263.424 371.422 263.424 373.458 263.424 373.458C263.424 373.458 298.856 332.324 316.37 307.073C317.743 305.093 319.025 303.181 320.237 301.324C298.305 308.828 275.952 308.959 263.178 308.162Z" fill="#FAFAFA" stroke="#1D191F" stroke-miterlimit="10" stroke-linecap="round" stroke-linejoin="round"/>
<path d="M254.572 149.819C254.572 149.819 238.254 159.742 236.489 174.738C234.724 189.733 240.9 205.83 243.325 212.225C245.75 218.62 254.13 243.538 258.54 248.39C262.951 253.241 277.284 260.518 279.71 261.841C282.136 263.164 286.546 262.723 290.294 260.077C294.043 257.431 309.48 238.687 311.905 234.276C314.331 229.865 314.771 220.163 314.771 220.163C314.771 220.163 314.33 200.758 313.448 188.188C312.566 175.618 313.227 163.49 302.864 152.905C292.501 142.322 264.716 142.101 254.572 149.819Z" fill="#FAFAFA" stroke="#1D191F" stroke-miterlimit="10" stroke-linecap="round" stroke-linejoin="round"/>
<path d="M313.449 188.188C312.567 175.619 313.228 163.49 302.865 152.906C292.501 142.322 264.716 142.101 254.572 149.819C254.572 149.819 238.254 159.742 236.489 174.737C235.464 183.449 237.121 192.518 239.163 199.855C242.916 197.575 255.576 189.774 269.787 179.808C286.767 167.9 292.279 149.377 292.279 149.377C292.279 149.377 294.264 148.274 293.822 150.701C293.381 153.126 286.765 167.46 284.34 169.665C281.914 171.871 281.914 171.871 281.914 171.871C281.914 171.871 283.899 171.429 292.94 182.234C301.982 193.04 307.054 197.45 309.699 198.773C310.521 199.183 312.15 199.466 314.079 199.628C313.903 195.662 313.693 191.664 313.449 188.188Z" fill="#1D191F" stroke="#1D191F" stroke-miterlimit="10" stroke-linecap="round" stroke-linejoin="round"/>
<path d="M286.298 211.569C286.583 213.189 285.988 214.646 284.968 214.826C283.949 215.005 282.89 213.838 282.605 212.218C282.321 210.598 282.916 209.141 283.936 208.961C284.955 208.783 286.012 209.95 286.298 211.569Z" fill="#1D191F" stroke="#1D191F" stroke-miterlimit="10" stroke-linecap="round" stroke-linejoin="round"/>
<path d="M261.6 215.098C261.885 216.716 261.29 218.174 260.27 218.355C259.251 218.533 258.193 217.367 257.908 215.747C257.623 214.128 258.218 212.67 259.238 212.49C260.257 212.311 261.315 213.478 261.6 215.098Z" fill="#1D191F" stroke="#1D191F" stroke-miterlimit="10" stroke-linecap="round" stroke-linejoin="round"/>
<path d="M276.182 201.641C276.182 201.641 283.46 195.908 290.075 200.538" stroke="#1D191F" stroke-miterlimit="10" stroke-linecap="round" stroke-linejoin="round"/>
<path d="M261.407 204.727C261.407 204.727 252.807 200.537 246.854 208.036" stroke="#1D191F" stroke-miterlimit="10" stroke-linecap="round" stroke-linejoin="round"/>
<path d="M262.952 204.948C262.952 204.948 268.906 207.815 269.347 213.328" stroke="#1D191F" stroke-miterlimit="10" stroke-linecap="round" stroke-linejoin="round"/>
<path d="M269.567 228.543C269.567 228.543 271.993 230.307 276.182 228.984" stroke="#1D191F" stroke-miterlimit="10" stroke-linecap="round" stroke-linejoin="round"/>
<path d="M267.803 237.805C267.803 237.805 274.418 237.805 282.137 234.497C289.855 231.189 292.943 226.558 292.943 226.558" stroke="#1D191F" stroke-miterlimit="10" stroke-linecap="round" stroke-linejoin="round"/>
<path d="M271.552 237.585C271.552 237.585 273.978 240.011 277.946 240.011C281.915 240.011 285.443 232.954 285.443 232.954C285.443 232.954 275.3 237.364 271.552 237.585Z" stroke="#1D191F" stroke-miterlimit="10" stroke-linecap="round" stroke-linejoin="round"/>
<path d="M317.419 221.267C323.021 221.267 327.563 214.997 327.563 207.264C327.563 199.53 323.021 193.261 317.419 193.261C311.816 193.261 307.274 199.53 307.274 207.264C307.274 214.997 311.816 221.267 317.419 221.267Z" fill="#1D191F" stroke="#1D191F" stroke-miterlimit="10" stroke-linecap="round" stroke-linejoin="round"/>
<path d="M321.719 215.532C325.312 215.532 328.224 210.744 328.224 204.837C328.224 198.931 325.312 194.142 321.719 194.142C318.127 194.142 315.214 198.931 315.214 204.837C315.214 210.744 318.127 215.532 321.719 215.532Z" fill="#FAFAFA" stroke="#1D191F" stroke-miterlimit="10" stroke-linecap="round" stroke-linejoin="round"/>
<path d="M242.822 222.207C242.822 222.207 242.885 245.115 248.839 247.1C254.792 249.085 271.11 245.115 271.11 245.115" stroke="#1D191F" stroke-width="2" stroke-miterlimit="10" stroke-linecap="round" stroke-linejoin="round"/>
<path d="M279.491 245.005C279.491 246.771 277.319 248.202 274.639 248.202C271.96 248.202 269.788 246.771 269.788 245.005C269.788 243.238 271.96 241.807 274.639 241.807C277.319 241.807 279.491 243.238 279.491 245.005Z" fill="#1D191F" stroke="#1D191F" stroke-miterlimit="10" stroke-linecap="round" stroke-linejoin="round"/>
<path d="M280.871 271.852C280.871 271.852 273.95 284.045 269.007 320.295C264.064 356.545 267.359 363.795 267.359 363.795L260.439 368.079C260.439 368.079 245.938 366.431 250.881 332.159C255.824 297.886 258.461 292.284 258.461 292.284L280.871 271.852Z" fill="#FEF989" stroke="#1D191F" stroke-miterlimit="10" stroke-linecap="round" stroke-linejoin="round"/>
<path d="M325.029 259.33C325.029 259.33 309.211 296.898 292.734 320.295C276.258 343.693 253.848 377.307 253.848 377.307C253.848 377.307 265.711 371.705 290.757 352.92C315.802 334.135 341.177 290.966 343.814 286.681C346.45 282.397 350.405 272.511 350.405 272.511L325.029 259.33Z" fill="#FEF989" stroke="#1D191F" stroke-miterlimit="10" stroke-linecap="round" stroke-linejoin="round"/>
<path d="M188.137 426.274C188.137 426.274 183.419 429.306 176.005 432.339C168.59 435.372 167.91 434.828 170.276 437.394C172.641 439.961 185.104 435.372 188.474 434.024C191.843 432.676 198.247 430.654 198.247 430.654C198.247 430.654 205.999 435.035 210.716 436.383C215.434 437.731 221.164 435.709 221.164 435.709C221.164 435.709 221.501 430.317 217.457 427.285C213.413 424.252 204.651 417.174 201.618 417.511C198.584 417.848 188.137 426.274 188.137 426.274Z" fill="#FAFAFA" stroke="#1D191F" stroke-miterlimit="10" stroke-linecap="round" stroke-linejoin="round"/>
<path d="M186.115 418.186C186.115 418.186 182.072 417.175 179.375 419.197C176.679 421.219 173.646 427.623 173.309 429.308C172.972 430.992 173.646 432.003 176.342 429.645C179.038 427.286 183.756 423.916 183.756 423.916L187.8 422.568L186.115 418.186Z" fill="#FAFAFA" stroke="#1D191F" stroke-miterlimit="10" stroke-linecap="round" stroke-linejoin="round"/>
<path d="M196.562 415.152C196.562 415.152 188.474 412.456 186.789 414.815C185.104 417.174 179.374 430.654 181.06 431.665C182.745 432.676 185.104 430.654 188.137 426.273C191.17 421.892 192.855 419.532 192.855 419.532L196.898 418.858L196.562 415.152Z" fill="#FAFAFA" stroke="#1D191F" stroke-miterlimit="10" stroke-linecap="round" stroke-linejoin="round"/>
<path d="M211.007 418.171C211.007 418.171 200.461 409.932 197.826 411.909C195.189 413.886 186.621 426.738 185.633 429.374C184.644 432.011 189.258 430.693 192.882 427.397C196.508 424.101 200.792 420.476 200.792 420.476L209.03 424.76L211.007 418.171Z" fill="#FAFAFA" stroke="#1D191F" stroke-miterlimit="10" stroke-linecap="round" stroke-linejoin="round"/>
<path d="M248.905 424.431C248.905 424.431 235.065 423.772 229.461 421.795C223.86 419.817 212.655 415.533 209.359 415.863C206.064 416.193 193.541 428.385 190.905 431.022C188.268 433.658 188.534 434.368 191.17 434.697C193.806 435.027 200.132 430.692 203.097 428.385C206.063 426.079 209.029 424.76 209.029 424.76C209.029 424.76 213.643 431.351 216.939 434.317C220.234 437.283 228.144 439.59 231.109 439.26C234.075 438.93 236.711 438.272 236.711 438.272L247.916 437.942L248.905 424.431Z" fill="#FAFAFA" stroke="#1D191F" stroke-miterlimit="10" stroke-linecap="round" stroke-linejoin="round"/>
<path d="M345.133 329.182C345.133 329.182 332.94 343.352 333.599 348.295C334.258 353.238 334.588 358.181 334.588 358.181L325.691 411.897C325.691 411.897 318.111 408.272 318.111 411.238C318.111 414.204 318.111 414.204 318.111 414.204L246.929 421.453L246.271 446.498L359.634 446.828C359.634 446.828 365.236 440.567 365.895 438.26C366.554 435.954 379.077 396.078 382.372 354.226C385.667 312.374 384.02 293.589 382.372 290.294C380.724 286.998 361.281 280.736 361.281 280.736" fill="#FEF989"/>
<path d="M345.133 329.182C345.133 329.182 332.94 343.352 333.599 348.295C334.258 353.238 334.588 358.181 334.588 358.181L325.691 411.897C325.691 411.897 318.111 408.272 318.111 411.238C318.111 414.204 318.111 414.204 318.111 414.204L246.929 421.453L246.271 446.498L359.634 446.828C359.634 446.828 365.236 440.567 365.895 438.26C366.554 435.954 379.077 396.078 382.372 354.226C385.667 312.374 384.02 293.589 382.372 290.294C380.724 286.998 361.281 280.736 361.281 280.736" stroke="#1D191F" stroke-miterlimit="10" stroke-linecap="round" stroke-linejoin="round"/>
<path d="M328.325 411.579C328.325 411.579 338.87 418.5 345.132 420.148L328.325 411.579Z" fill="#FAFAFA"/>
<path d="M328.325 411.579C328.325 411.579 338.87 418.5 345.132 420.148" stroke="#1D191F" stroke-miterlimit="10" stroke-linecap="round" stroke-linejoin="round"/>
<path d="M229.481 344.737L237.616 318.671C237.616 318.671 242.77 313.763 246.206 307.873C249.642 301.982 249.642 290.939 249.151 288.975C248.66 287.012 256.268 278.177 258.477 274.986C260.686 271.795 261.913 266.152 258.969 261.979C256.023 257.806 254.551 264.678 252.588 267.869C250.625 271.06 243.753 274.25 243.753 274.25L236.39 280.14C236.39 280.14 224.365 290.693 223.628 292.165C222.892 293.637 221.42 298.3 221.42 298.3L222.401 312.534L216.021 337.322L229.481 344.737Z" fill="#FAFAFA" stroke="#1D191F" stroke-miterlimit="10" stroke-linecap="round" stroke-linejoin="round"/>
<path d="M231.481 271.551C231.481 271.551 237.371 262.225 239.09 259.281C240.807 256.335 243.507 244.555 245.225 245.292C246.943 246.029 248.661 249.955 248.17 255.108C247.68 260.262 241.544 272.042 241.544 272.042L231.481 271.551Z" stroke="#1D191F" stroke-miterlimit="10" stroke-linecap="round" stroke-linejoin="round"/>
<path d="M217.247 329.961L222.4 312.536L220.192 284.558L227.063 271.305L245.961 268.851C245.961 268.851 257.496 274.986 258.476 274.986C259.458 274.986 258.476 277.686 256.267 278.177C254.059 278.667 249.887 277.44 249.887 277.44L257.004 282.103C257.004 282.103 256.514 284.312 254.795 284.803C253.078 285.293 249.642 285.293 249.642 285.293C249.642 285.293 255.777 289.219 254.305 289.956C252.833 290.693 251.114 290.938 249.642 290.938C248.17 290.938 244.979 290.938 244.979 290.938L241.298 290.448L235.653 292.657C235.653 292.657 239.579 302.719 239.334 307.627C239.089 312.536 232.954 315.726 232.954 315.726" fill="#FAFAFA"/>
<path d="M217.247 329.961L222.4 312.536L220.192 284.558L227.063 271.305L245.961 268.851C245.961 268.851 257.496 274.986 258.476 274.986C259.458 274.986 258.476 277.686 256.267 278.177C254.059 278.667 249.887 277.44 249.887 277.44L257.004 282.103C257.004 282.103 256.514 284.312 254.795 284.803C253.078 285.293 249.642 285.293 249.642 285.293C249.642 285.293 255.777 289.219 254.305 289.956C252.833 290.693 251.114 290.938 249.642 290.938C248.17 290.938 244.979 290.938 244.979 290.938L241.298 290.448L235.653 292.657C235.653 292.657 239.579 302.719 239.334 307.627C239.089 312.536 232.954 315.726 232.954 315.726" stroke="#1D191F" stroke-miterlimit="10" stroke-linecap="round" stroke-linejoin="round"/>
<path d="M249.888 277.442C249.888 277.442 245.962 274.251 243.753 274.251C241.544 274.251 228.046 276.705 228.046 276.705" stroke="#1D191F" stroke-miterlimit="10" stroke-linecap="round" stroke-linejoin="round"/>
<path d="M249.643 285.295C249.643 285.295 243.263 281.859 241.299 281.859C239.335 281.859 223.874 285.786 223.874 285.786" stroke="#1D191F" stroke-miterlimit="10" stroke-linecap="round" stroke-linejoin="round"/>
<path d="M217.562 324.487L237.485 337.912C237.485 337.912 228.613 385.562 227.741 389.633C226.868 393.705 220.47 404.466 217.271 407.665C214.072 410.864 210.291 410.283 201.566 407.955C192.841 405.629 185.28 398.649 185.57 389.633C185.861 380.617 217.562 324.487 217.562 324.487Z" fill="#FEF989" stroke="#1D191F" stroke-miterlimit="10" stroke-linecap="round" stroke-linejoin="round"/>
<path d="M114.563 439.96H108.772V441.743H114.563V439.96Z" fill="#FAFAFA" stroke="#1D191F" stroke-miterlimit="10" stroke-linecap="round" stroke-linejoin="round"/>
<path d="M122.583 439.96H116.792V441.743H122.583V439.96Z" fill="#FAFAFA" stroke="#1D191F" stroke-miterlimit="10" stroke-linecap="round" stroke-linejoin="round"/>
<path d="M130.603 439.96H124.812V441.743H130.603V439.96Z" fill="#FAFAFA" stroke="#1D191F" stroke-miterlimit="10" stroke-linecap="round" stroke-linejoin="round"/>
<path d="M138.622 439.96H132.831V441.743H138.622V439.96Z" fill="#FAFAFA" stroke="#1D191F" stroke-miterlimit="10" stroke-linecap="round" stroke-linejoin="round"/>
<path d="M146.642 439.96H140.851V441.743H146.642V439.96Z" fill="#FAFAFA" stroke="#1D191F" stroke-miterlimit="10" stroke-linecap="round" stroke-linejoin="round"/>
<path d="M154.661 439.96H148.87V441.743H154.661V439.96Z" fill="#FAFAFA" stroke="#1D191F" stroke-miterlimit="10" stroke-linecap="round" stroke-linejoin="round"/>
<path d="M162.68 439.96H156.889V441.743H162.68V439.96Z" fill="#FAFAFA" stroke="#1D191F" stroke-miterlimit="10" stroke-linecap="round" stroke-linejoin="round"/>
<path d="M170.701 439.96H164.908V441.743H170.701V439.96Z" fill="#FAFAFA" stroke="#1D191F" stroke-miterlimit="10" stroke-linecap="round" stroke-linejoin="round"/>
<path d="M178.72 439.96H172.928V441.743H178.72V439.96Z" fill="#FAFAFA" stroke="#1D191F" stroke-miterlimit="10" stroke-linecap="round" stroke-linejoin="round"/>
<path d="M186.74 439.96H180.948V441.743H186.74V439.96Z" fill="#FAFAFA" stroke="#1D191F" stroke-miterlimit="10" stroke-linecap="round" stroke-linejoin="round"/>
<path d="M194.759 439.96H188.967V441.743H194.759V439.96Z" fill="#FAFAFA" stroke="#1D191F" stroke-miterlimit="10" stroke-linecap="round" stroke-linejoin="round"/>
<path d="M202.778 439.96H196.987V441.743H202.778V439.96Z" fill="#FAFAFA" stroke="#1D191F" stroke-miterlimit="10" stroke-linecap="round" stroke-linejoin="round"/>
<path d="M210.798 439.96H205.006V441.743H210.798V439.96Z" fill="#FAFAFA" stroke="#1D191F" stroke-miterlimit="10" stroke-linecap="round" stroke-linejoin="round"/>
<path d="M218.817 439.96H213.026V441.743H218.817V439.96Z" fill="#FAFAFA" stroke="#1D191F" stroke-miterlimit="10" stroke-linecap="round" stroke-linejoin="round"/>
<path d="M226.837 439.96H221.046V441.743H226.837V439.96Z" fill="#FAFAFA" stroke="#1D191F" stroke-miterlimit="10" stroke-linecap="round" stroke-linejoin="round"/>
<path d="M234.856 439.96H229.064V441.743H234.856V439.96Z" fill="#FAFAFA" stroke="#1D191F" stroke-miterlimit="10" stroke-linecap="round" stroke-linejoin="round"/>
<path d="M248.818 441.362H105.443V446.409H248.818V441.362Z" fill="#FAFAFA" stroke="#1D191F" stroke-miterlimit="10" stroke-linecap="round" stroke-linejoin="round"/>
<path d="M248.818 441.362H193.854V446.409H248.818V441.362Z" fill="#FAFAFA" stroke="#1D191F" stroke-miterlimit="10" stroke-linecap="round" stroke-linejoin="round"/>
<path d="M150.186 397.198H37.4631L14.8242 277.325H127.547L150.186 397.198Z" fill="#1D191F" stroke="#FAFAFA" stroke-miterlimit="10" stroke-linecap="round" stroke-linejoin="round"/>
<path d="M146.756 394.159H37.4075L15.9155 280.362H125.264L146.756 394.159Z" fill="#1D191F" stroke="#FAFAFA" stroke-miterlimit="10" stroke-linecap="round" stroke-linejoin="round"/>
<path d="M125.7 385.103H44.3999L28.4204 300.495H109.721L125.7 385.103Z" fill="#1D191F" stroke="#FAFAFA" stroke-miterlimit="10" stroke-linecap="round" stroke-linejoin="round"/>
<path d="M28.4207 300.494L15.9155 280.362" stroke="#1D191F" stroke-miterlimit="10" stroke-linecap="round" stroke-linejoin="round"/>
<path d="M109.721 300.494L125.263 280.362" stroke="#FAFAFA" stroke-miterlimit="10" stroke-linecap="round" stroke-linejoin="round"/>
<path d="M125.7 385.103L146.755 394.159" stroke="#FAFAFA" stroke-miterlimit="10" stroke-linecap="round" stroke-linejoin="round"/>
<path d="M44.4 385.103L37.4072 394.159" stroke="#1D191F" stroke-miterlimit="10" stroke-linecap="round" stroke-linejoin="round"/>
<path d="M77.4575 359.764H58.9507L70.7285 349.248H89.2353L77.4575 359.764Z" fill="#1D191F" stroke="#FAFAFA" stroke-miterlimit="10" stroke-linecap="round" stroke-linejoin="round"/>
<path d="M138.867 440.1H71.1489V446.83H138.867V440.1Z" fill="#1D191F" stroke="#FAFAFA" stroke-miterlimit="10" stroke-linecap="round" stroke-linejoin="round"/>
<path d="M100.171 446.83H81.6639L58.9507 421.021H77.4575L100.171 446.83Z" fill="#1D191F" stroke="#FAFAFA" stroke-miterlimit="10" stroke-linecap="round" stroke-linejoin="round"/>
<path d="M77.4575 360.185H58.9507V420.753H77.4575V360.185Z" fill="#1D191F" stroke="#FAFAFA" stroke-miterlimit="10" stroke-linecap="round" stroke-linejoin="round"/>
<path d="M348.467 435.307C348.467 435.307 351.762 442.227 360.001 446.512L348.467 435.307Z" fill="#FAFAFA"/>
<path d="M348.467 435.307C348.467 435.307 351.762 442.227 360.001 446.512" stroke="#1D191F" stroke-miterlimit="10" stroke-linecap="round" stroke-linejoin="round"/>
<path d="M0.630371 446.83H530.731" stroke="#1D191F" stroke-miterlimit="10" stroke-linecap="round" stroke-linejoin="round"/>
</svg>
