<svg width="167" height="152" viewBox="0 0 167 152" fill="none" xmlns="http://www.w3.org/2000/svg">
<path d="M69.8398 149.817C28.8298 143.872 -4.49783 106.754 1.55704 65.4989C6.72254 30.3146 38.9464 2.93362 77.5889 0.347968C80.387 0.160271 83.2174 0.10217 86.074 0.181521C107.631 0.777618 126.785 9.03181 140.951 21.5224C155.05 33.953 164.21 50.5795 165.878 68.0226C170.32 114.432 120.847 157.212 69.8398 149.817Z" fill="#F4F7FA"/>
<path d="M31.3528 147.685C21.7625 146.505 9.60304 143.406 4.71947 134.667C3.55762 132.588 2.39193 128.549 5.32422 127.028C8.00459 125.638 11.4709 127.107 13.4632 128.916C14.9279 130.246 16.071 133.214 17.7168 134.153C20.1257 135.527 21.4225 131.778 21.3718 130.231C21.2585 126.772 16.8133 125.355 13.8591 124.604C8.95537 123.357 3.24594 122.289 3.55319 116.999C3.86044 111.708 9.24839 108.535 13.3934 110.85C16.8084 112.757 16.3276 116.827 18.6611 119.269C20.7342 121.438 21.4556 117.917 21.3172 116.191C21.0165 112.441 17.5721 109.728 15.0378 107.215C12.1724 104.374 9.0068 98.6581 12.061 94.9014C13.8186 92.7397 18.2834 92.2333 20.9223 92.5981C33.8396 94.3835 25.2741 110.386 27.6227 112.171C29.9713 113.957 32.1934 110.831 32.1876 106.079C32.1818 101.327 32.9416 97.822 38.1223 99.3429C43.3031 100.864 44.2893 113.277 38.3737 118.047C32.4581 122.818 38.745 128.022 40.3331 124.603C41.4796 122.135 42.4875 115.67 45.8011 114.961C51.3223 113.782 51.2405 124.574 49.6515 127.086C47.424 130.607 42.3875 131.372 39.5747 134.41C38.7576 135.292 36.9128 137.478 37.6295 138.768C38.6289 140.567 41.4174 138.642 42.4419 137.809C44.7452 135.934 47.933 129.564 51.1778 133.794C55.1841 139.018 48.4837 146.762 31.3528 147.685Z" fill="#A4B8EA"/>
<g opacity="0.8">
<path d="M29.9715 146.906C30.1968 146.906 30.3815 146.66 30.3857 146.443C30.3894 146.256 30.6563 127.4 22.0713 105.018C21.9922 104.812 21.7538 104.688 21.5393 104.764C21.3244 104.839 21.2142 105.058 21.2931 105.264C29.8253 127.507 29.5607 146.247 29.557 146.433C29.5527 146.652 29.7347 146.906 29.9635 146.906C29.9662 146.906 29.969 146.906 29.9715 146.906Z" fill="white"/>
</g>
<path d="M23.7219 146.134C24.0433 144.205 27.8978 143.654 29.4512 143.373C30.352 143.211 31.6341 143.043 32.0969 142.152C32.583 141.216 31.8437 140.493 30.8961 140.327C29.1996 140.031 27.3743 141.062 25.7976 141.532C24.104 142.036 22.3468 142.274 20.6672 141.577C19.3279 141.022 17.9567 139.703 17.6652 138.315C16.8587 134.473 20.8798 134.693 23.5003 135.233C24.7719 135.495 27.2721 135.692 27.4963 133.972C27.7348 132.142 25.3023 131.22 23.7997 131.165C21.8359 131.093 19.9056 131.507 17.9575 131.642C16.2009 131.764 14.1213 131.581 13.6341 129.646C13.2578 128.151 14.1373 126.433 15.4069 125.546C18.3421 123.496 22.2095 126.992 25.3427 126.985C26.4504 126.982 28.2788 126.204 28.5854 125.066C28.8963 123.906 27.3223 123.124 26.4594 122.701C23.9016 121.447 12.1533 119.842 16.3617 114.986C17.4209 113.764 19.4674 112.736 21.1191 112.693C24.2352 112.611 27.7368 114.636 30.1376 116.383C33.9139 119.13 37.2176 122.911 39.3629 126.962C44.1039 135.916 41.8072 141.919 41.8072 141.919C40.4327 144.089 38.3057 146.345 35.963 147.568C33.2092 149.005 28.9443 149.636 25.9492 148.519C24.9803 148.157 23.5227 147.329 23.7219 146.134Z" fill="#2A51B3"/>
<path opacity="0.7" d="M151.957 92.7767L147.976 93.0337C147.519 91.3336 146.919 89.6912 146.175 88.1255L149.477 86.0042C150.378 85.4254 150.609 84.2541 149.994 83.3877L146.143 77.9633C145.526 77.0949 144.294 76.8587 143.39 77.4362L140.044 79.5741C138.773 78.3276 137.393 77.1844 135.916 76.1605L137.68 72.6922C138.156 71.757 137.74 70.6212 136.75 70.1551L130.549 67.2342C129.556 66.7662 128.362 67.1459 127.884 68.0829L126.107 71.5623C124.369 71.0783 122.571 70.7391 120.731 70.5433L120.421 66.6413C120.338 65.5938 119.375 64.7952 118.269 64.8576L111.338 65.2489C110.227 65.3116 109.394 66.2142 109.477 67.2648L109.788 71.1783C107.983 71.5867 106.239 72.1339 104.575 72.8195L102.238 69.5569C101.608 68.677 100.346 68.4353 99.4202 69.0174L93.6195 72.6641C92.6901 73.2483 92.4498 74.4368 93.0832 75.3179L95.4287 78.5812C94.0965 79.7862 92.8797 81.1006 91.7889 82.5072L88.036 80.7717C87.0198 80.3018 85.7982 80.6906 85.3077 81.6405L82.2372 87.5876C81.7455 88.5396 82.1734 89.6914 83.1923 90.1595L86.9177 91.8711C86.4093 93.5426 86.0611 95.2734 85.8684 97.0444L81.7435 97.3108C80.6144 97.3837 79.7665 98.3019 79.8505 99.3617L80.3758 105.989C80.4598 107.048 81.4437 107.846 82.5726 107.77L86.6638 107.494C87.1251 109.232 87.7384 110.908 88.4998 112.506L85.1341 114.656C84.1996 115.253 83.9578 116.449 84.5945 117.327L88.5711 122.809C89.2063 123.685 90.4765 123.909 91.408 123.311L94.7474 121.165C96.0579 122.436 97.4847 123.593 99.0083 124.627L97.2629 128.045C96.7751 129 97.2003 130.145 98.2122 130.601L104.528 133.448C105.536 133.903 106.746 133.498 107.231 132.544L108.953 129.159C110.735 129.631 112.578 129.95 114.46 130.12L114.757 133.862C114.84 134.913 115.807 135.697 116.916 135.613L123.836 135.09C124.941 135.007 125.768 134.09 125.685 133.042L125.389 129.311C127.21 128.868 128.965 128.286 130.633 127.563L132.842 130.636C133.464 131.501 134.705 131.72 135.614 131.126L141.289 127.422C142.195 126.831 142.428 125.652 141.81 124.789L139.594 121.697C140.906 120.471 142.104 119.14 143.171 117.718L146.712 119.345C147.698 119.798 148.88 119.402 149.353 118.462L152.309 112.588C152.781 111.65 152.367 110.521 151.384 110.067L147.836 108.426C148.319 106.77 148.648 105.057 148.822 103.305L152.77 103.039C153.856 102.966 154.67 102.065 154.587 101.026L154.072 94.5304C153.99 93.4917 153.043 92.7066 151.957 92.7767ZM116.079 81.1049C127.234 80.4267 136.904 88.4215 137.74 98.9582C138.575 109.495 130.266 118.676 119.12 119.47C107.908 120.268 98.0832 112.284 97.2387 101.631C96.3943 90.979 104.857 81.7872 116.079 81.1049Z" fill="#D8DEE8"/>
<path opacity="0.7" d="M139.378 35.1481L137.19 35.2894C136.939 34.3547 136.609 33.4518 136.199 32.591L138.015 31.4247C138.51 31.1065 138.637 30.4626 138.299 29.9863L136.182 27.0041C135.843 26.5267 135.165 26.3968 134.668 26.7143L132.829 27.8897C132.13 27.2044 131.371 26.5759 130.559 26.013L131.529 24.1063C131.791 23.5921 131.562 22.9676 131.018 22.7114L127.609 21.1056C127.063 20.8483 126.407 21.057 126.144 21.5722L125.167 23.4851C124.211 23.219 123.223 23.0325 122.211 22.9249L122.041 20.7797C121.995 20.2038 121.466 19.7648 120.858 19.7991L117.047 20.0142C116.437 20.0486 115.978 20.5449 116.024 21.1224L116.195 23.274C115.202 23.4985 114.244 23.7994 113.329 24.1762L112.044 22.3825C111.698 21.8988 111.004 21.766 110.495 22.0859L107.306 24.0908C106.795 24.412 106.663 25.0654 107.011 25.5498L108.301 27.3438C107.568 28.0063 106.899 28.7289 106.3 29.5022L104.236 28.5481C103.678 28.2897 103.006 28.5035 102.736 29.0257L101.048 32.2953C100.778 32.8187 101.013 33.4519 101.573 33.7092L103.621 34.6502C103.342 35.5691 103.15 36.5207 103.045 37.4943L100.777 37.6408C100.156 37.6808 99.6899 38.1857 99.7361 38.7683L100.025 42.4116C100.071 42.9942 100.612 43.4325 101.233 43.3908L103.482 43.2392C103.735 44.1947 104.073 45.1164 104.491 45.9946L102.641 47.1769C102.127 47.5051 101.994 48.1625 102.344 48.645L104.53 51.6589C104.88 52.1403 105.578 52.2637 106.09 51.9347L107.926 50.7553C108.646 51.4536 109.431 52.09 110.268 52.6586L109.309 54.5375C109.041 55.0626 109.275 55.6919 109.831 55.9426L113.303 57.508C113.857 57.7578 114.522 57.5352 114.789 57.0111L115.736 55.1498C116.716 55.4095 117.729 55.5847 118.763 55.6781L118.926 57.7356C118.972 58.3133 119.504 58.7441 120.114 58.6981L123.918 58.4108C124.525 58.365 124.98 57.8609 124.935 57.285L124.772 55.2336C125.773 54.9902 126.738 54.67 127.655 54.2723L128.87 55.9622C129.211 56.4374 129.893 56.558 130.393 56.2316L133.513 54.195C134.011 53.8699 134.14 53.222 133.8 52.7475L132.582 51.0474C133.303 50.3737 133.961 49.6421 134.548 48.8599L136.495 49.7545C137.037 50.0034 137.687 49.786 137.947 49.269L139.572 46.0399C139.831 45.5242 139.604 44.9036 139.063 44.6538L137.113 43.7516C137.378 42.841 137.559 41.8995 137.655 40.9365L139.825 40.7902C140.422 40.75 140.87 40.2545 140.824 39.6835L140.541 36.1124C140.496 35.5412 139.975 35.1096 139.378 35.1481ZM119.654 28.7313C125.786 28.3585 131.103 32.7538 131.562 38.5465C132.021 44.3393 127.453 49.387 121.326 49.8233C115.161 50.2623 109.76 45.8725 109.296 40.0162C108.831 34.1598 113.484 29.1064 119.654 28.7313Z" fill="#D8DEE8"/>
<path d="M143 143.283C144.197 144.209 144.264 144.867 144.226 145.187C144.163 145.704 143.756 145.904 142.783 146.879C141.466 148.198 141.667 148.375 140.997 148.852C139.516 149.905 137.423 149.835 137.297 149.477C137.208 149.226 138.155 149.021 139.232 147.826C140.226 146.724 140.563 145.632 140.653 145.311C140.817 144.729 140.859 144.225 140.867 143.876L143 143.283Z" fill="#5D80D9"/>
<path d="M138.994 140.463L141.35 144.393C141.917 144.633 142.46 144.512 142.963 143.811L142.044 139.034L138.994 140.463Z" fill="url(#paint0_linear_301_4661)"/>
<path d="M136.139 90.0632C133.844 93.7717 130.121 100.929 129.368 110.608C128.625 120.161 131.142 127.442 132.196 130.157C134.172 135.244 137.608 140.586 139.604 143.132C140.95 142.593 141.743 141.748 143.089 141.209C142.887 140.508 142.263 138.193 141.87 136.813C141.565 135.745 141.004 133.768 140.889 133.345C139.922 129.807 140.685 127.152 140.419 122.776C140.109 117.673 138.888 118.266 139.071 115.202C139.346 110.627 142.054 109.559 145.162 102.937C147.29 98.4042 149.525 93.6435 147.471 91.0406C144.886 87.7644 137.017 89.8242 136.139 90.0632Z" fill="#5D80D9"/>
<path d="M152.745 146.877C153.463 147.314 153.896 148.353 153.569 149.006C153.247 149.649 152.428 149.446 150.439 150.032C148.307 150.659 147.886 151.292 146.315 151.291C145.68 151.29 144.529 151.185 144.433 150.777C144.366 150.49 144.854 150.204 146.463 149.169C148.746 147.701 148.722 147.66 149.232 147.434C150.512 146.869 151.798 146.301 152.745 146.877Z" fill="#5D80D9"/>
<path d="M149.336 143.765L150.211 147.59C150.333 147.761 151.579 148.171 152.451 147.59L152.13 143.765H149.336Z" fill="url(#paint1_linear_301_4661)"/>
<path opacity="0.3" d="M147.471 91.0406C144.885 87.7644 137.017 89.8242 136.139 90.0632C135.196 91.5869 134.013 93.702 132.893 96.326C135.681 95.801 136.892 96.2776 137.456 96.9107C139.645 99.368 132.79 104.794 134.2 113.027C134.751 116.247 136.19 117.697 135.927 121.63C135.731 124.556 134.781 126.038 134.125 128.18C133.731 129.466 133.426 131.047 133.411 132.957C135.382 137.106 137.974 141.052 139.604 143.132C140.95 142.593 141.743 141.748 143.089 141.209C142.887 140.508 142.262 138.193 141.87 136.813C141.565 135.745 141.004 133.768 140.888 133.345C139.922 129.807 140.685 127.152 140.419 122.776C140.109 117.673 138.887 118.266 139.071 115.202C139.345 110.627 142.053 109.559 145.162 102.937C147.29 98.4043 149.525 93.6434 147.471 91.0406Z" fill="#2A51B3"/>
<path d="M142.284 92.0732C142.062 100.607 142.398 110.496 143.865 121.396C145.059 130.27 146.796 138.276 148.709 145.3C148.974 145.443 149.902 145.903 151.09 145.688C151.932 145.535 152.495 145.118 152.745 144.906C152.537 143.471 152.325 141.3 152.498 138.676C152.796 134.166 153.905 133.248 154.381 128.58C154.799 124.488 154.359 121.144 154.146 119.594C153.489 114.822 152.598 114.724 152.581 111.866C152.553 107.465 154.655 105.889 155.811 101.697C156.582 98.8997 156.99 94.724 155.052 88.9979C150.796 90.0229 146.54 91.0482 142.284 92.0732Z" fill="#5D80D9"/>
<path d="M137.735 58.022C136.172 58.8622 134.001 60.2542 131.978 62.4725C127.311 67.5886 124.425 76.0072 127.424 78.7617C129.465 80.6356 134.305 80.068 135.972 77.844C137.198 76.2083 136.316 74.1992 135.892 71.3437C135.437 68.271 135.453 63.8149 137.735 58.022Z" fill="#2A51B3"/>
<path d="M155.858 91.0564C154.13 69.2512 148.62 60.325 149.102 57.6754C148.409 57.1981 145.669 56.4395 139.462 57.2216C138.932 57.4081 137.516 57.955 136.113 59.1829C136.113 59.1829 135.787 59.4677 135.341 59.9678C139.701 60.756 144.142 63.1327 145.741 66.4998C148.511 72.9383 143.367 80.1344 145.741 85.8155C146.989 88.801 148.984 91.4472 151.367 93.9211C154.091 93.2708 155.958 92.3132 155.858 91.0564Z" fill="#5D80D9"/>
<path opacity="0.3" d="M155.052 88.9979C153.806 89.298 152.56 89.5982 151.314 89.8982C151.966 92.0471 152.592 95.2722 151.839 98.9336C150.8 103.989 148.115 105.099 147.721 109.658C147.365 113.76 149.388 114.596 150.357 120.067C151.349 125.673 149.847 128.31 149.533 132.999C149.318 136.208 149.667 140.406 151.706 145.516C152.21 145.325 152.562 145.061 152.745 144.906C152.537 143.471 152.325 141.3 152.498 138.676C152.796 134.166 153.905 133.248 154.381 128.58C154.799 124.488 154.359 121.144 154.146 119.594C153.489 114.822 152.598 114.724 152.581 111.866C152.553 107.465 154.655 105.889 155.811 101.697C156.582 98.8997 156.99 94.724 155.052 88.9979Z" fill="#5D80D9"/>
<path d="M136.113 59.183C136.113 59.183 134.462 60.6215 133.499 62.7348C132.048 65.9186 133.611 68.6519 134.079 73.8512C134.593 79.5547 133.866 89.0561 132.19 92.46C132.161 92.5193 132.088 92.6885 132.118 92.9031C132.571 96.1929 156.206 95.4474 155.858 91.0563C154.13 69.2512 148.621 60.325 149.102 57.6754C148.409 57.1981 145.669 56.4395 139.463 57.2216C138.932 57.4081 137.517 57.9551 136.113 59.183Z" fill="#5D80D9"/>
<path d="M143.139 51.7457C143.139 51.7457 144.665 56.3319 145.159 56.8837C145.654 57.4356 143.175 58.8781 141.275 58.2277C139.531 57.6305 141.277 55.0851 141.277 55.0851L143.139 51.7457Z" fill="#A4B8EA"/>
<path d="M138.402 50.6749C137.803 49.7714 137.887 48.2808 138.739 47.4002C139.471 46.6425 140.526 46.6078 141.158 46.5869C142.988 46.5263 145.216 47.4277 145.877 49.087C146.269 50.0703 145.083 51.9591 144.893 52.3004C144.679 52.6865 144.339 52.7983 144.01 53.0773C143.554 53.4643 142.84 54.0803 141.672 55.1127C141.616 54.7771 141.523 54.36 141.359 53.9028C141.295 53.7269 141.039 53.0389 140.614 52.452C139.762 51.2758 138.969 51.5315 138.402 50.6749Z" fill="#5D80D9"/>
<path d="M143.283 54.2931C143.283 54.2931 141.933 56.0735 139.572 55.7424C137.458 55.446 137.531 50.8594 138.97 49.9959C139.45 49.7079 140.368 49.6438 141.089 49.8986C141.515 50.049 141.648 50.2337 142.349 50.4666C142.995 50.6815 143.187 50.6258 143.373 50.8017C143.605 51.0218 143.746 51.5281 143.218 52.8298C143.656 52.4681 144.156 52.3547 144.488 52.5372C144.541 52.5664 144.678 52.6728 144.748 52.823C145.002 53.3671 144.448 53.9943 143.283 54.2931Z" fill="#C8D4F2"/>
<path d="M138.688 53.5377C138.688 53.5377 139.128 53.8026 139.925 53.8212C139.963 53.8221 140.005 53.8362 140.008 53.8556C140.02 53.929 139.484 54.2127 139.026 54.0504C138.701 53.9351 138.467 53.6134 138.518 53.5402C138.54 53.5092 138.615 53.5193 138.688 53.5377Z" fill="#5D80D9"/>
<path opacity="0.3" d="M149.194 71.8025C146.615 72.6694 143.192 75.1052 142.963 78.2264C142.61 83.0202 150.068 85.6505 149.074 89.0093C148.803 89.9251 147.946 90.7512 142.363 92.6801C140.104 93.4607 138.006 94.0972 136.1 94.6239C142.932 95.5878 156.119 94.3441 155.858 91.056C155.197 82.7087 153.981 76.2544 152.759 71.3114C151.522 71.2648 150.318 71.4245 149.194 71.8025Z" fill="#2A51B3"/>
<path d="M141.073 81.6112C145.269 85.6885 151.258 86.9728 155.863 84.933C162.258 82.1003 163.247 74.0685 161.756 69.0419C159.267 60.65 148.418 55.7562 145 57.9918C142.528 59.6084 142.552 65.8635 145.498 68.9945C148.145 71.8088 152.212 71.0979 153.318 73.965C154.147 76.1125 152.546 78.2764 152.408 78.4566C150.628 80.7901 146.747 81.5818 143.077 79.9794C142.409 80.5233 141.741 81.0672 141.073 81.6112Z" fill="#2A51B3"/>
<path d="M132.767 74.5839C133.108 73.5334 134.218 72.9951 135.091 72.8787C135.946 72.7647 137.354 72.9506 137.915 74.0203C138.44 75.0206 138.027 76.4203 136.822 77.1791C136.652 76.7761 136.348 76.2459 135.812 76.0851C134.828 75.7894 133.974 77.0179 133.246 76.697C132.666 76.4411 132.516 75.355 132.767 74.5839Z" fill="#C8D4F2"/>
<path d="M136.795 80.9523L140.024 81.4897C140.649 81.5938 141.186 81.0589 141.053 80.4648L139.878 75.2364C139.793 74.8582 139.454 74.5813 139.05 74.5606L135.185 74.3627C134.547 74.33 134.08 74.9289 134.293 75.5052L136.105 80.3943C136.213 80.6861 136.477 80.8994 136.795 80.9523Z" fill="white"/>
<path d="M142.43 80.5061C142.165 78.6856 141.363 78.2091 141.073 78.0737C140.587 77.8467 140.347 78.023 138.648 77.9972C137.131 77.9742 136.772 77.8252 136.58 78.0737C136.216 78.5443 136.963 79.7811 137.809 80.5061C138.996 81.5226 140.467 81.6097 141.073 81.6111L142.43 80.5061Z" fill="#C8D4F2"/>
<path d="M95.366 7.36962L109.337 141.877C109.545 143.88 108.104 145.631 106.13 145.769L38.0592 151.227C33.9096 151.366 31.6703 149.227 31.445 147.107L16.3079 4.7305C16.0805 2.59174 18.1536 0.698781 22.3455 0.780506L91.3438 3.56521C93.3485 3.63756 95.1562 5.3496 95.366 7.36962Z" fill="#2A51B3"/>
<path d="M98.4608 7.1983L112.49 142.399C112.699 144.412 111.253 146.172 109.271 146.312L38.6985 151.264C36.4952 151.418 34.5022 149.802 34.2758 147.671L19.0709 4.5402C18.8426 2.39002 20.4925 0.697128 22.7313 0.778119L94.422 3.37383C96.435 3.44679 98.25 5.16778 98.4608 7.1983Z" fill="#1D191F"/>
<path d="M96.9751 14.6583L109.987 139.969C110.183 141.85 108.829 143.492 106.974 143.618L40.5959 148.135C38.5469 148.274 36.6938 146.765 36.4831 144.781L22.4494 12.5773C22.2369 10.5765 23.7691 8.99121 25.8485 9.05457L93.1995 11.1065C95.0813 11.1639 96.7781 12.7622 96.9751 14.6583Z" fill="#D8DEE8"/>
<path d="M61.274 6.37066C61.3498 7.09393 60.8165 7.66103 60.0819 7.63735C59.3466 7.61361 58.6883 7.00695 58.6122 6.28238C58.536 5.55771 59.0712 4.99055 59.8068 5.0157C60.5416 5.04079 61.1982 5.6474 61.274 6.37066Z" fill="white"/>
<g opacity="0.3">
<path d="M54.7399 72.3651C47.7261 52.5267 59.934 42.5324 53.0205 24.1575C49.2591 14.16 41.7294 6.71242 33.446 1.16606L22.7314 0.778123C20.4926 0.697076 18.8427 2.38996 19.0709 4.54014L34.2759 147.671C34.5021 149.802 36.4952 151.418 38.6984 151.264L99.6275 146.988C99.4361 132.043 95.4699 121.407 91.0589 113.846C78.9375 93.0682 62.0025 92.9074 54.7399 72.3651Z" fill="#F4F7FA"/>
</g>
<path d="M94.886 24.7883C105.394 33.121 115.901 41.4537 126.409 49.7864C99.3015 61.4555 102.456 97.1227 75.3484 108.792C64.8406 100.459 54.3329 92.1263 43.8252 83.7936C70.9329 72.1246 67.7783 36.4573 94.886 24.7883Z" fill="#2A51B3"/>
<path d="M121.095 49.3599C98.0989 61.7644 98.9655 93.0919 75.9695 105.496C67.0262 98.4043 58.0829 91.3121 49.1396 84.2201C72.1356 71.8156 71.2689 40.4881 94.2649 28.0836C103.208 35.1757 112.151 42.2678 121.095 49.3599Z" fill="white"/>
<path d="M53.9079 80.5616C54.026 80.6553 54.1298 80.7441 54.2369 80.8427C54.2462 80.8515 54.255 80.8593 54.2642 80.8681C55.4875 81.9947 56.0614 83.4193 55.9199 84.7821C55.798 85.9732 55.1236 87.1119 53.8454 87.9515C53.6591 88.074 53.4578 88.1884 53.2464 88.2973C52.4471 88.7091 51.53 88.9831 50.5577 89.1323C48.3136 87.3527 46.0694 85.573 43.8252 83.7934C46.7066 82.553 49.2461 81.0415 51.5163 79.3165C52.3337 79.5454 53.1998 80.0001 53.9079 80.5616Z" fill="#5D80D9"/>
<path d="M81.3636 102.334C82.1011 102.919 82.5925 103.561 83.0037 104.342C80.7426 106.055 78.2147 107.558 75.3484 108.791C73.0521 106.97 70.7558 105.149 68.4595 103.328C68.992 102.83 69.6662 102.363 70.4653 101.952C70.6767 101.843 70.8929 101.74 71.112 101.644C74.3841 100.207 78.3959 100.208 81.0717 102.115C81.082 102.122 81.0921 102.13 81.1031 102.137C81.1908 102.199 81.2815 102.269 81.3636 102.334Z" fill="#2A51B3"/>
<path d="M94.886 24.7883C97.1302 26.5679 99.3744 28.3476 101.618 30.1272C101.086 30.6252 100.412 31.0921 99.6127 31.5038C99.4012 31.6127 99.1851 31.7154 98.9659 31.8117C95.7272 33.2333 91.7746 33.2557 89.0987 31.4063C88.9734 31.3207 88.8715 31.2464 88.7534 31.1526C88.0457 30.5914 87.4727 29.9046 87.1948 29.2651C89.4651 27.5401 92.0046 26.0286 94.886 24.7883Z" fill="#5D80D9"/>
<path d="M119.52 44.3232C121.816 46.1443 124.113 47.9652 126.409 49.7862C123.543 51.0201 121.015 52.5222 118.754 54.236C117.757 53.8998 116.947 53.5103 116.209 52.925C116.127 52.8599 116.039 52.7878 115.961 52.7184C115.952 52.7097 115.942 52.7017 115.933 52.6936C114.741 51.6408 114.128 50.3104 114.152 49.008C114.176 47.7 114.848 46.4268 116.242 45.5115C116.428 45.3891 116.625 45.271 116.836 45.162C117.635 44.7503 118.548 44.4726 119.52 44.3232Z" fill="#5D80D9"/>
<path d="M90.6108 56.3736C95.6427 60.3639 97.1294 68.1571 94.2299 74.0165C91.3303 79.876 84.6221 81.1705 79.5451 77.1445C74.5132 73.154 73.0264 65.361 75.926 59.5015C78.8257 53.6419 85.5339 52.3474 90.6108 56.3736Z" fill="#2A51B3"/>
<path d="M86.9238 63.3672C86.0382 63.5663 85.1219 64.1423 84.0632 65.3229C83.3172 64.7313 82.5712 64.1398 81.8252 63.5483C81.8545 63.4993 81.8836 63.4502 81.9128 63.4012C82.2056 62.9225 82.5338 62.4913 82.8866 62.1307C83.0887 61.9235 83.3045 61.7288 83.5281 61.5562C83.7785 61.3634 83.7785 60.9458 83.5341 60.7101C83.2266 60.4138 82.919 60.1175 82.6115 59.8212C82.4181 59.6363 82.14 59.6307 81.9597 59.806C81.6571 60.0975 81.3592 60.4248 81.086 60.7459C80.715 61.1814 80.3734 61.6392 80.0497 62.1402C79.7889 61.9334 79.5282 61.7266 79.2674 61.5199C79.0391 61.3387 78.7396 61.3672 78.5872 61.6099C78.4336 61.8529 78.5055 62.1785 78.7356 62.3608C79.0018 62.5718 79.268 62.783 79.5342 62.9941C78.896 64.2556 78.6285 65.4362 78.7506 66.5041C78.8746 67.5796 79.3781 68.4684 80.2646 69.1712C81.1217 69.8512 81.9928 70.0895 82.8727 69.8869C83.7489 69.6853 84.6588 69.0416 85.5958 67.9628C86.4244 68.6236 87.253 69.2845 88.0816 69.9453C87.7569 70.4869 87.3894 70.9847 86.9804 71.4381C86.7181 71.7287 86.4375 72 86.1406 72.2521C85.8863 72.4684 85.8824 72.907 86.1402 73.1507C86.538 73.5268 86.9358 73.9028 87.3336 74.2789C87.5322 74.4665 87.8113 74.4606 87.9918 74.273C88.2897 73.9626 88.5742 73.6265 88.8449 73.2664C89.2103 72.7809 89.5639 72.2316 89.8941 71.6465C89.9341 71.5746 89.9741 71.5028 90.0141 71.431C90.2978 71.656 90.5815 71.881 90.8652 72.1059C91.0953 72.2882 91.3913 72.2619 91.5231 72.0014C91.5245 71.9987 91.5258 71.996 91.5273 71.9933C91.659 71.7329 91.5848 71.4138 91.3556 71.2321C91.068 71.0041 90.7805 70.776 90.4929 70.5479C90.9026 69.6103 91.1296 68.7137 91.1641 67.8762C91.1812 67.5136 91.1646 67.1534 91.1097 66.8082C90.9309 65.6741 90.3915 64.7632 89.495 64.0521C88.6659 63.3946 87.8062 63.1703 86.9238 63.3672ZM86.2641 67.1946C86.6204 66.8458 86.9747 66.6009 87.2844 66.5421C87.5931 66.4827 87.9022 66.5678 88.2034 66.8066C88.5352 67.0695 88.7273 67.3975 88.7903 67.7747C88.853 68.1527 88.7762 68.5553 88.5474 69.0053C87.7863 68.4016 87.0252 67.7981 86.2641 67.1946ZM82.4845 66.6847C82.201 66.7504 81.9254 66.6774 81.6593 66.4666C81.3777 66.2434 81.2109 65.954 81.158 65.5978C81.1052 65.2414 81.1892 64.8117 81.3458 64.4308C82.0308 64.974 82.7157 65.5171 83.4007 66.0603C83.0655 66.4258 82.7683 66.6182 82.4845 66.6847Z" fill="white"/>
<path opacity="0.2" d="M126.307 49.7052C126.341 49.7323 126.375 49.7594 126.409 49.7865C99.3015 61.4556 102.456 97.1228 75.3484 108.792C65.0629 100.635 54.7773 92.4788 44.4917 84.3223C45.988 84.1705 47.6034 84.0802 49.3456 84.1083C51.3574 84.1416 53.538 84.3316 55.92 84.7826C58.5654 85.2831 61.4593 86.1044 64.6659 87.4024C80.5084 93.8377 85.061 88.4192 87.8068 79.2678C88.5609 76.8417 89.2122 74.1712 90.0013 71.4562C90.3493 70.2623 90.7377 69.059 91.1702 67.8641C92.0195 65.5249 93.0411 63.2175 94.2746 61.0744C98.3094 53.7461 105.392 48.7867 114.152 49.0083C115.757 49.0295 117.394 49.2105 119.034 49.5513C119.461 49.6399 119.91 49.7072 120.381 49.7552C122.087 49.9318 124.069 49.8628 126.307 49.7052Z" fill="#5D80D9"/>
<path d="M99.8773 55.0388C100.818 55.3958 101.305 56.3492 100.96 57.1583L79.1823 108.42C78.8099 109.291 77.5046 109.918 76.5341 109.532L41.0575 95.4109C40.1076 95.0328 39.714 93.7152 40.1049 92.8624L62.0649 42.4071C62.4263 41.6148 63.4745 41.2529 64.3952 41.6023L99.8773 55.0388Z" fill="#5D80D9"/>
<path d="M100.457 54.0237C101.404 54.3828 101.895 55.3439 101.546 56.1602L79.365 108.075C78.9902 108.952 77.8837 109.352 76.9072 108.964L41.2086 94.7618C40.2528 94.3816 39.7934 93.3678 40.1866 92.5097L62.3828 41.3211C62.7472 40.5216 63.8032 40.1555 64.7302 40.507L100.457 54.0237Z" fill="#5D80D9"/>
<g opacity="0.7">
<path d="M73.6627 89.543L69.905 97.9681C69.7373 98.3441 69.2693 98.5457 68.8651 98.4158L66.6491 97.7038C66.2447 97.5738 66.052 97.1598 66.2209 96.784L70.0058 88.3633C70.1723 87.9929 70.6366 87.7959 71.0376 87.9253L73.2346 88.6342C73.6354 88.7635 73.828 89.1723 73.6627 89.543Z" fill="#F4F7FA"/>
<path d="M78.6075 78.4566L74.9185 86.7276C74.7538 87.0967 74.2917 87.2932 73.8914 87.164L71.6972 86.4555C71.2967 86.3262 71.1048 85.9184 71.2706 85.5495L74.9862 77.2829C75.1497 76.9192 75.6083 76.7272 76.0054 76.856L78.181 77.5614C78.5779 77.69 78.7698 78.0928 78.6075 78.4566Z" fill="#F4F7FA"/>
<path d="M83.4625 67.5709L79.8404 75.6919C79.6787 76.0543 79.2221 76.2458 78.8258 76.1172L76.653 75.4123C76.2564 75.2837 76.0652 74.8819 76.228 74.5197L79.8763 66.4031C80.0368 66.046 80.4898 65.8588 80.883 65.9869L83.0376 66.6887C83.4306 66.8167 83.6218 67.2137 83.4625 67.5709Z" fill="#F4F7FA"/>
<path d="M88.2307 56.8812L84.6736 64.8563C84.5149 65.2122 84.0639 65.3989 83.6714 65.2709L81.5195 64.5695C81.1268 64.4415 80.9363 64.0456 81.0962 63.69L84.6788 55.7191C84.8365 55.3684 85.2841 55.186 85.6736 55.3134L87.8076 56.0117C88.1967 56.1391 88.3872 56.5302 88.2307 56.8812Z" fill="#F4F7FA"/>
</g>
<path d="M63.0496 90.1168L61.2774 94.1124C60.9549 94.8395 60.0255 95.1716 59.2127 94.8499L54.786 93.098C53.9757 92.7773 53.5795 91.9222 53.9049 91.1981L55.6932 87.2189C56.0165 86.4994 56.9411 86.1712 57.7485 86.4888L62.1591 88.2242C62.969 88.5429 63.37 89.3943 63.0496 90.1168Z" fill="#54C390"/>
<path d="M62.4994 90.2301L60.9762 93.6615C60.6778 94.3338 59.8229 94.6392 59.0711 94.3418L55.2695 92.8378C54.5196 92.5411 54.1547 91.7544 54.4555 91.0845L55.9908 87.6656C56.29 86.9994 57.141 86.6971 57.8885 86.9913L61.6779 88.4829C62.4274 88.7778 62.7962 89.5615 62.4994 90.2301ZM54.6442 91.159C54.3852 91.7359 54.6995 92.4133 55.3452 92.6687L59.1464 94.1723C59.7937 94.4284 60.5299 94.1655 60.7869 93.5866L62.3104 90.1555C62.566 89.5798 62.2486 88.9049 61.6032 88.6508L57.8133 87.159C57.1696 86.9056 56.4366 87.166 56.179 87.7397L54.6442 91.159Z" fill="url(#paint2_linear_301_4661)"/>
<path d="M55.7778 92.9394L58.3201 87.2597L55.7778 92.9394Z" fill="#F4F7FA"/>
<path d="M58.4144 87.2971L55.8725 92.9769L55.6836 92.9022L58.2261 87.2229L58.4144 87.2971Z" fill="url(#paint3_linear_301_4661)"/>
<path d="M57.207 93.5047L59.7448 87.8205L57.207 93.5047Z" fill="#F4F7FA"/>
<path d="M59.8388 87.8575L57.3014 93.542L57.1123 93.4672L59.6504 87.7833L59.8388 87.8575Z" fill="url(#paint4_linear_301_4661)"/>
<path d="M58.6372 94.0703L61.1706 88.3816L58.6372 94.0703Z" fill="#F4F7FA"/>
<path d="M61.2648 88.4189L58.7317 94.108L58.5425 94.0331L61.0761 88.3447L61.2648 88.4189Z" fill="url(#paint5_linear_301_4661)"/>
<path d="M61.3123 90.8412L60.6054 92.4317C60.4257 92.8359 59.9084 93.0205 59.456 92.8417L56.138 91.5306C55.6866 91.3523 55.4653 90.8764 55.6461 90.4733L56.3573 88.8872C56.5376 88.4852 57.0537 88.3017 57.5043 88.4793L60.8167 89.7847C61.2684 89.9627 61.4915 90.438 61.3123 90.8412Z" fill="#FEC045"/>
<path d="M61.4067 90.8785L60.6998 92.4691C60.4989 92.921 59.9239 93.1262 59.4182 92.9264L56.1001 91.6152C55.5955 91.4157 55.3496 90.8868 55.5517 90.4362L56.2631 88.8501C56.4646 88.4008 57.0382 88.1968 57.5419 88.3953L60.8542 89.7006C61.359 89.8995 61.607 90.4278 61.4067 90.8785ZM55.7403 90.5106C55.5799 90.8683 55.7752 91.2882 56.1756 91.4464L59.4935 92.7573C59.8948 92.9159 60.3513 92.7531 60.5107 92.3944L61.2177 90.8039C61.3767 90.4463 61.18 90.0268 60.7792 89.8689L57.4666 88.5634C57.0667 88.4058 56.6114 88.5677 56.4515 88.9245L55.7403 90.5106Z" fill="url(#paint6_linear_301_4661)"/>
<path opacity="0.15" d="M77.6039 87.3222C76.3105 91.8272 75.1649 94.5706 72.7104 97.2014C69.3396 100.814 65.1398 102.461 62.5146 103.238L76.9073 108.964C77.8839 109.352 78.9903 108.952 79.3652 108.074L101.546 56.16C101.895 55.3437 101.405 54.3825 100.457 54.0234L94.7376 51.8547C86.0151 57.5453 82.7234 63.3502 81.352 67.7018C79.6952 72.9596 80.676 76.6214 77.6039 87.3222Z" fill="url(#paint7_linear_301_4661)"/>
<g opacity="0.42">
<path d="M81.6362 89.6848L76.6271 101.305C76.5318 101.527 76.2513 101.628 76.004 101.53L73.9676 100.724C73.7205 100.626 73.5968 100.365 73.6925 100.144L78.7203 88.5428C78.8145 88.3254 79.0922 88.2262 79.3376 88.3222L81.3602 89.1141C81.6058 89.2103 81.7301 89.467 81.6362 89.6848Z" fill="url(#paint8_linear_301_4661)"/>
<path d="M91.3156 67.3946L84.6502 82.8529C84.5552 83.0732 84.2751 83.1746 84.0277 83.0783L81.991 82.285C81.744 82.1888 81.6199 81.9302 81.7152 81.7102L88.4047 66.2765C88.4981 66.0611 88.7748 65.9618 89.0197 66.0558L91.0389 66.8311C91.2841 66.9253 91.4087 67.1789 91.3156 67.3946Z" fill="url(#paint9_linear_301_4661)"/>
</g>
<path opacity="0.26" d="M70.6265 48.7536C73.0823 49.6891 74.2132 52.4082 73.1584 54.8047C72.1136 57.1783 69.3168 58.3348 66.9058 57.4092C64.4981 56.485 63.3528 53.8209 64.353 51.4374C65.363 49.0309 68.1742 47.8194 70.6265 48.7536Z" fill="url(#paint10_linear_301_4661)"/>
<g opacity="0.53">
<path d="M61.4617 84.9644C61.6223 85.3382 61.4345 85.7717 61.0398 85.9317C60.6433 86.0925 60.1916 85.9153 60.033 85.5372C59.8752 85.1608 60.0688 84.7297 60.4631 84.5733C60.8557 84.4177 61.3018 84.5923 61.4617 84.9644Z" fill="#F4F7FA"/>
<path d="M65.1903 83.9206C65.1637 83.9855 65.111 84.0404 65.0386 84.0696C64.8934 84.1283 64.7238 84.062 64.6603 83.9218C63.7218 81.8499 61.2122 80.87 58.9949 81.7069C58.8448 81.7636 58.6759 81.6975 58.6178 81.5596C58.5598 81.4219 58.6344 81.2649 58.7842 81.2089C61.288 80.2718 64.119 81.3766 65.1854 83.7106C65.2173 83.7804 65.2168 83.8555 65.1903 83.9206Z" fill="#F4F7FA"/>
<path d="M64.1352 84.346C64.1079 84.4115 64.0544 84.4669 63.981 84.4966C63.834 84.556 63.6635 84.4893 63.6005 84.3478C62.9161 82.8097 61.0582 82.0837 59.4202 82.7125C59.2695 82.7703 59.0994 82.7038 59.0406 82.5641C58.9818 82.4245 59.0564 82.2652 59.2067 82.208C61.1355 81.4737 63.3207 82.3274 64.1319 84.1339C64.1636 84.2045 64.1625 84.2803 64.1352 84.346Z" fill="#F4F7FA"/>
<path d="M63.0675 84.7772C63.0394 84.8435 62.9849 84.8995 62.9108 84.9294C62.7619 84.9896 62.5904 84.9224 62.5281 84.7797C62.0951 83.7888 60.9014 83.3218 59.8514 83.7319C59.7001 83.7909 59.5289 83.7239 59.4693 83.5824C59.4097 83.441 59.4842 83.2792 59.6351 83.2207C60.2893 82.9675 61.0022 82.9675 61.6463 83.2194C62.2907 83.4714 62.7944 83.9474 63.0659 84.5632C63.0973 84.6343 63.0956 84.7109 63.0675 84.7772Z" fill="#F4F7FA"/>
</g>
<path d="M72.3514 80.0108C72.3514 89.2847 64.7762 96.5799 55.0943 96.2953C45.0182 95.9991 36.5439 87.6687 36.5439 77.6998C36.5439 67.7311 45.0182 60.4944 55.0943 61.4988C64.7762 62.4638 72.3514 70.7369 72.3514 80.0108Z" fill="url(#paint11_linear_301_4661)"/>
<path d="M74.9677 79.2111C74.9677 88.485 67.3925 95.7803 57.7105 95.4956C47.6345 95.1994 39.1602 86.869 39.1602 76.9002C39.1602 66.9314 47.6344 59.6948 57.7105 60.6991C67.3925 61.6642 74.9677 69.9373 74.9677 79.2111Z" fill="url(#paint12_linear_301_4661)"/>
<path d="M74.2076 79.1617C74.2076 88.0272 66.9595 94.9894 57.7103 94.7027C48.1022 94.4049 40.0352 86.4548 40.0352 76.9563C40.0352 67.4578 48.1022 60.5489 57.7103 61.4913C66.9595 62.3984 74.2076 70.2962 74.2076 79.1617Z" fill="url(#paint13_linear_301_4661)"/>
<path d="M73.6635 79.1265C73.6635 87.6996 66.6501 94.4239 57.7105 94.1366C48.4361 93.8385 40.6587 86.16 40.6587 76.9965C40.6587 67.833 48.4361 61.1583 57.7105 62.0573C66.65 62.9239 73.6635 70.5536 73.6635 79.1265Z" fill="#A19B01"/>
<path d="M57.6191 64.9742C58.0949 65.0175 58.4799 65.4275 58.4799 65.89V67.4684C59.4311 67.5701 60.3836 67.7284 61.3376 67.943C62.041 68.1013 62.7396 68.2897 63.4335 68.508C63.8493 68.6389 64.1326 69.0408 64.0902 69.4553L63.8877 71.4346C63.834 71.9597 63.2917 72.2681 62.7813 72.0502C62.3242 71.855 61.8555 71.6879 61.3752 71.5487C60.5371 71.306 59.6532 71.1477 58.7231 71.0743L58.4799 71.0551V75.5756C60.9615 76.2402 62.784 77.1344 63.9618 78.259C65.134 79.3782 65.7179 80.7731 65.7179 82.4477C65.7179 84.2586 65.0723 85.7087 63.7759 86.8023C62.4725 87.9017 60.6452 88.5201 58.2822 88.654V90.3961C58.2822 90.8588 57.8969 91.2192 57.4207 91.2011L57.4055 91.2005C56.9284 91.1824 56.541 90.7913 56.541 90.327V88.6085L56.1575 88.5919C55.0498 88.5441 53.9887 88.4358 52.9749 88.2671C52.2241 88.1421 51.4909 87.9807 50.7755 87.7828C50.3429 87.6632 50.0459 87.2687 50.0856 86.8448L50.3239 84.3005C50.3754 83.7504 50.9525 83.4304 51.4989 83.6367C52.1358 83.8771 52.7805 84.0797 53.4332 84.2445C54.4503 84.5012 55.4812 84.6659 56.5257 84.739L56.5411 79.7107C54.159 79.1465 52.3756 78.3107 51.2039 77.2038C50.0267 76.0915 49.436 74.6682 49.436 72.9377C49.436 71.1467 50.0765 69.7643 51.3526 68.7941C52.6222 67.8287 54.4271 67.3485 56.7556 67.3498V65.7361C56.7554 65.2718 57.1424 64.9308 57.6191 64.9742ZM56.7554 71.0083C56.0192 71.0596 55.4451 71.2531 55.0342 71.5892C54.6227 71.9258 54.4167 72.3783 54.4167 72.9461C54.4167 73.4841 54.6073 73.9337 54.988 74.2947C55.3682 74.655 55.9578 74.9428 56.7554 75.1578V71.0083H56.7554ZM58.2821 80.1136V84.7248C59.0824 84.7263 59.6961 84.5434 60.1244 84.1766C60.5521 83.8104 60.7657 83.2931 60.7657 82.6244C60.7657 82.0146 60.5672 81.5089 60.1698 81.1067C59.7717 80.7039 59.1431 80.3729 58.2821 80.1136Z" fill="url(#paint14_linear_301_4661)"/>
<path opacity="0.3" d="M54.8237 81.2263C55.3627 76.1302 60.2552 73.9729 59.6167 69.2854C59.2231 66.3962 56.9357 63.9614 54.3838 62.0603C46.6438 62.8374 40.6587 68.9725 40.6587 76.9969C40.6587 86.1604 48.4361 93.8389 57.7105 94.137C58.611 94.1659 59.4905 94.1211 60.3456 94.0138C56.6624 90.5052 54.3606 85.6044 54.8237 81.2263Z" fill="url(#paint15_linear_301_4661)"/>
<path d="M63.1198 43.0433C63.1198 49.2894 58.0178 54.2029 51.4969 54.0112C44.7105 53.8116 39.0029 48.201 39.0029 41.4868C39.0029 34.7727 44.7105 29.8987 51.4969 30.5752C58.0178 31.2252 63.1198 36.7972 63.1198 43.0433Z" fill="url(#paint16_linear_301_4661)"/>
<path d="M64.882 42.5048C64.882 48.7509 59.78 53.6644 53.2591 53.4727C46.4727 53.2732 40.7651 47.6625 40.7651 40.9484C40.7651 34.2343 46.4727 29.3603 53.2591 30.0368C59.78 30.6868 64.882 36.2588 64.882 42.5048Z" fill="url(#paint17_linear_301_4661)"/>
<path d="M64.3701 42.4717C64.3701 48.4427 59.4884 53.1319 53.259 52.9388C46.7877 52.7382 41.3545 47.3837 41.3545 40.9863C41.3545 34.5889 46.7877 29.9358 53.259 30.5704C59.4884 31.1814 64.3701 36.5007 64.3701 42.4717Z" fill="#93D9B9"/>
<path d="M64.0037 42.4481C64.0037 48.2222 59.28 52.7511 53.2591 52.5576C47.0126 52.3568 41.7744 47.1852 41.7744 41.0134C41.7744 34.8417 47.0126 30.3463 53.2591 30.9517C59.28 31.5354 64.0037 36.6741 64.0037 42.4481Z" fill="#D7CE01"/>
<path d="M53.1972 32.916C53.5177 32.9452 53.777 33.2213 53.777 33.5328V34.5959C54.4176 34.6644 55.0592 34.771 55.7017 34.9155C56.1754 35.0221 56.6459 35.1489 57.1133 35.296C57.3933 35.3842 57.5841 35.6548 57.5555 35.934L57.4192 37.2671C57.383 37.6208 57.0177 37.8285 56.6739 37.6817C56.3661 37.5503 56.0504 37.4377 55.7269 37.344C55.1624 37.1805 54.5671 37.0739 53.9407 37.0244L53.7769 37.0116V40.0561C55.4483 40.5038 56.6758 41.106 57.469 41.8634C58.2584 42.6173 58.6517 43.5567 58.6517 44.6846C58.6517 45.9042 58.2169 46.8809 57.3437 47.6175C56.4659 48.358 55.2351 48.7745 53.6437 48.8646V50.038C53.6437 50.3496 53.3842 50.5923 53.0635 50.5802L53.0532 50.5798C52.7319 50.5676 52.4709 50.3041 52.4709 49.9914V48.8339L52.2126 48.8228C51.4665 48.7906 50.7519 48.7177 50.0691 48.604C49.5634 48.5198 49.0696 48.4111 48.5877 48.2778C48.2963 48.1972 48.0963 47.9315 48.123 47.6461L48.2835 45.9324C48.3182 45.562 48.7069 45.3464 49.0749 45.4854C49.5038 45.6474 49.9381 45.7838 50.3777 45.8947C51.0627 46.0677 51.757 46.1786 52.4605 46.2279L52.4709 42.8412C50.8665 42.4612 49.6654 41.8983 48.8762 41.1527C48.0834 40.4036 47.6855 39.445 47.6855 38.2794C47.6855 37.0732 48.1169 36.1421 48.9764 35.4886C49.8315 34.8384 51.0471 34.515 52.6154 34.5158V33.429C52.6155 33.1164 52.8762 32.8868 53.1972 32.916ZM52.6155 36.98C52.1197 37.0146 51.733 37.1449 51.4563 37.3712C51.1791 37.598 51.0403 37.9027 51.0403 38.2851C51.0403 38.6474 51.1687 38.9503 51.4252 39.1934C51.6812 39.4361 52.0783 39.6299 52.6155 39.7747V36.98ZM53.6438 43.1126V46.2183C54.1828 46.2193 54.5961 46.0961 54.8846 45.849C55.1727 45.6024 55.3165 45.254 55.3165 44.8036C55.3165 44.3929 55.1828 44.0523 54.9151 43.7815C54.647 43.5101 54.2237 43.2872 53.6438 43.1126Z" fill="url(#paint18_linear_301_4661)"/>
<path opacity="0.3" d="M51.3147 43.862C51.6778 40.4297 54.9729 38.9767 54.5429 35.8196C54.2778 33.8737 52.7372 32.2338 51.0185 30.9534C45.8054 31.4768 41.7744 35.6089 41.7744 41.0134C41.7744 47.1852 47.0126 52.3568 53.259 52.5576C53.8655 52.5771 54.4579 52.5469 55.0339 52.4746C52.5531 50.1115 51.0028 46.8107 51.3147 43.862Z" fill="url(#paint19_linear_301_4661)"/>
<path d="M100.728 89.8151L104.617 133.282C104.718 134.404 104.362 135.457 103.616 136.211C102.977 136.86 102.119 137.299 101.118 137.38L43.8303 141.998C41.4032 142.194 39.324 140.542 39.1516 138.327L35.552 92.0825C35.3826 89.9059 37.1861 88.0115 39.5994 87.9364L96.5312 86.1639C98.6915 86.0966 100.545 87.7682 100.728 89.8151Z" fill="#1D191F"/>
<path opacity="0.2" d="M103.679 136.211C103.04 136.86 102.159 137.299 101.157 137.38L43.8495 141.998C41.4224 142.194 39.324 140.542 39.1516 138.327L35.552 92.0827C35.3826 89.906 37.1861 88.0117 39.5994 87.9366L40.2623 87.9159C40.5026 89.1095 40.825 90.4497 41.133 91.7356C41.1758 91.9144 41.2196 92.1075 41.2616 92.2788C41.619 93.7631 41.9253 94.9839 41.9798 95.141C43.7663 100.262 46.2918 106.146 51.6275 109.008C59.7807 113.386 70.1039 112.6 78.678 114.996C84.3246 116.575 90.1214 118.709 94.6138 122.279C97.896 124.889 100.666 128.106 102.286 131.87C102.873 133.233 103.333 134.703 103.679 136.211Z" fill="#1D191F"/>
<g opacity="0.7">
<path d="M96.5355 135.488C96.5348 135.488 96.5338 135.488 96.5329 135.488L94.5594 135.605C94.3351 135.622 94.1366 135.444 94.1178 135.23C94.0991 135.016 94.2644 134.856 94.4888 134.839L96.4583 134.714C96.4591 134.714 96.4599 134.714 96.4605 134.714C96.7981 134.714 97.1265 134.587 97.4418 134.487C97.6533 134.419 97.884 134.511 97.9547 134.714C98.0257 134.918 97.9139 135.165 97.7018 135.233C97.3255 135.352 96.9376 135.488 96.5355 135.488ZM91.4691 135.809L88.363 136.053C88.1359 136.07 87.9367 135.91 87.918 135.694C87.8994 135.479 88.0684 135.29 88.2954 135.272L91.4013 135.031C91.6269 135.014 91.8249 135.174 91.8436 135.388C91.8623 135.603 91.6947 135.792 91.4691 135.809ZM85.2383 136.297L82.0951 136.544C81.8653 136.562 81.6639 136.4 81.6455 136.184C81.6269 135.967 81.7983 135.777 82.028 135.759L85.1711 135.515C85.3993 135.497 85.5994 135.658 85.618 135.874C85.6366 136.09 85.4666 136.28 85.2383 136.297ZM78.933 136.791L75.7522 137.041C75.5197 137.059 75.3162 136.897 75.2979 136.679C75.2795 136.461 75.4531 136.269 75.6856 136.251L78.8662 136.004C79.0972 135.986 79.2994 136.148 79.3179 136.365C79.3363 136.582 79.1641 136.773 78.933 136.791ZM72.552 137.291L69.3326 137.544C69.0972 137.562 68.8916 137.399 68.8733 137.18C68.8551 136.96 69.0312 136.767 69.2665 136.749L72.4857 136.499C72.7195 136.481 72.9239 136.644 72.9422 136.862C72.9605 137.081 72.7859 137.273 72.552 137.291ZM66.0936 137.797L62.835 138.053C62.5968 138.071 62.389 137.908 62.3708 137.687C62.3527 137.466 62.5312 137.272 62.7694 137.253L66.0278 137.001C66.2644 136.982 66.4709 137.146 66.4891 137.366C66.5073 137.586 66.3302 137.779 66.0936 137.797ZM59.5565 138.31L56.258 138.568C56.0169 138.587 55.8067 138.422 55.7888 138.2C55.7708 137.978 55.9519 137.782 56.1929 137.764L59.4911 137.508C59.7307 137.489 59.9394 137.654 59.9574 137.875C59.9756 138.096 59.796 138.291 59.5565 138.31ZM52.9393 138.828L49.6001 139.09C49.356 139.109 49.1436 138.943 49.1258 138.719C49.108 138.496 49.2915 138.299 49.5356 138.28L52.8744 138.021C53.1169 138.002 53.3279 138.168 53.3458 138.39C53.3638 138.613 53.1817 138.809 52.9393 138.828ZM46.2409 139.259C46.2113 139.261 46.1812 139.261 46.1505 139.258C44.9316 139.127 43.7823 138.616 42.9158 137.818C42.7427 137.659 42.7461 137.4 42.9231 137.241C43.1005 137.081 43.3838 137.081 43.5565 137.24C44.2827 137.909 45.2452 138.338 46.2661 138.448C46.5101 138.475 46.6819 138.677 46.6501 138.9C46.6223 139.096 46.4477 139.243 46.2409 139.259ZM99.9867 133.454C99.8996 133.46 99.8097 133.44 99.731 133.39C99.545 133.272 99.4933 133.032 99.6159 132.854C100.135 132.1 100.367 131.223 100.287 130.318C100.268 130.106 100.433 129.92 100.654 129.904C100.875 129.888 101.07 130.047 101.089 130.259C101.185 131.338 100.909 132.383 100.29 133.283C100.219 133.385 100.106 133.445 99.9867 133.454ZM41.8456 135.191C41.6055 135.208 41.3863 135.059 41.3604 134.84C41.3533 134.78 41.3404 134.728 41.3357 134.667L41.1074 131.75C41.0898 131.526 41.2378 131.327 41.485 131.31C41.7321 131.293 41.9083 131.458 41.9259 131.682L42.1544 134.596C42.1584 134.647 42.2088 134.692 42.2148 134.742C42.2411 134.966 42.0861 135.171 41.8389 135.189C41.8334 135.189 41.8508 135.19 41.8456 135.191ZM100.637 129.204C100.415 129.221 100.296 129.062 100.277 128.85L100.018 125.935C99.9994 125.723 100.088 125.538 100.31 125.523C100.531 125.507 100.65 125.666 100.669 125.878L100.928 128.79C100.947 129.002 100.858 129.188 100.637 129.204ZM41.3074 129.044C41.0603 129.061 40.8838 128.895 40.8662 128.67L40.6254 125.594C40.6079 125.37 40.7559 125.173 41.0029 125.157C41.2498 125.141 41.4259 125.308 41.4435 125.532L41.6845 128.605C41.7021 128.829 41.5545 129.027 41.3074 129.044ZM100.119 123.381C99.8981 123.396 99.7786 123.236 99.7598 123.024L99.5016 120.116C99.4828 119.904 99.5718 119.721 99.7931 119.707C100.014 119.693 100.133 119.853 100.152 120.064L100.411 122.97C100.429 123.182 100.341 123.366 100.119 123.381ZM40.8258 122.896C40.5788 122.911 40.4024 122.744 40.3849 122.52L40.1446 119.45C40.1271 119.227 40.2751 119.032 40.522 119.018C40.7687 119.003 40.9448 119.171 40.9622 119.394L41.2028 122.461C41.2203 122.685 41.0726 122.88 40.8258 122.896ZM99.6032 117.569C99.3819 117.583 99.2624 117.422 99.2437 117.211L98.986 114.308C98.9672 114.097 99.0563 113.915 99.2775 113.903C99.4985 113.89 99.6177 114.051 99.6365 114.262L99.8943 117.162C99.913 117.373 99.8243 117.555 99.6032 117.569ZM40.3451 116.761C40.0984 116.775 39.922 116.607 39.9045 116.384L39.6648 113.32C39.6473 113.097 39.7953 112.905 40.042 112.892C40.2886 112.878 40.4645 113.047 40.482 113.27L40.722 116.331C40.7395 116.554 40.5919 116.747 40.3451 116.761ZM99.088 111.769C98.8669 111.782 98.7474 111.62 98.7287 111.409L98.4715 108.513C98.4528 108.302 98.5419 108.122 98.763 108.11C98.9839 108.099 99.1031 108.261 99.1218 108.471L99.379 111.365C99.3978 111.576 99.309 111.757 99.088 111.769ZM39.8656 110.64C39.6189 110.653 39.4427 110.483 39.4252 110.26L39.186 107.204C39.1686 106.981 39.3166 106.791 39.5631 106.779C39.8095 106.767 39.9854 106.937 40.0028 107.159L40.2423 110.213C40.2597 110.436 40.1121 110.627 39.8656 110.64ZM98.5738 105.981C98.3528 105.992 98.2333 105.83 98.2146 105.619L97.9581 102.729C97.9393 102.518 98.0285 102.34 98.2495 102.33C98.4703 102.32 98.5894 102.483 98.6082 102.693L98.8649 105.581C98.8835 105.791 98.7947 105.97 98.5738 105.981ZM39.387 104.532C39.1405 104.544 38.9644 104.373 38.947 104.15L38.7082 101.1C38.6908 100.878 38.8387 100.69 39.0851 100.679C39.3314 100.669 39.5071 100.84 39.5245 101.062L39.7635 104.109C39.781 104.331 39.6334 104.521 39.387 104.532ZM98.0607 100.205C97.8399 100.215 97.7204 100.052 97.7018 99.8412L97.4457 96.9569C97.427 96.7469 97.5163 96.5706 97.7371 96.5615C97.9578 96.5524 98.0769 96.7165 98.0956 96.9264L98.3517 99.8081C98.3704 100.018 98.2815 100.195 98.0607 100.205ZM38.9095 98.4374C38.6632 98.4474 38.4871 98.2755 38.4697 98.0536L38.2905 95.7637C38.2691 95.4903 38.2803 95.2145 38.3083 94.9452C38.3315 94.7249 38.554 94.5704 38.799 94.5954C39.0447 94.6226 39.1815 94.8237 39.1586 95.0436C39.1349 95.2694 39.0885 95.501 39.1065 95.7304L39.2859 98.0182C39.3033 98.2398 39.1558 98.4274 38.9095 98.4374ZM97.5487 94.4411C97.3279 94.4497 97.2085 94.2851 97.1898 94.0752L97.1403 93.5176C97.0771 92.8059 96.7537 92.1173 96.3182 91.5241C96.189 91.3481 96.2007 91.1134 96.381 90.9991C96.5616 90.885 96.7821 90.9359 96.9111 91.1118C97.4302 91.8194 97.7146 92.6422 97.79 93.4901L97.8396 94.0473C97.8582 94.2569 97.7694 94.4324 97.5487 94.4411ZM40.1689 92.7186C40.0482 92.7229 39.9248 92.6834 39.8303 92.5998C39.6518 92.4425 39.6448 92.1889 39.8143 92.0334C40.6623 91.2562 41.7966 90.7619 43.0072 90.6408C43.2487 90.6207 43.4738 90.7746 43.5091 90.9936C43.5442 91.2126 43.3765 91.4099 43.1345 91.4344C42.1203 91.5366 41.1704 91.9515 40.46 92.6032C40.3803 92.6764 40.2759 92.7148 40.1689 92.7186ZM94.1785 89.956C94.1304 89.9577 94.0808 89.9511 94.0318 89.9354C93.5381 89.7775 93.0252 89.7065 92.507 89.7243L91.1374 89.7714C90.9143 89.7791 90.7183 89.6145 90.6998 89.4039C90.6813 89.1933 90.8474 89.0164 91.0705 89.0089L92.44 88.9628C93.0574 88.942 93.669 89.0272 94.2578 89.2159C94.4715 89.2844 94.594 89.5008 94.5315 89.6993C94.4837 89.8525 94.3397 89.9504 94.1785 89.956ZM88.0664 89.8771L84.9772 89.9834C84.7515 89.9912 84.5534 89.8257 84.5351 89.6138C84.5167 89.4019 84.685 89.224 84.9107 89.2164L87.9997 89.1123C88.224 89.1048 88.4208 89.2698 88.4392 89.4809C88.4577 89.692 88.2907 89.8694 88.0664 89.8771ZM81.8699 90.0904L78.7442 90.1979C78.5157 90.2058 78.3157 90.0393 78.2974 89.8262C78.2792 89.613 78.4497 89.434 78.6782 89.4263L81.8036 89.321C82.0306 89.3134 82.2294 89.4793 82.2477 89.6916C82.266 89.904 82.0969 90.0825 81.8699 90.0904ZM75.5999 90.3061L72.437 90.415C72.2058 90.4229 72.0036 90.2555 71.9855 90.041C71.9674 89.8266 72.1402 89.6465 72.3714 89.6387L75.5341 89.5321C75.7639 89.5244 75.9647 89.6913 75.9829 89.9049C76.001 90.1186 75.8296 90.2982 75.5999 90.3061ZM69.2552 90.5244L66.0545 90.6346C65.8205 90.6426 65.6163 90.4742 65.5983 90.2585C65.5803 90.0428 65.7555 89.8615 65.9895 89.8536L69.1899 89.7458C69.4223 89.738 69.6253 89.9059 69.6433 90.1208C69.6614 90.3357 69.4876 90.5165 69.2552 90.5244ZM62.8342 90.7454L59.595 90.8569C59.3582 90.865 59.1517 90.6956 59.1339 90.4786C59.1161 90.2616 59.2937 90.0792 59.5305 90.0712L62.7694 89.9621C63.0046 89.9542 63.2099 90.123 63.2277 90.3393C63.2457 90.5555 63.0695 90.7373 62.8342 90.7454ZM56.336 90.969L53.0573 91.0818C52.8177 91.0901 52.609 90.9197 52.5913 90.7013C52.5736 90.483 52.7537 90.2994 52.9933 90.2914L56.2718 90.1809C56.5099 90.1729 56.7173 90.3427 56.735 90.5603C56.7527 90.7778 56.5741 90.9608 56.336 90.969ZM49.7587 91.1954L46.44 91.3096C46.1974 91.3179 45.9865 91.1466 45.9689 90.9268C45.9514 90.7072 46.1339 90.5225 46.3765 90.5143L49.6949 90.4025C49.9359 90.3943 50.1455 90.5652 50.1631 90.784C50.1808 91.0029 49.9997 91.1871 49.7587 91.1954Z" fill="white"/>
</g>
<path d="M103.037 101.786C102.688 101.582 102.27 101.55 101.905 101.701L90.256 106.472C88.5849 107.164 87.4442 108.784 87.5955 110.526L87.9975 115.158C88.1585 117.012 89.7246 118.562 91.644 118.967L103.699 121.494C104.08 121.574 104.493 121.478 104.783 121.235C105.072 120.992 105.241 120.63 105.208 120.258L103.634 102.725C103.599 102.341 103.386 101.99 103.037 101.786Z" fill="#546286"/>
<path d="M95.3408 112.316C95.4538 113.597 94.4526 114.7 93.1012 114.779C91.7464 114.858 90.5545 113.878 90.4421 112.591C90.3298 111.304 91.3391 110.202 92.6933 110.129C94.044 110.056 95.2279 111.035 95.3408 112.316Z" fill="#1D191F"/>
<defs>
<linearGradient id="paint0_linear_301_4661" x1="143.034" y1="138.903" x2="139.602" y2="144.794" gradientUnits="userSpaceOnUse">
<stop stop-color="#FFC444"/>
<stop offset="0.9964" stop-color="#F36F56"/>
</linearGradient>
<linearGradient id="paint1_linear_301_4661" x1="149.463" y1="148.514" x2="152.783" y2="141.335" gradientUnits="userSpaceOnUse">
<stop stop-color="#FFC444"/>
<stop offset="0.9964" stop-color="#F36F56"/>
</linearGradient>
<linearGradient id="paint2_linear_301_4661" x1="57.1369" y1="93.8227" x2="58.9309" y2="87.2668" gradientUnits="userSpaceOnUse">
<stop stop-color="#FF9085"/>
<stop offset="1" stop-color="#FB6FBB"/>
</linearGradient>
<linearGradient id="paint3_linear_301_4661" x1="55.8619" y1="92.974" x2="57.4908" y2="87.0217" gradientUnits="userSpaceOnUse">
<stop stop-color="#FF9085"/>
<stop offset="1" stop-color="#FB6FBB"/>
</linearGradient>
<linearGradient id="paint4_linear_301_4661" x1="57.2879" y1="93.5383" x2="58.9176" y2="87.5828" gradientUnits="userSpaceOnUse">
<stop stop-color="#FF9085"/>
<stop offset="1" stop-color="#FB6FBB"/>
</linearGradient>
<linearGradient id="paint5_linear_301_4661" x1="58.7153" y1="94.1035" x2="60.3459" y2="88.1449" gradientUnits="userSpaceOnUse">
<stop stop-color="#FF9085"/>
<stop offset="1" stop-color="#FB6FBB"/>
</linearGradient>
<linearGradient id="paint6_linear_301_4661" x1="57.713" y1="92.4665" x2="58.7392" y2="88.7164" gradientUnits="userSpaceOnUse">
<stop stop-color="#FF9085"/>
<stop offset="1" stop-color="#FB6FBB"/>
</linearGradient>
<linearGradient id="paint7_linear_301_4661" x1="71.7501" y1="103.889" x2="100.624" y2="11.4951" gradientUnits="userSpaceOnUse">
<stop stop-color="#FB6FBB"/>
<stop offset="1" stop-color="#FF9085"/>
</linearGradient>
<linearGradient id="paint8_linear_301_4661" x1="74.9801" y1="101.253" x2="78.5765" y2="88.1108" gradientUnits="userSpaceOnUse">
<stop stop-color="#FB6FBB"/>
<stop offset="1" stop-color="#FF9085"/>
</linearGradient>
<linearGradient id="paint9_linear_301_4661" x1="83.0202" y1="82.8056" x2="87.7031" y2="65.6929" gradientUnits="userSpaceOnUse">
<stop stop-color="#FB6FBB"/>
<stop offset="1" stop-color="#FF9085"/>
</linearGradient>
<linearGradient id="paint10_linear_301_4661" x1="67.4829" y1="57.607" x2="68.9349" y2="48.3824" gradientUnits="userSpaceOnUse">
<stop stop-color="#FF9085"/>
<stop offset="1" stop-color="#FB6FBB"/>
</linearGradient>
<linearGradient id="paint11_linear_301_4661" x1="48.3111" y1="80.7361" x2="27.6049" y2="87.6779" gradientUnits="userSpaceOnUse">
<stop stop-color="#FCB148"/>
<stop offset="0.0521" stop-color="#FDBA46"/>
<stop offset="0.1424" stop-color="#FFC244"/>
<stop offset="0.3183" stop-color="#FFC444"/>
<stop offset="0.4849" stop-color="#FDB946"/>
<stop offset="0.7754" stop-color="#F99C4D"/>
<stop offset="0.8658" stop-color="#F8924F"/>
<stop offset="1" stop-color="#F8924F"/>
</linearGradient>
<linearGradient id="paint12_linear_301_4661" x1="65.2039" y1="60.8375" x2="47.8729" y2="100.779" gradientUnits="userSpaceOnUse">
<stop stop-color="#FFDB44"/>
<stop offset="1" stop-color="#FEEF06"/>
</linearGradient>
<linearGradient id="paint13_linear_301_4661" x1="61.7744" y1="102.41" x2="58.4691" y2="83.5473" gradientUnits="userSpaceOnUse">
<stop stop-color="#FCB148"/>
<stop offset="0.0521" stop-color="#FDBA46"/>
<stop offset="0.1424" stop-color="#FFC244"/>
<stop offset="0.3183" stop-color="#FFC444"/>
<stop offset="0.4849" stop-color="#FDB946"/>
<stop offset="0.7754" stop-color="#F99C4D"/>
<stop offset="0.8658" stop-color="#F8924F"/>
<stop offset="1" stop-color="#F8924F"/>
</linearGradient>
<linearGradient id="paint14_linear_301_4661" x1="53.5575" y1="65.4791" x2="60.4266" y2="92.3721" gradientUnits="userSpaceOnUse">
<stop stop-color="#FFDB44"/>
<stop offset="1" stop-color="#FEEF06"/>
</linearGradient>
<linearGradient id="paint15_linear_301_4661" x1="49.7867" y1="73.9111" x2="63.5532" y2="104.439" gradientUnits="userSpaceOnUse">
<stop stop-color="#FCB148"/>
<stop offset="0.0521" stop-color="#FDBA46"/>
<stop offset="0.1424" stop-color="#FFC244"/>
<stop offset="0.3183" stop-color="#FFC444"/>
<stop offset="0.4849" stop-color="#FDB946"/>
<stop offset="0.7754" stop-color="#F99C4D"/>
<stop offset="0.8658" stop-color="#F8924F"/>
<stop offset="1" stop-color="#F8924F"/>
</linearGradient>
<linearGradient id="paint16_linear_301_4661" x1="46.9283" y1="43.5319" x2="32.9823" y2="48.2072" gradientUnits="userSpaceOnUse">
<stop stop-color="#FCB148"/>
<stop offset="0.0521" stop-color="#FDBA46"/>
<stop offset="0.1424" stop-color="#FFC244"/>
<stop offset="0.3183" stop-color="#FFC444"/>
<stop offset="0.4849" stop-color="#FDB946"/>
<stop offset="0.7754" stop-color="#F99C4D"/>
<stop offset="0.8658" stop-color="#F8924F"/>
<stop offset="1" stop-color="#F8924F"/>
</linearGradient>
<linearGradient id="paint17_linear_301_4661" x1="58.306" y1="30.13" x2="46.6333" y2="57.0312" gradientUnits="userSpaceOnUse">
<stop stop-color="#FFDB44"/>
<stop offset="1" stop-color="#FEEF06"/>
</linearGradient>
<linearGradient id="paint18_linear_301_4661" x1="50.4617" y1="33.256" x2="55.0881" y2="51.3689" gradientUnits="userSpaceOnUse">
<stop stop-color="#FFDB44"/>
<stop offset="1" stop-color="#FEEF06"/>
</linearGradient>
<linearGradient id="paint19_linear_301_4661" x1="47.9222" y1="38.9351" x2="57.1942" y2="59.496" gradientUnits="userSpaceOnUse">
<stop stop-color="#FCB148"/>
<stop offset="0.0521" stop-color="#FDBA46"/>
<stop offset="0.1424" stop-color="#FFC244"/>
<stop offset="0.3183" stop-color="#FFC444"/>
<stop offset="0.4849" stop-color="#FDB946"/>
<stop offset="0.7754" stop-color="#F99C4D"/>
<stop offset="0.8658" stop-color="#F8924F"/>
<stop offset="1" stop-color="#F8924F"/>
</linearGradient>
</defs>
</svg>
