<svg width="162" height="161" viewBox="0 0 162 161" fill="none" xmlns="http://www.w3.org/2000/svg">
<path d="M28.3525 29.4286L0.960449 29.3882C0.960449 29.3882 2.32477 27.6926 3.82691 27.4825C3.82691 27.4825 6.75996 19.1645 11.6493 19.1122C16.1948 19.0637 18.0086 24.2396 18.0086 24.2396C18.0086 24.2396 20.1178 21.9222 22.1279 22.9862C24.138 24.0502 25.2723 27.0893 25.2723 27.0893C25.2723 27.0893 27.5333 28.26 28.3525 29.4286Z" fill="#EBEBEB"/>
<path d="M126.378 36.8393L161.018 36.89C161.018 36.89 161.021 34.7709 156.249 34.3491C156.249 34.3491 151.907 25.0827 145.254 26.3168C141.11 27.0855 138.983 32.5268 138.983 32.5268C138.983 32.5268 135.86 28.2377 133.355 29.0635C130.85 29.8892 129.356 34.4477 129.356 34.4477C129.356 34.4477 126.771 35.6418 126.378 36.8393Z" fill="#EBEBEB"/>
<path d="M120.672 68.5497L144.226 68.5841C144.226 68.5841 142.007 66.6002 141.019 66.5991C140.031 66.5976 137.158 59.9448 133.473 60.2224C129.789 60.5 127.826 65.448 127.826 65.448C127.826 65.448 123.35 64.0975 120.672 68.5497Z" fill="#EBEBEB"/>
<path d="M117.163 11.2923L137.305 11.322C137.305 11.322 136.306 10.0723 135.201 9.91439C135.201 9.91439 133.064 3.79151 129.469 3.74259C126.127 3.69701 124.781 7.49912 124.781 7.49912C124.781 7.49912 123.235 5.7906 121.755 6.56851C120.275 7.34642 119.433 9.57899 119.433 9.57899C119.433 9.57899 117.768 10.4351 117.163 11.2923Z" fill="#EBEBEB"/>
<path d="M14.3252 57.9577L34.4675 57.9873C34.4675 57.9873 33.4682 56.7376 32.3641 56.5801C32.3641 56.5801 30.2266 50.4572 26.6315 50.4083C23.2893 50.3631 21.9435 54.1648 21.9435 54.1648C21.9435 54.1648 20.398 52.4563 18.9172 53.2342C17.4367 54.0121 16.5954 56.2443 16.5954 56.2443C16.5954 56.2443 14.9303 57.1004 14.3252 57.9577Z" fill="#EBEBEB"/>
<path d="M2.85205 60.1024V130.893H159.126V89.8225H145.569V105.585H142.079V96.6633H124.84V110.792H122.558V55.0239H107.576V86.7327H99.8928V98.0586H97.5664V90.9362H83.9453V112.187H79.9631V94.9136H67.5054V81.7888H59.0361V74.3176H49.2377V107.463H45.9392V71.0184H29.8V90.8187H27.5693V74.6589H11.1998V60.1024H2.85205Z" fill="#EBEBEB"/>
<path d="M155.17 94.8191H157.464V91.806H155.17V94.8191Z" fill="#FAFAFA"/>
<path d="M151.195 94.8191H153.489V91.806H151.195V94.8191Z" fill="#FAFAFA"/>
<path d="M147.219 94.8191H149.513V91.806H147.219V94.8191Z" fill="#FAFAFA"/>
<path d="M155.17 99.353H157.464V96.3395H155.17V99.353Z" fill="#FAFAFA"/>
<path d="M151.195 99.353H153.489V96.3395H151.195V99.353Z" fill="#FAFAFA"/>
<path d="M147.219 99.353H149.513V96.3395H147.219V99.353Z" fill="#FAFAFA"/>
<path d="M155.17 103.887H157.464V100.874H155.17V103.887Z" fill="#FAFAFA"/>
<path d="M151.195 103.887H153.489V100.874H151.195V103.887Z" fill="#FAFAFA"/>
<path d="M147.219 103.887H149.513V100.874H147.219V103.887Z" fill="#FAFAFA"/>
<path d="M155.17 108.421H157.464V105.408H155.17V108.421Z" fill="#FAFAFA"/>
<path d="M151.195 108.421H153.489V105.408H151.195V108.421Z" fill="#FAFAFA"/>
<path d="M147.219 108.421H149.513V105.408H147.219V108.421Z" fill="#FAFAFA"/>
<path d="M75.7555 99.5787H78.0493V97.0649H75.7555V99.5787Z" fill="#FAFAFA"/>
<path d="M71.7794 99.5787H74.0732V97.0649H71.7794V99.5787Z" fill="#FAFAFA"/>
<path d="M67.8038 99.5787H70.0977V97.0649H67.8038V99.5787Z" fill="#FAFAFA"/>
<path d="M75.7555 103.362H78.0493V100.848H75.7555V103.362Z" fill="#FAFAFA"/>
<path d="M71.7794 103.362H74.0732V100.848H71.7794V103.362Z" fill="#FAFAFA"/>
<path d="M67.8038 103.362H70.0977V100.848H67.8038V103.362Z" fill="#FAFAFA"/>
<path d="M75.7555 107.144H78.0493V104.63H75.7555V107.144Z" fill="#FAFAFA"/>
<path d="M71.7794 107.144H74.0732V104.63H71.7794V107.144Z" fill="#FAFAFA"/>
<path d="M67.8038 107.144H70.0977V104.63H67.8038V107.144Z" fill="#FAFAFA"/>
<path d="M75.7555 110.927H78.0493V108.412H75.7555V110.927Z" fill="#FAFAFA"/>
<path d="M71.7794 110.927H74.0732V108.412H71.7794V110.927Z" fill="#FAFAFA"/>
<path d="M67.8038 110.927H70.0977V108.412H67.8038V110.927Z" fill="#FAFAFA"/>
<path d="M75.7555 114.802H78.0493V112.288H75.7555V114.802Z" fill="#FAFAFA"/>
<path d="M71.7794 114.802H74.0732V112.288H71.7794V114.802Z" fill="#FAFAFA"/>
<path d="M67.8038 114.802H70.0977V112.288H67.8038V114.802Z" fill="#FAFAFA"/>
<path d="M75.7555 118.679H78.0493V116.165H75.7555V118.679Z" fill="#FAFAFA"/>
<path d="M71.7794 118.679H74.0732V116.165H71.7794V118.679Z" fill="#FAFAFA"/>
<path d="M67.8038 118.679H70.0977V116.165H67.8038V118.679Z" fill="#FAFAFA"/>
<path d="M75.7555 122.555H78.0493V120.041H75.7555V122.555Z" fill="#FAFAFA"/>
<path d="M71.7794 122.555H74.0732V120.041H71.7794V122.555Z" fill="#FAFAFA"/>
<path d="M67.8038 122.555H70.0977V120.041H67.8038V122.555Z" fill="#FAFAFA"/>
<path d="M75.7555 126.431H78.0493V123.917H75.7555V126.431Z" fill="#FAFAFA"/>
<path d="M71.7794 126.431H74.0732V123.917H71.7794V126.431Z" fill="#FAFAFA"/>
<path d="M67.8038 126.431H70.0977V123.917H67.8038V126.431Z" fill="#FAFAFA"/>
<path d="M126.917 100.48H140.122V98.595H126.917V100.48Z" fill="#FAFAFA"/>
<path d="M126.917 104.136H140.122V102.251H126.917V104.136Z" fill="#FAFAFA"/>
<path d="M126.917 107.793H140.122V105.909H126.917V107.793Z" fill="#FAFAFA"/>
<path d="M126.917 111.45H140.122V109.565H126.917V111.45Z" fill="#FAFAFA"/>
<path d="M126.917 115.106H140.122V113.221H126.917V115.106Z" fill="#FAFAFA"/>
<path d="M126.917 118.763H140.122V116.878H126.917V118.763Z" fill="#FAFAFA"/>
<path d="M126.917 122.42H140.122V120.535H126.917V122.42Z" fill="#FAFAFA"/>
<path d="M126.917 126.076H140.122V124.191H126.917V126.076Z" fill="#FAFAFA"/>
<path d="M31.8491 74.6628H43.9897V72.7782H31.8491V74.6628Z" fill="#FAFAFA"/>
<path d="M31.8491 78.3197H43.9897V76.4351H31.8491V78.3197Z" fill="#FAFAFA"/>
<path d="M31.8491 81.9753H43.9897V80.0908H31.8491V81.9753Z" fill="#FAFAFA"/>
<path d="M31.8491 85.6328H43.9897V83.7482H31.8491V85.6328Z" fill="#FAFAFA"/>
<path d="M43.9898 87.405H31.8491V89.2896H43.9898V87.405Z" fill="#FAFAFA"/>
<path d="M31.8491 92.9458H43.9897V91.0613H31.8491V92.9458Z" fill="#FAFAFA"/>
<path d="M31.8491 96.6028H43.9897V94.7182H31.8491V96.6028Z" fill="#FAFAFA"/>
<path d="M31.8491 100.26H43.9897V98.3751H31.8491V100.26Z" fill="#FAFAFA"/>
<path d="M31.8491 103.734H43.9897V101.849H31.8491V103.734Z" fill="#FAFAFA"/>
<path d="M31.8491 107.208H43.9897V105.324H31.8491V107.208Z" fill="#FAFAFA"/>
<path d="M31.8491 110.683H43.9897V108.799H31.8491V110.683Z" fill="#FAFAFA"/>
<path d="M31.8491 114.158H43.9897V112.273H31.8491V114.158Z" fill="#FAFAFA"/>
<path d="M12.2191 79.0797H25.0435V77.1952H12.2191V79.0797Z" fill="#FAFAFA"/>
<path d="M12.2191 82.7363H25.0435V80.8518H12.2191V82.7363Z" fill="#FAFAFA"/>
<path d="M12.2191 86.3925H25.0435V84.5079H12.2191V86.3925Z" fill="#FAFAFA"/>
<path d="M12.2191 90.0494H25.0435V88.1648H12.2191V90.0494Z" fill="#FAFAFA"/>
<path d="M12.2191 93.7058H25.0435V91.8213H12.2191V93.7058Z" fill="#FAFAFA"/>
<path d="M12.2191 97.3633H25.0435V95.4787H12.2191V97.3633Z" fill="#FAFAFA"/>
<path d="M12.2191 101.02H25.0435V99.1351H12.2191V101.02Z" fill="#FAFAFA"/>
<path d="M12.2191 104.677H25.0435V102.792H12.2191V104.677Z" fill="#FAFAFA"/>
<path d="M12.2191 107.949H25.0435V106.065H12.2191V107.949Z" fill="#FAFAFA"/>
<path d="M12.2191 111.222H25.0435V109.338H12.2191V111.222Z" fill="#FAFAFA"/>
<path d="M12.2191 114.495H25.0435V112.61H12.2191V114.495Z" fill="#FAFAFA"/>
<path d="M89.5055 94.4631H93.583V92.643H89.5055V94.4631Z" fill="#FAFAFA"/>
<path d="M89.5055 97.9946H93.583V96.1745H89.5055V97.9946Z" fill="#FAFAFA"/>
<path d="M89.5055 101.525H93.583V99.7054H89.5055V101.525Z" fill="#FAFAFA"/>
<path d="M89.5055 105.057H93.583V103.237H89.5055V105.057Z" fill="#FAFAFA"/>
<path d="M89.5055 108.588H93.583V106.768H89.5055V108.588Z" fill="#FAFAFA"/>
<path d="M89.5055 112.12H93.583V110.3H89.5055V112.12Z" fill="#FAFAFA"/>
<path d="M89.5055 115.651H93.583V113.83H89.5055V115.651Z" fill="#FAFAFA"/>
<path d="M89.5055 119.182H93.583V117.362H89.5055V119.182Z" fill="#FAFAFA"/>
<path d="M83.9562 94.4631H88.0337V92.643H83.9562V94.4631Z" fill="#FAFAFA"/>
<path d="M83.9562 97.9946H88.0337V96.1745H83.9562V97.9946Z" fill="#FAFAFA"/>
<path d="M83.9562 101.525H88.0337V99.7054H83.9562V101.525Z" fill="#FAFAFA"/>
<path d="M83.9562 105.057H88.0337V103.237H83.9562V105.057Z" fill="#FAFAFA"/>
<path d="M83.9562 108.588H88.0337V106.768H83.9562V108.588Z" fill="#FAFAFA"/>
<path d="M83.9562 112.12H88.0337V110.3H83.9562V112.12Z" fill="#FAFAFA"/>
<path d="M83.9562 115.651H88.0337V113.83H83.9562V115.651Z" fill="#FAFAFA"/>
<path d="M83.9562 119.182H88.0337V117.362H83.9562V119.182Z" fill="#FAFAFA"/>
<path d="M116.038 59.8029H120.286V56.9328H116.038V59.8029Z" fill="#FAFAFA"/>
<path d="M109.704 59.8029H113.952V56.9328H109.704V59.8029Z" fill="#FAFAFA"/>
<path d="M116.038 64.019H120.286V61.149H116.038V64.019Z" fill="#FAFAFA"/>
<path d="M109.704 64.019H113.952V61.149H109.704V64.019Z" fill="#FAFAFA"/>
<path d="M116.038 68.2353H120.286V65.3653H116.038V68.2353Z" fill="#FAFAFA"/>
<path d="M109.704 68.2353H113.952V65.3653H109.704V68.2353Z" fill="#FAFAFA"/>
<path d="M116.038 72.4509H120.286V69.5809H116.038V72.4509Z" fill="#FAFAFA"/>
<path d="M109.704 72.4509H113.952V69.5809H109.704V72.4509Z" fill="#FAFAFA"/>
<path d="M116.038 76.6672H120.286V73.7972H116.038V76.6672Z" fill="#FAFAFA"/>
<path d="M109.704 76.6672H113.952V73.7972H109.704V76.6672Z" fill="#FAFAFA"/>
<path d="M116.038 80.8828H120.286V78.0128H116.038V80.8828Z" fill="#FAFAFA"/>
<path d="M109.704 80.8828H113.952V78.0128H109.704V80.8828Z" fill="#FAFAFA"/>
<path d="M116.038 85.0995H120.286V82.2294H116.038V85.0995Z" fill="#FAFAFA"/>
<path d="M109.704 85.0995H113.952V82.2294H109.704V85.0995Z" fill="#FAFAFA"/>
<path d="M116.038 89.3156H120.286V86.4455H116.038V89.3156Z" fill="#FAFAFA"/>
<path d="M109.704 89.3156H113.952V86.4455H109.704V89.3156Z" fill="#FAFAFA"/>
<path d="M101.853 90.845H106.102V87.975H101.853V90.845Z" fill="#FAFAFA"/>
<path d="M101.853 95.0606H106.102V92.1906H101.853V95.0606Z" fill="#FAFAFA"/>
<path d="M101.853 99.2772H106.102V96.4072H101.853V99.2772Z" fill="#FAFAFA"/>
<path d="M101.853 103.494H106.102V100.624H101.853V103.494Z" fill="#FAFAFA"/>
<path d="M101.853 107.71H106.102V104.84H101.853V107.71Z" fill="#FAFAFA"/>
<path d="M101.853 111.926H106.102V109.055H101.853V111.926Z" fill="#FAFAFA"/>
<path d="M116.038 93.4812H120.286V90.6112H116.038V93.4812Z" fill="#FAFAFA"/>
<path d="M109.704 93.4812H113.952V90.6112H109.704V93.4812Z" fill="#FAFAFA"/>
<path d="M101.853 116.091H106.102V113.221H101.853V116.091Z" fill="#FAFAFA"/>
<path d="M116.038 97.6469H120.286V94.7765H116.038V97.6469Z" fill="#FAFAFA"/>
<path d="M109.704 97.6469H113.952V94.7765H109.704V97.6469Z" fill="#FAFAFA"/>
<path d="M101.853 120.257H106.102V117.387H101.853V120.257Z" fill="#FAFAFA"/>
<path d="M116.038 101.813H120.286V98.9434H116.038V101.813Z" fill="#FAFAFA"/>
<path d="M109.704 101.813H113.952V98.9434H109.704V101.813Z" fill="#FAFAFA"/>
<path d="M101.853 124.423H106.102V121.553H101.853V124.423Z" fill="#FAFAFA"/>
<path d="M116.038 105.979H120.286V103.109H116.038V105.979Z" fill="#FAFAFA"/>
<path d="M109.704 105.979H113.952V103.109H109.704V105.979Z" fill="#FAFAFA"/>
<path d="M116.038 110.145H120.286V107.275H116.038V110.145Z" fill="#FAFAFA"/>
<path d="M109.704 110.145H113.952V107.275H109.704V110.145Z" fill="#FAFAFA"/>
<path d="M63.4805 86.1524H65.7744V83.6386H63.4805V86.1524Z" fill="#FAFAFA"/>
<path d="M59.5055 86.1524H61.7993V83.6386H59.5055V86.1524Z" fill="#FAFAFA"/>
<path d="M63.4805 89.9354H65.7744V87.4215H63.4805V89.9354Z" fill="#FAFAFA"/>
<path d="M59.5055 89.9354H61.7993V87.4215H59.5055V89.9354Z" fill="#FAFAFA"/>
<path d="M63.4805 93.7177H65.7744V91.2039H63.4805V93.7177Z" fill="#FAFAFA"/>
<path d="M59.5055 93.7177H61.7993V91.2039H59.5055V93.7177Z" fill="#FAFAFA"/>
<path d="M63.4805 97.5003H65.7744V94.9864H63.4805V97.5003Z" fill="#FAFAFA"/>
<path d="M59.5055 97.5003H61.7993V94.9864H59.5055V97.5003Z" fill="#FAFAFA"/>
<path d="M63.4805 101.376H65.7744V98.8623H63.4805V101.376Z" fill="#FAFAFA"/>
<path d="M59.5055 101.376H61.7993V98.8623H59.5055V101.376Z" fill="#FAFAFA"/>
<path d="M63.4805 105.252H65.7744V102.738H63.4805V105.252Z" fill="#FAFAFA"/>
<path d="M59.5055 105.252H61.7993V102.738H59.5055V105.252Z" fill="#FAFAFA"/>
<path d="M63.4805 109.129H65.7744V106.615H63.4805V109.129Z" fill="#FAFAFA"/>
<path d="M59.5055 109.129H61.7993V106.615H59.5055V109.129Z" fill="#FAFAFA"/>
<path d="M63.4805 113.006H65.7744V110.492H63.4805V113.006Z" fill="#FAFAFA"/>
<path d="M59.5055 113.006H61.7993V110.492H59.5055V113.006Z" fill="#FAFAFA"/>
<path d="M63.4805 116.922H65.7744V114.408H63.4805V116.922Z" fill="#FAFAFA"/>
<path d="M59.5055 116.922H61.7993V114.408H59.5055V116.922Z" fill="#FAFAFA"/>
<path d="M63.4805 120.84H65.7744V118.326H63.4805V120.84Z" fill="#FAFAFA"/>
<path d="M59.5055 120.84H61.7993V118.326H59.5055V120.84Z" fill="#FAFAFA"/>
<path d="M63.4805 124.758H65.7744V122.244H63.4805V124.758Z" fill="#FAFAFA"/>
<path d="M59.5055 124.758H61.7993V122.244H59.5055V124.758Z" fill="#FAFAFA"/>
<path d="M7.46834 64.3987H9.76221V61.4367H7.46834V64.3987Z" fill="#FAFAFA"/>
<path d="M3.49276 64.3987H5.78662V61.4367H3.49276L3.49276 64.3987Z" fill="#FAFAFA"/>
<path d="M7.46834 68.8557H9.76221V65.8941H7.46834V68.8557Z" fill="#FAFAFA"/>
<path d="M3.49276 68.8557H5.78662V65.8941H3.49276L3.49276 68.8557Z" fill="#FAFAFA"/>
<path d="M7.46834 73.3113H9.76221V70.3497H7.46834V73.3113Z" fill="#FAFAFA"/>
<path d="M3.49276 73.3113H5.78662V70.3497H3.49276L3.49276 73.3113Z" fill="#FAFAFA"/>
<path d="M7.46834 77.7677H9.76221V74.8061H7.46834V77.7677Z" fill="#FAFAFA"/>
<path d="M3.49276 77.7677H5.78662V74.8061H3.49276L3.49276 77.7677Z" fill="#FAFAFA"/>
<path d="M7.46834 82.335H9.76221V79.3731H7.46834V82.335Z" fill="#FAFAFA"/>
<path d="M3.49276 82.335H5.78662V79.3731H3.49276L3.49276 82.335Z" fill="#FAFAFA"/>
<path d="M7.46834 86.901H9.76221V83.9394H7.46834V86.901Z" fill="#FAFAFA"/>
<path d="M3.49276 86.901H5.78662V83.9394H3.49276L3.49276 86.901Z" fill="#FAFAFA"/>
<path d="M7.46834 91.468H9.76221V88.5065H7.46834V91.468Z" fill="#FAFAFA"/>
<path d="M3.49276 91.468H5.78662V88.5065H3.49276L3.49276 91.468Z" fill="#FAFAFA"/>
<path d="M7.46834 96.0343H9.76221V93.0727H7.46834V96.0343Z" fill="#FAFAFA"/>
<path d="M3.49276 96.0343H5.78662V93.0727H3.49276L3.49276 96.0343Z" fill="#FAFAFA"/>
<path d="M7.46834 100.649H9.76221V97.6875H7.46834V100.649Z" fill="#FAFAFA"/>
<path d="M3.49276 100.649H5.78662V97.6875H3.49276L3.49276 100.649Z" fill="#FAFAFA"/>
<path d="M7.46834 105.265H9.76221V102.303H7.46834V105.265Z" fill="#FAFAFA"/>
<path d="M3.49276 105.265H5.78662V102.303H3.49276L3.49276 105.265Z" fill="#FAFAFA"/>
<path d="M7.46834 109.88H9.76221V106.918H7.46834V109.88Z" fill="#FAFAFA"/>
<path d="M3.49276 109.88H5.78662V106.918H3.49276L3.49276 109.88Z" fill="#FAFAFA"/>
<path d="M7.46834 114.495H9.76221V111.533H7.46834V114.495Z" fill="#FAFAFA"/>
<path d="M3.49276 114.495H5.78662V111.533H3.49276L3.49276 114.495Z" fill="#FAFAFA"/>
<path d="M54.979 86.1524H57.2725V83.6386H54.979V86.1524Z" fill="#FAFAFA"/>
<path d="M51.003 86.1524H53.2969V83.6386H51.003V86.1524Z" fill="#FAFAFA"/>
<path d="M54.979 82.274H57.2725V79.7601H54.979V82.274Z" fill="#FAFAFA"/>
<path d="M51.003 82.274H53.2969V79.7601H51.003V82.274Z" fill="#FAFAFA"/>
<path d="M54.979 78.3959H57.2725V75.882H54.979V78.3959Z" fill="#FAFAFA"/>
<path d="M51.003 78.3959H53.2969V75.882H51.003V78.3959Z" fill="#FAFAFA"/>
<path d="M54.979 89.9354H57.2725V87.4215H54.979V89.9354Z" fill="#FAFAFA"/>
<path d="M51.003 89.9354H53.2969V87.4215H51.003V89.9354Z" fill="#FAFAFA"/>
<path d="M54.979 93.7177H57.2725V91.2039H54.979V93.7177Z" fill="#FAFAFA"/>
<path d="M51.003 93.7177H53.2969V91.2039H51.003V93.7177Z" fill="#FAFAFA"/>
<path d="M54.979 97.5003H57.2725V94.9864H54.979V97.5003Z" fill="#FAFAFA"/>
<path d="M51.003 97.5003H53.2969V94.9864H51.003V97.5003Z" fill="#FAFAFA"/>
<path d="M54.979 101.376H57.2725V98.8623H54.979V101.376Z" fill="#FAFAFA"/>
<path d="M51.003 101.376H53.2969V98.8623H51.003V101.376Z" fill="#FAFAFA"/>
<path d="M54.979 105.252H57.2725V102.738H54.979V105.252Z" fill="#FAFAFA"/>
<path d="M51.003 105.252H53.2969V102.738H51.003V105.252Z" fill="#FAFAFA"/>
<path d="M54.979 109.129H57.2725V106.615H54.979V109.129Z" fill="#FAFAFA"/>
<path d="M51.003 109.129H53.2969V106.615H51.003V109.129Z" fill="#FAFAFA"/>
<path d="M54.979 113.006H57.2725V110.492H54.979V113.006Z" fill="#FAFAFA"/>
<path d="M51.003 113.006H53.2969V110.492H51.003V113.006Z" fill="#FAFAFA"/>
<path d="M54.979 116.922H57.2725V114.408H54.979V116.922Z" fill="#FAFAFA"/>
<path d="M51.003 116.922H53.2969V114.408H51.003V116.922Z" fill="#FAFAFA"/>
<path d="M54.979 120.84H57.2725V118.326H54.979V120.84Z" fill="#FAFAFA"/>
<path d="M51.003 120.84H53.2969V118.326H51.003V120.84Z" fill="#FAFAFA"/>
<path d="M54.979 124.758H57.2725V122.244H54.979V124.758Z" fill="#FAFAFA"/>
<path d="M51.003 124.758H53.2969V122.244H51.003V124.758Z" fill="#FAFAFA"/>
<path d="M80.989 160.186C125.529 160.186 161.636 156.529 161.636 152.018C161.636 147.507 125.529 143.85 80.989 143.85C36.4488 143.85 0.341797 147.507 0.341797 152.018C0.341797 156.529 36.4488 160.186 80.989 160.186Z" fill="#EBEBEB"/>
<path d="M161.763 128.199H0.215332V130.893H161.763V128.199Z" fill="#C7C7C7"/>
<path d="M11.5411 128.199C11.6925 128.648 11.7266 129.097 11.7332 129.546C11.7274 129.995 11.6937 130.444 11.5411 130.893C11.389 130.444 11.3549 129.995 11.3491 129.546C11.3557 129.097 11.3898 128.648 11.5411 128.199Z" fill="#1D191F"/>
<path d="M24.1681 128.2C24.3195 128.649 24.3535 129.098 24.3601 129.547C24.3543 129.995 24.3206 130.445 24.1681 130.893C24.0156 130.445 23.9819 129.995 23.9761 129.547C23.9827 129.098 24.0167 128.649 24.1681 128.2Z" fill="#1D191F"/>
<path d="M36.7951 128.2C36.9464 128.649 36.9805 129.098 36.9871 129.547C36.9813 129.995 36.9472 130.445 36.7951 130.893C36.6425 130.445 36.6084 129.995 36.603 129.547C36.6096 129.098 36.6437 128.649 36.7951 128.2Z" fill="#1D191F"/>
<path d="M49.422 128.2C49.5734 128.649 49.6074 129.098 49.614 129.547C49.6082 129.995 49.5745 130.445 49.422 130.893C49.2699 130.445 49.2358 129.995 49.23 129.547C49.2366 129.098 49.2706 128.649 49.422 128.2Z" fill="#1D191F"/>
<path d="M62.0485 128.2C62.1998 128.649 62.2339 129.098 62.2405 129.547C62.2351 129.995 62.201 130.445 62.0485 130.893C61.8963 130.445 61.8623 129.995 61.8564 129.547C61.863 129.098 61.8971 128.649 62.0485 128.2Z" fill="#1D191F"/>
<path d="M74.6754 128.2C74.8268 128.649 74.8609 129.098 74.8675 129.547C74.862 129.995 74.828 130.445 74.6754 130.893C74.5233 130.445 74.4892 129.995 74.4834 129.547C74.49 129.098 74.5241 128.649 74.6754 128.2Z" fill="#1D191F"/>
<path d="M87.3024 128.2C87.4538 128.649 87.4878 129.098 87.4944 129.547C87.489 129.995 87.4545 130.445 87.3024 130.893C87.1502 130.445 87.1162 129.995 87.1104 129.547C87.1169 129.098 87.151 128.649 87.3024 128.2Z" fill="#1D191F"/>
<path d="M99.9293 128.2C100.081 128.649 100.115 129.098 100.121 129.547C100.116 129.995 100.081 130.445 99.9293 130.893C99.7772 130.445 99.7431 129.995 99.7373 129.547C99.7439 129.098 99.778 128.649 99.9293 128.2Z" fill="#1D191F"/>
<path d="M112.557 128.2C112.708 128.649 112.742 129.098 112.749 129.547C112.743 129.995 112.709 130.445 112.557 130.893C112.404 130.445 112.37 129.995 112.365 129.547C112.371 129.098 112.405 128.649 112.557 128.2Z" fill="#1D191F"/>
<path d="M125.184 128.2C125.335 128.649 125.369 129.098 125.376 129.547C125.37 129.995 125.336 130.445 125.184 130.893C125.032 130.445 124.998 129.995 124.992 129.547C124.998 129.098 125.032 128.649 125.184 128.2Z" fill="#1D191F"/>
<path d="M137.811 128.2C137.962 128.649 137.996 129.098 138.003 129.547C137.997 129.995 137.963 130.445 137.811 130.893C137.659 130.445 137.624 129.995 137.619 129.547C137.625 129.098 137.659 128.649 137.811 128.2Z" fill="#1D191F"/>
<path d="M150.438 128.2C150.589 128.649 150.623 129.098 150.63 129.547C150.624 129.995 150.59 130.445 150.438 130.893C150.285 130.445 150.251 129.995 150.246 129.547C150.252 129.098 150.286 128.649 150.438 128.2Z" fill="#1D191F"/>
<path d="M0.215332 130.894L20.4087 130.804L40.6025 130.771L80.9892 130.709L121.376 130.771L141.57 130.803L161.763 130.894L141.57 130.985L121.376 131.017L80.9892 131.079L40.6025 131.017L20.4087 130.984L0.215332 130.894Z" fill="#1D191F"/>
<path d="M147.069 103.949C149.194 99.7683 152.912 97.6213 157.103 98.8076C161.293 99.994 161.942 105.588 158.814 107C155.686 108.412 152.558 104.288 150.906 103.441C149.253 102.593 147.069 103.949 147.069 103.949Z" fill="#5D80D9"/>
<path d="M145.012 115.079C145.023 114.575 145.044 114.071 145.062 113.567C145.099 112.561 145.135 111.554 145.174 110.548C145.246 108.708 145.453 106.901 146.249 105.204C146.963 103.683 148.121 102.35 149.619 101.486C150.178 101.164 150.774 100.917 151.391 100.754C151.909 100.198 152.72 99.8386 153.459 99.6667C154.428 99.4413 155.424 99.4906 156.407 99.5959C156.442 99.5996 156.441 99.653 156.405 99.6489C155.475 99.5399 154.521 99.5937 153.617 99.839C153.229 99.9443 152.851 100.079 152.493 100.257C152.262 100.373 152.051 100.509 151.843 100.652C152.681 100.491 153.548 100.485 154.404 100.675C154.709 100.743 155.004 100.843 155.293 100.956C155.517 100.9 155.768 100.895 155.991 100.9C156.296 100.906 156.602 100.953 156.898 101.023C157.509 101.169 158.079 101.446 158.622 101.744C158.653 101.761 158.624 101.806 158.593 101.79C158.065 101.511 157.499 101.31 156.911 101.182C156.626 101.121 156.338 101.08 156.047 101.061C155.886 101.051 155.725 101.058 155.565 101.065C156.743 101.598 157.735 102.503 158.275 103.65C158.289 103.681 158.241 103.707 158.226 103.675C157.598 102.316 156.258 101.387 154.773 101.025C154.681 101.003 154.586 100.991 154.493 100.973C154.526 101.103 154.52 101.252 154.537 101.378C154.565 101.581 154.601 101.784 154.644 101.985C154.732 102.398 154.844 102.809 154.985 103.209C155.127 103.614 155.295 104.012 155.493 104.395C155.694 104.787 155.906 105.204 156.201 105.54C156.227 105.569 156.179 105.604 156.157 105.571C155.905 105.194 155.612 104.846 155.382 104.453C155.163 104.078 154.971 103.689 154.814 103.286C154.655 102.878 154.528 102.461 154.44 102.033C154.394 101.808 154.357 101.581 154.33 101.353C154.314 101.221 154.281 101.072 154.304 100.938C153.812 100.864 153.312 100.86 152.815 100.909C153.001 101.906 153.201 102.946 153.785 103.812C153.804 103.84 153.753 103.868 153.736 103.838C153.476 103.368 153.21 102.911 153.016 102.411C152.834 101.938 152.693 101.431 152.657 100.925C151.793 101.033 150.948 101.311 150.197 101.715C148.746 102.496 147.646 103.722 146.921 105.146C146.135 106.692 145.819 108.357 145.707 110.062C145.568 112.199 145.539 114.35 145.316 116.48C145.301 116.619 145.071 116.666 145.043 116.509C144.959 116.038 145.002 115.554 145.012 115.079Z" fill="#1D191F"/>
<path d="M149.923 101.15C150.041 100.984 150.246 100.851 150.406 100.724C150.58 100.586 150.758 100.453 150.945 100.331C151.318 100.09 151.718 99.9081 152.153 99.7955C152.187 99.7866 152.201 99.8399 152.166 99.847C151.729 99.9374 151.332 100.156 150.975 100.408C150.797 100.532 150.626 100.666 150.46 100.805C150.306 100.933 150.153 101.107 149.973 101.201C149.941 101.217 149.902 101.18 149.923 101.15Z" fill="#1D191F"/>
<path d="M156.705 102.666C157.046 103.063 157.393 103.464 157.679 103.9C157.967 104.338 158.215 104.791 158.404 105.276C158.409 105.29 158.386 105.299 158.378 105.286C157.863 104.399 157.345 103.485 156.665 102.702C156.642 102.677 156.682 102.639 156.705 102.666Z" fill="#1D191F"/>
<path d="M152.133 102.252C152.179 102.513 152.258 102.768 152.373 103.009C152.485 103.242 152.63 103.465 152.778 103.679C152.788 103.693 152.765 103.708 152.754 103.696C152.376 103.311 152.165 102.781 152.079 102.265C152.074 102.231 152.127 102.218 152.133 102.252Z" fill="#1D191F"/>
<path d="M145.309 104.052C145.309 104.052 142.301 100.432 136.494 101.715C130.974 102.935 128.427 112.623 134.004 113.782C139.582 114.942 138.598 105.976 140.631 104.454C142.122 103.338 144.267 103.578 145.309 104.052Z" fill="#5D80D9"/>
<path d="M132.009 107.007C132.39 106.693 132.783 106.391 133.205 106.129C133.599 105.883 134.028 105.652 134.48 105.519C134.709 105.192 134.956 104.877 135.237 104.587C135.756 104.052 136.348 103.604 136.992 103.249C136.934 103.246 136.877 103.24 136.819 103.238C136.51 103.228 136.204 103.226 135.896 103.247C135.272 103.288 134.674 103.427 134.104 103.674C134.071 103.688 134.047 103.639 134.08 103.626C134.652 103.393 135.256 103.212 135.87 103.11C136.167 103.06 136.474 103.033 136.776 103.035C136.939 103.037 137.102 103.047 137.264 103.062C137.294 103.065 137.326 103.067 137.357 103.069C137.888 102.812 138.45 102.616 139.031 102.48C138.977 102.466 138.924 102.45 138.87 102.438C138.586 102.376 138.298 102.335 138.009 102.303C137.427 102.237 136.852 102.251 136.271 102.328C136.236 102.333 136.226 102.28 136.261 102.276C136.841 102.208 137.434 102.186 138.018 102.208C138.496 102.226 139.004 102.278 139.478 102.39C139.826 102.329 140.179 102.288 140.537 102.274C142.561 102.192 144.769 102.917 146.015 104.509C147.266 106.107 147.506 108.232 147.726 110.155C148.033 112.833 148.174 115.548 147.949 118.235C147.936 118.394 147.702 118.365 147.697 118.214C147.621 115.929 147.537 113.645 147.309 111.368C147.203 110.314 147.086 109.256 146.903 108.211C146.746 107.318 146.523 106.427 146.102 105.612C145.663 104.761 144.997 104.075 144.142 103.594C143.299 103.12 142.337 102.858 141.366 102.777C140.485 102.703 139.604 102.791 138.761 103.01C138.798 103.17 138.79 103.338 138.776 103.502C138.757 103.709 138.714 103.912 138.648 104.11C138.586 104.296 138.502 104.476 138.405 104.649C138.298 104.84 138.163 105.01 138.043 105.193C138.024 105.222 137.975 105.189 137.997 105.162C138.248 104.861 138.376 104.439 138.448 104.066C138.484 103.879 138.507 103.689 138.517 103.5C138.525 103.356 138.512 103.212 138.519 103.07C137.604 103.339 136.74 103.772 135.984 104.351C135.842 104.459 135.706 104.574 135.573 104.691C135.771 104.847 135.932 105.082 136.065 105.27C136.263 105.55 136.438 105.842 136.582 106.151C136.865 106.762 137.016 107.426 137.119 108.084C137.124 108.118 137.069 108.128 137.064 108.094C136.97 107.443 136.721 106.841 136.403 106.262C136.25 105.981 136.078 105.707 135.889 105.447C135.791 105.314 135.689 105.181 135.583 105.053C135.527 104.984 135.464 104.914 135.41 104.84C134.731 105.477 134.168 106.234 133.764 107.06C133.767 107.062 133.771 107.062 133.775 107.065C134.062 107.321 134.265 107.676 134.455 108.001C134.664 108.358 134.845 108.733 134.999 109.114C135.297 109.849 135.494 110.616 135.692 111.38C135.701 111.413 135.645 111.424 135.638 111.39C135.477 110.611 135.169 109.873 134.814 109.158C134.641 108.809 134.457 108.466 134.264 108.128C134.083 107.809 133.86 107.494 133.719 107.156C133.335 107.968 133.102 108.843 133.056 109.731C133.054 109.765 132.998 109.761 133 109.726C133.116 108.341 133.546 106.963 134.304 105.775C133.949 105.92 133.592 106.059 133.251 106.235C132.816 106.46 132.407 106.726 132.043 107.047C132.018 107.07 131.981 107.029 132.009 107.007Z" fill="#1D191F"/>
<path d="M136.267 107.212C136.442 107.761 136.661 108.294 136.818 108.848C136.969 109.381 137.074 109.93 137.075 110.483C137.075 110.498 137.049 110.499 137.047 110.484C136.877 109.385 136.625 108.27 136.215 107.229C136.201 107.193 136.256 107.175 136.267 107.212Z" fill="#1D191F"/>
<path d="M132.589 105.85C132.82 105.641 133.073 105.461 133.358 105.324C133.641 105.188 133.946 105.11 134.248 105.023C134.281 105.013 134.293 105.068 134.258 105.075C133.955 105.14 133.674 105.274 133.401 105.413C133.128 105.551 132.861 105.702 132.612 105.877C132.593 105.89 132.572 105.865 132.589 105.85Z" fill="#1D191F"/>
<path d="M142.449 99.2181C142.449 99.2181 141.894 92.7153 136.844 90.6073C132.627 88.8472 130.212 93.3835 133.194 96.1605C135.605 98.4068 139.473 97.3932 142.449 99.2181Z" fill="#5D80D9"/>
<path d="M134.127 91.8665C134.892 92.1789 135.65 92.4883 136.373 92.8845C136.979 93.2162 137.559 93.5913 138.117 93.9927C138.033 93.8281 137.96 93.6561 137.876 93.4957C137.744 93.2448 137.603 92.9987 137.446 92.7607C137.126 92.2712 136.772 91.8127 136.334 91.4128C136.308 91.3891 136.349 91.3517 136.374 91.3761C136.791 91.7853 137.203 92.2122 137.545 92.6811C137.718 92.9175 137.881 93.1629 138.025 93.4167C138.157 93.648 138.306 93.9048 138.364 94.1657C138.383 94.1791 138.402 94.1909 138.42 94.2046C139.306 94.8729 140.106 95.6385 140.832 96.4639C140.818 96.3998 140.804 96.336 140.787 96.2775C140.692 95.9602 140.59 95.6456 140.481 95.3324C140.252 94.6742 139.969 94.0167 139.568 93.4356C139.549 93.4071 139.599 93.3808 139.617 93.41C139.999 94.013 140.382 94.6101 140.674 95.2598C140.814 95.5707 140.932 95.8939 141.023 96.2211C141.078 96.4157 141.165 96.6514 141.187 96.8745C141.407 97.141 141.623 97.4104 141.827 97.6884C143.995 100.643 145.084 104.217 145.345 107.792C145.423 108.859 145.438 109.927 145.401 110.996C145.364 112.065 145.323 113.159 145.105 114.211C145.092 114.278 144.982 114.258 144.984 114.192C145.009 113.253 145.11 112.317 145.129 111.377C145.148 110.435 145.114 109.492 145.034 108.553C144.876 106.684 144.506 104.814 143.933 103.02C143.348 101.185 142.483 99.4192 141.365 97.8177C141.152 97.7773 140.941 97.7221 140.732 97.6706C140.48 97.6083 140.228 97.5468 139.977 97.4794C139.494 97.35 139.016 97.2036 138.569 96.985C138.537 96.9698 138.567 96.9223 138.598 96.9398C139.039 97.1866 139.528 97.3163 140.026 97.4112C140.421 97.4864 140.832 97.5357 141.228 97.6228C140.862 97.1121 140.471 96.6173 140.054 96.1455C139.094 96.2352 138.117 96.1541 137.18 95.9402C136.681 95.8264 136.188 95.6782 135.71 95.5018C135.204 95.3154 134.725 95.0756 134.226 94.8758C134.188 94.861 134.214 94.808 134.248 94.828C135.105 95.3257 136.181 95.5811 137.161 95.7405C138.064 95.8876 138.971 95.941 139.885 95.9558C139.526 95.5618 139.156 95.1779 138.76 94.8173C137.434 93.608 135.858 92.4965 134.111 91.9172C134.077 91.9057 134.095 91.8531 134.127 91.8665Z" fill="#1D191F"/>
<path d="M138.238 91.8865C138.464 92.1608 138.675 92.451 138.857 92.7534C139.05 93.0743 139.191 93.4079 139.303 93.7618C139.306 93.7733 139.288 93.7803 139.282 93.7696C139.114 93.4505 138.971 93.1199 138.801 92.8023C138.632 92.488 138.433 92.1956 138.198 91.9232C138.175 91.8965 138.216 91.8598 138.238 91.8865Z" fill="#1D191F"/>
<path d="M133.542 94.0517C133.869 94.2333 134.218 94.3544 134.577 94.4653C134.923 94.5724 135.275 94.6684 135.632 94.7362C135.648 94.7391 135.644 94.7666 135.627 94.7647C135.255 94.7228 134.889 94.6543 134.535 94.5357C134.183 94.4182 133.846 94.254 133.513 94.0965C133.481 94.082 133.51 94.0342 133.542 94.0517Z" fill="#1D191F"/>
<path d="M146.375 98.0471C146.407 98.328 147.14 95.6863 151.41 93.3407C155.288 91.2108 159.916 85.6709 156.114 82.1708C153.044 79.346 144.959 85.5045 146.375 98.0471Z" fill="#5D80D9"/>
<path d="M143.436 113.193C143.499 110.444 143.724 107.699 144.113 104.974C144.472 102.469 145.035 100.003 145.918 97.6176C146.235 96.7581 146.598 95.912 146.992 95.0793C146.951 94.7624 146.994 94.4129 147.01 94.1068C147.031 93.6906 147.07 93.2751 147.11 92.8604C147.15 92.4453 147.194 92.0302 147.246 91.6166C147.297 91.206 147.389 90.7898 147.407 90.3769C147.409 90.3388 147.471 90.3469 147.461 90.3851C147.357 90.8091 147.343 91.2675 147.308 91.7011C147.275 92.1021 147.251 92.5031 147.239 92.9052C147.226 93.3077 147.228 93.7099 147.227 94.1123C147.227 94.2576 147.235 94.4114 147.241 94.5663C147.643 93.7539 148.074 92.9545 148.539 92.1755C148.25 90.4807 148.625 88.7092 148.987 87.0518C148.994 87.0184 149.047 87.034 149.04 87.0674C148.851 87.9305 148.779 88.8137 148.759 89.6943C148.742 90.3903 148.776 91.0863 148.779 91.7819C148.881 91.6151 148.983 91.448 149.088 91.2834C149.642 90.4177 150.234 89.5697 150.862 88.7462C150.794 88.3504 150.843 87.9309 150.903 87.5392C150.972 87.0941 151.078 86.6497 151.213 86.219C151.349 85.7858 151.506 85.3611 151.686 84.9427C151.871 84.5127 152.117 84.1062 152.296 83.6748C152.311 83.6388 152.366 83.6637 152.346 83.6963C152.103 84.0839 151.955 84.5502 151.811 84.9786C151.671 85.3948 151.552 85.8217 151.462 86.2502C151.372 86.6804 151.298 87.1118 151.235 87.5466C151.193 87.8342 151.167 88.1321 151.115 88.4227C152.033 87.2486 153.027 86.1279 154.105 85.0916C154.13 85.0672 154.166 85.105 154.143 85.1302C152.522 86.8932 151.055 88.7622 149.801 90.7835C149.755 90.8587 149.711 90.9354 149.664 91.0111C149.899 90.8698 150.17 90.7579 150.391 90.6401C150.805 90.4199 151.22 90.2009 151.636 89.9856C152.041 89.7765 152.444 89.5653 152.846 89.3518C153.053 89.2418 153.257 89.1276 153.468 89.0242C153.707 88.9071 153.976 88.7948 154.191 88.6402C154.224 88.6169 154.259 88.6643 154.224 88.6829C153.813 88.8989 153.45 89.2206 153.053 89.463C152.653 89.7072 152.248 89.9415 151.834 90.1631C151.074 90.5685 150.25 90.8602 149.503 91.2794C148.984 92.1477 148.507 93.0394 148.066 93.947C148.519 93.6687 148.982 93.4048 149.453 93.1521C149.755 92.9898 150.059 92.83 150.366 92.6755C150.662 92.5261 150.97 92.3879 151.225 92.1781C151.253 92.1559 151.289 92.1926 151.264 92.2166C150.781 92.6695 150.203 92.9849 149.623 93.3096C149.074 93.6165 148.52 93.9126 147.95 94.1805C147.493 95.1382 147.08 96.1144 146.714 97.1058C144.917 101.977 144.256 107.149 143.941 112.286C143.847 113.818 143.798 115.348 143.778 116.882C143.758 118.413 143.843 119.942 143.84 121.473C143.84 121.519 143.762 121.529 143.755 121.482C143.563 120.124 143.529 118.743 143.467 117.376C143.405 115.984 143.404 114.585 143.436 113.193Z" fill="#1D191F"/>
<path d="M151.194 91.138C151.979 90.8297 152.726 90.4139 153.463 90.0147C154.205 89.613 154.925 89.1805 155.618 88.7053C155.629 88.6975 155.643 88.7161 155.632 88.7246C154.976 89.2279 154.287 89.6982 153.563 90.1096C152.812 90.5365 152.019 90.8515 151.221 91.1847C151.188 91.1981 151.161 91.1506 151.194 91.138Z" fill="#1D191F"/>
<path d="M149.957 85.6307C150.021 85.3931 150.099 85.1596 150.182 84.9276C150.173 84.9221 150.167 84.9132 150.172 84.9006C150.225 84.7686 150.282 84.6382 150.338 84.5073C150.345 84.4895 150.352 84.4729 150.359 84.4603C150.369 84.4351 150.38 84.4102 150.39 84.385C150.394 84.3769 150.407 84.3806 150.404 84.3891C150.389 84.434 150.377 84.4799 150.362 84.5248C150.355 84.5503 150.35 84.5737 150.339 84.6C150.048 85.5072 149.856 86.4379 149.706 87.3755C149.702 87.4048 149.654 87.4059 149.656 87.3744C149.693 86.7844 149.805 86.2029 149.957 85.6307Z" fill="#1D191F"/>
<path d="M138.925 114.181L139.229 117.638L140.162 128.183H150.154L151.086 117.638L151.391 114.181H138.925Z" fill="#1E397D"/>
<path d="M138.925 114.181L139.229 117.638H151.086L151.391 114.181H138.925Z" fill="#1D191F"/>
<path d="M137.944 116.111H152.372V112.794H137.944V116.111Z" fill="#1E397D"/>
<path d="M124.506 144.213H37.5389C35.3562 144.213 33.5869 142.52 33.5869 140.43V12.1823C33.5869 10.0927 35.3562 8.39905 37.5389 8.39905H124.506C126.688 8.39905 128.458 10.0927 128.458 12.1823V140.431C128.458 142.52 126.688 144.213 124.506 144.213Z" fill="#1E397D"/>
<path d="M124.452 17.989H37.6411V134.889H124.452V17.989Z" fill="#FAFAFA"/>
<path d="M70.6611 14.2419V13.756C70.6611 13.4999 70.8779 13.2927 71.1451 13.2927H90.8367C91.1042 13.2927 91.3206 13.5003 91.3206 13.756V14.2419C91.3206 14.498 91.1038 14.7051 90.8367 14.7051H71.1451C70.8779 14.7051 70.6611 14.498 70.6611 14.2419Z" fill="#1E397D"/>
<path d="M80.9911 142.566C79.5152 142.566 78.3193 141.421 78.3193 140.008C78.3193 138.596 79.5156 137.451 80.9911 137.451C82.4669 137.451 83.6632 138.596 83.6632 140.008C83.6632 141.421 82.4669 142.566 80.9911 142.566Z" fill="#1E397D"/>
<path opacity="0.6" d="M50.9867 121.992C50.9867 123.185 49.9763 124.152 48.7304 124.152C47.4842 124.152 46.4741 123.185 46.4741 121.992C46.4741 120.799 47.4842 119.832 48.7304 119.832C49.9763 119.832 50.9867 120.799 50.9867 121.992Z" fill="#5D80D9"/>
<path opacity="0.6" d="M53.7317 117.867C53.7317 118.448 53.2393 118.919 52.6322 118.919C52.0248 118.919 51.5327 118.448 51.5327 117.867C51.5327 117.285 52.0252 116.814 52.6322 116.814C53.2393 116.814 53.7317 117.285 53.7317 117.867Z" fill="#5D80D9"/>
<path opacity="0.6" d="M102.003 120.948C102.003 121.529 101.51 122 100.903 122C100.296 122 99.8037 121.529 99.8037 120.948C99.8037 120.367 100.296 119.895 100.903 119.895C101.511 119.895 102.003 120.366 102.003 120.948Z" fill="#5D80D9"/>
<path opacity="0.6" d="M124.022 130.558C124.022 131.139 123.53 131.61 122.923 131.61C122.316 131.61 121.823 131.139 121.823 130.558C121.823 129.976 122.316 129.505 122.923 129.505C123.53 129.505 124.022 129.976 124.022 130.558Z" fill="#5D80D9"/>
<path opacity="0.6" d="M122.336 133.634C122.336 134.327 121.749 134.889 121.026 134.889H39.2718C38.5482 134.889 37.9609 134.327 37.9609 133.634C37.9609 132.941 38.5482 132.379 39.2718 132.379C39.3795 132.379 39.4844 132.392 39.5839 132.414C39.5839 131.047 40.7399 129.94 42.1689 129.94C42.8925 129.94 43.5452 130.226 44.0171 130.685L44.0407 130.675C44.0249 130.522 44.0171 130.369 44.0171 130.213C44.0171 127.634 46.201 125.54 48.8987 125.54C49.6695 125.54 50.3985 125.711 51.0458 126.017C51.1508 124.265 52.6661 122.878 54.5221 122.878C56.0033 122.878 57.267 123.758 57.7703 125.003C58.6328 123.691 60.1613 122.82 61.9023 122.82C62.2221 122.82 62.5341 122.85 62.8357 122.905C62.7703 122.551 62.7362 122.187 62.7362 121.816C62.7362 118.322 65.6937 115.491 69.3429 115.491C70.9895 115.491 72.4971 116.069 73.6531 117.025C73.8707 116.621 74.3112 116.345 74.8172 116.345C74.9957 116.345 75.1661 116.38 75.3205 116.44L76.5474 69.5076H83.7492L84.9761 116.44C85.1309 116.38 85.3013 116.345 85.4794 116.345C85.9854 116.345 86.426 116.621 86.6435 117.025C87.7999 116.069 89.3071 115.491 90.9537 115.491C94.6033 115.491 97.5604 118.322 97.5604 121.816C97.5604 122.187 97.5263 122.551 97.4609 122.905C97.7625 122.85 98.0745 122.82 98.3943 122.82C100.135 122.82 101.664 123.691 102.526 125.003C103.03 123.758 104.293 122.878 105.775 122.878C107.631 122.878 109.146 124.265 109.251 126.017C109.898 125.711 110.627 125.54 111.398 125.54C114.096 125.54 116.279 127.634 116.279 130.213C116.279 130.369 116.272 130.522 116.256 130.675L116.279 130.685C116.751 130.226 117.404 129.94 118.128 129.94C119.557 129.94 120.713 131.047 120.713 132.414C120.812 132.392 120.917 132.379 121.025 132.379C121.75 132.379 122.336 132.941 122.336 133.634Z" fill="#5D80D9"/>
<path d="M67.1166 39.7401L53.3774 54.0843C53.3774 54.0843 67.131 84.1924 67.117 84.3985L65.1615 59.3158L69.4109 55.1172L67.1166 39.7401Z" fill="#5D80D9"/>
<path opacity="0.1" d="M67.1166 39.7401L53.3774 54.0843C53.3774 54.0843 67.131 84.1924 67.117 84.3985L65.1615 59.3158L69.4109 55.1172L67.1166 39.7401Z" fill="#1D191F"/>
<path opacity="0.1" d="M69.4104 55.1158L66.5087 57.9869L61.0166 46.1066L67.1165 39.7399L69.4104 55.1158Z" fill="#1D191F"/>
<path d="M93.2807 39.7401L107.02 54.0843C107.02 54.0843 93.2667 84.1924 93.2807 84.3985L95.2362 59.3158L90.9868 55.1172L93.2807 39.7401Z" fill="#5D80D9"/>
<path opacity="0.1" d="M93.2807 39.7401L107.02 54.0843C107.02 54.0843 93.2667 84.1924 93.2807 84.3985L95.2362 59.3158L90.9868 55.1172L93.2807 39.7401Z" fill="#1D191F"/>
<path opacity="0.1" d="M90.9873 55.1157L93.8894 57.9868L99.3815 46.1065L93.2816 39.7397L90.9873 55.1157Z" fill="#1D191F"/>
<path d="M88.1458 64.9301L72.2126 64.919C72.2126 64.919 64.7065 52.0702 65.5951 36.7517C66.0434 29.1064 68.1309 21.4069 70.6439 15.0372C74.1011 6.23888 78.376 -0.00148218 80.2282 2.64069e-07C82.0888 0.0011121 86.3459 6.2474 89.7981 15.0505C92.2929 21.4236 94.3692 29.1256 94.8059 36.7717C95.6716 52.0917 88.1458 64.9301 88.1458 64.9301Z" fill="#EBEBEB"/>
<path opacity="0.2" d="M89.7383 34.7894C89.7348 39.647 85.6179 43.5822 80.5435 43.5788C75.4691 43.5751 71.3579 39.6344 71.3618 34.7768C71.3657 29.9192 75.4823 25.984 80.5566 25.9874C85.631 25.9907 89.7418 29.9314 89.7383 34.7894Z" fill="#1D191F"/>
<path d="M89.4121 33.8938C89.4086 38.7514 85.2917 42.6866 80.2173 42.6833C75.1429 42.6796 71.0322 38.7388 71.0356 33.8812C71.0391 29.0236 75.1561 25.0885 80.2305 25.0918C85.3048 25.0951 89.4156 29.0359 89.4121 33.8938Z" fill="#5D80D9"/>
<path opacity="0.1" d="M89.4121 33.8938C89.4086 38.7514 85.2917 42.6866 80.2173 42.6833C75.1429 42.6796 71.0322 38.7388 71.0356 33.8812C71.0391 29.0236 75.1561 25.0885 80.2305 25.0918C85.3048 25.0951 89.4156 29.0359 89.4121 33.8938Z" fill="#1D191F"/>
<path d="M86.5966 33.8874C86.5966 37.2567 83.7436 39.9877 80.2241 39.9877C76.7045 39.9877 73.8516 37.2567 73.8516 33.8874C73.8516 30.5182 76.7049 27.7872 80.2241 27.7872C83.7436 27.7872 86.5966 30.5182 86.5966 33.8874Z" fill="#1E397D"/>
<g opacity="0.4">
<path d="M86.5976 33.8865C86.5976 34.6652 86.4455 35.4123 86.1663 36.0968L82.5345 39.5735C81.8198 39.8408 81.0393 39.9864 80.2255 39.9864C79.634 39.9864 79.0629 39.9078 78.5205 39.7622L86.363 32.2547C86.5156 32.7736 86.5976 33.3202 86.5976 33.8865Z" fill="#FAFAFA"/>
<path d="M81.1597 27.8537L73.9211 34.783C73.8755 34.4917 73.8511 34.1915 73.8511 33.8884C73.8511 30.5169 76.7032 27.7866 80.2251 27.7866C80.5418 27.7866 80.8554 27.81 81.1597 27.8537Z" fill="#FAFAFA"/>
<path d="M85.8005 30.933L77.1403 39.2233C76.9719 39.1369 76.8116 39.0424 76.6514 38.936L85.5005 30.465C85.6077 30.6147 85.706 30.7718 85.8005 30.933Z" fill="#FAFAFA"/>
</g>
<path d="M89.7983 15.0508L70.644 15.0374C74.1013 6.23912 78.3762 -0.00123804 80.2283 0.000244405C82.089 0.00172685 86.3461 6.24765 89.7983 15.0508Z" fill="#5D80D9"/>
<g opacity="0.1">
<path d="M73.9425 13.1462C73.9425 13.4297 73.7021 13.6595 73.4059 13.6591C73.1098 13.6587 72.8697 13.429 72.8701 13.1451C72.8705 12.8615 73.1105 12.6318 73.4067 12.6321C73.7029 12.6325 73.9429 12.8627 73.9425 13.1462Z" fill="#1D191F"/>
<path d="M77.3498 13.1479C77.3498 13.4315 77.1093 13.6612 76.8132 13.6609C76.517 13.6605 76.277 13.4307 76.2773 13.1472C76.2777 12.8637 76.5178 12.6339 76.8139 12.6343C77.1101 12.6346 77.3501 12.8644 77.3498 13.1479Z" fill="#1D191F"/>
<path d="M80.7575 13.1506C80.7571 13.4342 80.517 13.6639 80.2209 13.6636C79.9247 13.6636 79.6847 13.4334 79.6851 13.1499C79.6854 12.8664 79.9255 12.6366 80.2216 12.637C80.5178 12.637 80.7575 12.8667 80.7575 13.1506Z" fill="#1D191F"/>
<path d="M84.1647 13.1528C84.1647 13.4364 83.9243 13.6661 83.6281 13.6658C83.3319 13.6654 83.0919 13.4356 83.0923 13.1521C83.0927 12.8686 83.3327 12.6388 83.6289 12.6388C83.925 12.6392 84.1651 12.8693 84.1647 13.1528Z" fill="#1D191F"/>
<path d="M87.5719 13.1547C87.5719 13.4382 87.3315 13.668 87.0353 13.6677C86.7392 13.6673 86.4991 13.4375 86.4995 13.1536C86.4995 12.8701 86.7399 12.6403 87.0361 12.6407C87.3323 12.6411 87.5723 12.8712 87.5719 13.1547Z" fill="#1D191F"/>
</g>
<path d="M73.9206 62.5737C73.9206 62.8572 73.6801 63.087 73.384 63.087C73.0878 63.0866 72.8478 62.8568 72.8481 62.5729C72.8485 62.2894 73.0886 62.0596 73.3847 62.06C73.6805 62.06 73.9206 62.2901 73.9206 62.5737Z" fill="#5D80D9"/>
<path d="M77.3278 62.5759C77.3274 62.8594 77.0874 63.0892 76.7912 63.0888C76.495 63.0888 76.255 62.8586 76.2554 62.5751C76.2558 62.2916 76.4958 62.0618 76.792 62.0618C77.0881 62.0622 77.3282 62.2923 77.3278 62.5759Z" fill="#5D80D9"/>
<path d="M80.735 62.5781C80.7346 62.8616 80.4946 63.0914 80.1984 63.0914C79.9022 63.091 79.6622 62.8613 79.6626 62.5774C79.663 62.2939 79.903 62.0641 80.1992 62.0645C80.4954 62.0648 80.7354 62.2946 80.735 62.5781Z" fill="#5D80D9"/>
<path d="M84.1422 62.5807C84.1422 62.8643 83.9018 63.094 83.6056 63.0937C83.3095 63.0937 83.0694 62.8635 83.0698 62.58C83.0702 62.2965 83.3102 62.0667 83.6064 62.0671C83.9026 62.0671 84.1426 62.2972 84.1422 62.5807Z" fill="#5D80D9"/>
<path d="M87.5499 62.5832C87.5496 62.8667 87.3095 63.0965 87.0134 63.0961C86.7172 63.0961 86.4772 62.866 86.4775 62.5824C86.4779 62.2989 86.718 62.0691 87.0141 62.0695C87.3103 62.0695 87.5499 62.2997 87.5499 62.5832Z" fill="#5D80D9"/>
<path d="M86.6759 69.5154L73.7184 69.5054L73.1133 64.9209L87.288 64.9309L86.6759 69.5154Z" fill="#5D80D9"/>
<path opacity="0.1" d="M86.6759 69.5154L73.7184 69.5054L73.1133 64.9209L87.288 64.9309L86.6759 69.5154Z" fill="#1D191F"/>
<path opacity="0.1" d="M87.2875 64.9309L86.9879 67.1635L73.3451 66.6739L73.1147 64.9216L87.2875 64.9309Z" fill="#1D191F"/>
<path d="M100.465 123.945L98.8589 124.23L98.5 125.85L98.1412 124.23L96.5356 123.945L98.1346 123.571L98.5 122.04L98.8659 123.571L100.465 123.945Z" fill="#FCFCFC"/>
<path d="M84.8461 110.951L83.2402 111.235L82.8813 112.855L82.5224 111.235L80.9165 110.95L82.5154 110.576L82.8813 109.045L83.2471 110.576L84.8461 110.951Z" fill="#FCFCFC"/>
<path d="M79.4707 72.4118L77.8648 72.696L77.5059 74.3164L77.147 72.696L75.5415 72.411L77.1404 72.0371L77.5059 70.5065L77.8718 72.0371L79.4707 72.4118Z" fill="#FCFCFC"/>
<path d="M61.5094 127.032L60.612 127.191L60.4114 128.096L60.2109 127.191L59.3135 127.031L60.207 126.822L60.4114 125.966L60.6159 126.822L61.5094 127.032Z" fill="#FCFCFC"/>
<path d="M109.802 129.733L108.904 129.892L108.704 130.797L108.503 129.892L107.605 129.733L108.499 129.524L108.704 128.668L108.908 129.524L109.802 129.733Z" fill="#FCFCFC"/>
<path d="M49.1573 132.907L48.2599 133.066L48.0594 133.972L47.8588 133.066L46.9614 132.907L47.855 132.698L48.0594 131.843L48.2638 132.698L49.1573 132.907Z" fill="#FCFCFC"/>
<path d="M88.1987 132.154L87.3013 132.313L87.1008 133.219L86.9002 132.313L86.0024 132.154L86.8964 131.945L87.1008 131.089L87.3052 131.945L88.1987 132.154Z" fill="#FCFCFC"/>
<path d="M81.6276 108.487L80.7301 108.646L80.5296 109.552L80.3291 108.646L79.4316 108.486L80.3252 108.277L80.5296 107.422L80.734 108.277L81.6276 108.487Z" fill="#FCFCFC"/>
<path d="M84.0391 85.035L83.1417 85.194L82.9411 86.0998L82.7402 85.194L81.8428 85.0346L82.7367 84.8256L82.9411 83.9702L83.1455 84.8256L84.0391 85.035Z" fill="#FCFCFC"/>
<path d="M111.925 131.692C111.59 131.692 111.589 132.19 111.925 132.19C112.26 132.19 112.26 131.692 111.925 131.692Z" fill="#FCFCFC"/>
<path d="M78.1541 105.345C77.8193 105.345 77.8189 105.844 78.1541 105.844C78.489 105.844 78.4898 105.345 78.1541 105.345Z" fill="#FCFCFC"/>
<path d="M82.4876 74.0674C82.1528 74.0674 82.1524 74.5655 82.4876 74.5655C82.8225 74.5655 82.8229 74.0674 82.4876 74.0674Z" fill="#FCFCFC"/>
<path d="M55.9579 132.907C55.623 132.907 55.6226 133.405 55.9579 133.405C56.2923 133.405 56.2931 132.907 55.9579 132.907Z" fill="#FCFCFC"/>
<path d="M72.4466 129.483C72.1117 129.483 72.1113 129.981 72.4466 129.981C72.7815 129.981 72.7823 129.483 72.4466 129.483Z" fill="#FCFCFC"/>
<path d="M105.408 127.212C105.171 127.212 105.171 127.565 105.408 127.565C105.645 127.565 105.645 127.212 105.408 127.212Z" fill="#FCFCFC"/>
<path d="M82.6652 124.572C82.4282 124.572 82.4278 124.924 82.6652 124.924C82.9021 124.924 82.9025 124.572 82.6652 124.572Z" fill="#FCFCFC"/>
<path d="M79.4318 79.8772C79.1948 79.8772 79.1944 80.2297 79.4318 80.2297C79.6683 80.2297 79.6687 79.8772 79.4318 79.8772Z" fill="#FCFCFC"/>
<path d="M66.0172 121.128C65.7803 121.128 65.7799 121.481 66.0172 121.481C66.2538 121.481 66.2541 121.128 66.0172 121.128Z" fill="#FCFCFC"/>
<path d="M94.4994 121.847C93.8575 121.847 93.8564 122.802 94.4994 122.802C95.1413 122.802 95.1421 121.847 94.4994 121.847Z" fill="#FCFCFC"/>
<path d="M68.3744 119.508C67.7325 119.508 67.7314 120.463 68.3744 120.463C69.0163 120.463 69.0171 119.508 68.3744 119.508Z" fill="#FCFCFC"/>
<path d="M80.5297 90.6866C79.8878 90.6866 79.8867 91.6417 80.5297 91.6417C81.1716 91.6417 81.1728 90.6866 80.5297 90.6866Z" fill="#FCFCFC"/>
<path d="M97.9368 111.386H64.0469V121.389H97.9368V111.386Z" fill="#1E397D"/>
<path d="M73.6402 115.213C73.5969 115.167 73.5342 115.118 73.4517 115.066C73.3692 115.014 73.2732 114.966 73.1625 114.92C73.0522 114.874 72.931 114.837 72.799 114.808C72.6669 114.779 72.5314 114.765 72.3932 114.765C72.0858 114.765 71.8594 114.818 71.7146 114.926C71.5694 115.034 71.497 115.183 71.497 115.374C71.497 115.482 71.5198 115.57 71.5651 115.638C71.6104 115.706 71.6809 115.767 71.7761 115.818C71.8714 115.87 71.9906 115.916 72.1335 115.955C72.2763 115.995 72.4428 116.037 72.6337 116.082C72.8675 116.136 73.0785 116.197 73.267 116.263C73.4552 116.329 73.6143 116.41 73.7444 116.506C73.8741 116.601 73.9747 116.718 74.0464 116.857C74.118 116.996 74.1536 117.165 74.1536 117.364C74.1536 117.588 74.1091 117.78 74.0204 117.942C73.9318 118.103 73.8106 118.235 73.6569 118.336C73.5032 118.438 73.3247 118.513 73.1211 118.56C72.9174 118.608 72.6987 118.632 72.4649 118.632C72.1141 118.632 71.7753 118.581 71.4486 118.479C71.1214 118.377 70.826 118.23 70.562 118.034L70.893 117.438C70.9492 117.492 71.0305 117.552 71.1365 117.618C71.2426 117.685 71.3661 117.745 71.5067 117.802C71.6472 117.858 71.7997 117.905 71.9647 117.944C72.1292 117.984 72.3003 118.003 72.4776 118.003C72.7634 118.003 72.984 117.956 73.14 117.861C73.2961 117.765 73.3739 117.625 73.3739 117.438C73.3739 117.326 73.3449 117.233 73.286 117.158C73.2275 117.084 73.1443 117.018 73.0359 116.962C72.9275 116.906 72.7955 116.856 72.6398 116.81C72.4838 116.764 72.3065 116.717 72.1071 116.667C71.8776 116.609 71.6774 116.548 71.5063 116.483C71.3352 116.419 71.1935 116.341 71.0808 116.25C70.9681 116.159 70.883 116.052 70.8241 115.93C70.7657 115.808 70.7366 115.66 70.7366 115.485C70.7366 115.27 70.78 115.078 70.8663 114.911C70.9527 114.743 71.0707 114.602 71.2202 114.488C71.3696 114.374 71.5458 114.288 71.7494 114.23C71.9527 114.172 72.1737 114.143 72.4118 114.143C72.7235 114.143 73.0115 114.19 73.2755 114.285C73.5396 114.381 73.7711 114.499 73.9705 114.64L73.6402 115.213Z" fill="#FAFAFA"/>
<path d="M78.4917 114.79H76.959V118.589H76.2253V114.79H74.686V114.175H78.4921V114.79H78.4917Z" fill="#FAFAFA"/>
<path d="M80.2713 114.174H80.9077L82.7262 118.588H81.96L81.473 117.388H79.6936L79.2132 118.588H78.4404L80.2713 114.174ZM81.3297 116.872L80.5891 114.976L79.8229 116.872H81.3297Z" fill="#FAFAFA"/>
<path d="M83.5571 118.589V114.175H85.5641C85.7716 114.175 85.9637 114.216 86.1386 114.299C86.314 114.382 86.4642 114.491 86.5901 114.625C86.7155 114.76 86.8142 114.913 86.8855 115.085C86.9567 115.257 86.9927 115.432 86.9927 115.61C86.9927 115.76 86.9706 115.902 86.9277 116.039C86.8843 116.176 86.8235 116.303 86.7457 116.418C86.6683 116.534 86.5726 116.635 86.46 116.72C86.3473 116.805 86.2242 116.868 86.0899 116.909L87.1747 118.588H86.3496L85.3496 117.053H84.2842V118.588H83.5571V118.589ZM84.2846 116.437H85.5575C85.6617 116.437 85.7558 116.415 85.8402 116.372C85.9242 116.329 85.9966 116.269 86.0573 116.191C86.1177 116.115 86.1654 116.027 86.2002 115.928C86.2347 115.828 86.2521 115.722 86.2521 115.61C86.2521 115.498 86.2316 115.393 86.1905 115.293C86.1491 115.194 86.0953 115.107 86.0279 115.032C85.961 114.958 85.8827 114.898 85.7941 114.855C85.7054 114.812 85.6133 114.79 85.5184 114.79H84.2842V116.437H84.2846Z" fill="#FAFAFA"/>
<path d="M91.4219 114.79H89.8892V118.589H89.1551V114.79H87.6162V114.175H91.4219V114.79Z" fill="#FAFAFA"/>
<path d="M96.5051 122.209H65.4786L64.0469 121.389H97.9368L96.5051 122.209Z" fill="#1D191F"/>
<path d="M150.815 150.71C150.881 151.533 148.422 151.769 147.397 151.237C147.071 151.067 146.151 150.323 145.03 149.376C142.567 147.29 139.159 144.237 139.159 144.237L136.635 145.323L124.305 149.253L119.104 136.373C119.104 136.373 125.07 133.957 130.743 131.793C131.615 131.461 132.475 131.14 133.312 130.828C133.364 130.808 133.416 130.789 133.467 130.769C137.274 129.367 140.428 128.306 140.751 128.525C141.623 129.105 150.75 149.881 150.815 150.71Z" fill="#C8D4F2"/>
<path d="M150.815 150.708C150.881 151.535 148.423 151.768 147.397 151.238C147.072 151.068 146.15 150.323 145.031 149.374C142.565 147.291 139.158 144.237 139.158 144.237L136.634 145.323L136.224 145.453L130.56 131.863C130.622 131.837 130.68 131.815 130.742 131.792C131.616 131.462 132.476 131.14 133.312 130.829C133.363 130.807 133.417 130.788 133.467 130.769C137.273 129.369 140.428 128.305 140.753 128.524C141.624 129.105 150.749 149.882 150.815 150.708Z" fill="#EBEBEB"/>
<path d="M151.034 151.013C150.981 150.169 141.963 128.905 141.082 128.305C140.752 128.071 137.438 129.148 133.474 130.56C133.433 130.575 133.392 130.59 133.35 130.605L139.008 144.386L139.249 144.287C139.249 144.287 146.504 150.948 147.545 151.511C148.581 152.067 151.091 151.857 151.034 151.013Z" fill="#5D80D9"/>
<path d="M150.071 151.107C148.458 147.558 142.307 133.099 140.995 129.474C140.984 129.444 141.004 129.436 141.018 129.465C142.696 132.949 148.726 147.455 150.132 151.083C150.162 151.16 150.105 151.182 150.071 151.107Z" fill="#1D191F"/>
<path d="M139.696 145.897C138.823 144.593 138.318 142.78 138.91 141.294C138.933 141.237 139.018 141.269 139.023 141.32C139.154 142.89 139.411 144.303 139.88 145.819C139.913 145.926 139.759 145.99 139.696 145.897Z" fill="#1D191F"/>
<path d="M140.769 146.665C139.896 145.362 139.391 143.549 139.983 142.063C140.006 142.005 140.091 142.037 140.096 142.089C140.228 143.659 140.485 145.073 140.953 146.587C140.986 146.694 140.832 146.759 140.769 146.665Z" fill="#1D191F"/>
<path d="M141.842 147.435C140.969 146.131 140.463 144.318 141.056 142.833C141.079 142.775 141.164 142.807 141.168 142.859C141.3 144.428 141.557 145.842 142.025 147.357C142.059 147.464 141.905 147.528 141.842 147.435Z" fill="#1D191F"/>
<path d="M139.091 147.532C139.478 146.22 139.258 144.792 139.215 143.453C139.21 143.314 139.051 143.264 138.937 143.303C138.923 143.281 138.896 143.269 138.87 143.29C137.802 144.153 136.849 145.495 136.416 146.774C136.149 147.564 136.228 148.736 137.26 148.98C138.237 149.211 138.864 148.298 139.091 147.532ZM138.057 148.352C136.546 149.229 136.69 147.238 136.911 146.663C137.053 146.294 137.245 145.934 137.438 145.587C137.843 144.861 138.348 144.203 138.825 143.522C138.804 144.182 138.842 144.837 138.847 145.497C138.852 146.283 138.89 147.868 138.057 148.352Z" fill="#1D191F"/>
<path d="M134.628 139.453C133.853 140.152 134.385 141.209 135.023 141.772C136.056 142.683 137.575 143.404 138.948 143.654C138.982 143.659 138.999 143.637 139 143.611C139.12 143.592 139.233 143.473 139.166 143.35C138.516 142.163 137.976 140.816 136.965 139.854C136.375 139.293 135.36 138.793 134.628 139.453ZM137.796 141.742C138.131 142.319 138.433 142.908 138.79 143.473C138.025 143.104 137.248 142.768 136.523 142.325C136.177 142.114 135.826 141.891 135.513 141.636C135.025 141.239 133.879 139.572 135.645 139.626C136.618 139.655 137.398 141.055 137.796 141.742Z" fill="#1D191F"/>
<path opacity="0.1" d="M151.033 151.012C151.091 151.857 148.582 152.068 147.544 151.508C146.503 150.945 139.248 144.285 139.248 144.285L139.008 144.385L134.536 133.493L143.344 132.733C146.294 139.171 150.998 150.404 151.033 151.012Z" fill="#1D191F"/>
<path d="M134.392 147.706C134.392 147.706 107.588 153.598 97.7275 151.897C93.0085 151.082 89.6024 145.27 91.8703 140.817C93.9869 136.663 106.925 132.446 110.581 130.002C111.732 129.237 111.609 126.2 111.609 126.2L121.212 126.076C121.212 126.076 124.634 131.282 123.184 133.816C123.163 133.86 123.135 133.898 123.102 133.942L127.434 132.365L134.392 147.706Z" fill="#1E397D"/>
<path d="M128.458 140.767C127.39 138.545 126.217 136.372 125.13 134.159C125.109 134.117 125.038 134.14 125.058 134.184C126.083 136.414 127.031 138.676 128.098 140.89C129.169 143.112 130.324 145.29 131.445 147.488C131.474 147.544 131.57 147.514 131.542 147.455C130.508 145.228 129.522 142.982 128.458 140.767Z" fill="#1D191F"/>
<path d="M123.166 134.049C122.504 134.417 121.873 134.846 121.229 135.243C120.595 135.635 119.957 136.022 119.308 136.392C117.998 137.138 116.656 137.836 115.299 138.499C112.562 139.837 109.738 141.012 106.838 141.987C105.222 142.53 103.589 143.061 101.926 143.456C101.889 143.465 101.906 143.518 101.943 143.51C103.153 143.232 104.364 142.96 105.561 142.636C104.927 143.019 104.303 143.418 103.671 143.807C103.64 143.826 103.67 143.873 103.702 143.854C104.393 143.456 105.093 143.072 105.777 142.663C105.816 142.64 105.816 142.599 105.796 142.571C106.001 142.514 106.206 142.46 106.41 142.399C107.891 141.96 109.355 141.468 110.792 140.911C113.637 139.809 116.378 138.493 118.987 136.945C119.722 136.508 120.45 136.06 121.167 135.597C121.873 135.141 122.596 134.672 123.235 134.131C123.284 134.09 123.218 134.02 123.166 134.049Z" fill="#1D191F"/>
<path d="M161.103 153.863C161.169 154.686 158.711 154.922 157.685 154.39C157.359 154.22 156.439 153.476 155.318 152.529C152.855 150.443 149.447 147.39 149.447 147.39L146.923 148.476L134.96 152.393L129.392 139.526C129.392 139.526 135.358 137.11 141.031 134.946C141.903 134.614 142.763 134.292 143.6 133.98C143.652 133.961 143.704 133.941 143.755 133.922C147.562 132.52 150.716 131.459 151.04 131.677C151.911 132.258 161.038 153.034 161.103 153.863Z" fill="#C8D4F2"/>
<path d="M161.103 153.863C161.168 154.685 158.71 154.923 157.684 154.389C157.359 154.218 156.437 153.474 155.319 152.528C152.856 150.442 149.446 147.388 149.446 147.388L146.925 148.478L146.588 148.589L140.708 135.069C140.816 135.028 140.924 134.987 141.033 134.947C141.904 134.613 142.763 134.291 143.6 133.979C143.654 133.961 143.704 133.942 143.754 133.92C147.564 132.519 150.715 131.459 151.041 131.678C151.912 132.256 161.037 153.032 161.103 153.863Z" fill="#EBEBEB"/>
<path d="M161.327 154.048C161.262 153.204 151.938 132.06 151.049 131.472C150.715 131.243 147.418 132.364 143.474 133.827C143.433 133.843 143.392 133.859 143.351 133.874L149.207 147.58L149.446 147.477C149.446 147.477 156.796 154.042 157.846 154.591C158.889 155.134 161.397 154.89 161.327 154.048Z" fill="#5D80D9"/>
<path d="M160.365 154.155C158.702 150.628 152.342 136.251 150.978 132.644C150.967 132.614 150.988 132.606 151.002 132.634C152.73 136.096 158.968 150.521 160.426 154.131C160.457 154.207 160.4 154.23 160.365 154.155Z" fill="#1D191F"/>
<path d="M149.917 149.082C149.025 147.79 148.493 145.984 149.064 144.49C149.087 144.432 149.172 144.463 149.177 144.515C149.332 146.082 149.609 147.493 150.099 149.002C150.134 149.108 149.98 149.175 149.917 149.082Z" fill="#1D191F"/>
<path d="M151.001 149.837C150.109 148.545 149.577 146.739 150.149 145.245C150.171 145.187 150.256 145.218 150.261 145.269C150.416 146.837 150.693 148.248 151.183 149.756C151.218 149.863 151.065 149.929 151.001 149.837Z" fill="#1D191F"/>
<path d="M152.084 150.592C151.192 149.3 150.661 147.494 151.232 146.001C151.254 145.943 151.34 145.974 151.345 146.025C151.499 147.593 151.776 149.003 152.267 150.512C152.301 150.618 152.148 150.685 152.084 150.592Z" fill="#1D191F"/>
<path d="M149.335 150.725C149.704 149.408 149.463 147.984 149.4 146.644C149.394 146.505 149.234 146.457 149.12 146.498C149.106 146.477 149.079 146.465 149.053 146.486C147.998 147.363 147.064 148.718 146.649 150.002C146.393 150.795 146.489 151.966 147.525 152.197C148.505 152.415 149.12 151.495 149.335 150.725ZM148.314 151.559C146.815 152.455 146.931 150.463 147.143 149.885C147.28 149.514 147.466 149.152 147.654 148.803C148.048 148.071 148.544 147.407 149.011 146.72C149 147.379 149.047 148.034 149.062 148.694C149.079 149.479 149.14 151.064 148.314 151.559Z" fill="#1D191F"/>
<path d="M144.756 142.706C143.992 143.415 144.539 144.465 145.185 145.019C146.231 145.917 147.76 146.618 149.137 146.849C149.171 146.855 149.187 146.832 149.188 146.806C149.307 146.785 149.419 146.665 149.35 146.543C148.683 145.364 148.124 144.025 147.099 143.077C146.501 142.523 145.479 142.037 144.756 142.706ZM147.957 144.953C148.3 145.526 148.611 146.11 148.976 146.67C148.206 146.311 147.424 145.986 146.692 145.553C146.343 145.346 145.989 145.128 145.672 144.877C145.179 144.487 144.008 142.835 145.775 142.865C146.749 142.882 147.549 144.272 147.957 144.953Z" fill="#1D191F"/>
<path d="M114.911 126.14L131.421 125.902C131.421 125.902 134.924 134.433 133.474 136.97C132.024 139.508 116.816 143.133 116.816 143.133L137.722 135.519L144.679 150.856C144.679 150.856 119.26 156.159 105.779 154.843C100.719 154.35 97.5428 148.023 100.507 143.161C103.625 138.047 114.938 131.05 114.938 131.05L114.911 126.14Z" fill="#1E397D"/>
<path d="M137.178 135.48C130.779 138.279 124.324 140.955 117.722 143.288C116.805 143.612 115.887 143.934 114.966 144.25C114.012 144.577 113.065 144.954 112.089 145.216C112.041 145.229 112.066 145.303 112.112 145.286C112.954 144.984 113.828 144.769 114.681 144.501C115.517 144.238 116.352 143.973 117.182 143.696C117.541 143.577 117.898 143.453 118.256 143.332C118.183 143.38 118.111 143.428 118.039 143.474C117.709 143.684 117.381 143.896 117.057 144.114C116.388 144.564 115.767 145.098 115.066 145.498C115.023 145.523 115.067 145.587 115.107 145.56C115.774 145.107 116.524 144.769 117.209 144.341C117.541 144.134 117.866 143.918 118.189 143.697C118.474 143.502 118.8 143.304 119.051 143.061C120.102 142.701 121.152 142.335 122.196 141.954C125.484 140.754 128.733 139.465 131.939 138.075C133.729 137.298 135.504 136.491 137.256 135.638C137.348 135.593 137.273 135.438 137.178 135.48Z" fill="#1D191F"/>
<path d="M139.115 143.785C138.048 141.563 136.874 139.39 135.787 137.177C135.766 137.135 135.695 137.158 135.715 137.202C136.741 139.432 137.688 141.694 138.755 143.908C139.826 146.13 140.981 148.308 142.102 150.506C142.131 150.562 142.227 150.532 142.2 150.473C141.165 148.246 140.179 146 139.115 143.785Z" fill="#1D191F"/>
<path d="M114.64 131.216C112.813 132.169 111.095 133.344 109.426 134.529C107.77 135.704 106.166 136.947 104.637 138.27C103.865 138.938 103.12 139.636 102.4 140.354C101.713 141.04 101.053 141.757 100.502 142.549C99.5175 143.966 98.9987 145.666 99.1326 147.371C99.2031 148.268 99.4125 149.179 99.7881 150.007C100.169 150.845 100.717 151.562 101.317 152.267C101.341 152.295 101.384 152.254 101.358 152.227C100.763 151.62 100.359 150.843 100.067 150.065C99.7889 149.324 99.6003 148.549 99.5562 147.762C99.4644 146.124 99.8241 144.517 100.712 143.107C101.726 141.497 103.216 140.161 104.632 138.879C106.094 137.555 107.629 136.312 109.224 135.137C110.119 134.477 111.03 133.836 111.948 133.207C112.868 132.577 113.805 131.972 114.703 131.313C114.764 131.27 114.709 131.18 114.64 131.216Z" fill="#1D191F"/>
<path d="M119.44 131.852C118.097 131.404 116.631 131.229 115.222 131.079C113.814 130.929 112.405 130.858 110.99 130.838C110.952 130.838 110.955 130.891 110.992 130.894C112.425 131.015 113.858 131.188 115.281 131.392C116.658 131.59 118.038 131.875 119.426 131.981C119.508 131.988 119.508 131.875 119.44 131.852Z" fill="#1D191F"/>
<path d="M130.667 132.04C129.783 132.029 128.913 131.93 128.038 131.811C127.316 131.712 126.576 131.61 125.975 131.179C124.805 130.338 124.328 128.859 124.08 127.54C124.074 127.509 124.018 127.517 124.023 127.548C124.222 128.985 124.29 130.634 125.607 131.598C126.26 132.075 127.047 132.22 127.85 132.269C128.785 132.326 129.745 132.227 130.669 132.102C130.709 132.096 130.71 132.04 130.667 132.04Z" fill="#1D191F"/>
<path d="M132.484 134.316C132.411 133.488 132.222 132.658 132.021 131.851C131.814 131.017 131.567 130.193 131.291 129.378C130.978 128.453 130.614 127.543 130.234 126.642C130.22 126.609 130.166 126.623 130.178 126.658C130.723 128.184 131.22 129.729 131.635 131.292C131.841 132.067 132.024 132.846 132.187 133.63C132.346 134.395 132.426 135.165 132.202 135.926C131.977 136.693 131.512 137.38 130.88 137.896C130.873 137.901 130.882 137.912 130.889 137.907C132.022 137.046 132.606 135.69 132.484 134.316Z" fill="#1D191F"/>
<path d="M135.309 139.004C134.194 139.283 133.103 139.65 132.008 139.99C130.911 140.33 129.815 140.671 128.722 141.02C126.533 141.718 124.354 142.44 122.174 143.161C120.936 143.57 119.707 144.007 118.477 144.437C118.442 144.45 118.458 144.502 118.494 144.491C122.898 143.182 127.275 141.788 131.626 140.324C132.86 139.909 134.113 139.525 135.321 139.042C135.344 139.032 135.335 138.998 135.309 139.004Z" fill="#1D191F"/>
<path d="M103.368 114.205C103.591 114.249 104.633 114.463 106.156 114.778C106.876 113.942 107.833 112.405 108.027 110.017C108.056 109.621 108.571 112.019 107.572 115.07C110.515 115.676 114.519 116.498 118.024 117.184C118.352 115.883 118.718 114.691 118.718 114.691C118.651 115.659 118.693 116.552 118.785 117.336C119.264 117.433 119.734 117.52 120.185 117.607C120.487 115.549 121.555 112.063 121.555 112.063C121.382 114.592 121.816 116.715 122.179 117.986C124.408 118.399 125.883 118.632 125.809 118.514C123.169 114.196 126.064 112.512 125.751 109.075C125.376 104.957 121.978 103.696 122.665 100.779C123.218 98.4043 124.389 94.1267 121.42 92.6268C121.42 92.6268 119.389 89.4722 115.069 90.2201C109.725 91.1407 110.234 98.8665 109.597 100.303C108.689 102.356 107.475 102.917 106.196 105.213C104.894 107.536 105.744 109.39 105.546 111.09C105.339 112.786 102.809 114.098 103.368 114.205Z" fill="#1D191F"/>
<path d="M126.013 118.003C125.694 117.259 125.431 116.489 125.344 115.714C125.234 114.94 125.493 114.214 125.799 113.472C126.104 112.735 126.442 111.985 126.678 111.187C126.903 110.39 127.041 109.533 126.92 108.683C126.813 107.833 126.475 107.017 125.997 106.319C125.527 105.612 124.947 105.007 124.39 104.413C123.84 103.813 123.291 103.22 122.929 102.519C122.555 101.826 122.402 101.027 122.459 100.221C122.269 101.006 122.327 101.864 122.649 102.638C122.965 103.415 123.486 104.089 124.009 104.719C124.531 105.354 125.062 105.964 125.475 106.627C125.886 107.29 126.177 108.007 126.26 108.758C126.346 109.507 126.26 110.274 126.052 111.026C125.854 111.782 125.553 112.524 125.288 113.297C125.159 113.685 125.034 114.081 124.966 114.499C124.895 114.918 124.921 115.36 125.007 115.765C125.197 116.577 125.555 117.325 126.013 118.003Z" fill="#1D191F"/>
<path d="M111.707 92.4469C111.14 93.2819 110.801 94.2377 110.464 95.1742C110.145 96.1204 109.875 97.0788 109.616 98.0357L109.221 99.4622C109.087 99.9388 108.934 100.381 108.718 100.803C108.294 101.653 107.616 102.338 106.868 103.024C106.502 103.374 106.128 103.741 105.801 104.152C105.473 104.561 105.188 105.007 104.963 105.478C104.753 105.957 104.581 106.432 104.449 106.928C104.314 107.422 104.241 107.94 104.235 108.453C104.227 108.967 104.281 109.465 104.312 109.949C104.344 110.432 104.331 110.919 104.267 111.393C104.157 112.335 103.459 113.17 102.553 113.636C103.523 113.299 104.348 112.474 104.583 111.449C104.696 110.95 104.741 110.444 104.747 109.94C104.755 109.436 104.72 108.946 104.757 108.473C104.818 107.531 105.13 106.594 105.54 105.734C105.76 105.312 106.014 104.91 106.32 104.539C106.622 104.166 106.976 103.826 107.343 103.481C107.705 103.133 108.082 102.777 108.423 102.377C108.763 101.978 109.068 101.539 109.294 101.065C109.518 100.591 109.674 100.087 109.791 99.6053C109.917 99.1201 110.023 98.6354 110.127 98.151C110.342 97.1837 110.541 96.2168 110.781 95.2598C111.01 94.2992 111.276 93.3475 111.707 92.4469Z" fill="#1D191F"/>
<path d="M118.489 106.591C115.589 110.999 109.926 116.958 106.003 119.054C104.313 119.957 96.9154 120.29 92.4151 119.915C90.7341 119.774 92.5053 111.245 94.3458 111.205C95.599 111.178 102.133 112.209 103.068 111.906C104.788 111.349 111.156 106.747 115.528 104.428C117.969 103.134 120.293 103.849 118.489 106.591Z" fill="#C8D4F2"/>
<path d="M97.2002 111.87C94.1641 110.785 90.4529 109.257 86.852 109.864C86.1459 109.984 85.8017 110.391 85.8017 110.391C84.1826 110.636 83.8171 111.441 83.8171 111.441C82.382 112.112 82.1269 112.985 82.1269 112.985C82.1269 112.985 80.2294 113.292 80.2329 114.421C80.2333 115.687 82.8981 115.007 84.6023 115.491C88.5071 116.601 94.3082 119.391 95.4011 119.818L97.2002 111.87Z" fill="#C8D4F2"/>
<path d="M89.5407 113.905C88.3846 113.601 87.2576 113.273 86.0644 113.12C84.7555 112.952 83.4667 113 82.1527 113.018C82.1116 113.019 82.1066 112.964 82.1469 112.958C84.5193 112.565 87.3471 112.949 89.5558 113.855C89.6096 113.877 89.5987 113.921 89.5407 113.905Z" fill="#1D191F"/>
<path d="M90.5828 111.747C89.4407 111.511 87.431 111.107 83.8139 111.484C83.8023 111.485 83.7961 111.466 83.8089 111.463C86.1232 110.919 88.3346 111.033 90.5944 111.695C90.6645 111.716 90.6587 111.763 90.5828 111.747Z" fill="#1D191F"/>
<path d="M91.1198 110.577C89.1619 110.245 87.884 110.273 85.8026 110.403C85.791 110.404 85.7864 110.384 85.7992 110.382C88.148 109.997 89.0458 110.112 91.1411 110.514C91.2131 110.528 91.1964 110.59 91.1198 110.577Z" fill="#1D191F"/>
<path d="M89.2192 117.114C89.6679 117.451 89.4859 117.679 88.472 117.679C87.4456 117.682 83.4429 116.859 83.2617 118.223C83.0774 119.593 88.7639 120.405 90.4515 120.544C93.285 120.778 95.4012 119.818 95.4012 119.818C94.3392 119.396 91.2912 117.968 89.2192 117.114Z" fill="#C8D4F2"/>
<path d="M108.042 108.181L112.793 115.068C112.793 115.068 117.511 110.139 118.901 106.7C120.291 103.261 118.419 103.122 115.819 104.188C113.218 105.255 108.042 108.181 108.042 108.181Z" fill="#5D80D9"/>
<path d="M109.607 107.948C109.577 107.902 109.534 107.908 109.562 107.954C110.995 110.279 112.81 112.858 113.575 113.718C113.586 113.731 113.606 113.715 113.599 113.701C113.067 112.679 109.939 108.451 109.607 107.948Z" fill="#1D191F"/>
<path opacity="0.1" d="M118.902 106.7C117.512 110.14 112.792 115.069 112.792 115.069L109.575 110.403L118.526 103.635C119.417 103.821 119.707 104.706 118.902 106.7Z" fill="#1D191F"/>
<path d="M111.432 120.264L110.907 128.813C110.907 128.813 128.209 127.844 132.995 127.521C132.995 127.521 128.088 110.683 122.942 105.335C120.368 102.66 117.346 102.859 115.42 104.73C114.933 105.203 110.16 112.39 109.548 115.2C109.014 117.68 111.432 120.264 111.432 120.264Z" fill="#5D80D9"/>
<path d="M117.967 118.924C117.042 118.855 116.107 118.816 115.179 118.879C114.717 118.911 114.261 118.962 113.803 119.023C113.574 119.054 113.346 119.077 113.117 119.099C112.882 119.121 112.631 119.137 112.396 119.103C112.374 119.1 112.369 119.13 112.39 119.135C112.616 119.18 112.833 119.223 113.064 119.24C113.284 119.255 113.507 119.249 113.727 119.236C114.195 119.208 114.662 119.16 115.13 119.127C116.074 119.062 117.018 118.998 117.965 118.998C118.009 118.998 118.011 118.927 117.967 118.924Z" fill="#1D191F"/>
<path d="M120.074 120.089C119.34 119.886 118.585 119.714 117.832 119.592C117.453 119.53 117.074 119.491 116.691 119.46C116.508 119.445 116.325 119.434 116.142 119.425C115.94 119.414 115.737 119.43 115.536 119.417C115.515 119.415 115.509 119.446 115.53 119.448C115.72 119.466 115.907 119.514 116.095 119.543C116.284 119.571 116.473 119.598 116.662 119.626C117.04 119.683 117.418 119.744 117.797 119.797C118.556 119.904 119.309 120.017 120.064 120.149C120.105 120.156 120.112 120.1 120.074 120.089Z" fill="#1D191F"/>
<path opacity="0.3" d="M121.175 103.965L115.956 104.272C116.018 104.228 116.08 104.183 116.142 104.139L120.962 103.857C121.032 103.891 121.106 103.924 121.175 103.965ZM122.12 104.591L115.201 104.999C115.174 105.04 115.14 105.08 115.109 105.129L122.263 104.706C122.217 104.665 122.17 104.625 122.12 104.591ZM122.952 105.344L114.609 105.833C114.586 105.873 114.555 105.918 114.524 105.962L123.057 105.458C123.026 105.418 122.987 105.381 122.952 105.344ZM123.618 106.107L114.052 106.67C114.025 106.711 113.997 106.756 113.966 106.796L123.715 106.226C123.688 106.185 123.653 106.148 123.618 106.107ZM124.207 106.87L113.514 107.5C113.49 107.545 113.463 107.586 113.436 107.63L124.288 106.989C124.261 106.948 124.234 106.911 124.207 106.87ZM124.733 107.645L112.991 108.334C112.968 108.379 112.941 108.42 112.913 108.464L124.811 107.764C124.787 107.723 124.76 107.682 124.733 107.645ZM125.221 108.416L112.488 109.165C112.46 109.205 112.437 109.25 112.414 109.294L125.295 108.534C125.271 108.494 125.248 108.457 125.221 108.416ZM125.682 109.19L111.992 109.998C111.969 110.043 111.946 110.084 111.918 110.124L125.747 109.309C125.728 109.268 125.705 109.231 125.682 109.19ZM126.111 109.965L111.524 110.825C111.496 110.866 111.473 110.91 111.454 110.951L126.177 110.084C126.154 110.043 126.135 110.006 126.111 109.965ZM126.526 110.747L111.067 111.655C111.044 111.696 111.02 111.74 111.001 111.781L126.588 110.866C126.564 110.825 126.545 110.788 126.526 110.747ZM126.917 111.522L110.637 112.481C110.618 112.522 110.594 112.567 110.575 112.608L126.975 111.64C126.955 111.599 126.936 111.562 126.917 111.522ZM127.3 112.304L110.242 113.308C110.223 113.352 110.203 113.393 110.188 113.434L127.354 112.422C127.335 112.381 127.315 112.344 127.3 112.304ZM127.66 113.082L109.894 114.127C109.874 114.171 109.859 114.212 109.843 114.253L127.714 113.2C127.699 113.16 127.679 113.119 127.66 113.082ZM128.012 113.864L109.611 114.95C109.599 114.991 109.588 115.031 109.58 115.072L128.066 113.982C128.051 113.942 128.032 113.901 128.012 113.864ZM128.357 114.646L109.476 115.758C109.476 115.798 109.472 115.839 109.472 115.88L128.411 114.764C128.392 114.724 128.376 114.687 128.357 114.646ZM128.694 115.428L109.522 116.558C109.526 116.599 109.534 116.64 109.541 116.681L128.744 115.546C128.725 115.506 128.709 115.469 128.694 115.428ZM129.015 116.21L109.704 117.348C109.719 117.385 109.731 117.425 109.747 117.466L129.065 116.328C129.05 116.288 129.034 116.247 129.015 116.21ZM129.332 116.992L110.014 118.133C110.033 118.174 110.052 118.211 110.072 118.252L129.383 117.114C129.367 117.073 129.348 117.033 129.332 116.992ZM129.642 117.774L110.432 118.908C110.459 118.949 110.482 118.989 110.505 119.027L129.689 117.9C129.677 117.859 129.658 117.818 129.642 117.774ZM129.948 118.56L110.954 119.679C110.982 119.72 111.013 119.76 111.04 119.797L129.991 118.682C129.979 118.641 129.964 118.6 129.948 118.56ZM130.246 119.342L111.419 120.453L111.411 120.576L130.289 119.468C130.273 119.427 130.258 119.386 130.246 119.342ZM130.533 120.131L111.369 121.258L111.361 121.384L130.575 120.25C130.564 120.212 130.548 120.172 130.533 120.131ZM130.815 120.913L111.322 122.062L111.315 122.188L130.862 121.035C130.846 120.994 130.831 120.954 130.815 120.913ZM131.098 121.699L111.272 122.866L111.264 122.992L131.14 121.821C131.125 121.78 131.109 121.739 131.098 121.699ZM131.369 122.484L111.222 123.67L111.214 123.796L131.415 122.607C131.4 122.566 131.384 122.525 131.369 122.484ZM131.636 123.27L111.171 124.478L111.167 124.601L131.679 123.392C131.667 123.352 131.652 123.311 131.636 123.27ZM131.899 124.056L111.125 125.279L111.117 125.405L131.942 124.182C131.93 124.141 131.915 124.096 131.899 124.056ZM132.159 124.845L111.074 126.087L111.067 126.209L132.197 124.964C132.186 124.923 132.174 124.886 132.159 124.845ZM132.41 125.631L111.024 126.887L111.016 127.017L132.449 125.753C132.437 125.712 132.426 125.672 132.41 125.631ZM132.662 126.417L110.978 127.695L110.97 127.817L132.697 126.539C132.685 126.502 132.674 126.457 132.662 126.417ZM132.902 127.202L110.927 128.499L110.92 128.625L132.937 127.328C132.925 127.291 132.914 127.25 132.902 127.202Z" fill="#1E397D"/>
<path d="M124.982 108.162C127.416 113.352 131.32 123.487 130.229 126.031C128.034 131.148 119.22 135.736 116.656 136.764C115.455 137.245 109.819 130.025 110.778 129.059C111.822 128.005 121.032 122.743 121.19 121.575C121.324 120.587 120.694 114.316 120.31 109.501C119.824 103.426 122.921 103.769 124.982 108.162Z" fill="#C8D4F2"/>
<path d="M113.449 127.369C113.449 127.369 109.476 128.017 106.898 128.558C105.461 128.86 103.043 129.588 102.093 130.272C100.671 131.296 95.4082 136.446 96.6854 137.695C97.8414 138.825 101.776 133.851 101.776 133.851C101.776 133.851 97.342 138.534 98.9951 139.65C100.648 140.765 104.313 134.579 104.313 134.579C104.313 134.579 99.8705 139.489 101.765 140.381C103.197 141.056 106.846 135.632 106.846 135.632C106.846 135.632 103.058 139.877 104.499 140.631C106.092 141.465 109.788 136.661 109.788 136.661C113.79 137.988 116.262 137.053 117.938 136.187C118.344 135.978 113.449 127.369 113.449 127.369Z" fill="#C8D4F2"/>
<path d="M102.999 132.364C99.4579 135.575 98.7491 138.189 98.7823 138.123C99.5745 136.569 101.296 134.48 101.787 133.904C102.276 133.328 102.533 132.957 103.022 132.382C103.035 132.367 103.012 132.352 102.999 132.364Z" fill="#1D191F"/>
<path d="M105.407 133.794C103.628 135.209 102.113 137.353 101.712 138.17C101.68 138.236 101.716 138.232 101.763 138.174C102.366 137.425 104.789 134.526 105.426 133.807C105.436 133.796 105.419 133.784 105.407 133.794Z" fill="#1D191F"/>
<path d="M107.568 134.89C106.076 136.271 105.554 137.033 104.811 138.359C104.776 138.422 104.833 138.416 104.878 138.357C105.772 137.187 106.464 136.264 107.606 134.926C107.624 134.905 107.591 134.869 107.568 134.89Z" fill="#1D191F"/>
<path d="M119.855 115.723L128.428 114.853C128.428 114.853 126.026 108.576 123.476 105.812C120.925 103.048 119.936 104.575 119.728 107.277C119.521 109.978 119.855 115.723 119.855 115.723Z" fill="#5D80D9"/>
<path d="M120.358 114.286C120.301 114.291 120.287 114.329 120.343 114.326C123.159 114.178 126.386 113.822 127.535 113.568C127.553 113.564 127.547 113.539 127.53 113.539C126.338 113.522 120.978 114.235 120.358 114.286Z" fill="#1D191F"/>
<path d="M119.616 109.385C119.63 111.509 119.711 113.743 119.792 115.818C119.793 115.856 120.152 115.759 120.3 115.73C120.357 115.719 120.328 115.667 120.273 115.672C120.134 115.685 120.099 115.68 119.955 115.674C119.875 113.576 119.789 111.478 119.642 109.384C119.641 109.368 119.616 109.369 119.616 109.385Z" fill="#1D191F"/>
<path d="M119.701 104.702C119.608 105.068 117.753 107.435 116 107.34C115.429 107.308 115.472 104.318 115.472 104.318L115.423 104.096L114.731 100.997L118.55 98.7003L119.102 98.3967C119.102 98.3967 119.233 99.2569 119.384 100.329C119.392 100.379 119.399 100.428 119.406 100.482C119.416 100.542 119.426 100.599 119.433 100.656C119.458 100.816 119.483 100.979 119.503 101.143C119.52 101.267 119.537 101.388 119.549 101.518C119.565 101.65 119.577 101.777 119.594 101.908C119.721 103.205 119.738 104.546 119.701 104.702Z" fill="#C8D4F2"/>
<path d="M119.384 100.33C118.433 102.783 116.369 103.768 115.422 104.097L114.731 100.997L118.55 98.7008L119.101 98.3972C119.101 98.3976 119.232 99.2574 119.384 100.33Z" fill="#1D191F"/>
<path d="M110.958 93.7861C107.851 98.4865 110.44 100.799 111.5 101.44C112.462 102.021 115.814 103.883 119.412 99.5157C123.011 95.1477 121.71 92.2788 119.584 90.8378C117.458 89.3965 114.066 89.0856 110.958 93.7861Z" fill="#C8D4F2"/>
<path d="M112.229 93.5554C112.356 93.6039 112.483 93.6284 112.614 93.664C112.762 93.704 112.876 93.7507 113.029 93.7029C113.111 93.6773 113.166 93.5687 113.148 93.4901C113.105 93.3071 112.936 93.2148 112.76 93.1596C112.569 93.0995 112.405 93.1003 112.217 93.1692C112.036 93.2366 112.061 93.4913 112.229 93.5554Z" fill="#1D191F"/>
<path d="M115.499 95.36C115.386 95.2847 115.295 95.1973 115.192 95.1117C115.076 95.0153 114.973 94.9501 114.93 94.8015C114.907 94.7222 114.971 94.6173 115.05 94.5891C115.233 94.5228 115.407 94.6069 115.552 94.7177C115.709 94.8378 115.799 94.969 115.841 95.1569C115.883 95.3392 115.647 95.4593 115.499 95.36Z" fill="#1D191F"/>
<path d="M114.122 96.2435C114.132 96.2324 114.139 96.2739 114.131 96.2872C113.924 96.6104 113.744 97.0136 113.99 97.2927C113.998 97.3012 113.987 97.3171 113.976 97.3097C113.627 97.051 113.872 96.5181 114.122 96.2435Z" fill="#1D191F"/>
<path d="M114.633 96.0674C115.21 96.3287 114.622 97.4139 114.087 97.1719C113.561 96.9339 114.15 95.8484 114.633 96.0674Z" fill="#1D191F"/>
<path d="M114.825 96.2354C114.89 96.3458 114.929 96.5026 115.042 96.573C115.173 96.6549 115.339 96.593 115.488 96.5285C115.504 96.5218 115.508 96.5363 115.501 96.5508C115.391 96.7602 115.192 96.9321 114.943 96.8476C114.715 96.7705 114.662 96.5104 114.721 96.2743C114.732 96.2306 114.798 96.1909 114.825 96.2354Z" fill="#1D191F"/>
<path d="M112.217 95.1231C112.221 95.109 112.181 95.1257 112.174 95.1398C112.005 95.4826 111.752 95.8484 111.374 95.805C111.362 95.8035 111.354 95.821 111.367 95.8254C111.784 95.9625 112.115 95.4737 112.217 95.1231Z" fill="#1D191F"/>
<path d="M112.089 94.6169C111.544 94.2993 110.92 95.3663 111.426 95.6605C111.923 95.9503 112.546 94.8833 112.089 94.6169Z" fill="#1D191F"/>
<path d="M111.816 94.5634C111.694 94.5727 111.547 94.629 111.438 94.5794C111.312 94.5216 111.289 94.3581 111.276 94.2054C111.274 94.1895 111.26 94.1939 111.252 94.2076C111.127 94.4085 111.073 94.6587 111.255 94.8073C111.42 94.9429 111.66 94.8414 111.829 94.6654C111.861 94.6331 111.864 94.5597 111.816 94.5634Z" fill="#1D191F"/>
<path d="M112.762 98.8625C112.637 98.9051 112.498 98.9777 112.363 98.9307C112.233 98.8854 112.112 98.7665 112.018 98.6731C112.009 98.6638 111.992 98.6701 111.994 98.6838C112.024 98.8569 112.18 99.0266 112.36 99.0722C112.536 99.1171 112.681 99.0181 112.789 98.8932C112.805 98.8762 112.78 98.8565 112.762 98.8625Z" fill="#1D191F"/>
<path d="M111.977 96.9091C111.977 96.9091 111.627 97.3713 111.496 97.6066C111.484 97.6289 111.537 97.6696 111.618 97.717C111.621 97.7204 111.623 97.723 111.628 97.7222C112.026 98.0091 112.543 98.0892 112.996 97.8846C113.026 97.8701 113.008 97.8301 112.977 97.8331C112.526 97.8953 112.135 97.7708 111.746 97.5803C111.765 97.5062 112.374 96.8079 112.337 96.7853C112.209 96.7057 111.895 96.6578 111.711 96.6212C112.412 95.6379 113.271 94.7707 113.954 93.7819C113.977 93.746 113.928 93.7067 113.898 93.7337C112.93 94.582 112.098 95.6961 111.346 96.6934C111.252 96.8168 111.856 96.8991 111.977 96.9091Z" fill="#1D191F"/>
<path d="M111.701 97.6466C111.701 97.6466 111.753 98.0843 112.012 98.3745C112.107 98.482 112.226 98.5695 112.381 98.6095C112.701 98.6933 112.855 98.4531 112.93 98.2163C112.992 98.0217 112.999 97.8282 112.999 97.8282C112.999 97.8282 112.374 97.9676 111.701 97.6466Z" fill="#1D191F"/>
<path d="M112.012 98.3742C112.107 98.4817 112.226 98.5692 112.381 98.6092C112.701 98.693 112.855 98.4528 112.93 98.216C112.615 98.0807 112.204 98.1115 112.012 98.3742Z" fill="#FF99BA"/>
<path d="M118.823 99.507C117.58 98.8325 119.24 94.924 119.449 94.4463C119.301 94.7405 118.511 96.2964 118.355 96.2967C118.316 96.2956 118.19 96.1967 117.996 96.0266L117.994 96.0247C118.088 95.8509 118.175 95.6556 118.246 95.4532C118.282 95.3632 118.112 95.6211 117.883 95.9283C117.822 95.8735 117.757 95.812 117.684 95.7493C117.873 95.4236 118.074 95.0044 118.198 94.523C118.239 94.3603 117.844 94.9914 117.389 95.4888C116.639 94.8273 115.538 93.9018 114.379 93.2762C114.07 93.1072 113.795 92.9753 113.548 92.866C113.793 92.4124 114.11 91.9572 114.019 92.0436C113.753 92.2871 113.533 92.5532 113.363 92.7863C113.229 92.7285 113.103 92.6766 112.989 92.6329C113.305 91.9769 114.178 91.1148 113.986 91.2175C113.248 91.6185 112.732 92.1678 112.484 92.4705C111.983 92.3275 111.81 92.3505 111.859 92.2308C111.948 92.0154 113.183 90.3562 115.353 89.7703C117.712 89.1336 121.064 90.3495 121.647 93.4345C121.647 93.4345 122.614 95.0811 122.042 96.6714C121.471 98.2588 119.541 99.8957 118.823 99.507Z" fill="#1D191F"/>
<path d="M118.128 99.1216C118.128 99.1216 120.088 98.1376 120.611 98.8844C121.133 99.6312 119.078 101.446 118.054 101.327C117.031 101.207 117.128 100.299 117.128 100.299L118.128 99.1216Z" fill="#C8D4F2"/>
<path d="M120.008 99.3907C120.022 99.3963 120.015 99.4163 120.001 99.4148C119.273 99.35 118.667 99.7269 118.146 100.171C118.44 100.046 118.747 100.05 118.935 100.402C118.945 100.421 118.917 100.437 118.902 100.425C118.683 100.252 118.483 100.205 118.214 100.311C118.024 100.387 117.852 100.516 117.684 100.629C117.628 100.666 117.546 100.59 117.598 100.541C117.602 100.538 117.607 100.534 117.61 100.531C117.993 99.7888 119.144 99.0564 120.008 99.3907Z" fill="#1D191F"/>
</svg>
