<svg width="160" height="183" viewBox="0 0 160 183" fill="none" xmlns="http://www.w3.org/2000/svg">
<path d="M96.0197 155.931V170.422H91.8674L100.818 182.92L109.215 170.678H104.97V155.931H96.0197Z" fill="#C9CEDD"/>
<path d="M111.857 46.7795V51.8809H110.395L113.546 56.281L116.502 51.9709H115.008V46.7795H111.857Z" fill="#C9CEDD"/>
<path d="M149.633 94.0965V104.57H146.632L153.102 113.603L159.171 104.755H156.103V94.0965H149.633Z" fill="#C9CEDD"/>
<path d="M11.2654 136.424V146.898H8.26392L14.7332 155.932L20.8026 147.083H17.7347V136.424H11.2654Z" fill="#C9CEDD"/>
<path d="M64.9939 153.546V161.362H62.7537L67.582 168.105L72.1119 161.5H69.8222V153.546H64.9939Z" fill="#C9CEDD"/>
<path d="M50.4038 25.6916C50.709 23.0328 47.5786 20.8452 45.2261 20.6182C44.1042 20.5099 42.9393 20.7155 41.8764 20.2715C39.5739 19.3095 38.6541 15.7439 36.4073 14.6077C34.7277 13.7584 32.7939 14.5143 31.1656 15.4967C29.5374 16.4792 27.928 17.7153 26.1089 17.8551C24.5266 17.9764 22.808 17.273 21.4234 18.1996C20.3918 18.8899 19.8512 20.3151 18.9005 21.1557C17.9702 21.9783 16.7568 22.1526 15.6025 22.2277C14.4481 22.3032 13.2534 22.3172 12.2021 22.894C11.1508 23.4708 10.2817 24.803 10.4995 26.164L50.4038 25.6916Z" fill="#D7DBE6"/>
<path d="M159.766 75.3017C160.032 72.9887 157.309 71.0858 155.262 70.888C154.286 70.7937 153.273 70.9727 152.348 70.5863C150.345 69.7492 149.545 66.6477 147.59 65.6596C146.129 64.9208 144.447 65.5784 143.031 66.4329C141.614 67.2874 140.214 68.3629 138.632 68.4843C137.255 68.5899 135.76 67.9777 134.556 68.7842C133.658 69.3851 133.189 70.6243 132.361 71.3561C131.552 72.0718 130.496 72.2229 129.492 72.2884C128.488 72.3538 127.449 72.3661 126.535 72.8678C125.62 73.3695 124.864 74.5284 125.053 75.7121L159.766 75.3017Z" fill="#D7DBE6"/>
<path d="M70.5952 4.87195C70.7253 3.74103 69.3935 2.81009 68.3925 2.71359C67.9153 2.66731 67.4196 2.75508 66.9675 2.56601C65.988 2.15687 65.5968 0.639948 64.641 0.156577C63.9263 -0.204532 63.1038 0.116843 62.411 0.534716C61.7181 0.952589 61.0337 1.47875 60.2596 1.53814C59.5865 1.58966 58.8554 1.29055 58.2664 1.68485C57.8275 1.97871 57.5976 2.58478 57.1929 2.9424C56.7973 3.29215 56.2808 3.36638 55.7898 3.39826C55.2987 3.43013 54.7902 3.43625 54.3433 3.68165C53.8963 3.92704 53.5262 4.49381 53.6191 5.07281L70.5952 4.87195Z" fill="#D7DBE6"/>
<path d="M158.015 172.399C158.254 170.319 155.805 168.608 153.965 168.431C153.088 168.346 152.177 168.507 151.345 168.159C149.544 167.407 148.825 164.618 147.068 163.73C145.754 163.065 144.241 163.657 142.968 164.425C141.694 165.194 140.436 166.16 139.012 166.27C137.775 166.364 136.431 165.814 135.348 166.539C134.541 167.079 134.118 168.193 133.374 168.851C132.647 169.494 131.698 169.63 130.795 169.689C129.892 169.748 128.957 169.759 128.135 170.21C127.313 170.661 126.633 171.704 126.803 172.768L158.015 172.399Z" fill="#D7DBE6"/>
<path d="M66.5388 46.0074L63.7293 40.072C64.9721 37.6534 65.6905 34.8065 65.6905 31.7574C65.6905 22.989 59.7606 15.8808 52.4462 15.8808C45.1315 15.8808 39.2017 22.989 39.2017 31.7574C39.2017 40.5257 45.1315 47.6335 52.4462 47.6335C55.5006 47.6335 58.3112 46.3908 60.5518 44.3088L60.5474 44.3158L66.5388 46.0074Z" fill="#FAFAFA"/>
<path d="M66.5388 46.0075C66.2106 45.918 64.3398 45.408 60.5362 44.3714L60.4651 44.3522L60.5096 44.2819L60.5139 44.2749L60.5802 44.3539C59.0824 45.7608 56.9263 47.1306 54.2202 47.5711C53.5471 47.6746 52.8437 47.741 52.121 47.6991C51.76 47.6746 51.3921 47.6642 51.0213 47.627C50.653 47.5602 50.2793 47.493 49.9008 47.4244C48.3997 47.0694 46.8643 46.3869 45.4324 45.322C44.0012 44.2609 42.676 42.82 41.6135 41.0494C40.5527 39.2818 39.7484 37.1859 39.3718 34.9083C38.9988 32.6338 39.0297 30.196 39.528 27.8364C40.0296 25.485 40.9672 23.1878 42.3704 21.298C43.7903 19.3675 45.5457 17.8222 47.4803 16.9249C49.4068 16.0084 51.4613 15.6595 53.425 15.8303C55.3895 16.0001 57.2687 16.676 58.881 17.7642C60.4983 18.8436 61.8621 20.2849 62.9141 21.8944C63.9697 23.5048 64.7132 25.2811 65.1736 27.0495C65.6307 28.8262 65.7542 30.5881 65.7484 32.219C65.6704 35.5039 64.7514 38.2015 63.7668 40.1001L63.7675 40.0446C65.5298 43.8356 66.3822 45.6704 66.5388 46.0075C66.3778 45.6735 65.5011 43.8553 63.6896 40.0988L63.6761 40.0713L63.6903 40.0433C64.656 38.1483 65.5528 35.4681 65.618 32.2151C65.6173 30.5999 65.4898 28.8572 65.0326 27.1023C64.5726 25.3558 63.8331 23.603 62.7869 22.0154C61.7441 20.4286 60.3948 19.0091 58.7972 17.9471C57.2043 16.8765 55.3498 16.2136 53.4119 16.049C51.4744 15.8831 49.4491 16.2294 47.5506 17.1345C45.6436 18.0201 43.9141 19.5448 42.5139 21.4477C41.1301 23.3105 40.2063 25.5749 39.7102 27.8922C39.2177 30.2178 39.1853 32.6225 39.551 34.866C39.92 37.1125 40.7112 39.1814 41.7551 40.928C42.8009 42.6776 44.1068 44.1037 45.5183 45.156C46.9306 46.2119 48.4456 46.8922 49.9292 47.2489C50.3033 47.3183 50.6723 47.3864 51.0366 47.4537C51.4034 47.4917 51.7669 47.5035 52.1242 47.5292C52.8393 47.5742 53.5358 47.5113 54.2024 47.4126C56.8826 46.99 59.0263 45.6477 60.5223 44.2644L60.813 43.9954L60.589 44.3434L60.5846 44.3504L60.558 44.2609C64.3482 45.3678 66.2121 45.9123 66.5388 46.0075Z" fill="#1D191F"/>
<path d="M56.32 40.5036H47.7361C47.3223 40.5036 46.9868 40.1014 46.9868 39.6054V24.3978C46.9868 23.9017 47.3223 23.4996 47.7361 23.4996H56.32C56.7338 23.4996 57.0692 23.9017 57.0692 24.3978V39.6054C57.0692 40.1014 56.7338 40.5036 56.32 40.5036Z" fill="#1D191F"/>
<path d="M56.5561 24.5218H47.4561V37.2296H56.5561V24.5218Z" fill="#FAFAFA"/>
<path d="M52.0283 39.7696C52.4501 39.7696 52.7921 39.3596 52.7921 38.8539C52.7921 38.3482 52.4501 37.9383 52.0283 37.9383C51.6064 37.9383 51.2644 38.3482 51.2644 38.8539C51.2644 39.3596 51.6064 39.7696 52.0283 39.7696Z" fill="#1E397D"/>
<path d="M53.3042 28.3933L56.6609 33.1436L59.8074 28.3933H58.1758V21.8553L54.9124 21.8073L54.9514 28.4033L53.3042 28.3933Z" fill="#5D80D9"/>
<path d="M53.5104 30.1801C53.5482 30.2234 52.9086 31.101 52.0817 32.1398C51.2545 33.179 50.5536 33.986 50.5158 33.9427C50.4779 33.8995 51.1175 33.0223 51.9444 31.983C52.7716 30.9443 53.4725 30.1369 53.5104 30.1801Z" fill="#1D191F"/>
<path d="M52.8509 29.6085C52.8823 29.6587 52.5275 30.1477 52.0579 30.7001C51.5884 31.2524 51.1775 31.6642 51.1404 31.6201C51.1032 31.576 51.458 31.0874 51.9334 30.5285C52.4087 29.97 52.8196 29.5582 52.8509 29.6085Z" fill="#1D191F"/>
<path d="M135.68 28.0967V35.4809H133.564L138.125 41.8507L142.405 35.6114H140.241V28.0967H135.68Z" fill="#5D80D9"/>
<path opacity="0.3" d="M135.68 28.0967V35.4809H133.564L138.125 41.8507L142.405 35.6114H140.241V28.0967H135.68Z" fill="#1D191F"/>
<path d="M150.556 11.6218C149.192 5.28384 144.405 0.594666 138.691 0.594666C134.817 0.594666 131.368 2.75258 129.119 6.11434C128.732 6.06064 128.339 6.02614 127.939 6.02614C122.312 6.02614 117.75 11.4947 117.75 18.2405C117.75 24.9863 122.312 30.4549 127.939 30.4549H150.126C154.47 30.4549 157.992 26.2334 157.992 21.0255C157.992 15.9918 154.699 11.8912 150.556 11.6218Z" fill="#5D80D9"/>
<path d="M152.902 27.1635C152.882 27.1295 153.323 26.7989 153.908 26.0972C154.491 25.403 155.197 24.2908 155.625 22.8708C156.054 21.4504 156.104 20.054 156.026 19.0724C155.95 18.0847 155.787 17.4926 155.821 17.4817C155.833 17.4774 155.884 17.6201 155.954 17.8891C156.024 18.1577 156.104 18.555 156.159 19.055C156.274 20.0492 156.245 21.4871 155.804 22.9477C155.364 24.4083 154.619 25.5357 154.001 26.2125C153.691 26.5549 153.418 26.7994 153.221 26.9518C153.024 27.105 152.908 27.1753 152.902 27.1635Z" fill="#1D191F"/>
<path d="M129.4 9.68654C129.394 9.72846 128.838 9.5586 127.926 9.53328C127.019 9.50358 125.741 9.67388 124.468 10.3419C123.194 11.0096 122.223 12.0191 121.626 12.8374C121.022 13.6579 120.749 14.2617 120.719 14.239C120.709 14.2321 120.767 14.0753 120.895 13.8068C121.023 13.5378 121.23 13.1623 121.524 12.7326C122.104 11.8737 123.086 10.8179 124.392 10.1332C125.698 9.44813 127.011 9.3001 127.931 9.37215C128.394 9.40534 128.764 9.47826 129.016 9.54812C129.268 9.61755 129.403 9.673 129.4 9.68654Z" fill="#1D191F"/>
<path d="M136.282 3.65401C136.285 3.69593 135.878 3.7265 135.25 3.92473C134.623 4.11948 133.782 4.52556 132.981 5.21984C132.181 5.91891 131.599 6.75247 131.251 7.40657C130.9 8.06067 130.749 8.51479 130.717 8.49907C130.705 8.49339 130.734 8.37637 130.797 8.16853C130.857 7.95893 130.972 7.66725 131.136 7.32274C131.299 6.97604 131.529 6.58873 131.815 6.1892C132.108 5.79708 132.46 5.39668 132.869 5.03601C133.282 4.68145 133.708 4.4033 134.11 4.19153C134.515 3.98892 134.894 3.84614 135.219 3.76885C135.543 3.68807 135.81 3.64746 135.995 3.64397C136.18 3.63524 136.282 3.63829 136.282 3.65401Z" fill="#1D191F"/>
<path d="M145.825 30.3517C145.825 30.4146 142.829 30.4652 139.134 30.4652C135.438 30.4652 132.442 30.4141 132.442 30.3517C132.442 30.2892 135.437 30.2382 139.134 30.2382C142.829 30.2382 145.825 30.2888 145.825 30.3517Z" fill="#1D191F"/>
<path d="M146.575 52.3517C146.523 52.3517 146.481 49.41 146.481 45.7823C146.481 42.1533 146.523 39.2125 146.575 39.2125C146.628 39.2125 146.67 42.1533 146.67 45.7823C146.67 49.41 146.628 52.3517 146.575 52.3517Z" fill="#1D191F"/>
<path d="M148.717 58.0905C148.665 58.0905 148.623 54.3035 148.623 49.6335C148.623 44.9618 148.665 41.1756 148.717 41.1756C148.77 41.1756 148.812 44.9618 148.812 49.6335C148.812 54.3035 148.77 58.0905 148.717 58.0905Z" fill="#1D191F"/>
<path d="M77.7201 141.844V163.007H71.6555L84.7282 181.262L96.9922 163.381H90.7928V141.844H77.7201Z" fill="#5D80D9"/>
<path opacity="0.3" d="M77.7201 141.844V163.007H71.6555L84.7282 181.262L96.9922 163.381H90.7928V141.844H77.7201Z" fill="#1D191F"/>
<path d="M120.355 94.6291C116.445 76.4645 102.725 63.0266 86.3499 63.0266C75.2472 63.0266 65.3625 69.2109 58.9187 78.8455C57.8074 78.6918 56.6825 78.5923 55.5369 78.5923C39.4092 78.5923 26.3347 94.2645 26.3347 113.598C26.3347 132.931 39.4088 148.603 55.5369 148.603H119.122C131.573 148.603 141.666 136.504 141.666 121.579C141.666 107.153 132.229 95.4011 120.355 94.6291Z" fill="#5D80D9"/>
<path d="M62.7366 101.002C62.73 101.002 62.7213 100.922 62.7107 100.77C62.7009 100.593 62.6885 100.374 62.6739 100.108C62.667 99.9614 62.6597 99.802 62.6517 99.63C62.6393 99.4557 62.6146 99.2671 62.5949 99.0645C62.5483 98.6597 62.5199 98.1951 62.4244 97.693C62.3833 97.4402 62.3403 97.176 62.2955 96.9013C62.2488 96.6267 62.1753 96.3477 62.1133 96.0556C61.9982 95.4669 61.8103 94.8613 61.6285 94.219C61.2231 92.9523 60.6898 91.5987 59.9988 90.2682C59.2936 88.9478 58.5028 87.7889 57.7225 86.8056C57.3167 86.3323 56.9412 85.869 56.547 85.4913C56.3533 85.2983 56.1751 85.0987 55.9879 84.9306C55.8003 84.7643 55.62 84.6044 55.447 84.4512C55.1097 84.132 54.772 83.9019 54.4871 83.6774C54.3429 83.5687 54.2114 83.4613 54.0857 83.3731C53.9597 83.2906 53.8428 83.2141 53.7349 83.1438C53.5408 83.0133 53.3812 82.9063 53.2519 82.8194C53.1423 82.743 53.0858 82.6993 53.0887 82.6919C53.0916 82.6849 53.1532 82.7146 53.2687 82.7779C53.4027 82.8548 53.5681 82.95 53.7695 83.0653C53.8803 83.1307 54.0005 83.2015 54.1302 83.2783C54.2595 83.3617 54.3942 83.4643 54.5421 83.5683C54.8339 83.7835 55.1796 84.0067 55.5246 84.3197C55.7012 84.4704 55.8855 84.628 56.0775 84.7913C56.2684 84.9573 56.4509 85.1555 56.6487 85.3467C57.0508 85.7218 57.434 86.1842 57.8475 86.6584C58.6426 87.6431 59.4466 88.8116 60.1594 90.146C60.8585 91.4904 61.3928 92.8619 61.7928 94.1457C61.9724 94.7967 62.156 95.4102 62.266 96.0066C62.3253 96.3027 62.396 96.5852 62.439 96.8634C62.4798 97.1411 62.5191 97.4083 62.557 97.6642C62.6448 98.172 62.6641 98.6418 62.7009 99.0505C62.7158 99.2553 62.7351 99.4453 62.7424 99.6212C62.7446 99.7946 62.7464 99.9553 62.7479 100.103C62.7486 100.371 62.749 100.591 62.7493 100.769C62.7475 100.922 62.7431 101.002 62.7366 101.002Z" fill="#1D191F"/>
<path d="M50.7899 94.233C50.7658 94.2627 50.3826 93.8081 49.6894 93.1894C48.9984 92.5698 47.9734 91.8183 46.7415 91.2585C45.5077 90.7035 44.3238 90.456 43.4635 90.3743C42.602 90.29 42.064 90.3285 42.0625 90.287C42.0618 90.2713 42.1951 90.2507 42.4384 90.2267C42.6814 90.1983 43.0354 90.1918 43.4722 90.2136C44.3446 90.2551 45.554 90.4813 46.8081 91.0459C48.0605 91.6153 49.0931 92.4025 49.771 93.0623C50.1109 93.3911 50.3732 93.6767 50.54 93.8906C50.7101 94.1007 50.799 94.2221 50.7899 94.233Z" fill="#1D191F"/>
<path d="M64.1675 124.114C64.1671 124.129 63.9617 124.136 63.5901 124.135C63.2186 124.135 62.6813 124.121 62.018 124.093C60.691 124.037 58.8587 123.907 56.8414 123.671C54.8238 123.433 53.0054 123.132 51.6944 122.878C51.0391 122.751 50.5098 122.64 50.1456 122.553C49.7809 122.468 49.5806 122.413 49.5828 122.398C49.585 122.382 49.7893 122.407 50.1572 122.466C50.5583 122.531 51.0821 122.616 51.7137 122.719C53.028 122.933 54.8456 123.207 56.8597 123.444C58.8729 123.681 60.7004 123.835 62.0242 123.932C62.6605 123.978 63.1884 124.017 63.5923 124.046C63.9631 124.075 64.1679 124.098 64.1675 124.114Z" fill="#1D191F"/>
<path d="M119.401 94.4127C119.401 94.4206 119.331 94.4315 119.197 94.445C119.042 94.4577 118.848 94.4734 118.611 94.4926C118.356 94.5071 118.046 94.5298 117.686 94.5843C117.327 94.6346 116.916 94.6682 116.467 94.7656C116.242 94.8079 116.006 94.8524 115.762 94.8987C115.517 94.9463 115.266 95.0206 115.003 95.0834C114.477 95.2009 113.927 95.3887 113.346 95.5716C112.193 95.9781 110.946 96.5117 109.685 97.2086C108.431 97.9199 107.288 98.7238 106.288 99.5228C105.798 99.9398 105.324 100.325 104.911 100.733C104.703 100.933 104.494 101.117 104.306 101.311C104.12 101.507 103.94 101.695 103.768 101.874C103.418 102.224 103.133 102.58 102.87 102.878C102.605 103.174 102.39 103.444 102.218 103.669C102.053 103.875 101.919 104.043 101.811 104.177C101.717 104.291 101.665 104.35 101.66 104.344C101.654 104.339 101.697 104.271 101.782 104.147C101.883 104.005 102.009 103.827 102.163 103.609C102.328 103.375 102.536 103.094 102.795 102.788C103.051 102.48 103.332 102.114 103.678 101.755C103.848 101.57 104.027 101.377 104.212 101.177C104.398 100.977 104.606 100.79 104.814 100.584C105.225 100.167 105.698 99.7735 106.19 99.3486C107.192 98.5338 108.341 97.7182 109.605 97.0012C110.875 96.2991 112.134 95.7668 113.299 95.3686C113.885 95.1895 114.44 95.0075 114.972 94.8974C115.236 94.838 115.49 94.7677 115.737 94.7245C115.984 94.683 116.221 94.6433 116.448 94.6053C116.9 94.5175 117.315 94.4948 117.677 94.4564C118.038 94.414 118.351 94.4036 118.607 94.4031C118.845 94.4009 119.04 94.3992 119.196 94.3979C119.331 94.4005 119.401 94.4053 119.401 94.4127Z" fill="#1D191F"/>
<path d="M117.6 148.841C117.6 148.903 103.522 148.954 86.1598 148.954C68.7918 148.954 54.717 148.903 54.717 148.841C54.717 148.778 68.7918 148.727 86.1598 148.727C103.522 148.727 117.6 148.778 117.6 148.841Z" fill="#1D191F"/>
<path d="M41.669 163.987C41.6166 163.987 41.574 160.83 41.574 156.936C41.574 153.041 41.6166 149.885 41.669 149.885C41.7215 149.885 41.7638 153.041 41.7638 156.936C41.7641 160.83 41.7215 163.987 41.669 163.987Z" fill="#1D191F"/>
<path d="M44.0591 176.988C44.0066 176.988 43.9644 172.548 43.9644 167.073C43.9644 161.596 44.007 157.157 44.0591 157.157C44.1112 157.157 44.1538 161.596 44.1538 167.073C44.1538 172.548 44.1112 176.988 44.0591 176.988Z" fill="#1D191F"/>
<path d="M11.7625 65.5974V70.121H10.4661L13.2607 74.0234L15.8823 70.2014H14.5571V65.5974H11.7625Z" fill="#5D80D9"/>
<path opacity="0.3" d="M11.7625 65.5974V70.121H10.4661L13.2607 74.0234L15.8823 70.2014H14.5571V65.5974H11.7625Z" fill="#1D191F"/>
<path d="M20.8766 55.504C20.0406 51.6209 17.108 48.7486 13.6074 48.7486C11.2339 48.7486 9.12078 50.0708 7.74351 52.13C7.50601 52.0973 7.26559 52.0759 7.02045 52.0759C3.5727 52.0759 0.778076 55.4263 0.778076 59.5587C0.778076 63.6916 3.57306 67.0416 7.02045 67.0416H20.6129C23.2746 67.0416 25.4321 64.4553 25.4321 61.2647C25.4321 58.1811 23.4148 55.669 20.8766 55.504Z" fill="#5D80D9"/>
<path d="M22.3136 65.0253C22.2957 64.9939 22.5602 64.7825 22.9117 64.3494C23.2629 63.9206 23.688 63.2425 23.9477 62.3801C24.2078 61.5177 24.2427 60.6702 24.2016 60.0715C24.1626 59.4694 24.0719 59.1039 24.1021 59.0934C24.1214 59.0843 24.2595 59.4366 24.3349 60.0541C24.4121 60.6658 24.3986 61.5544 24.1262 62.4574C23.8541 63.3599 23.3907 64.0538 23.005 64.4651C22.6174 64.8821 22.3234 65.0471 22.3136 65.0253Z" fill="#1D191F"/>
<path d="M7.91555 54.3182C7.90899 54.3557 7.56732 54.2627 7.01145 54.2553C6.4585 54.2453 5.68262 54.354 4.90893 54.7601C4.13487 55.1657 3.54149 55.7753 3.17249 56.2687C2.79948 56.763 2.62464 57.1267 2.59732 57.1071C2.57911 57.0966 2.71352 56.7001 3.0705 56.1639C3.42274 55.6299 4.02632 54.974 4.8328 54.5514C5.63891 54.1283 6.45049 54.0422 7.01655 54.0942C7.58735 54.1444 7.92174 54.295 7.91555 54.3182Z" fill="#1D191F"/>
<path d="M12.1318 50.6223C12.134 50.6598 11.8859 50.69 11.5056 50.8183C11.1257 50.9445 10.6172 51.1956 10.1305 51.617C9.64533 52.0414 9.28908 52.5435 9.07126 52.9374C8.85197 53.3308 8.75107 53.6042 8.72193 53.5902C8.70226 53.5823 8.75908 53.2841 8.95688 52.8531C9.15212 52.4235 9.51056 51.8772 10.0191 51.4327C10.529 50.9908 11.0729 50.7515 11.4743 50.6616C11.8772 50.5699 12.1314 50.5978 12.1318 50.6223Z" fill="#1D191F"/>
<path d="M17.9777 66.9791C17.9777 67.042 16.1422 67.0926 13.8783 67.0926C11.6137 67.0926 9.77856 67.0415 9.77856 66.9791C9.77856 66.9162 11.6137 66.8655 13.8783 66.8655C16.1422 66.8651 17.9777 66.9162 17.9777 66.9791Z" fill="#1D191F"/>
<path d="M18.4375 80.4569C18.385 80.4569 18.3428 78.6549 18.3428 76.4323C18.3428 74.2089 18.3854 72.4073 18.4375 72.4073C18.4896 72.4073 18.5322 74.2089 18.5322 76.4323C18.5326 78.6549 18.4899 80.4569 18.4375 80.4569Z" fill="#1D191F"/>
<path d="M19.75 83.9727C19.6975 83.9727 19.6553 81.6528 19.6553 78.7915C19.6553 75.9292 19.6979 73.6097 19.75 73.6097C19.8024 73.6097 19.8447 75.9292 19.8447 78.7915C19.8447 81.6528 19.8021 83.9727 19.75 83.9727Z" fill="#1D191F"/>
<g opacity="0.3">
<path d="M128.419 108.655C127.705 103.67 122.18 98.6143 117.43 99.75C113.291 100.739 108.835 101.892 104.744 103.13C103.056 103.641 101.306 101.182 99.8917 99.9648C99.1486 99.3251 98.7126 98.3073 98.2489 97.3624C95.6164 91.9973 91.2835 87.9701 86.4417 85.7218C81.5999 83.4739 76.2751 82.9359 71.1135 83.614C67.1114 84.1398 62.7198 85.7942 60.8581 90.0738C60.1084 91.7973 59.8115 93.8701 58.647 95.2228C57.0971 97.0235 54.6379 96.8799 52.6181 97.7916C48.5777 99.6155 46.5291 106.546 47.0376 111.685C47.5465 116.827 51.3632 123.448 59.3799 124.504C59.3799 124.504 88.4229 124.809 102.765 125.642C107.736 125.931 109.235 125.11 114.211 124.955C122.985 124.681 129.729 117.793 128.419 108.655Z" fill="#1D191F"/>
</g>
<path d="M75.0669 133.694C75.5547 133.549 76.0985 132.945 76.5196 132.62C77.5537 131.821 78.5769 131.003 79.5885 130.164C75.9532 128.895 72.8668 127.896 69.2318 126.658C69.1261 128.364 69.226 130.214 69.6328 131.853C69.968 133.203 70.6098 134.638 71.7456 134.996C72.7782 135.321 73.8273 134.639 74.7362 133.967C74.8207 133.905 74.9052 133.842 74.9893 133.779" fill="#D7DBE6"/>
<path d="M75.6931 131.287C75.6373 131.28 75.6603 130.714 75.5317 130.047C75.4093 129.378 75.1856 128.879 75.2337 128.844C75.2723 128.808 75.5849 129.283 75.7167 129.997C75.853 130.71 75.7408 131.3 75.6931 131.287Z" fill="#1D191F"/>
<path d="M76.4761 131.059C76.4222 131.046 76.4666 130.609 76.4178 130.081C76.3737 129.552 76.2546 129.136 76.3049 129.109C76.3486 129.081 76.558 129.485 76.6065 130.057C76.6582 130.629 76.5238 131.077 76.4761 131.059Z" fill="#1D191F"/>
<path d="M71.6727 127.483C71.7051 127.492 71.6006 127.936 71.5951 128.666C71.5871 129.387 71.7036 130.418 72.1637 131.376C72.6274 132.346 73.1607 133.141 73.6524 133.565C74.1398 133.998 74.5256 134.086 74.5139 134.129C74.5117 134.142 74.4145 134.133 74.2458 134.077C74.0764 134.023 73.8393 133.903 73.5756 133.697C73.0405 133.288 72.4697 132.474 71.9994 131.491C71.5153 130.481 71.4181 129.402 71.461 128.661C71.4814 128.287 71.5292 127.988 71.5761 127.787C71.6228 127.585 71.6614 127.479 71.6727 127.483Z" fill="#1E397D"/>
<path d="M74.5143 128.493C74.5562 128.472 74.9423 129.58 75.1066 131.04C75.2727 132.501 75.1467 133.693 75.1015 133.686C75.0425 133.683 75.0818 132.502 74.9186 131.071C74.758 129.64 74.4578 128.514 74.5143 128.493Z" fill="#1E397D"/>
<path d="M73.6907 133.136C73.6743 133.157 73.4459 132.957 73.114 132.579C72.7858 132.202 72.3469 131.632 72.0296 130.868C71.7124 130.101 71.6344 129.303 71.7003 128.751C71.7619 128.193 71.9229 127.893 71.9393 127.905C71.9703 127.919 71.8581 128.233 71.834 128.765C71.8052 129.293 71.8989 130.039 72.2001 130.767C72.5021 131.496 72.9108 132.066 73.2106 132.468C73.5133 132.868 73.71 133.111 73.6907 133.136Z" fill="#5D80D9"/>
<path d="M78.7846 130.769C78.8072 130.826 78.2331 131.255 77.5031 131.727C76.7724 132.2 76.1582 132.539 76.1313 132.485C76.1043 132.431 76.678 132.002 77.4131 131.527C78.1478 131.052 78.762 130.713 78.7846 130.769Z" fill="#5D80D9"/>
<path d="M72.9864 133.199C73.0228 133.237 72.5908 133.776 71.8783 134.056C71.168 134.345 70.5528 134.224 70.5626 134.169C70.5644 134.1 71.1498 134.114 71.8182 133.841C72.4892 133.578 72.9507 133.146 72.9864 133.199Z" fill="#1E397D"/>
<path d="M71.7495 130.961C71.7549 131.028 71.2592 131.11 70.7106 131.413C70.1587 131.709 69.7817 132.103 69.7431 132.054C69.7052 132.017 70.0443 131.523 70.6323 131.206C71.2176 130.884 71.7513 130.903 71.7495 130.961Z" fill="#1E397D"/>
<path d="M71.5109 128.974C71.4818 129.033 70.9904 128.682 70.311 128.575C69.6331 128.456 69.0805 128.634 69.0656 128.567C69.0427 128.516 69.6087 128.224 70.3369 128.35C71.0661 128.467 71.5444 128.933 71.5109 128.974Z" fill="#1E397D"/>
<path d="M99.3984 122.663C99.4196 122.703 85.7342 126.658 85.7342 126.658L83.7217 121.002L84.6458 119.294C84.6458 119.294 90.4292 117.728 95.1373 114.536L99.3984 122.663Z" fill="#CDD8F3"/>
<path d="M67.2825 106.574C67.2825 106.574 66.6592 105.48 64.0012 103.921C61.7978 102.63 56.1411 101.543 53.8517 106.849C51.5624 112.154 53.3174 120.296 57.133 122.034C60.9487 123.772 67.2825 126.15 69.8771 127.156C72.4718 128.163 81.0188 130.724 81.0188 130.724L84.5292 128.254L84.943 120.401C84.943 120.401 80.1031 114.441 75.9821 112.795C71.8612 111.148 67.2825 106.574 67.2825 106.574Z" fill="#1D191F"/>
<path d="M59.3794 102.874C59.4165 102.809 63.2635 102.938 66.0705 104.208C67.1276 104.686 68.161 105.195 68.161 105.195L69.7135 99.8947L81.3441 95.2501H94.2218L98.4116 105.195V105.697C98.4116 105.697 103.44 105.797 105.618 104.592C107.797 103.387 114.584 99.8707 116.344 99.1677C118.104 98.4647 125.981 97.1119 127.741 102.861C129.5 108.61 128.252 114.603 125.311 116.793C123.924 117.824 100.506 125.084 100.506 125.084L94.9759 114.536C94.9759 114.536 86.5446 119.543 83.7212 118.999C80.8982 118.454 59.3794 102.874 59.3794 102.874Z" fill="#1D191F"/>
<path d="M83.1291 97.8127C83.1353 97.811 83.1549 97.8804 83.1866 98.0153C83.2216 98.1764 83.2646 98.3716 83.3159 98.6074C83.4208 99.1235 83.5574 99.8759 83.6948 100.812C83.9785 102.682 84.2612 105.286 84.4819 108.172C84.6976 111.06 84.8167 113.681 84.864 115.579C84.8895 116.527 84.8968 117.296 84.8961 117.827C84.8932 118.071 84.8906 118.273 84.8885 118.439C84.8844 118.579 84.8793 118.652 84.8728 118.653C84.8662 118.653 84.8586 118.58 84.8502 118.44C84.8426 118.274 84.8334 118.073 84.8222 117.83C84.7988 117.264 84.7679 116.506 84.73 115.586C84.6488 113.691 84.5082 111.076 84.2932 108.193C84.0729 105.311 83.8121 102.71 83.5625 100.838C83.4427 99.9012 83.3265 99.1471 83.2438 98.6262C83.2063 98.3869 83.175 98.1891 83.1495 98.0258C83.1298 97.8878 83.1225 97.8145 83.1291 97.8127Z" fill="#1E397D"/>
<path d="M98.2821 105.943C98.2879 106.005 95.3676 106.445 91.7607 106.925C88.1523 107.406 85.2236 107.744 85.2178 107.682C85.212 107.619 88.1315 107.18 91.7399 106.699C95.3468 106.219 98.2762 105.881 98.2821 105.943Z" fill="#1E397D"/>
<path d="M96.3605 105.966C96.358 105.981 96.2101 105.966 95.9442 105.925C95.679 105.883 95.2943 105.827 94.8193 105.766C93.8693 105.642 92.5511 105.532 91.094 105.561C89.6366 105.593 88.3224 105.758 87.3764 105.921C86.9032 106.002 86.5207 106.074 86.257 106.128C85.9929 106.179 85.845 106.201 85.8421 106.185C85.8392 106.17 85.9816 106.119 86.2421 106.041C86.5021 105.96 86.8824 105.863 87.3552 105.762C88.3001 105.558 89.6228 105.366 91.0907 105.334C92.5584 105.305 93.8854 105.441 94.8357 105.606C95.3111 105.687 95.6939 105.768 95.9562 105.838C96.2192 105.906 96.3631 105.95 96.3605 105.966Z" fill="#1E397D"/>
<path d="M98.1407 105.363C98.1116 105.428 97.0898 104.623 95.6451 104.252C94.2034 103.861 92.994 104.077 92.9907 104.003C92.9875 103.977 93.2829 103.887 93.7739 103.847C94.2639 103.807 94.9501 103.836 95.6859 104.029C96.421 104.225 97.0545 104.543 97.4843 104.827C97.9159 105.111 98.1531 105.341 98.1407 105.363Z" fill="#1E397D"/>
<path d="M87.4152 113.996C87.445 114.043 86.954 114.52 86.236 114.862C85.5192 115.208 84.8894 115.269 84.8839 115.21C84.8744 115.144 85.4722 114.987 86.1654 114.651C86.8607 114.321 87.3842 113.941 87.4152 113.996Z" fill="#1E397D"/>
<path d="M86.7967 115.952C86.8139 116.008 86.3942 116.235 85.8373 116.328C85.2803 116.425 84.8246 116.349 84.8279 116.289C84.8297 116.224 85.2734 116.197 85.8103 116.103C86.3476 116.013 86.7796 115.89 86.7967 115.952Z" fill="#1E397D"/>
<path d="M106.589 104.977C106.592 104.984 106.533 105.032 106.418 105.117C106.284 105.213 106.116 105.333 105.91 105.481C105.442 105.804 104.803 106.244 104.023 106.782C102.401 107.876 100.198 109.36 97.7643 111.001C95.319 112.619 93.1069 114.083 91.4771 115.162C90.6856 115.673 90.0372 116.093 89.5615 116.4C89.3488 116.532 89.175 116.64 89.0362 116.726C88.9149 116.799 88.8501 116.833 88.8468 116.826C88.8435 116.819 88.9025 116.771 89.018 116.686C89.1524 116.59 89.3203 116.469 89.5262 116.322C89.9946 115.999 90.6335 115.558 91.4127 115.02C93.0351 113.927 95.2378 112.442 97.6722 110.802C100.116 109.184 102.328 107.72 103.958 106.642C104.749 106.13 105.398 105.711 105.874 105.403C106.087 105.271 106.26 105.163 106.399 105.077C106.52 105.005 106.586 104.97 106.589 104.977Z" fill="#1E397D"/>
<path d="M116.411 102.753C116.412 102.761 116.331 102.785 116.176 102.824C116.001 102.868 115.776 102.923 115.497 102.992C114.908 103.138 114.059 103.373 113.025 103.723C110.953 104.411 108.161 105.662 105.228 107.429C102.294 109.195 99.7521 111.054 97.9136 112.396C97.0102 113.059 96.2719 113.601 95.7386 113.993C95.4938 114.169 95.2964 114.31 95.1434 114.42C95.0061 114.516 94.9325 114.563 94.9289 114.556C94.9252 114.549 94.9922 114.489 95.1226 114.381C95.2705 114.262 95.4618 114.109 95.6989 113.918C96.2016 113.52 96.9327 112.951 97.8426 112.259C99.6639 110.881 102.199 108.997 105.143 107.226C108.085 105.453 110.9 104.219 112.989 103.568C114.032 103.236 114.888 103.024 115.483 102.905C115.779 102.839 116.012 102.807 116.169 102.779C116.327 102.755 116.411 102.745 116.411 102.753Z" fill="#1E397D"/>
<path d="M122.18 100.769C122.177 100.808 121.755 100.764 121.077 100.787C120.399 100.809 119.463 100.927 118.466 101.256C117.469 101.59 116.616 102.066 116.025 102.465C115.433 102.864 115.091 103.161 115.072 103.131C115.064 103.118 115.142 103.032 115.291 102.887C115.439 102.739 115.666 102.546 115.957 102.327C116.538 101.886 117.4 101.377 118.416 101.038C119.431 100.702 120.389 100.607 121.076 100.627C121.42 100.636 121.698 100.661 121.888 100.697C122.078 100.728 122.182 100.753 122.18 100.769Z" fill="#1E397D"/>
<path d="M120.153 102.614C120.144 102.682 119.178 102.529 117.984 102.582C116.789 102.627 115.833 102.859 115.821 102.792C115.807 102.738 116.76 102.401 117.977 102.355C119.193 102.301 120.163 102.558 120.153 102.614Z" fill="#1E397D"/>
<path d="M115.929 100.832C115.955 100.892 115.116 101.426 114.182 102.26C113.245 103.089 112.576 103.897 112.535 103.85C112.498 103.813 113.116 102.922 114.07 102.078C115.02 101.229 115.91 100.779 115.929 100.832Z" fill="#1E397D"/>
<path d="M128.253 105.815C128.256 105.817 128.243 105.848 128.216 105.907C128.183 105.977 128.142 106.063 128.093 106.167C127.983 106.395 127.812 106.725 127.569 107.132C127.092 107.95 126.304 109.075 125.12 110.175C123.935 111.269 122.396 112.36 120.603 113.348C118.811 114.341 116.766 115.211 114.625 116.113C110.343 117.908 106.468 119.533 103.645 120.717C102.249 121.291 101.114 121.757 100.31 122.088C99.9269 122.24 99.6231 122.36 99.3998 122.449C99.3044 122.484 99.226 122.514 99.1616 122.538C99.1077 122.557 99.0793 122.564 99.0782 122.56C99.0771 122.557 99.1033 122.542 99.155 122.515C99.2177 122.486 99.2942 122.45 99.387 122.405C99.6074 122.307 99.9069 122.173 100.285 122.003C101.084 121.657 102.212 121.167 103.6 120.565C106.419 119.364 110.287 117.718 114.562 115.898C116.704 114.996 118.744 114.134 120.531 113.157C122.317 112.185 123.855 111.114 125.038 110.047C126.222 108.974 127.017 107.877 127.51 107.079C127.761 106.683 127.941 106.361 128.061 106.142C128.116 106.042 128.162 105.961 128.2 105.894C128.232 105.839 128.25 105.812 128.253 105.815Z" fill="#1E397D"/>
<path d="M84.142 128.533C84.1394 128.541 84.0476 128.502 83.8757 128.422C83.6877 128.331 83.4382 128.21 83.126 128.06C82.4776 127.738 81.5429 127.263 80.3948 126.657C78.097 125.45 74.9462 123.717 71.5057 121.704C68.0678 119.681 64.9949 117.752 62.8217 116.246C61.7325 115.498 60.8678 114.858 60.278 114.402C59.9983 114.178 59.7746 113.999 59.606 113.864C59.4537 113.738 59.3754 113.67 59.379 113.663C59.3827 113.657 59.4679 113.713 59.6271 113.825C59.8001 113.951 60.03 114.118 60.3174 114.327C60.918 114.759 61.7919 115.377 62.8876 116.106C65.0743 117.575 68.1538 119.479 71.5887 121.5C75.0267 123.511 78.1666 125.266 80.4491 126.511C81.5779 127.123 82.4977 127.622 83.1548 127.979C83.4612 128.146 83.7056 128.279 83.8899 128.38C84.0582 128.473 84.1445 128.526 84.142 128.533Z" fill="#1E397D"/>
<path d="M60.2832 105.627C60.2773 105.615 60.3895 105.522 60.6055 105.381C60.8212 105.239 61.1454 105.057 61.5621 104.883C62.3897 104.53 63.6238 104.252 64.9709 104.46C66.3019 104.652 67.4952 105.06 68.2696 105.582C68.6579 105.837 68.9483 106.092 69.1318 106.29C69.3162 106.486 69.405 106.611 69.3974 106.621C69.3733 106.656 68.9872 106.186 68.2084 105.725C67.4362 105.252 66.2666 104.877 64.9472 104.686C63.6348 104.484 62.429 104.728 61.604 105.036C60.7731 105.341 60.2988 105.665 60.2832 105.627Z" fill="#1E397D"/>
<path d="M84.9426 120.401C84.9382 120.407 84.8796 120.352 84.7721 120.243C84.6497 120.118 84.4957 119.959 84.3059 119.764C83.9023 119.347 83.306 118.76 82.5618 118.046C81.0745 116.617 78.9756 114.707 76.6626 112.588C76.0863 112.057 75.5235 111.538 74.9797 111.037C74.4311 110.551 73.873 110.128 73.3347 109.738C72.2553 108.963 71.2573 108.302 70.4675 107.652C69.6724 107.012 69.0812 106.402 68.7071 105.943C68.514 105.721 68.3825 105.527 68.2911 105.399C68.2004 105.269 68.1552 105.199 68.1603 105.194C68.1756 105.178 68.3676 105.448 68.7584 105.88C69.1456 106.316 69.743 106.9 70.5415 107.518C71.3349 108.146 72.3347 108.79 73.4243 109.558C73.9677 109.945 74.5327 110.368 75.09 110.858C75.6448 111.352 76.1967 111.881 76.778 112.408C79.0904 114.527 81.1783 116.458 82.6463 117.922C83.3807 118.653 83.9649 119.26 84.3547 119.698C84.5525 119.913 84.6982 120.091 84.798 120.21C84.8974 120.33 84.9473 120.395 84.9426 120.401Z" fill="#1E397D"/>
<path d="M75.3395 109.515C75.3512 109.484 75.8404 109.724 76.6359 110.095C77.4315 110.465 78.537 110.955 79.777 111.426C81.018 111.896 82.1571 112.26 82.9854 112.505C83.8137 112.752 84.3292 112.893 84.3237 112.926C84.3212 112.941 84.1893 112.925 83.9525 112.882C83.7154 112.84 83.3748 112.766 82.9555 112.662C82.117 112.456 80.9667 112.116 79.7198 111.643C78.4737 111.169 77.3699 110.653 76.5853 110.243C76.1926 110.038 75.8783 109.864 75.6645 109.735C75.4499 109.607 75.3341 109.529 75.3395 109.515Z" fill="#1E397D"/>
<path d="M79.3665 105.644C79.3694 105.677 78.8686 105.769 78.0592 105.914C77.2498 106.06 76.133 106.265 74.9047 106.528C73.676 106.792 72.569 107.064 71.7676 107.264C70.9662 107.464 70.4698 107.586 70.4632 107.554C70.4599 107.539 70.5801 107.489 70.8001 107.41C71.0198 107.331 71.3403 107.228 71.7378 107.108C72.5329 106.867 73.6388 106.569 74.8715 106.305C76.1034 106.041 77.2272 105.86 78.0424 105.755C78.45 105.702 78.7804 105.666 79.0095 105.649C79.2379 105.631 79.3651 105.629 79.3665 105.644Z" fill="#1E397D"/>
<path d="M77.6407 103.081C77.6426 103.118 77.1392 103.168 76.3352 103.312C75.5313 103.456 74.4279 103.717 73.2441 104.156C72.0606 104.598 71.0276 105.132 70.2972 105.559C69.5661 105.985 69.1279 106.286 69.1119 106.254C69.105 106.241 69.2077 106.152 69.3993 106.002C69.5902 105.85 69.8758 105.649 70.236 105.416C70.9558 104.949 71.9918 104.386 73.1876 103.939C74.3839 103.495 75.5036 103.256 76.3177 103.153C76.725 103.1 77.0554 103.073 77.2845 103.068C77.5136 103.062 77.64 103.066 77.6407 103.081Z" fill="#1E397D"/>
<path d="M92.2773 125.127L90.0986 131.233C90.9026 132.099 93.9631 132.663 95.0428 132.598C96.1228 132.533 97.6789 132.548 98.7528 132.401C100.117 132.214 101.495 132.336 102.866 132.437C104.236 132.538 105.62 132.617 106.975 132.347C108.329 132.077 109.667 131.429 110.631 130.257C111.596 129.086 112.129 127.338 111.789 125.743C111.495 124.364 110.585 123.245 109.507 122.648C108.429 122.05 107.201 121.93 106.02 122.075C104.839 122.22 103.69 122.617 102.551 123.017C101.34 123.443 100.096 123.879 98.838 123.76C98.5816 123.735 98.327 123.746 98.0742 123.69C96.4284 123.327 94.7113 123.307 93.2291 124.425C92.9239 124.656 92.5866 124.856 92.2773 125.127Z" fill="#D7DBE6"/>
<path d="M92.5934 125.828C92.5894 125.822 92.6543 125.746 92.7854 125.608C92.9202 125.476 93.1234 125.285 93.4116 125.087C93.9787 124.698 94.9251 124.251 96.1261 124.385C96.7169 124.455 97.3518 124.599 98.0344 124.723C98.7152 124.842 99.4507 124.95 100.214 124.85C100.98 124.758 101.763 124.486 102.575 124.199C103.385 123.914 104.243 123.615 105.152 123.541C106.055 123.454 106.957 123.523 107.784 123.813C108.197 123.956 108.591 124.149 108.956 124.383C109.321 124.61 109.66 124.916 109.924 125.269C110.462 125.973 110.81 126.804 110.97 127.629C111.048 128.04 111.072 128.467 111.003 128.857C110.938 129.247 110.811 129.602 110.653 129.908C110.339 130.526 109.914 130.959 109.52 131.265C109.122 131.573 108.75 131.771 108.446 131.924C108.141 132.074 107.899 132.176 107.735 132.244C107.57 132.311 107.483 132.342 107.481 132.335C107.478 132.327 107.562 132.282 107.721 132.201C107.881 132.12 108.118 132.005 108.417 131.843C108.714 131.679 109.077 131.47 109.461 131.159C109.842 130.849 110.244 130.423 110.538 129.826C110.836 129.237 110.999 128.463 110.816 127.672C110.658 126.885 110.314 126.082 109.796 125.412C109.285 124.735 108.528 124.314 107.733 124.028C106.931 123.749 106.053 123.683 105.168 123.768C103.39 123.925 101.814 124.896 100.232 125.06C99.4427 125.156 98.6941 125.037 98.0104 124.909C97.3252 124.777 96.6929 124.624 96.1126 124.546C94.948 124.395 94.0163 124.805 93.4469 125.165C92.871 125.538 92.6062 125.848 92.5934 125.828Z" fill="#1E397D"/>
<path d="M107.481 132.335C107.47 132.344 107.401 132.25 107.283 132.069C107.221 131.98 107.155 131.865 107.085 131.726C107.012 131.588 106.928 131.432 106.854 131.247C106.687 130.888 106.539 130.43 106.398 129.914C106.269 129.393 106.163 128.807 106.106 128.183C106.056 127.559 106.061 126.959 106.097 126.418C106.149 125.878 106.215 125.393 106.318 125.001C106.36 124.802 106.416 124.628 106.464 124.475C106.509 124.322 106.555 124.193 106.6 124.092C106.685 123.886 106.737 123.777 106.749 123.783C106.781 123.8 106.602 124.258 106.449 125.041C106.364 125.43 106.313 125.907 106.272 126.435C106.245 126.965 106.246 127.55 106.295 128.16C106.351 128.77 106.449 129.342 106.565 129.855C106.695 130.361 106.826 130.816 106.974 131.176C107.256 131.906 107.509 132.31 107.481 132.335Z" fill="#1D191F"/>
<path d="M93.62 124.275C93.6662 124.306 93.609 124.532 93.5162 124.795C93.4225 125.057 93.3253 125.263 93.2746 125.245C93.2251 125.227 93.2433 124.98 93.3417 124.706C93.4389 124.431 93.5748 124.244 93.62 124.275Z" fill="#1E397D"/>
<path d="M95.1756 123.546C95.2237 123.573 95.1851 123.798 95.1137 124.06C95.0416 124.323 94.9614 124.531 94.9097 124.518C94.8591 124.506 94.8576 124.265 94.9334 123.989C95.0084 123.714 95.1283 123.521 95.1756 123.546Z" fill="#1E397D"/>
<path d="M97.1736 123.502C97.2235 123.522 97.1977 123.779 97.1165 124.077C97.0352 124.374 96.9289 124.6 96.879 124.58C96.829 124.56 96.8549 124.304 96.9361 124.006C97.0177 123.708 97.1241 123.483 97.1736 123.502Z" fill="#1E397D"/>
<path d="M99.0504 123.783C99.1007 123.801 99.0828 124.059 99.0104 124.36C98.9379 124.661 98.8381 124.891 98.7878 124.874C98.7375 124.856 98.7554 124.598 98.8282 124.297C98.9004 123.996 99.0002 123.766 99.0504 123.783Z" fill="#1E397D"/>
<path d="M100.633 124.97C100.58 124.97 100.539 124.666 100.541 124.291C100.543 123.916 100.586 123.612 100.639 123.613C100.691 123.613 100.732 123.917 100.731 124.292C100.729 124.667 100.685 124.971 100.633 124.97Z" fill="#1E397D"/>
<path d="M102.394 124.435C102.343 124.444 102.268 124.174 102.229 123.833C102.19 123.491 102.199 123.207 102.251 123.199C102.303 123.19 102.378 123.46 102.417 123.802C102.456 124.143 102.446 124.427 102.394 124.435Z" fill="#1E397D"/>
<path d="M104.012 122.524C104.064 122.512 104.147 122.769 104.199 123.097C104.251 123.425 104.251 123.7 104.2 123.711C104.148 123.723 104.064 123.466 104.013 123.139C103.961 122.811 103.961 122.536 104.012 122.524Z" fill="#1E397D"/>
<path d="M106.111 122.062C106.162 122.075 106.142 122.434 106.066 122.864C105.99 123.295 105.887 123.632 105.836 123.619C105.784 123.606 105.804 123.247 105.88 122.817C105.956 122.387 106.059 122.049 106.111 122.062Z" fill="#1E397D"/>
<path d="M107.909 122.123C107.957 122.148 107.828 122.546 107.622 123.01C107.416 123.474 107.213 123.823 107.168 123.791C107.124 123.758 107.252 123.36 107.455 122.903C107.658 122.446 107.861 122.097 107.909 122.123Z" fill="#1E397D"/>
<path d="M109.743 122.702C109.786 122.736 109.618 123.139 109.366 123.602C109.114 124.065 108.874 124.412 108.83 124.378C108.787 124.343 108.955 123.941 109.207 123.478C109.459 123.015 109.699 122.667 109.743 122.702Z" fill="#1E397D"/>
<path d="M110.921 124.026C110.964 124.062 110.804 124.427 110.564 124.841C110.324 125.255 110.094 125.562 110.051 125.526C110.008 125.49 110.168 125.125 110.408 124.711C110.649 124.297 110.878 123.99 110.921 124.026Z" fill="#1E397D"/>
<path d="M111.747 125.713C111.789 125.749 111.627 126.103 111.35 126.469C111.073 126.836 110.795 127.064 110.761 127.018C110.726 126.97 110.941 126.673 111.209 126.317C111.479 125.961 111.704 125.675 111.747 125.713Z" fill="#1E397D"/>
<path d="M111.627 128.284C111.668 128.321 111.573 128.533 111.358 128.646C111.143 128.76 110.949 128.701 110.954 128.64C110.955 128.575 111.111 128.53 111.282 128.438C111.453 128.35 111.586 128.242 111.627 128.284Z" fill="#1E397D"/>
<path d="M110.461 130.486C110.478 130.545 110.426 130.618 110.347 130.602C110.268 130.585 110.24 130.495 110.273 130.447C110.305 130.397 110.35 130.373 110.38 130.378C110.409 130.385 110.444 130.426 110.461 130.486Z" fill="#1E397D"/>
<path d="M97.758 131.357C97.7066 131.321 98.1835 130.496 98.3536 129.312C98.5379 128.131 98.3303 127.159 98.3893 127.146C98.4297 127.118 98.7324 128.11 98.5404 129.352C98.3598 130.596 97.7879 131.401 97.758 131.357Z" fill="#1D191F"/>
<path d="M99.2598 131.15C99.2095 131.113 99.659 130.357 99.8051 129.263C99.965 128.171 99.7457 127.28 99.8036 127.265C99.8433 127.234 100.159 128.144 99.9923 129.3C99.8357 130.459 99.2889 131.195 99.2598 131.15Z" fill="#1D191F"/>
<path d="M101.149 131.164C101.099 131.125 101.633 130.331 101.809 129.136C102.001 127.944 101.739 126.974 101.798 126.959C101.819 126.95 101.915 127.178 101.987 127.58C102.059 127.98 102.091 128.557 101.996 129.177C101.899 129.797 101.698 130.322 101.511 130.665C101.324 131.009 101.166 131.181 101.149 131.164Z" fill="#1D191F"/>
<path d="M103.283 131.012C103.23 130.98 103.654 130.11 103.774 128.908C103.908 127.709 103.68 126.74 103.738 126.724C103.778 126.696 104.102 127.68 103.963 128.937C103.835 130.196 103.317 131.051 103.283 131.012Z" fill="#1D191F"/>
<path d="M97.3759 129.094C97.3781 129.106 97.2703 129.152 97.0666 129.145C96.8648 129.137 96.5672 129.057 96.2558 128.827C95.9429 128.6 95.6369 128.223 95.3502 127.777C95.2093 127.556 95.0439 127.317 94.9572 126.997C94.9157 126.838 94.8978 126.663 94.9244 126.485C94.9496 126.307 95.033 126.132 95.1521 126.014C95.3914 125.775 95.7152 125.731 95.9815 125.827C96.2492 125.921 96.4601 126.118 96.6317 126.32C96.9738 126.729 97.1894 127.189 97.3162 127.593C97.4429 127.999 97.4834 128.349 97.4943 128.588C97.5034 128.828 97.4866 128.959 97.4754 128.959C97.4393 128.964 97.4619 128.423 97.1916 127.654C97.055 127.275 96.8372 126.846 96.5101 126.47C96.3476 126.286 96.1542 126.117 95.9309 126.041C95.7138 125.964 95.4533 126.008 95.2748 126.187C95.0927 126.362 95.0654 126.669 95.135 126.931C95.2031 127.196 95.3513 127.427 95.4894 127.65C95.764 128.095 96.0445 128.461 96.329 128.691C96.9071 129.166 97.3832 129.055 97.3759 129.094Z" fill="#1D191F"/>
<path d="M97.2739 129.027C97.2859 129.032 97.2615 129.151 97.2032 129.36C97.1431 129.568 97.0546 129.87 96.8928 130.22C96.7322 130.566 96.4823 130.973 96.0816 131.241C95.8838 131.374 95.6463 131.468 95.3914 131.467C95.1407 131.465 94.8464 131.366 94.681 131.054C94.5208 130.728 94.6191 130.356 94.7597 130.111C94.9062 129.86 95.1061 129.678 95.3083 129.56C95.7159 129.321 96.1111 129.251 96.4299 129.175C97.0728 129.03 97.4731 128.955 97.4786 128.986C97.484 129.017 97.0939 129.147 96.4583 129.332C96.1425 129.427 95.7574 129.516 95.3892 129.746C95.2059 129.859 95.0366 130.022 94.9138 130.236C94.7969 130.443 94.7368 130.73 94.8442 130.936C94.9491 131.145 95.1841 131.243 95.3928 131.244C95.6099 131.247 95.819 131.171 95.9989 131.056C96.3647 130.825 96.6091 130.461 96.7781 130.138C97.1052 129.476 97.2403 129.008 97.2739 129.027Z" fill="#1D191F"/>
<path d="M97.1383 130.886C97.0964 130.843 97.3062 130.508 97.3678 130.021C97.4384 129.535 97.3284 129.137 97.3794 129.112C97.4206 129.077 97.6341 129.494 97.555 130.057C97.4811 130.621 97.1682 130.935 97.1383 130.886Z" fill="#1D191F"/>
<path d="M97.9499 127.835C97.9991 127.853 97.9561 128.185 97.7955 128.544C97.6359 128.903 97.4294 129.13 97.39 129.091C97.3481 129.051 97.4782 128.775 97.6283 128.437C97.7798 128.099 97.8989 127.816 97.9499 127.835Z" fill="#1D191F"/>
<path d="M103.785 124.587C103.795 124.612 103.493 124.809 102.974 125.045C102.455 125.282 101.715 125.541 100.875 125.692C100.035 125.84 99.2639 125.851 98.711 125.805C98.1569 125.761 97.8203 125.678 97.8233 125.65C97.8273 125.576 99.1914 125.77 100.847 125.466C102.505 125.179 103.763 124.518 103.785 124.587Z" fill="#5D80D9"/>
<path d="M102.879 131.667C102.883 131.729 101.988 131.854 100.881 131.944C99.773 132.035 98.8726 132.058 98.8689 131.995C98.8653 131.933 99.7603 131.809 100.868 131.718C101.975 131.627 102.876 131.604 102.879 131.667Z" fill="#5D80D9"/>
<path d="M107.713 131.836C107.701 131.785 108.282 131.841 108.997 131.267C109.345 130.983 109.712 130.54 109.949 129.937C110.189 129.338 110.266 128.578 110.146 127.821C110.022 127.064 109.722 126.394 109.339 125.907C108.959 125.415 108.521 125.088 108.135 124.875C107.351 124.456 106.797 124.454 106.805 124.407C106.805 124.395 106.941 124.383 107.184 124.415C107.427 124.447 107.779 124.53 108.188 124.727C108.593 124.929 109.059 125.253 109.466 125.764C109.877 126.269 110.202 126.977 110.332 127.779C110.46 128.58 110.372 129.391 110.106 130.028C109.844 130.667 109.444 131.121 109.07 131.402C108.691 131.682 108.338 131.799 108.094 131.835C107.849 131.872 107.713 131.846 107.713 131.836Z" fill="#5D80D9"/>
<path d="M84.6716 121.102L94.1562 126.144C94.1562 126.144 94.3464 128.476 93.5738 130.371C92.8799 132.073 90.777 131.732 90.777 131.732L82.4456 129.409L84.3022 128.102L84.6716 121.102Z" fill="#CDD8F3"/>
<path d="M93.1349 131.264C92.7717 130.932 92.4045 130.597 92.1164 130.172C91.8283 129.748 91.6225 129.219 91.6367 128.672C91.6494 128.176 91.8388 127.711 92.045 127.281C92.2734 126.802 92.5561 126.314 92.9863 126.12C93.5104 125.885 94.0925 126.154 94.5923 126.456L94.6932 128.987L93.1349 131.264Z" fill="#D7DBE6"/>
<path d="M94.1567 126.144C94.1356 126.202 91.9948 125.119 89.3761 123.727C86.7563 122.334 84.6505 121.159 84.672 121.102C84.6932 121.044 86.8336 122.127 89.453 123.519C92.0717 124.912 94.1778 126.087 94.1567 126.144Z" fill="#5D80D9"/>
<path d="M104.926 80.3613C105.305 80.3761 105.626 80.0251 105.64 79.5718C105.746 75.9856 103.772 67.8535 102.825 64.4795C102.246 62.4154 100.291 60.9121 98.9216 59.8021C97.2682 58.4616 91.4189 56.8207 89.4952 56.1814L88.8469 56.1823L79.9119 55.3819L74.9925 58.2092C74.9925 58.2092 68.1699 61.3059 66.1919 65.6196C64.2143 69.9337 62.7099 82.593 62.7099 82.593C62.7099 82.593 61.8036 86.2071 62.7099 87.8398C63.2742 88.8558 65.3745 89.7366 67.2661 90.1719C66.2429 94.2581 67.0497 97.291 67.0133 97.8124C66.9386 98.8874 66.2513 101.387 67.8635 101.233C69.4757 101.079 82.0963 97.0867 85.8424 96.9077C89.5885 96.7286 92.8825 98.208 94.9297 99.5813C96.8198 100.849 96.8031 100.943 97.4759 98.7027C98.1487 96.4627 95.9984 93.9511 95.9984 93.9511C95.9984 93.9511 97.9316 85.5897 98.8284 80.1246L104.926 80.3613Z" fill="#1E397D"/>
<path d="M74.8883 75.5099C74.8781 75.5195 74.7775 75.3893 74.6052 75.1461C74.4078 74.8649 74.1656 74.5195 73.88 74.1126C73.2607 73.2506 72.4095 72.045 71.3189 70.9098C70.7728 70.3443 70.2224 69.8487 69.6888 69.4601C69.1515 69.0824 68.6503 68.7711 68.2051 68.5807C67.3222 68.1763 66.7339 68.0777 66.7415 68.0309C66.7437 68.0152 66.8898 68.0357 67.1546 68.0864C67.2876 68.1073 67.4486 68.1453 67.6314 68.2078C67.8157 68.2645 68.027 68.3261 68.251 68.43C68.7096 68.6038 69.2262 68.906 69.7784 69.2806C70.3266 69.6662 70.8898 70.1653 71.4427 70.7382C72.5482 71.8892 73.3886 73.1201 73.9834 74.0108C74.2774 74.461 74.5094 74.8304 74.6631 75.0915C74.8183 75.3518 74.8988 75.5003 74.8883 75.5099Z" fill="#1D191F"/>
<path d="M73.2571 87.5809C73.2571 87.5967 73.1001 87.6106 72.8164 87.6229C72.5322 87.636 72.1213 87.6421 71.6132 87.6364C70.5976 87.6237 69.1901 87.5591 67.6515 87.2862C66.1125 87.0115 64.7505 86.5404 63.8049 86.0859C63.3317 85.8601 62.9558 85.6562 62.7048 85.4942C62.4524 85.3361 62.3161 85.2427 62.322 85.2287C62.3373 85.1916 62.9004 85.5265 63.8519 85.9352C64.8019 86.3478 66.1529 86.7889 67.6795 87.0613C69.2058 87.332 70.6046 87.422 71.6168 87.4757C72.0926 87.4988 72.494 87.5185 72.8167 87.5342C73.1001 87.5495 73.2571 87.5652 73.2571 87.5809Z" fill="#1D191F"/>
<path d="M92.1734 91.6789C92.1847 91.6872 92.1377 91.8016 92.043 92.0029C91.9505 92.2055 91.7982 92.4863 91.5953 92.8203C91.1913 93.4892 90.5502 94.3503 89.719 95.1306C88.8856 95.9083 88.0328 96.4449 87.3939 96.7528C87.0744 96.9078 86.8104 97.0165 86.6239 97.075C86.4381 97.1361 86.3339 97.1628 86.3303 97.1479C86.3204 97.1117 86.7226 96.9488 87.3404 96.6056C87.9581 96.2641 88.7836 95.7157 89.6024 94.9516C90.4191 94.1848 91.0631 93.3578 91.4893 92.7225C91.917 92.0867 92.1461 91.6588 92.1734 91.6789Z" fill="#1D191F"/>
<path d="M92.3358 95.0332C92.3497 95.0554 92.134 95.2886 91.7421 95.5956C91.3509 95.903 90.776 96.2715 90.1011 96.5593C89.4254 96.8453 88.785 96.9924 88.3195 97.0483C87.8536 97.1051 87.5636 97.0867 87.5625 97.0592C87.5567 96.9867 88.7125 96.9156 90.0373 96.3449C91.3665 95.789 92.3027 94.9725 92.3358 95.0332Z" fill="#1D191F"/>
<path d="M102.825 64.4798C102.838 64.4838 102.822 64.6148 102.782 64.8497C102.745 65.085 102.672 65.4213 102.568 65.8313C102.359 66.6513 101.991 67.7604 101.441 68.8957C100.889 70.0297 100.267 70.9619 99.7748 71.5846C99.5293 71.8963 99.3213 72.1378 99.169 72.2937C99.0182 72.4513 98.9308 72.5325 98.9217 72.5207C98.9005 72.4937 99.2138 72.1221 99.675 71.4771C100.137 70.8335 100.733 69.8995 101.277 68.7813C101.819 67.6617 102.201 66.5793 102.44 65.7802C102.68 64.9816 102.795 64.4711 102.825 64.4798Z" fill="#1D191F"/>
<path d="M105.119 78.4435C105.119 78.474 104.782 78.5076 104.237 78.526C103.692 78.5443 102.938 78.5443 102.106 78.5063C101.274 78.4675 100.522 78.3976 99.9798 78.3291C99.4374 78.2605 99.1038 78.1963 99.106 78.1658C99.1082 78.1339 99.4458 78.1413 99.9897 78.1688C100.603 78.2007 101.321 78.2378 102.114 78.2793C102.906 78.3116 103.624 78.3404 104.238 78.3653C104.782 78.3876 105.119 78.4111 105.119 78.4435Z" fill="#1D191F"/>
<path d="M98.0012 65.9234C98.0139 65.9208 98.058 66.1265 98.1261 66.5002C98.1993 66.9181 98.2922 67.45 98.4037 68.0861C98.6284 69.4267 98.9519 71.2811 99.1453 73.3639C99.3376 75.4485 99.283 77.3606 99.1234 78.7203C99.0419 79.3997 98.9584 79.9468 98.8776 80.318C98.8022 80.6909 98.7548 80.8948 98.7421 80.8913C98.7293 80.8878 98.7526 80.6774 98.8055 80.3005C98.8637 79.9254 98.9264 79.3779 98.9905 78.7011C99.1147 77.3466 99.1475 75.4581 98.957 73.3884C98.7654 71.3204 98.4634 69.4646 98.2722 68.1163C98.1753 67.4421 98.0988 66.8958 98.054 66.5164C98.0077 66.1369 97.9884 65.926 98.0012 65.9234Z" fill="#1D191F"/>
<path d="M74.8884 77.0211C74.9015 77.0233 74.892 77.2023 74.8643 77.5245C74.8367 77.8468 74.7897 78.3118 74.7267 78.8856C74.5988 80.0326 74.4057 81.6155 74.1398 83.3538C73.8736 85.0925 73.5716 86.6553 73.2816 87.764C73.1396 88.3189 72.9953 88.7578 72.8871 89.0556C72.7677 89.3486 72.6966 89.5062 72.6846 89.4992C72.6558 89.4826 72.9112 88.8368 73.1527 87.7185C73.4077 86.6068 73.6874 85.0467 73.953 83.3123C74.2185 81.5784 74.4323 80.0016 74.5937 78.8616C74.6717 78.3293 74.7376 77.8782 74.7911 77.5119C74.8418 77.194 74.8756 77.0189 74.8884 77.0211Z" fill="#1D191F"/>
<path d="M73.6618 70.0618C73.684 70.05 73.8326 70.3727 74.0253 70.9202C74.2184 71.4678 74.4482 72.2441 74.6344 73.1244C74.8194 74.0056 74.9251 74.8199 74.972 75.4116C75.0194 76.0037 75.0168 76.3718 74.9924 76.374C74.9349 76.3801 74.8216 74.9221 74.4504 73.1803C74.0869 71.4368 73.6086 70.0888 73.6618 70.0618Z" fill="#1D191F"/>
<path d="M83.972 85.5486C83.9673 85.5451 84.0022 85.46 84.074 85.2989C84.1549 85.1225 84.2616 84.8893 84.396 84.5967C84.6914 83.9701 85.1071 83.0899 85.6232 81.9952C86.6905 79.7691 88.1734 76.6764 89.8771 73.1238L89.9969 73.2784C88.9216 73.9049 87.7596 74.525 86.5433 75.1027C85.0775 75.7991 83.6347 76.3877 82.2869 76.8646L82.0024 76.965L82.1908 76.6912C84.2485 73.6971 86.0254 71.1117 87.301 69.2559C87.9301 68.3538 88.435 67.6303 88.7945 67.1142C88.9631 66.8784 89.0975 66.6906 89.1995 66.5479C89.2932 66.4203 89.3434 66.3562 89.3478 66.3601C89.3518 66.364 89.3095 66.4365 89.2239 66.5714C89.1278 66.7199 89.001 66.9151 88.8418 67.16C88.4921 67.6853 88.0011 68.4228 87.3892 69.342C86.127 71.2104 84.368 73.8137 82.3314 76.8283L82.2352 76.655C83.5764 76.1738 85.0131 75.5847 86.4734 74.8905C87.6853 74.3145 88.8437 73.6993 89.9168 73.0788L90.1889 72.9216L90.0366 73.2338C88.31 76.7707 86.8071 79.8495 85.7256 82.0655C85.1894 83.1462 84.7584 84.0156 84.4514 84.6343C84.306 84.9194 84.1902 85.146 84.1028 85.3176C84.0212 85.4731 83.9767 85.5521 83.972 85.5486Z" fill="#FAFAFA"/>
<g opacity="0.3">
<path d="M90.5058 97.4992C90.9345 97.6333 91.7607 96.0722 92.2357 95.1182C90.7728 96.088 89.374 97.2494 87.7403 96.8259C89.574 96.2862 91.0507 94.5558 91.6751 92.4197C90.4686 94.5427 88.9114 96.0487 86.8887 96.8949C86.8879 96.8945 89.8239 97.2857 90.5058 97.4992Z" fill="#1D191F"/>
</g>
<path d="M73.6617 51.1228C73.6686 51.1019 73.9112 51.2473 74.38 51.3713C74.8379 51.4835 75.5763 51.5857 76.3449 51.1398C76.72 50.9158 77.089 50.546 77.3349 50.0347C77.5852 49.5308 77.6832 48.8645 77.4937 48.244C77.3156 47.6344 76.8719 47.058 76.2884 46.9524C75.7183 46.848 75.071 47.2834 74.839 47.9654C74.7206 48.3042 74.7432 48.6889 74.8729 49.0103C75.0051 49.3308 75.2299 49.5924 75.4892 49.76C75.7464 49.9325 76.0385 50.0229 76.3205 50.0168C76.6049 50.012 76.884 49.9242 77.1346 49.7875C77.6398 49.512 78.0416 49.0649 78.3512 48.5981C78.6619 48.1274 78.8914 47.6335 79.0502 47.1585C79.3744 46.207 79.432 45.3586 79.4309 44.7866C79.4243 44.2102 79.3712 43.8936 79.389 43.8902C79.3956 43.8888 79.4123 43.9666 79.4382 44.1168C79.4633 44.267 79.4906 44.4919 79.5045 44.784C79.5281 45.3638 79.4914 46.2323 79.1748 47.2174C79.0196 47.7091 78.7909 48.2226 78.4747 48.7143C78.1589 49.2024 77.7454 49.6766 77.2067 49.9775C76.939 50.1264 76.6381 50.2251 76.3234 50.2334C76.0068 50.2417 75.6848 50.1438 75.3989 49.9543C75.1115 49.7692 74.8568 49.4797 74.7028 49.1081C74.5505 48.7383 74.5235 48.2763 74.6623 47.8803C74.9366 47.0917 75.6502 46.6144 76.3161 46.7314C76.9878 46.8598 77.4679 47.5065 77.6584 48.1741C77.8627 48.8579 77.7454 49.5963 77.4704 50.129C77.1998 50.6739 76.8035 51.056 76.4035 51.2835C75.5825 51.7341 74.8244 51.5961 74.3629 51.4564C74.1265 51.3813 73.9498 51.2975 73.8333 51.2337C73.7171 51.1704 73.6592 51.1294 73.6617 51.1228Z" fill="#1D191F"/>
<path d="M102.221 41.5119C102.362 39.74 101.882 37.8829 100.847 36.6061C99.8129 35.3294 98.2211 34.6971 96.7757 35.1054C95.7434 35.3966 94.7362 35.8835 94.0048 36.8376C93.7039 37.2423 93.6471 37.3192 93.4405 37.8017C93.4165 37.8567 93.3932 37.9135 93.3706 37.9711C93.3418 38.0427 93.3148 38.1152 93.2883 38.1881C93.2839 38.2003 93.2791 38.2113 93.2748 38.2235L93.2773 38.2187C92.8355 39.4526 92.7032 40.8456 92.9564 42.1529C93.3407 44.1383 94.6218 45.8565 96.2439 46.4683C97.8659 47.0805 99.7681 46.5281 100.935 45.0452C101.683 44.0929 102.117 42.8148 102.221 41.5119Z" fill="#1D191F"/>
<path d="M101.567 44.4247C101.535 44.4325 101.469 43.9295 101.214 43.182C100.963 42.4379 100.485 41.4528 99.7201 40.6354C98.9548 39.8176 98.0835 39.3617 97.438 39.1486C96.7889 38.9303 96.3649 38.9102 96.3674 38.8701C96.3678 38.8557 96.4742 38.8456 96.6658 38.8548C96.8577 38.8635 97.1349 38.9015 97.4712 38.9928C98.1403 39.17 99.0528 39.6176 99.8461 40.4656C100.64 41.3127 101.115 42.348 101.339 43.1243C101.453 43.5143 101.516 43.84 101.546 44.0675C101.576 44.295 101.579 44.4225 101.567 44.4247Z" fill="#1E397D"/>
<path d="M100.145 40.9764C100.166 40.9856 100.066 41.3913 99.8118 42.0021C99.5583 42.6113 99.1288 43.416 98.5172 44.1631C97.9035 44.908 97.2387 45.4355 96.7349 45.7486C96.2293 46.063 95.8927 46.1883 95.8847 46.1647C95.8494 46.0927 97.1822 45.4722 98.3821 44.0037C99.5882 42.5427 100.085 40.935 100.145 40.9764Z" fill="#1E397D"/>
<path d="M96.2144 39.1006C96.158 39.0622 96.5951 38.2203 96.9582 37.1086C97.332 35.9917 97.285 35.0005 97.3407 34.9987C97.363 34.9961 97.4107 35.2415 97.4041 35.6472C97.3994 36.0519 97.3192 36.6122 97.136 37.189C96.759 38.34 96.2468 39.1273 96.2144 39.1006Z" fill="#5D80D9"/>
<path d="M89.8716 60.4581C89.8716 60.4581 89.8683 60.5275 89.8716 60.4581V60.4581Z" fill="#CDD8F3"/>
<path d="M96.2695 37.5789C96.4421 32.4767 93.2822 27.8814 88.9682 27.3644C84.3912 26.8155 80.4128 30.8275 80.1177 36.1681L79.3834 57.722C79.3691 58.139 79.4744 58.5481 79.6762 58.8883C80.7595 60.7122 82.693 62.1147 84.4029 62.3605C86.0596 62.5985 87.7279 62.0461 89.1175 61.0781C89.5882 60.7502 89.8705 60.1375 89.8701 59.4848L89.8683 54.6637C89.8683 54.6454 89.8796 54.6305 89.8952 54.6314C90.1444 54.6476 90.7793 54.6449 91.0215 54.5685C92.0805 54.234 94.7713 52.9241 95.6058 48.1354C95.8819 46.5468 96.1179 42.0515 96.2695 37.5789Z" fill="#CDD8F3"/>
<path d="M90.4737 44.7502C90.4722 44.7026 90.9166 44.6397 91.6357 44.5755C91.8178 44.5646 91.9908 44.5327 92.0269 44.3886C92.0753 44.2371 92.0083 44.0022 91.93 43.7485C91.7796 43.2214 91.6218 42.6691 91.4561 42.0901C90.8001 39.7296 90.3338 37.7935 90.4143 37.7638C90.4948 37.7341 91.0922 39.623 91.7482 41.9836C91.9056 42.5652 92.0564 43.1197 92.1996 43.6502C92.2589 43.8969 92.3664 44.1795 92.2615 44.4938C92.2069 44.6506 92.0692 44.758 91.9515 44.7877C91.8338 44.8222 91.7318 44.8183 91.6419 44.8191C90.921 44.8213 90.4748 44.7982 90.4737 44.7502Z" fill="#1D191F"/>
<path d="M94.5387 40.7938C94.5355 41.2052 94.2375 41.5383 93.8729 41.5392C93.5093 41.5401 93.2165 41.2082 93.2198 40.7969C93.2234 40.386 93.5214 40.052 93.8849 40.0511C94.2492 40.0502 94.542 40.3829 94.5387 40.7938Z" fill="#1D191F"/>
<path d="M95.1941 38.421C95.1292 38.5061 94.6007 38.4655 93.9282 38.7384C93.2551 39.0048 92.8151 39.4335 92.7295 39.4082C92.6879 39.3986 92.744 39.2694 92.9345 39.0785C93.1218 38.8899 93.4591 38.6436 93.8787 38.4755C94.2983 38.3079 94.675 38.2673 94.9019 38.29C95.1336 38.3122 95.2265 38.3817 95.1941 38.421Z" fill="#1D191F"/>
<path d="M87.7053 40.2572C87.702 40.6681 87.4036 41.0017 87.0394 41.0026C86.6758 41.0034 86.383 40.6716 86.3863 40.2607C86.3895 39.8498 86.6879 39.5158 87.0514 39.5149C87.416 39.5136 87.7085 39.8459 87.7053 40.2572Z" fill="#1D191F"/>
<path d="M87.9373 39.1201C87.8342 39.1258 87.4474 38.6245 86.7553 38.2285C86.0665 37.8267 85.4589 37.7538 85.4075 37.6586C85.3813 37.6145 85.5041 37.5678 85.7711 37.5962C86.0337 37.6224 86.4482 37.7398 86.8791 37.9883C87.3093 38.2372 87.6277 38.5428 87.7905 38.762C87.9566 38.9847 87.9869 39.1192 87.9373 39.1201Z" fill="#1D191F"/>
<path d="M89.8677 54.6297C89.8677 54.6297 87.1175 54.7276 83.7827 52.0911C83.7827 52.0911 84.7014 56.4252 89.8699 56.1715L89.8677 54.6297Z" fill="#5D80D9"/>
<path d="M90.0971 46.7473C89.857 46.3342 89.4181 46.0884 88.9718 46.1176C88.6626 46.1377 88.3446 46.2941 88.1461 46.5779C87.9475 46.8621 87.8925 47.2791 88.0517 47.5713C88.2313 47.9001 88.6283 47.9979 88.9715 47.9053C89.3146 47.8127 89.6159 47.5678 89.9025 47.3224C89.9819 47.2547 90.0628 47.1839 90.1145 47.0874C90.1659 46.9909 90.1812 46.8621 90.1255 46.7761" fill="#5D80D9"/>
<path d="M88.363 45.2014C88.4788 45.2005 88.4457 46.1083 89.0806 46.7926C89.714 47.479 90.5391 47.427 90.5402 47.5545C90.5489 47.6122 90.3508 47.7196 90.0036 47.7095C89.663 47.7025 89.1716 47.5436 88.783 47.1249C88.3958 46.7052 88.2428 46.1677 88.2308 45.7935C88.2162 45.4123 88.3105 45.1927 88.363 45.2014Z" fill="#1D191F"/>
<path d="M88.4166 35.7436C88.3161 35.9536 87.632 35.7017 86.7942 35.6475C85.9571 35.5733 85.2548 35.7187 85.1743 35.4947C85.1393 35.3882 85.2843 35.2013 85.5827 35.0397C85.8784 34.8781 86.3312 34.7602 86.8335 34.7982C87.3355 34.8375 87.774 35.0235 88.0531 35.2296C88.3343 35.4349 88.4611 35.6432 88.4166 35.7436Z" fill="#1D191F"/>
<path d="M95.1806 35.8739C95.0484 36.0565 94.5672 35.8294 93.9796 35.7844C93.3935 35.715 92.889 35.8456 92.7819 35.6403C92.7357 35.5408 92.8213 35.3552 93.0453 35.1888C93.2664 35.0229 93.6306 34.898 94.0339 34.9373C94.4371 34.9771 94.7806 35.1705 94.9777 35.3775C95.1784 35.5849 95.2392 35.7844 95.1806 35.8739Z" fill="#1D191F"/>
<path d="M89.5827 26.2728C89.1998 25.5248 88.5041 25.1947 87.7315 25.072C84.577 24.5716 81.1001 26.9212 79.3873 30.1358C77.6746 33.3504 77.6542 38.0894 78.9994 41.5463L80.1829 41.7673C82.638 41.5359 86.6442 33.2347 90.0194 28.6233C90.4383 28.0508 89.9153 26.9225 89.5827 26.2728Z" fill="#1D191F"/>
<path d="M95.6441 28.6117C94.2999 26.8472 92.1279 24.7063 89.4156 26.0145C89.0276 26.9406 89.8567 28.1121 90.5444 28.7924C91.5512 29.7884 92.428 30.4569 93.0895 31.1713C94.4271 32.6153 96.0939 35.0164 96.2648 37.7171C96.2757 37.8865 96.3839 37.9088 96.5256 37.8791C96.7092 37.8411 97.1153 36.7276 97.3091 35.2548C97.7226 32.114 96.9882 30.3762 95.6441 28.6117Z" fill="#1D191F"/>
<path d="M80.3748 36.8336C80.2353 36.1175 79.9457 35.4403 79.5465 34.8748C79.2838 34.5023 78.9746 34.177 78.6267 33.9247C77.3565 33.0029 75.6795 33.0164 74.367 33.8496C73.0546 34.6822 72.1206 36.2716 71.8001 38.0099C71.5644 39.288 71.6485 40.6643 72.1166 41.8468C72.8455 43.6881 74.5135 44.916 76.2138 44.9321C77.9142 44.9487 79.5742 43.7868 80.4502 42.0398C81.068 40.8071 80.9063 38.6317 80.3748 36.8336Z" fill="#1D191F"/>
<path d="M80.9375 40.0306C80.8639 39.9844 77.936 38.6718 77.8085 42.3401C77.681 46.0084 80.7798 45.4049 80.7885 45.3001C80.7977 45.1953 80.9375 40.0306 80.9375 40.0306Z" fill="#CDD8F3"/>
<path d="M79.9022 43.864C79.8891 43.8514 79.8472 43.906 79.7554 43.9509C79.6658 43.9946 79.5139 44.0204 79.3566 43.9409C79.0382 43.7824 78.7872 43.1536 78.7956 42.4917C78.7992 42.1576 78.8688 41.8424 78.9766 41.5843C79.0794 41.3206 79.2309 41.1402 79.3948 41.1136C79.5584 41.0769 79.6695 41.1992 79.7033 41.3044C79.7409 41.4092 79.719 41.4813 79.735 41.4882C79.743 41.4978 79.8028 41.4302 79.7835 41.2773C79.7733 41.204 79.7405 41.1158 79.6713 41.0415C79.6002 40.966 79.4935 40.9245 79.3799 40.9337C79.1431 40.9416 78.9216 41.1909 78.8032 41.4747C78.6717 41.759 78.5872 42.1126 78.5829 42.4877C78.5767 43.2278 78.8684 43.9352 79.3056 44.1107C79.5187 44.1889 79.7008 44.1199 79.7966 44.0383C79.8935 43.9522 79.9128 43.871 79.9022 43.864Z" fill="#5D80D9"/>
<path d="M96.2733 29.346C96.2755 29.3739 95.9368 29.4469 95.3816 29.4866C94.8272 29.5268 94.0557 29.5207 93.2117 29.3993C92.3681 29.2761 91.6173 29.0622 91.0866 28.8648C90.5555 28.6679 90.2408 28.5002 90.2484 28.4736C90.2575 28.4408 90.5868 28.5539 91.1219 28.7098C91.657 28.8661 92.4016 29.0521 93.2343 29.1735C94.067 29.2932 94.8272 29.3246 95.3776 29.3259C95.9287 29.3277 96.2708 29.3119 96.2733 29.346Z" fill="#1E397D"/>
<path d="M97.3046 31.9769C97.3097 32.0026 97.0601 32.1052 96.6383 32.1659C96.218 32.2275 95.6231 32.2249 94.9871 32.0598C94.3515 31.8922 93.8098 31.597 93.4488 31.3311C93.0864 31.0651 92.8959 30.8473 92.9094 30.8263C92.9407 30.763 93.7865 31.5232 95.0275 31.838C96.2646 32.172 97.298 31.9035 97.3046 31.9769Z" fill="#1E397D"/>
<path d="M78.9983 31.3876C79.0034 31.3413 79.6616 31.4824 80.7297 31.447C81.264 31.4439 81.8964 31.3483 82.5929 31.2182C83.2864 31.0614 84.0404 30.8379 84.8134 30.5287C85.5849 30.2122 86.297 29.8388 86.9316 29.4668C87.5585 29.0777 88.1151 28.7048 88.5584 28.3455C89.4537 27.6438 89.9535 27.1159 89.9768 27.1482C89.9856 27.16 89.8657 27.2984 89.6413 27.5394C89.531 27.663 89.3893 27.8045 89.2188 27.9595C89.0501 28.118 88.8589 28.2996 88.6338 28.4782C88.1963 28.8577 87.6408 29.2489 87.0114 29.6528C86.3743 30.0392 85.6556 30.4231 84.875 30.7431C84.0925 31.0562 83.3269 31.2763 82.6231 31.4239C81.9157 31.5448 81.2735 31.6243 80.7326 31.6068C80.4623 31.6156 80.2182 31.5928 80.0044 31.5728C79.7902 31.5588 79.6066 31.5339 79.458 31.4998C79.159 31.4422 78.9961 31.4029 78.9983 31.3876Z" fill="#1E397D"/>
<path d="M89.7727 28.4338C89.7836 28.4421 89.6965 28.6229 89.5286 28.9438C89.4459 29.1054 89.3417 29.301 89.2055 29.515C89.0704 29.7298 88.9279 29.9857 88.7407 30.2402C88.3848 30.7673 87.9226 31.3589 87.3649 31.9585C86.8017 32.5497 86.1439 33.1501 85.4008 33.6828C84.6537 34.2076 83.8978 34.6115 83.193 34.9159C82.4841 35.208 81.8274 35.4036 81.2686 35.5123C80.9914 35.5822 80.7349 35.6018 80.5124 35.635C80.2898 35.6704 80.0964 35.6796 79.9383 35.6835C79.6225 35.6957 79.4484 35.6949 79.448 35.6791C79.4455 35.6324 80.1452 35.6141 81.2442 35.3543C81.7939 35.2268 82.4382 35.0176 83.134 34.7189C83.8261 34.4081 84.5677 34.0046 85.3039 33.4876C86.0361 32.9627 86.6874 32.3763 87.2494 31.8013C87.806 31.2179 88.2726 30.645 88.638 30.1368C89.3713 29.1198 89.741 28.4085 89.7727 28.4338Z" fill="#1E397D"/>
<path d="M87.731 25.0721C87.7299 25.0481 87.9699 25.0088 88.3451 25.1223C88.7156 25.2376 89.2088 25.5397 89.6025 26.072C89.6991 26.2065 89.7876 26.344 89.8583 26.4925C89.9326 26.6423 89.9726 26.8086 90.0091 26.9418C90.087 27.2221 90.153 27.4846 90.1821 27.7129C90.244 28.1749 90.1566 28.4583 90.1369 28.4496C90.106 28.4448 90.1417 28.1675 90.0506 27.7448C90.0069 27.5335 89.9315 27.2885 89.8441 27.0108C89.7985 26.865 89.7639 26.7314 89.6976 26.6043C89.6332 26.4737 89.5501 26.3467 89.4608 26.2222C89.0937 25.7262 88.6456 25.4227 88.3054 25.2751C87.9615 25.1302 87.7291 25.1105 87.731 25.0721Z" fill="#1E397D"/>
<path d="M79.6547 39.7117C79.6237 39.6999 79.7166 39.3327 79.7807 38.7275C79.8456 38.1245 79.8605 37.2713 79.6675 36.3744C79.4722 35.4775 79.0876 34.7584 78.7422 34.3169C78.3965 33.8733 78.1248 33.6663 78.1448 33.6305C78.1518 33.6174 78.2235 33.6598 78.3492 33.7497C78.4774 33.8344 78.6461 33.9903 78.838 34.2043C79.2212 34.6317 79.6474 35.3793 79.851 36.3168C80.0525 37.2534 80.0139 38.1407 79.9133 38.7524C79.8128 39.3681 79.6733 39.7205 79.6547 39.7117Z" fill="#5D80D9"/>
<path d="M79.8831 38.9033C79.8653 38.9356 79.4894 38.6448 78.8461 38.2636C78.2039 37.8816 77.2801 37.4358 76.2132 37.1484C75.1452 36.8651 74.1511 36.7978 73.4342 36.8166C72.7166 36.8336 72.2733 36.9057 72.2686 36.8672C72.2664 36.852 72.3753 36.8201 72.5749 36.7755C72.7742 36.7279 73.066 36.6852 73.4284 36.6563C74.1525 36.5961 75.167 36.638 76.2543 36.9271C77.3402 37.2196 78.2735 37.6977 78.9076 38.1217C79.2253 38.3326 79.4748 38.52 79.638 38.6645C79.803 38.806 79.8904 38.8902 79.8831 38.9033Z" fill="#1E397D"/>
<path d="M77.0971 37.4465C77.1183 37.453 77.0581 37.8731 76.8684 38.5224C76.6797 39.1708 76.3431 40.0406 75.843 40.9061C75.3407 41.7702 74.7782 42.4522 74.3371 42.8902C73.8956 43.3299 73.5882 43.5439 73.5758 43.5225C73.5339 43.4648 74.7076 42.4863 75.6874 40.7764C76.6819 39.0796 77.0374 37.4194 77.0971 37.4465Z" fill="#1E397D"/>
<path d="M79.1124 44.5702C79.1346 44.4999 79.2446 44.4597 79.4267 44.5165C79.6056 44.5728 79.8595 44.7348 80.0678 45.089C80.2784 45.4344 80.3971 46.0295 80.2219 46.6089C80.1378 46.8976 79.9771 47.191 79.7334 47.4054C79.4927 47.6172 79.1972 47.7324 78.8953 47.7412C78.5951 47.753 78.2877 47.6473 78.0487 47.4578C77.809 47.2713 77.6331 47.0211 77.5169 46.757C77.4011 46.4849 77.3424 46.2256 77.3428 45.9269C77.3482 45.6505 77.4051 45.4343 77.475 45.2431C77.6167 44.865 77.8418 44.6139 78.036 44.5314C78.2301 44.4458 78.3467 44.5043 78.3609 44.5746C78.3831 44.7318 78.1533 44.9427 78.1161 45.4802C78.1052 45.6077 78.1045 45.7566 78.1281 45.8736C78.1474 45.9671 78.2006 46.1177 78.2706 46.2269C78.4184 46.4644 78.6272 46.6172 78.8723 46.6054C79.1288 46.5919 79.3054 46.4561 79.4132 46.2138C79.5211 45.9675 79.5334 45.6998 79.4748 45.4649C79.3553 44.9767 79.0588 44.7182 79.1124 44.5702Z" fill="#1E397D"/>
<path d="M82.2129 38.7671C82.2089 38.7129 82.9483 38.7959 84.0557 38.3793C85.1561 37.9807 86.5862 36.972 87.6936 35.3193C88.8002 33.6626 89.3889 31.8348 89.7357 30.514C89.9094 29.8494 90.0282 29.3027 90.1079 28.9241C90.1881 28.5456 90.2336 28.336 90.2471 28.339C90.2591 28.3416 90.238 28.5573 90.1801 28.9429C90.1221 29.3285 90.0227 29.8839 89.8639 30.5598C89.5477 31.9021 88.9714 33.7688 87.8411 35.4616C86.7083 37.1532 85.2286 38.1662 84.0943 38.533C83.5264 38.7243 83.0496 38.7911 82.7214 38.7968C82.5575 38.8094 82.4296 38.7911 82.3437 38.7885C82.2573 38.7824 82.2125 38.7749 82.2129 38.7671Z" fill="#1D191F"/>
<path d="M89.7676 57.8653C89.7698 57.8601 89.836 57.8924 89.9508 57.978C90.0652 58.0644 90.224 58.2173 90.3846 58.4613C90.5453 58.7041 90.6986 59.0482 90.7864 59.4787C90.8764 59.9066 90.8866 60.4319 90.7533 60.9695C90.5008 62.0532 89.6648 63.116 88.5207 63.6431C87.9528 63.9164 87.3237 64.0828 86.6702 64.1841C86.0164 64.2849 85.3312 64.3295 84.6311 64.2827C83.232 64.1924 81.9064 63.6989 80.8967 62.8706C79.8782 62.0576 79.1898 60.9568 78.8503 59.9298C78.6787 59.4163 78.5927 58.9133 78.604 58.4692C78.6117 58.0243 78.7206 57.65 78.8521 57.3833C78.9832 57.113 79.1358 56.9462 79.2455 56.851C79.3566 56.7567 79.424 56.7265 79.4262 56.7318C79.444 56.7527 79.1566 56.8933 78.9166 57.426C78.8 57.6889 78.7075 58.0465 78.71 58.4705C78.7089 58.8941 78.8 59.3744 78.9745 59.8687C79.3198 60.8581 79.9981 61.9144 80.9936 62.696C81.9804 63.4911 83.2691 63.9657 84.6417 64.0553C85.3279 64.1011 86.0018 64.0587 86.6462 63.9627C87.2902 63.8662 87.9047 63.7072 88.4559 63.4479C89.5647 62.9483 90.3679 61.9454 90.6243 60.9223C90.8957 59.8918 90.609 58.9849 90.3249 58.5137C90.0291 58.0256 89.7519 57.8889 89.7676 57.8653Z" fill="#1D191F"/>
<path d="M81.7525 63.5269C81.703 63.5269 81.6931 63.0204 81.9303 62.4828C82.1641 61.9427 82.5171 61.6641 82.5451 61.713C82.5816 61.7632 82.3109 62.0933 82.0982 62.5885C81.8804 63.0797 81.8079 63.5343 81.7525 63.5269Z" fill="#1D191F"/>
<path d="M85.1714 64.3024C85.1189 64.2998 85.0898 63.8902 85.1065 63.3867C85.1229 62.8833 85.1787 62.4776 85.2311 62.4802C85.2836 62.4829 85.3123 62.8924 85.296 63.3959C85.2796 63.8989 85.2235 64.3046 85.1714 64.3024Z" fill="#1D191F"/>
<path d="M88.602 63.6941C88.5507 63.7067 88.4312 63.2631 88.3354 62.7033C88.2396 62.1435 88.2031 61.6794 88.2545 61.6667C88.3059 61.654 88.425 62.0977 88.5211 62.6575C88.6173 63.2172 88.6534 63.6814 88.602 63.6941Z" fill="#1D191F"/>
<path d="M90.6063 61.0764C90.5582 61.107 90.4147 60.8782 90.179 60.6948C89.9463 60.5053 89.7153 60.4354 89.72 60.3703C89.7182 60.3096 90.0042 60.2808 90.2839 60.5053C90.5651 60.7275 90.6537 61.0546 90.6063 61.0764Z" fill="#1D191F"/>
<path d="M79.9412 59.4456C79.9493 59.5097 79.7482 59.594 79.5544 59.7826C79.357 59.9665 79.2433 60.1822 79.1927 60.1582C79.1435 60.1424 79.1949 59.8329 79.4364 59.6045C79.6764 59.3748 79.9398 59.3844 79.9412 59.4456Z" fill="#1D191F"/>
<path d="M85.9329 88.6628C85.3938 88.6423 85.0383 87.9742 85.2572 87.3835C86.2396 84.7295 88.9232 79.6198 89.1009 79.2915C89.3534 78.8256 89.4889 78.2562 90.3041 78.1383C90.6188 78.0929 95.5374 77.958 96.6903 77.927C96.879 77.9217 97.0666 77.9959 97.2029 78.1527C97.4323 78.4164 97.6698 78.9138 97.3078 79.6936C96.8987 80.5744 93.927 86.0997 92.7195 88.2323C92.4806 88.6545 92.0773 88.8995 91.6519 88.8829L85.9329 88.6628Z" fill="#1D191F"/>
<path d="M93.5206 79.8339C93.4477 79.6719 93.2102 79.6548 93.1279 79.7051C92.9891 79.7492 92.8879 79.854 92.7822 79.9705C92.6766 80.0871 92.626 80.295 92.7105 80.4343C92.7822 80.5526 92.9206 80.5801 93.0423 80.567C93.1953 80.5509 93.3497 80.4823 93.4521 80.3452C93.5548 80.2081 93.5934 79.9954 93.5206 79.8339Z" fill="#FAFAFA"/>
<path d="M96.0504 81.036C96.0387 81.0285 96.1076 80.8473 96.2416 80.5264C96.3152 80.3539 96.3975 80.1605 96.4901 79.9443C96.54 79.8295 96.5924 79.709 96.6474 79.5824C96.7028 79.4483 96.7749 79.3278 96.7713 79.1937C96.7745 79.0588 96.7203 78.9143 96.6215 78.827C96.5199 78.73 96.4015 78.7322 96.2347 78.7466C95.9178 78.7619 95.5827 78.7785 95.2312 78.796C94.5197 78.8261 93.7446 78.8593 92.9312 78.8933C92.1174 78.9217 91.3419 78.9483 90.6302 78.9732C90.5438 78.9763 90.4586 78.9789 90.3744 78.982C90.3052 78.9898 90.2386 79.0217 90.1854 79.0724C90.0885 79.1654 90.0105 79.3749 89.9228 79.5217C89.7552 79.836 89.5975 80.1312 89.451 80.4054C89.1742 80.9124 88.9418 81.3381 88.7568 81.6765C88.5892 81.9739 88.4912 82.1346 88.4803 82.1263C88.4693 82.118 88.5458 81.9416 88.6941 81.6298C88.8653 81.2809 89.0809 80.8425 89.337 80.3203C89.4773 80.0413 89.6284 79.7413 89.7891 79.4221C89.8299 79.3413 89.8714 79.2592 89.9136 79.1763C89.9526 79.0999 90.0003 78.9907 90.0812 78.9165C90.1581 78.8409 90.2553 78.7916 90.3573 78.7781C90.4455 78.7732 90.5347 78.7689 90.6251 78.7636C91.3365 78.7335 92.112 78.7003 92.9257 78.6658C93.7395 78.6374 94.5147 78.6108 95.2261 78.5859C95.5776 78.5759 95.9131 78.5667 96.2303 78.5575C96.3724 78.5453 96.5822 78.5462 96.7122 78.6881C96.8467 78.8152 96.9148 79.0143 96.906 79.199C96.9017 79.2911 96.882 79.3806 96.8463 79.4562C96.815 79.523 96.784 79.588 96.7538 79.6518C96.6944 79.7754 96.6376 79.8928 96.5837 80.005C96.4809 80.2146 96.3891 80.4015 96.3072 80.5687C96.1524 80.8766 96.0617 81.0434 96.0504 81.036Z" fill="#1E397D"/>
<path d="M104.283 80.3715C104.283 80.3715 103.784 84.5306 103.272 87.202C102.816 89.5821 102.094 97.623 100.249 98.6369C98.4038 99.6508 96.1085 99.0181 95.258 97.0589C94.4074 95.0996 93.499 89.8773 93.499 89.8773L89.6396 87.9294C89.6396 87.9294 88.7512 84.0502 89.256 83.6132C89.7609 83.1761 94.7437 83.8315 94.7437 83.8315L96.0805 83.4673C96.0805 83.4673 93.955 83.1032 93.4986 82.9573C93.0422 82.8115 92.742 82.3748 92.8495 81.8648C92.9569 81.3548 93.0422 80.8448 94.1965 80.8448C95.3509 80.8448 97.1529 80.6378 97.4778 80.7719C97.884 80.9396 98.344 81.2221 98.4347 82.4473C98.5232 83.6459 98.042 85.9484 98.042 85.9484L98.147 86.1414L98.8274 80.1243L104.283 80.3715Z" fill="#CDD8F3"/>
<path d="M97.7986 87.5515C97.8023 87.5663 97.6912 87.6191 97.4857 87.7012C97.2814 87.7864 96.979 87.8855 96.6009 87.9868C95.8462 88.1885 94.7723 88.3549 93.587 88.2636C92.4013 88.1689 91.3545 87.8287 90.6332 87.4916C90.2719 87.3235 89.9859 87.169 89.7958 87.0445C89.6042 86.9236 89.5018 86.8502 89.5073 86.8362C89.5215 86.8004 89.9528 87.0467 90.6784 87.3406C91.4029 87.6349 92.4345 87.9436 93.5994 88.037C94.764 88.1265 95.821 87.9886 96.5751 87.8292C97.3302 87.6694 97.7899 87.5144 97.7986 87.5515Z" fill="#5D80D9"/>
<path d="M97.0672 85.8829C97.0698 85.8977 96.9587 85.9414 96.754 86.0029C96.5493 86.0645 96.2506 86.1409 95.8779 86.2143C95.1345 86.3597 94.0839 86.4859 92.9292 86.3444C91.7738 86.2042 90.7629 85.7886 90.0942 85.3606C89.7579 85.1489 89.5008 84.9467 89.3325 84.7926C89.1635 84.6393 89.0786 84.5424 89.0859 84.531C89.1052 84.4983 89.4778 84.8375 90.1535 85.2161C90.8252 85.5995 91.8168 85.9807 92.9489 86.1182C94.081 86.2571 95.117 86.1588 95.8593 86.0549C96.6032 85.9488 97.0614 85.8484 97.0672 85.8829Z" fill="#5D80D9"/>
<path d="M98.2703 81.5914C98.2929 81.584 98.3625 81.7945 98.3464 82.1512C98.3351 82.3272 98.3126 82.5446 98.2026 82.7656C98.1527 82.8761 98.0456 82.9791 97.9549 83.0359C97.8605 83.1014 97.7571 83.1546 97.6496 83.1979C97.2216 83.3616 96.8209 83.4053 96.5379 83.4254C96.2563 83.4441 96.0917 83.4961 96.0807 83.4677C96.0683 83.4389 96.2341 83.3267 96.52 83.266C96.8012 83.2057 97.1874 83.1359 97.5888 82.9826C97.7818 82.8979 97.9745 82.8053 98.0558 82.6512C98.1483 82.4879 98.1873 82.2914 98.2128 82.1324C98.2612 81.8076 98.2419 81.5971 98.2703 81.5914Z" fill="#5D80D9"/>
<path d="M96.4371 88.5858C96.4531 88.5722 96.5667 88.8731 96.4407 89.3425C96.377 89.5704 96.2528 89.8285 96.0502 90.0424C95.8484 90.2581 95.5719 90.4118 95.2696 90.4738C94.9669 90.5354 94.6722 90.5075 94.4172 90.428C94.1623 90.3459 93.9532 90.2223 93.7827 90.118C93.4447 89.9005 93.2374 89.7765 93.2443 89.7486C93.2523 89.7162 93.4876 89.7927 93.8384 89.9721C94.1852 90.1498 94.6817 90.3712 95.2372 90.2503C95.5093 90.1944 95.7552 90.0629 95.9369 89.883C96.1202 89.7036 96.2426 89.4835 96.315 89.2853C96.4604 88.8809 96.4043 88.5888 96.4371 88.5858Z" fill="#5D80D9"/>
<path d="M98.0428 81.1723C98.0461 81.167 98.0694 81.1832 98.1135 81.2208C98.1558 81.2596 98.2111 81.3304 98.2661 81.4356C98.3747 81.6478 98.4563 82.0006 98.4832 82.4438C98.5364 83.3337 98.4118 84.576 98.131 85.9759L98.1284 85.9112C98.3015 86.4706 98.5379 87.0548 98.8194 87.6351C99.2147 88.4495 99.6503 89.1844 100.072 89.8275C100.49 90.4659 100.934 91.0126 101.152 91.6043C101.38 92.1911 101.36 92.7492 101.258 93.0832C101.208 93.2526 101.145 93.3714 101.096 93.4439C101.046 93.5155 101.015 93.5469 101.01 93.5426C100.994 93.5295 101.113 93.3854 101.187 93.0574C101.262 92.7361 101.259 92.2143 101.031 91.6737C100.811 91.124 100.371 90.6022 99.9355 89.9581C99.5017 89.3158 99.0566 88.5765 98.6552 87.7491C98.3692 87.1596 98.1299 86.5623 97.9572 85.9855L97.9478 85.954L97.9547 85.9208C98.2424 84.5454 98.3896 83.3167 98.3685 82.4512C98.3579 82.019 98.2967 81.6797 98.2118 81.4705C98.1266 81.2618 98.033 81.1867 98.0428 81.1723Z" fill="#5D80D9"/>
<path d="M63.9549 88.9412C63.9549 88.9412 63.3914 98.2231 66.9917 99.7793C71.9577 101.926 77.6195 95.9944 77.641 95.8992C77.6624 95.804 83.6655 90.0084 83.6655 90.0084L81.7954 83.8394C81.7954 83.8394 81.0475 83.8394 79.8316 84.8773C79.3923 85.2524 72.4338 89.6503 72.4338 89.6503C72.4338 89.6503 69.3973 89.6198 63.9549 88.9412Z" fill="#CDD8F3"/>
<path d="M72.6863 89.5122C72.7107 89.582 71.3997 90.2195 69.8166 91.0701C69.0262 91.4998 68.329 91.9312 67.8303 92.2591C67.3324 92.5875 67.0289 92.8036 67.0129 92.7752C66.9998 92.7517 67.2777 92.4875 67.7622 92.1207C68.2467 91.7548 68.942 91.2959 69.7376 90.8636C70.5324 90.4291 71.2689 90.0885 71.8044 89.8514C72.3406 89.6152 72.6765 89.4833 72.6863 89.5122Z" fill="#5D80D9"/>
<path d="M88.4522 80.4778C88.4522 80.4778 87.5128 78.8814 87.1398 78.8867C86.7664 78.8919 84.5294 79.3312 84.5294 79.3312L81.364 83.447C81.364 83.447 81.1462 84.7893 81.8306 85.274C81.8306 85.274 81.6004 87.383 82.4466 87.9877C82.4466 87.9877 83.0746 89.9714 83.6658 90.0086C84.2566 90.0457 84.4173 90.0086 84.4173 90.0086C84.4173 90.0086 84.2876 91.2015 85.1895 91.2762C85.8466 91.3303 87.174 91.0906 87.8461 90.9561C88.108 90.9037 88.34 90.729 88.4937 90.4692L89.2685 89.1619C89.5155 88.7453 89.514 88.1864 89.2652 87.7716C89.2652 87.7716 89.6368 87.2393 89.73 86.797C89.8233 86.3551 89.73 85.5508 89.73 85.5508C89.73 85.5508 91.0672 84.1941 91.0986 83.8391C91.1295 83.4842 91.0676 83.1453 90.4764 83.1842C90.4764 83.1842 90.3522 82.0864 89.6054 82.1144C88.8591 82.1423 85.3239 82.1144 85.3239 82.1144L85.9956 81.3284C85.9956 81.3284 87.7557 82.1314 87.9411 81.5978L88.4522 80.4778Z" fill="#CDD8F3"/>
<path d="M83.3755 85.2269C83.3755 85.2103 83.5791 85.2021 83.9488 85.1785C84.3186 85.1553 84.8548 85.1165 85.517 85.0226C86.1792 84.9296 86.9679 84.7759 87.8355 84.5292C88.269 84.4043 88.7221 84.2558 89.1877 84.0794C89.6379 83.9292 90.0302 83.5105 90.4112 83.1031L90.4345 83.0782L90.46 83.0734C90.6138 83.045 90.793 83.0162 90.9751 83.1328C91.0651 83.193 91.1303 83.3066 91.1576 83.4162C91.1867 83.5266 91.1911 83.6345 91.1926 83.7336C91.1904 83.7856 91.1984 83.8022 91.1882 83.8777C91.1776 83.9602 91.1532 83.9886 91.1343 84.0393C91.0917 84.1192 91.0458 84.1899 90.9991 84.2576C90.9052 84.3921 90.8061 84.5139 90.707 84.634C90.5078 84.8728 90.3052 85.0959 90.1005 85.3117L90.098 85.3143L90.0947 85.3173C89.3294 86.0011 88.6231 86.6836 87.9142 87.1766C87.2079 87.6805 86.4928 87.9342 85.8936 88.039C85.2908 88.1424 84.7979 88.0853 84.4734 87.997C84.3102 87.9551 84.1871 87.9088 84.1058 87.8709C84.0246 87.8337 83.9831 87.811 83.9853 87.8045C83.9871 87.7543 84.6908 88.1346 85.8751 87.8953C86.4582 87.7735 87.1485 87.5115 87.8315 87.0085C88.5211 86.5142 89.2153 85.8313 89.9839 85.1379L89.9781 85.1431C90.1777 84.9309 90.3788 84.7078 90.573 84.4742C90.6695 84.3567 90.766 84.2371 90.8534 84.1117C90.8968 84.0489 90.9372 83.9851 90.9718 83.9214C90.9824 83.8947 91.0028 83.8528 90.9999 83.8484C91.0072 83.841 91.0013 83.7703 91.0024 83.7371C91.0028 83.5511 90.974 83.39 90.8782 83.328C90.7802 83.2607 90.6294 83.2664 90.4924 83.2956L90.5413 83.266C90.3446 83.4852 90.1442 83.6847 89.9326 83.8668C89.7264 84.0449 89.486 84.2139 89.2416 84.2864C88.7702 84.4606 88.312 84.6056 87.8734 84.7252C86.9955 84.9619 86.1989 85.0999 85.5301 85.1732C84.8613 85.2479 84.3215 85.2636 83.9499 85.261C83.7642 85.2614 83.6203 85.254 83.523 85.2475C83.4261 85.2409 83.3755 85.2339 83.3755 85.2269Z" fill="#5D80D9"/>
<path d="M89.7297 85.5507C89.7475 85.5489 89.7876 85.7904 89.8058 86.2148C89.8102 86.3209 89.8124 86.4388 89.8094 86.5672C89.808 86.6314 89.8054 86.6986 89.7996 86.7685C89.7971 86.8405 89.7694 86.9335 89.745 86.9951C89.6936 87.1344 89.631 87.2702 89.5625 87.4125C89.5271 87.4833 89.4911 87.5553 89.4546 87.6282L89.3964 87.7387C89.3829 87.7623 89.3836 87.7653 89.3567 87.8073C89.349 87.8173 89.3403 87.826 89.3308 87.8335C89.3144 87.8317 89.3363 87.8649 89.2437 87.8247C89.192 87.7749 89.2091 87.7112 89.2124 87.7029C89.2179 87.6859 89.2215 87.6802 89.2215 87.6802L89.2252 87.6728L89.2405 87.6426L89.3884 87.7483C89.1749 88.2151 88.8635 88.6993 88.4602 89.1128C87.7197 89.8853 86.8276 90.187 86.2018 90.2324C85.886 90.2595 85.6299 90.2359 85.4561 90.2071C85.2824 90.1717 85.188 90.1446 85.1902 90.1294C85.1939 90.0857 85.5793 90.1652 86.1887 90.0726C86.7919 89.9874 87.6319 89.6761 88.3375 88.9404C88.7221 88.5461 89.0241 88.0889 89.239 87.647L89.3869 87.7527C89.8237 86.6069 89.6739 85.5345 89.7297 85.5507Z" fill="#5D80D9"/>
<path d="M86.0794 81.3655C86.0659 81.4144 85.7082 81.255 85.5392 80.748C85.4613 80.5 85.4744 80.2546 85.5093 80.0961C85.545 79.9354 85.5946 79.8498 85.6179 79.8586C85.6769 79.8743 85.5898 80.262 85.717 80.6686C85.8448 81.0746 86.1162 81.3082 86.0794 81.3655Z" fill="#5D80D9"/>
<path d="M84.4948 90.0495C84.4974 90.0617 84.4016 90.1115 84.2155 90.129C84.0315 90.1465 83.751 90.1259 83.4425 89.9543C83.1354 89.788 82.812 89.4395 82.6382 88.9356C82.5479 88.6924 82.5103 88.3833 82.5063 88.1165C82.4958 87.9829 82.4714 87.899 82.3883 87.8222C82.3064 87.7466 82.1829 87.6458 82.0998 87.5226C81.8663 87.1938 81.7723 86.7838 81.7479 86.4114C81.7232 86.0358 81.7567 85.6896 81.7829 85.3787L81.8233 85.4726C81.3214 85.0922 81.1968 84.4617 81.211 84.0875C81.226 83.6932 81.3454 83.5033 81.3534 83.512C81.376 83.5212 81.293 83.722 81.3072 84.0862C81.3192 84.4342 81.4656 84.994 81.906 85.3023L81.9505 85.3333L81.9468 85.3961C81.9283 85.7079 81.9031 86.045 81.9308 86.3917C81.957 86.7345 82.047 87.0973 82.2444 87.3742C82.3191 87.4825 82.4011 87.5475 82.5096 87.6479C82.6262 87.7453 82.6921 87.9527 82.6921 88.0973C82.6961 88.3898 82.7238 88.6234 82.801 88.857C82.9493 89.3142 83.2287 89.6395 83.5033 89.8102C84.0694 90.1556 84.4992 90.0024 84.4948 90.0495Z" fill="#5D80D9"/>
<g opacity="0.3">
<path d="M74.8216 77.5689C74.3954 82.2009 73.794 85.7373 72.8862 88.9362C74.148 87.6507 75.0143 85.8294 75.2554 83.8654C75.4965 81.9018 75.1137 79.5225 74.8216 77.5689Z" fill="#1D191F"/>
</g>
<g opacity="0.3">
<path d="M99.6341 75.0249C99.5222 73.3805 99.1227 71.781 98.616 70.2471C99.186 73.5128 99.2512 76.9038 98.8068 80.1974L98.9405 79.842C99.5576 78.367 99.7455 76.6693 99.6341 75.0249Z" fill="#1D191F"/>
</g>
</svg>
