<svg width="157" height="147" viewBox="0 0 157 147" fill="none" xmlns="http://www.w3.org/2000/svg">
<path d="M137.936 125.72C134.775 128.867 131.784 130.897 129.421 132.5C101.643 151.348 68.775 145.854 61.7895 144.512C51.4743 142.531 31.535 138.701 17.1194 122.669C-4.69034 98.4146 -1.29425 60.2019 15.6228 34.9771C18.7172 30.3631 35.0628 4.75411 68.2849 0.64725C88.3906 -1.83817 111.827 3.17462 128.8 16.6218C164.426 44.8485 161.89 101.871 137.936 125.72Z" fill="url(#paint0_linear_301_4583)"/>
<path d="M79.1724 140.632C79.1724 140.632 109.505 67.2788 154.565 59.2657C155.365 59.1235 156.093 59.7354 156.054 60.5131C155.599 69.5612 149.827 117.447 79.1724 140.632Z" fill="#5D80D9"/>
<path opacity="0.62" d="M146.47 71.1637C144.169 74.307 141.758 77.3676 139.314 80.4052C138.703 81.1651 138.079 81.9149 137.463 82.6703C136.842 83.4219 136.234 84.1837 135.602 84.927L133.712 87.1623C133.079 87.9052 132.46 88.6586 131.812 89.3893C130.524 90.8576 129.249 92.336 127.952 93.796L124.018 98.1434C121.35 101.002 118.683 103.864 115.932 106.652L113.885 108.757C113.211 109.467 112.496 110.139 111.804 110.831L107.626 114.967L103.34 119.002C102.624 119.673 101.915 120.351 101.185 121.008L98.9745 122.958C97.4979 124.254 96.0363 125.568 94.5347 126.838L89.9692 130.583L88.8227 131.513C88.4373 131.819 88.0628 132.138 87.6685 132.434L85.31 134.219C84.5261 134.816 83.7312 135.4 82.9423 135.991C82.1527 136.581 81.3621 137.169 80.5668 137.752C80.506 137.796 80.4189 137.785 80.3723 137.727C80.3274 137.671 80.3366 137.591 80.3919 137.546L80.3957 137.542C81.1555 136.918 81.9199 136.3 82.6853 135.683C83.4513 135.067 84.2114 134.445 84.9825 133.835L87.2889 132C88.0492 131.378 88.7862 130.731 89.5405 130.102L94.0568 126.324L98.4803 122.446L100.694 120.508C101.064 120.186 101.416 119.846 101.778 119.517L102.863 118.526L107.203 114.56C110.025 111.847 112.895 109.176 115.621 106.371C116.997 104.981 118.39 103.606 119.72 102.174C121.061 100.753 122.414 99.3422 123.745 97.9123L127.692 93.5835C128.994 92.1294 130.274 90.657 131.567 89.1947C132.217 88.467 132.839 87.7165 133.474 86.9767L135.371 84.75C136.006 84.0097 136.616 83.2507 137.24 82.502C137.859 81.7495 138.485 81.0025 139.098 80.2455C141.54 77.2118 143.948 74.1482 146.241 71.0134L146.242 71.0111C146.286 70.9511 146.373 70.9364 146.436 70.9785C146.499 71.0207 146.514 71.1036 146.47 71.1636L146.47 71.1637Z" fill="white"/>
<g opacity="0.79">
<path d="M71.8218 98.5632C71.8218 98.5632 86.5674 33.7887 131.081 0.210891C131.662 -0.226913 132.521 0.0499768 132.698 0.736718C135.498 11.5831 150.077 80.7649 71.8218 98.5632Z" fill="#A4B8EA"/>
<path opacity="0.62" d="M126.355 18.8972C125.844 20.7763 125.249 22.6275 124.622 24.4704C123.993 26.3123 123.332 28.1446 122.631 29.9625C121.223 33.5966 119.689 37.1869 118.037 40.7266C117.627 41.6129 117.195 42.4896 116.775 43.3717C116.352 44.2527 115.896 45.1182 115.458 45.9923C115.023 46.8679 114.553 47.7268 114.097 48.5923L113.407 49.8877L112.692 51.1712C110.79 54.5944 108.785 57.9684 106.625 61.2508C104.458 64.5278 102.206 67.7569 99.7764 70.8629C99.4756 71.2531 99.1806 71.6473 98.8751 72.0342L97.943 73.1834L97.0109 74.3324C96.6985 74.7141 96.3954 75.1029 96.0677 75.4732L94.1321 77.7168L93.6462 78.2759L93.1426 78.8209L92.1358 79.9108C86.7932 85.7461 80.8132 91.0432 74.3474 95.7066C74.2941 95.7451 74.2184 95.7349 74.1782 95.6839C74.139 95.6341 74.1482 95.5637 74.1981 95.5247L74.2008 95.5226L76.5484 93.6898L77.7238 92.7764L78.8614 91.8198L81.134 89.9053L83.3312 87.912C83.6948 87.5773 84.0694 87.2538 84.4276 86.9139L85.4916 85.8838C86.1974 85.1938 86.918 84.5178 87.6115 83.8167C88.9747 82.3929 90.3699 80.9976 91.6677 79.5181L92.6572 78.4227L93.1518 77.8751L93.6291 77.3132L95.5431 75.0703C95.8677 74.7007 96.1679 74.3126 96.4775 73.9315L97.4008 72.7843L98.3241 71.6373C98.6267 71.2512 98.9189 70.8575 99.2169 70.4682C101.623 67.368 103.853 64.1451 105.998 60.875C108.154 57.6104 110.169 54.2607 112.076 50.8564L112.793 49.5804L113.486 48.2921C113.944 47.4317 114.416 46.5776 114.852 45.7065C115.748 43.9753 116.613 42.2297 117.464 40.4777C119.154 36.9681 120.723 33.4049 122.173 29.7972C122.908 27.9969 123.603 26.1816 124.266 24.3557C124.598 23.4432 124.919 22.5265 125.228 21.6068C125.543 20.6887 125.843 19.7646 126.121 18.8383L126.122 18.8361C126.14 18.7747 126.207 18.7391 126.271 18.7568C126.335 18.7742 126.372 18.8367 126.355 18.8972Z" fill="white"/>
</g>
<g opacity="0.76">
<path d="M48.6887 95.0868C48.6887 95.0868 42.9383 37.6262 8.08125 4.18949C7.62676 3.75354 6.8542 3.90787 6.62674 4.48404C3.03411 13.5842 -17.044 71.9519 48.6887 95.0868Z" fill="#A4B8EA"/>
<path opacity="0.62" d="M10.3727 20.7831C10.9677 24.0962 11.7374 27.3864 12.6174 30.6433C13.4836 33.9046 14.4585 37.139 15.5427 40.339C16.0911 41.9368 16.6509 43.531 17.2384 45.1159C17.5219 45.9119 17.8376 46.6966 18.1407 47.4858L18.6005 48.6676L19.0826 49.8413C20.3642 52.972 21.7454 56.0661 23.2567 59.1006C24.7564 62.1396 26.3344 65.1462 28.0785 68.0642C28.2939 68.4303 28.5037 68.7994 28.7235 69.1631L29.3973 70.2461L30.0711 71.3291C30.2974 71.6891 30.5148 72.0543 30.7553 72.4058L32.1665 74.5343L32.5177 75.0674L32.8856 75.5899L33.6216 76.6351C34.5821 78.043 35.6361 79.3879 36.6594 80.7542C37.1824 81.4292 37.7316 82.0852 38.2666 82.7518L39.0741 83.7481C39.3466 84.0776 39.6353 84.3944 39.9129 84.7201L41.5939 86.6625L43.3487 88.5447L44.2274 89.4853L45.1434 90.3922L46.9713 92.2121L46.9735 92.2143C47.0198 92.2605 47.0183 92.3338 46.9702 92.378C46.9233 92.4212 46.8494 92.4207 46.8029 92.3782C41.7065 87.7147 37.1023 82.5448 33.1082 76.9719L32.3542 75.9302L31.9772 75.4093L31.617 74.8777L30.1845 72.7463C29.9411 72.3937 29.7208 72.0275 29.4917 71.6666L28.8095 70.5805L28.1273 69.4945C27.9047 69.1298 27.6922 68.7596 27.4741 68.3925C25.7077 65.4661 24.1083 62.4509 22.5875 59.4026C21.0745 56.3498 19.7067 53.233 18.432 50.0837L17.9533 48.9029L17.4967 47.7141C17.1959 46.9204 16.8825 46.1311 16.6014 45.3307C16.3174 44.5313 16.0164 43.7375 15.7463 42.9338C15.4792 42.1291 15.2008 41.3279 14.943 40.5207C12.8708 34.0672 11.1491 27.5018 10.1331 20.8149C10.1235 20.7518 10.1692 20.693 10.2354 20.6838C10.3003 20.6748 10.3607 20.7169 10.3719 20.7785L10.3727 20.7831Z" fill="white"/>
</g>
<path d="M17.7783 7.60677C17.2791 30.1555 15.6604 107.935 16.4331 135.497C16.515 138.417 18.6052 140.761 21.2126 140.856C34.1084 141.329 81.3835 142.527 102.477 141.536C106.87 141.329 110.364 137.344 110.455 132.421C110.893 108.753 111.86 42.1844 109.562 11.6894C109.286 8.03572 106.726 5.12609 103.468 4.76102C89.4235 3.18765 41.9451 -0.658328 23.7219 0.666047C20.4352 0.904896 17.8599 3.91964 17.7783 7.60677Z" fill="#1E397D"/>
<path d="M23.5322 14.5245C22.8381 32.7248 20.6486 93.2724 21.3435 115.662C21.4451 118.934 23.7482 121.58 26.6671 121.772C38.6854 122.559 79.6885 124.296 97.3163 122.715C100.49 122.43 102.981 119.556 103.153 115.995C104.046 97.4268 106.611 41.0484 105.945 18.91C105.838 15.3783 103.396 12.4941 100.253 12.1781C87.251 10.8708 43.6804 7.76017 28.7009 8.67541C25.889 8.84724 23.6524 11.3737 23.5322 14.5245Z" fill="#5D80D9"/>
<path d="M55.77 5.13877C55.77 5.83066 56.2515 6.40132 56.8684 6.43741C59.9143 6.61603 68.4947 7.12147 72.3294 7.37062C73.0856 7.41978 73.679 6.65866 73.5355 5.82588L73.5111 5.68375C73.4131 5.1155 72.9924 4.68779 72.4778 4.63498C69.8857 4.36895 62.0643 3.6314 56.8822 3.83859C56.2597 3.86356 55.77 4.44122 55.77 5.13877Z" fill="#5D80D9"/>
<path d="M61.7632 52.6971C71.6974 52.6971 79.7506 44.9879 79.7506 35.4781C79.7506 25.9684 71.6974 18.2592 61.7632 18.2592C51.8291 18.2592 43.7759 25.9684 43.7759 35.4781C43.7759 44.9879 51.8291 52.6971 61.7632 52.6971Z" fill="#5D80D9"/>
<path d="M67.2702 28.972C67.2702 31.8876 64.8012 35.0352 61.7555 35.0352C58.7098 35.0352 56.2407 31.8876 56.2407 28.972C56.2407 26.0564 58.7098 23.9879 61.7555 23.9879C64.8012 23.9879 67.2702 26.0564 67.2702 28.972Z" fill="white"/>
<path d="M54.9118 46.2605H68.3743C69.7914 46.2605 71.0461 45.3837 71.4779 44.0916L72.2023 41.9242C72.7327 40.3372 71.8704 38.6189 70.2356 38.0468C64.7569 36.1291 59.0917 36.3752 53.2884 38.2238C51.6626 38.7416 50.7604 40.4063 51.209 41.9893L51.7669 43.9578C52.152 45.3169 53.4407 46.2605 54.9118 46.2605Z" fill="white"/>
<g opacity="0.71">
<path opacity="0.65" d="M96.2634 80.1966H30.6159C30.4154 80.1966 30.2529 80.041 30.2529 79.8491V70.769C30.2529 70.5771 30.4154 70.4215 30.6159 70.4215H96.2634C96.4638 70.4215 96.6263 70.5771 96.6263 70.769V79.8491C96.6263 80.041 96.4638 80.1966 96.2634 80.1966Z" fill="white"/>
<path opacity="0.65" d="M95.905 96.1456H30.2575C30.057 96.1456 29.8945 95.99 29.8945 95.7981V86.7179C29.8945 86.526 30.057 86.3705 30.2575 86.3705H95.905C96.1054 86.3705 96.2679 86.526 96.2679 86.7179V95.7981C96.2679 95.99 96.1054 96.1456 95.905 96.1456Z" fill="white"/>
<path opacity="0.65" d="M83.0878 115.168H41.1062C40.8588 115.168 40.6582 114.976 40.6582 114.739V103.134C40.6582 102.897 40.8588 102.705 41.1062 102.705H83.0878C83.3352 102.705 83.5358 102.897 83.5358 103.134V114.739C83.5358 114.976 83.3352 115.168 83.0878 115.168Z" fill="white"/>
</g>
<path opacity="0.75" d="M72.081 78.0664H33.8381C33.4817 78.0664 33.1929 77.7899 33.1929 77.4487V73.2532C33.1929 72.9121 33.4817 72.6356 33.8381 72.6356H72.081C72.4373 72.6356 72.7262 72.9121 72.7262 73.2532V77.4487C72.7263 77.7898 72.4374 78.0664 72.081 78.0664Z" fill="white"/>
<g opacity="0.75">
<path d="M35.4603 93.0469C36.6487 92.5756 37.213 91.2714 36.7208 90.1338C36.2285 88.9961 34.8661 88.4559 33.6777 88.9272C32.4893 89.3984 31.9249 90.7026 32.4172 91.8403C32.9095 92.9779 34.2719 93.5181 35.4603 93.0469Z" fill="white"/>
<path d="M40.956 93.3295C42.2423 93.3295 43.285 92.3313 43.285 91.1C43.285 89.8687 42.2423 88.8705 40.956 88.8705C39.6697 88.8705 38.627 89.8687 38.627 91.1C38.627 92.3313 39.6697 93.3295 40.956 93.3295Z" fill="white"/>
<path d="M49.3702 91.907C49.6658 90.7086 48.8906 89.5078 47.6388 89.2249C46.387 88.9419 45.1326 89.6839 44.837 90.8823C44.5414 92.0806 45.3166 93.2814 46.5684 93.5644C47.8202 93.8474 49.0746 93.1053 49.3702 91.907Z" fill="white"/>
<path d="M53.4965 93.73C54.7828 93.73 55.8255 92.7318 55.8255 91.5005C55.8255 90.2692 54.7828 89.271 53.4965 89.271C52.2102 89.271 51.1675 90.2692 51.1675 91.5005C51.1675 92.7318 52.2102 93.73 53.4965 93.73Z" fill="white"/>
<path d="M59.8862 93.6723C61.1724 93.6723 62.2152 92.6742 62.2152 91.4428C62.2152 90.2115 61.1724 89.2133 59.8862 89.2133C58.5999 89.2133 57.5571 90.2115 57.5571 91.4428C57.5571 92.6742 58.5999 93.6723 59.8862 93.6723Z" fill="white"/>
<path d="M66.2763 93.7872C67.5626 93.7872 68.6053 92.789 68.6053 91.5577C68.6053 90.3263 67.5626 89.3281 66.2763 89.3281C64.99 89.3281 63.9473 90.3263 63.9473 91.5577C63.9473 92.789 64.99 93.7872 66.2763 93.7872Z" fill="white"/>
</g>
<path d="M92.8726 98.8354L100.008 100.543L98.2239 113.35C98.2239 113.35 100.9 115.911 101.791 119.326C102.683 122.741 103.506 137.081 103.506 137.081L105.199 138.061L105.405 138.879L100.479 145.219L101.296 140.173C101.425 139.372 101.201 137.747 101.272 137.713C98.5959 130.883 92.8726 111.642 92.8726 111.642V98.8354Z" fill="url(#paint1_linear_301_4583)"/>
<path d="M90.7877 138.966C90.8649 138.965 90.9409 138.971 91.0185 138.966C90.6738 134.849 89.0981 116.727 87.5213 109.934C85.7375 102.25 90.1969 86.8822 90.1969 86.8822L98.2239 94.5663L93.7645 109.081C96.8205 113.469 93.266 139.167 93.3425 139.156L93.3376 139.213L94.5013 140.745L94.3598 141.575L87.2514 145.591L90.0484 141.243C90.4923 140.552 90.7376 139.77 90.7877 138.966Z" fill="url(#paint2_linear_301_4583)"/>
<path d="M99.8161 52.8027C99.8161 52.8027 115.445 69.6645 99.8161 78.3101L98.2236 77.2064C98.2236 77.2064 105.983 70.0938 98.2236 61.3869L99.8161 52.8027Z" fill="url(#paint3_linear_301_4583)"/>
<path d="M86.7829 146.22H89.0514C89.476 146.22 89.8764 146.034 90.1353 145.711C90.8425 144.832 92.3077 143.116 93.0082 143.071C93.9514 143.011 93.8307 146.22 93.8307 146.22H94.3594L95.029 142.232C95.1975 141.228 94.6762 140.234 93.7348 139.764C93.7348 139.764 93.5192 141.29 92.3503 141.965C91.1813 142.641 87.5933 145.058 87.5933 145.058C87.5933 145.058 87.1538 144.998 86.6713 145.082C85.9557 145.206 86.0556 146.22 86.7829 146.22Z" fill="#5D80D9"/>
<path d="M100.302 145.973L102.393 145.131C102.784 144.973 103.078 144.652 103.186 144.259C103.482 143.186 104.137 141.06 104.765 140.759C105.61 140.353 106.799 143.357 106.799 143.357L107.286 143.16L106.288 139.236C106.036 138.248 105.153 137.525 104.095 137.441C104.095 137.441 104.515 138.928 103.711 139.984C102.906 141.041 100.579 144.601 100.579 144.601C100.579 144.601 100.149 144.709 99.7382 144.965C99.1287 145.345 99.6318 146.243 100.302 145.973Z" fill="#5D80D9"/>
<path d="M88.1526 73.8892C88.1526 73.8892 88.4149 75.4283 88.0306 79.659C87.6463 83.8898 85.8092 93.823 86.1832 103.327C86.1832 103.327 91.4056 104.492 100.479 103.94C100.479 103.94 104.308 89.1016 103.375 83.4606C102.442 77.8196 97.3821 73.7726 97.3821 73.7726L88.1526 73.8892Z" fill="url(#paint4_linear_301_4583)"/>
<path d="M92.0114 45.6179L91.373 52.8026H97.4373L95.9294 41.8355L92.0114 45.6179Z" fill="url(#paint5_linear_301_4583)"/>
<path d="M99.2335 51.8091C97.1406 51.6987 92.4613 51.4942 89.1464 51.6671C87.401 51.7581 85.939 52.9569 85.5819 54.5949L84.7735 58.304C84.4723 59.6855 84.5173 61.1157 84.9048 62.4774L88.1523 73.8892C88.1523 73.8892 91.0408 75.5509 97.382 73.7727C97.382 73.7727 102.951 61.0603 100.671 52.9281C100.494 52.2965 99.9156 51.8452 99.2335 51.8091Z" fill="url(#paint6_linear_301_4583)"/>
<path d="M85.7408 53.9297C84.8475 56.1822 84.0407 58.5442 83.174 60.7562C82.7333 61.8633 82.2863 62.9487 81.808 63.9454C81.5661 64.4418 81.3004 64.898 81.0565 65.3115C80.8124 65.721 80.5375 66.0615 80.3943 66.2183C80.3661 66.2415 80.4603 66.2592 80.4917 66.2607C80.5107 66.2629 79.8878 66.3584 79.6968 66.3891L78.9503 66.3848C77.8803 66.3322 76.6684 66.1516 75.4528 65.9255C73.001 65.4879 70.4518 64.8734 67.8344 64.4086L67.8143 64.405C67.3134 64.3161 66.8321 64.6326 66.7392 65.1121C66.6779 65.4283 66.8021 65.7372 67.0366 65.9359C68.092 66.8253 69.2108 67.5559 70.3711 68.267C70.9552 68.6089 71.5495 68.944 72.1536 69.2657C72.7696 69.5663 73.3873 69.8693 74.0289 70.1494C75.3207 70.6882 76.6551 71.1846 78.1924 71.5034C78.5964 71.5681 78.9951 71.6359 79.4108 71.6892C79.877 71.7047 80.3004 71.7443 80.8096 71.7161C81.08 71.6904 81.3518 71.6587 81.6227 71.6209C81.7672 71.5966 81.8734 71.594 82.0484 71.5477C82.2342 71.4944 82.4195 71.4346 82.6021 71.369C82.9839 71.2378 83.2307 71.0791 83.5408 70.914C83.7982 70.7514 84.033 70.5815 84.2607 70.4073C85.1011 69.722 85.623 69.0419 86.083 68.3889C86.5416 67.7364 86.9052 67.0829 87.2315 66.4422C87.8862 65.1626 88.3974 63.8948 88.8122 62.6181C89.6527 60.0597 90.2222 57.5454 90.4626 54.8745C90.5777 53.5953 89.5876 52.4689 88.2513 52.3587C87.1453 52.2674 86.1486 52.901 85.7727 53.8473L85.7408 53.9297Z" fill="url(#paint7_linear_301_4583)"/>
<path d="M68.6582 65.5562L67.576 63.0972L61.8804 61.7386C61.8804 61.7386 61.4248 62.6837 63.8169 63.0972C63.8169 63.0972 62.9624 64.0013 63.4182 65.0645C63.8739 66.1277 68.7152 67.1928 68.6582 65.5562Z" fill="url(#paint8_linear_301_4583)"/>
<path d="M89.4437 37.3201C89.2271 37.4424 87.5211 43.2026 88.9507 45.6177C90.3804 48.0329 94.7462 45.3278 95.9293 41.8354C97.1126 38.3432 95.2116 34.0638 89.4437 37.3201Z" fill="url(#paint9_linear_301_4583)"/>
<path d="M100.759 41.8358C101.738 46.4287 104.983 45.1718 107.281 47.2151C111.006 50.5269 116.334 47.1129 121.514 50.2513C125.254 52.517 127.055 58.3135 125.261 62.9934C122.775 69.4753 114.281 72.1409 109.88 70.1667C105.673 68.2799 106.272 62.6289 100.611 60.445C98.2084 59.5178 97.0221 60.1203 95.5829 58.7461C93.0636 56.3405 93.7434 51.6722 94.0053 49.8738C94.5736 45.9715 95.9403 45.265 95.2871 43.55C94.0166 40.2142 88.0904 40.9024 87.5965 38.5475C87.1468 36.403 91.4421 32.3382 95.4844 32.9788C101.738 33.9698 100.323 39.7896 100.759 41.8358Z" fill="#1E397D"/>
<path opacity="0.6" d="M123.393 61.8957C123.467 61.8957 123.534 61.8476 123.552 61.7757C124.353 58.5935 123.99 55.9837 122.472 54.0187C119.953 50.7575 115.058 50.4348 115.009 50.432C114.932 50.4198 114.842 50.4924 114.836 50.579C114.83 50.6653 114.899 50.7397 114.989 50.7449C115.037 50.7477 119.784 51.063 122.21 54.2069C123.666 56.0935 124.011 58.6155 123.234 61.7022C123.213 61.7863 123.267 61.8711 123.355 61.8913C123.367 61.8942 123.381 61.8957 123.393 61.8957Z" fill="white"/>
<path opacity="0.72" d="M107.361 64.8086C107.367 64.8086 107.374 64.8077 107.381 64.8062C107.425 64.7951 107.451 64.7523 107.44 64.7103C106.66 61.8456 105.291 59.8561 103.372 58.7966C101.976 58.0257 100.669 57.9541 99.5161 57.8908C98.4041 57.8295 97.4438 57.7765 96.6709 57.1187C95.0733 55.7586 95.1657 52.4885 96.946 47.3992C96.9604 47.3581 96.937 47.3138 96.8942 47.3C96.851 47.2862 96.8049 47.3085 96.7905 47.3496C94.9875 52.5038 94.9108 55.83 96.5622 57.2357C97.3776 57.93 98.3642 57.9845 99.5068 58.0472C100.642 58.1097 101.928 58.1804 103.291 58.9325C105.17 59.97 106.513 61.9274 107.281 64.7502C107.291 64.7854 107.324 64.8086 107.361 64.8086Z" fill="white"/>
<path opacity="0.72" d="M98.4423 40.6957C98.451 40.6957 98.4595 40.6945 98.4685 40.6917C98.5114 40.678 98.5344 40.6332 98.52 40.5922C97.9 38.8264 96.1135 39.0888 94.2207 39.3674C93.0228 39.5437 91.7843 39.7252 90.7338 39.4277C89.95 39.2052 89.4844 38.8605 89.3497 38.4028C89.1198 37.6237 89.925 36.7549 89.933 36.746C89.9634 36.7139 89.9605 36.6643 89.927 36.6355C89.8937 36.6065 89.8416 36.6092 89.8116 36.6413C89.7757 36.6793 88.9381 37.5821 89.1918 38.4451C89.3427 38.9578 89.8458 39.339 90.6871 39.5778C91.7735 39.8857 93.0299 39.7011 94.2457 39.5224C96.1457 39.2432 97.7884 39.001 98.3647 40.6425C98.3761 40.6752 98.4081 40.6957 98.4423 40.6957Z" fill="white"/>
<g opacity="0.3">
<path d="M39.004 130.499C39.1393 130.772 39.0501 131.11 38.7883 131.276C38.2158 131.641 37.6189 131.986 37.0144 132.301C36.7202 132.455 36.3574 132.339 36.204 132.043C36.2022 132.04 36.2005 132.036 36.1988 132.033C36.0534 131.739 36.1681 131.381 36.4587 131.229C37.033 130.929 37.6 130.602 38.1438 130.255C38.4237 130.077 38.795 130.161 38.9729 130.443C38.9845 130.461 38.9947 130.48 39.004 130.499ZM34.303 132.796C34.3134 132.818 34.3228 132.84 34.3309 132.862C34.4428 133.177 34.2804 133.522 33.9682 133.634C33.3268 133.863 32.6693 134.067 32.0139 134.241C31.6933 134.325 31.3657 134.133 31.2793 133.81C31.1944 133.487 31.3856 133.157 31.706 133.073C32.3289 132.908 32.9535 132.714 33.5631 132.496C33.8526 132.392 34.1692 132.526 34.303 132.796ZM29.2132 133.995C29.243 134.055 29.2632 134.122 29.2717 134.192C29.3111 134.524 29.0763 134.824 28.747 134.863C28.0721 134.943 27.3851 134.994 26.7052 135.016C26.3736 135.026 26.0962 134.764 26.0847 134.431C26.0735 134.098 26.3333 133.819 26.6647 133.808C27.3104 133.788 27.9625 133.739 28.6036 133.663C28.8628 133.633 29.1032 133.773 29.2132 133.995ZM23.9808 134.019C24.0301 134.118 24.0525 134.233 24.04 134.351C24.005 134.683 23.7091 134.922 23.3793 134.886C22.7028 134.812 22.0213 134.708 21.3536 134.576C21.0283 134.512 20.8155 134.195 20.8783 133.868C20.9413 133.54 21.2565 133.327 21.5821 133.391C22.2161 133.516 22.8634 133.616 23.5064 133.686C23.7182 133.709 23.8924 133.84 23.9808 134.019ZM18.8718 132.869C18.9409 133.008 18.9565 133.174 18.9024 133.333C18.795 133.649 18.4535 133.816 18.1398 133.707C17.4977 133.485 16.8559 133.232 16.2325 132.954C15.9288 132.82 15.7907 132.463 15.9243 132.158C16.0578 131.853 16.4121 131.715 16.7158 131.85C17.3083 132.114 17.9184 132.354 18.5286 132.566C18.6843 132.62 18.8039 132.731 18.8718 132.869ZM14.1407 130.612C14.2302 130.793 14.2277 131.014 14.1146 131.198C13.9403 131.482 13.5705 131.569 13.2881 131.393C12.7096 131.033 12.139 130.643 11.5927 130.235C11.326 130.036 11.2702 129.658 11.4677 129.39C11.665 129.123 12.0412 129.067 12.3077 129.266C12.827 129.654 13.3689 130.025 13.9186 130.367C14.0177 130.428 14.0925 130.514 14.1407 130.612ZM3.05467 111.417C3.09172 111.492 3.11376 111.576 3.11688 111.665C3.13963 112.313 3.19087 112.969 3.26933 113.615C3.3095 113.946 3.07521 114.247 2.74612 114.286C2.41686 114.326 2.11735 114.09 2.07712 113.759C1.99453 113.079 1.94043 112.388 1.9164 111.705C1.90468 111.371 2.16397 111.092 2.49543 111.081C2.73854 111.073 2.95298 111.212 3.05467 111.417ZM10.025 127.36C10.136 127.584 10.0999 127.864 9.91547 128.052C9.68285 128.289 9.30267 128.292 9.06613 128.057C8.58131 127.577 8.11138 127.07 7.66931 126.549C7.45487 126.295 7.48283 125.914 7.73497 125.698C7.9869 125.482 8.36605 125.512 8.5819 125.766C9.0016 126.26 9.44791 126.742 9.90821 127.198C9.95698 127.247 9.99613 127.302 10.025 127.36ZM3.82771 116.621C3.84535 116.657 3.85997 116.695 3.87057 116.735C4.03716 117.363 4.2331 117.991 4.45245 118.604C4.56483 118.918 4.40303 119.263 4.09109 119.376C3.7791 119.488 3.43361 119.325 3.3224 119.011C3.09172 118.366 2.88555 117.705 2.71004 117.044C2.62443 116.722 2.81478 116.391 3.13516 116.306C3.41575 116.231 3.70312 116.37 3.82771 116.621ZM6.73264 123.267C6.86772 123.54 6.77899 123.877 6.51787 124.044C6.23825 124.223 5.867 124.139 5.68831 123.858C5.32292 123.282 4.97732 122.682 4.66146 122.075C4.65936 122.071 4.65743 122.067 4.65555 122.063C4.51036 121.769 4.62452 121.412 4.91441 121.26C5.20828 121.106 5.57125 121.221 5.72515 121.517C6.02536 122.093 6.3537 122.663 6.70092 123.211C6.71253 123.229 6.72318 123.248 6.73264 123.267Z" fill="url(#paint10_linear_301_4583)"/>
<path d="M3.28745 107.185C3.34014 107.291 3.3623 107.415 3.3438 107.541C3.29874 107.849 3.25948 108.163 3.22663 108.475C3.19189 108.806 2.89619 109.046 2.5664 109.01C2.2365 108.974 1.99689 108.677 2.03227 108.345C2.06658 108.017 2.10799 107.687 2.15531 107.363C2.20349 107.033 2.50865 106.806 2.83666 106.855C3.03907 106.885 3.20281 107.014 3.28745 107.185Z" fill="url(#paint11_linear_301_4583)"/>
</g>
<g opacity="0.3">
<path d="M12.8109 91.4838C12.9401 91.745 12.8656 92.0686 12.6223 92.243C12.3704 92.4234 12.1181 92.6122 11.8724 92.8041C11.6107 93.0084 11.2334 92.9604 11.0295 92.6969C10.8248 92.4322 10.8726 92.054 11.1341 91.8497C11.3928 91.6478 11.6586 91.4489 11.9237 91.2589C12.1936 91.0656 12.5686 91.1292 12.7616 91.4009C12.7806 91.4276 12.7969 91.4554 12.8109 91.4838Z" fill="url(#paint12_linear_301_4583)"/>
<path d="M47.3588 100.187C47.482 100.436 47.6014 100.688 47.717 100.943C47.8546 101.247 47.7217 101.604 47.42 101.742C47.1183 101.88 46.7602 101.744 46.6241 101.442C46.3572 100.853 46.0672 100.277 45.7584 99.7222C45.5966 99.4304 45.6993 99.0632 45.9886 98.9008C46.2781 98.7383 46.6441 98.8429 46.8063 99.1342C46.9973 99.4772 47.1832 99.8314 47.3588 100.187ZM48.8333 103.929C48.8483 103.96 48.8609 103.992 48.871 104.025C49.0643 104.671 49.2325 105.332 49.3709 105.989C49.4396 106.316 49.2322 106.636 48.9079 106.704C48.5833 106.772 48.2636 106.563 48.1959 106.237C48.0644 105.612 47.9045 104.984 47.7211 104.37C47.6254 104.051 47.8053 103.715 48.1227 103.619C48.4071 103.534 48.7053 103.67 48.8333 103.929ZM45.0736 96.4726C45.1997 96.7278 45.1321 97.0446 44.8982 97.2221C44.6336 97.4228 44.257 97.3693 44.0567 97.103C43.6738 96.5934 43.2641 96.0933 42.8383 95.6166C42.6169 95.3678 42.6366 94.9863 42.8831 94.764C43.1299 94.5415 43.5097 94.5626 43.7315 94.8111C44.1797 95.3131 44.6112 95.8398 45.0145 96.3765C45.0376 96.4072 45.0572 96.4395 45.0736 96.4726ZM49.7664 109.024C49.8004 109.092 49.8216 109.169 49.8275 109.25C49.875 109.921 49.8945 110.603 49.8855 111.276C49.8811 111.609 49.6087 111.875 49.2771 111.87C48.9453 111.864 48.68 111.59 48.6847 111.256C48.6932 110.618 48.6747 109.97 48.6294 109.333C48.6057 109 48.855 108.712 49.1858 108.689C49.4358 108.672 49.6612 108.811 49.7664 109.024ZM41.5329 92.7103C41.6364 92.9196 41.6136 93.1794 41.4542 93.3689C41.2402 93.6233 40.8613 93.6546 40.6078 93.4389C40.1233 93.0264 39.6142 92.629 39.095 92.2575C38.8245 92.0639 38.7606 91.6869 38.9527 91.4152C39.1446 91.1438 39.5193 91.0806 39.7898 91.2741C40.3365 91.6652 40.8724 92.0836 41.3826 92.5179C41.4471 92.5728 41.4975 92.6386 41.5329 92.7103ZM37.2586 89.8181C37.3413 89.9854 37.346 90.1887 37.2537 90.3667C37.1003 90.662 36.7376 90.7759 36.4435 90.621C35.8794 90.324 35.2964 90.0473 34.7108 89.7988C34.4047 89.6694 34.2607 89.3153 34.3892 89.0077C34.5176 88.7004 34.8695 88.5567 35.1755 88.6863C35.7919 88.9478 36.4054 89.2389 36.9989 89.5516C37.1156 89.6131 37.204 89.7077 37.2586 89.8181ZM32.4611 87.9301C32.524 88.0574 32.5429 88.2072 32.5035 88.355C32.4179 88.677 32.0887 88.8675 31.7682 88.7807C31.1531 88.6138 30.5246 88.4712 29.8996 88.357C29.5733 88.2972 29.356 87.9832 29.4147 87.6547C29.4734 87.3267 29.7854 87.1091 30.112 87.1688C30.7696 87.2892 31.4314 87.4392 32.0785 87.6147C32.2517 87.6617 32.387 87.7802 32.4611 87.9301ZM27.3711 87.1382C27.4147 87.2263 27.4375 87.3263 27.4332 87.4316C27.4197 87.7647 27.1401 88.023 26.8088 88.0087C26.173 87.981 25.5291 87.9804 24.8946 88.0068C24.5632 88.0206 24.2827 87.7613 24.2682 87.4286C24.2536 87.0954 24.5105 86.8141 24.8419 86.8003C25.5102 86.7724 26.1884 86.773 26.8576 86.8021C27.0845 86.8121 27.2767 86.9471 27.3711 87.1382ZM22.2331 87.4887C22.2576 87.5382 22.2756 87.5921 22.2861 87.6492C22.346 87.9773 22.1299 88.2916 21.8038 88.3508C21.1795 88.4645 20.5519 88.6065 19.9381 88.7731C19.618 88.8599 19.2879 88.6682 19.2009 88.3473C19.1137 88.0253 19.3026 87.6938 19.6227 87.607C20.2689 87.4317 20.9296 87.2821 21.5869 87.1626C21.8562 87.1135 22.1168 87.2536 22.2331 87.4887ZM17.3032 88.9647C17.3087 88.9758 17.3138 88.9872 17.3187 88.9988C17.4481 89.306 17.3055 89.6602 17.0002 89.7895C16.5691 89.9722 16.1387 90.1703 15.7203 90.3787C15.5689 90.4541 15.4186 90.5312 15.2696 90.6094C14.9758 90.7638 14.6127 90.6492 14.4586 90.3536C14.2967 90.0574 14.4174 89.6933 14.7109 89.539C14.8678 89.4565 15.0257 89.3757 15.185 89.2963C15.625 89.0772 16.0781 88.8686 16.5315 88.6766C16.8253 88.5519 17.1628 88.6809 17.3032 88.9647Z" fill="url(#paint13_linear_301_4583)"/>
<path d="M49.5587 114.212C49.6119 114.319 49.6339 114.444 49.6147 114.571C49.5659 114.894 49.5093 115.222 49.4466 115.546C49.3833 115.874 49.068 116.087 48.7425 116.022C48.4169 115.958 48.2041 115.641 48.2675 115.313C48.3271 115.005 48.3808 114.693 48.4273 114.387C48.4769 114.057 48.7831 113.831 49.1111 113.882C49.312 113.913 49.4745 114.041 49.5587 114.212Z" fill="url(#paint14_linear_301_4583)"/>
</g>
<path d="M42.962 116.587C43.0113 116.477 42.986 116.348 42.8989 116.265L40.4146 113.902C40.7228 112.329 40.7837 110.694 40.5697 109.057L43.1963 106.87C43.2885 106.794 43.3219 106.667 43.2796 106.554L41.8328 102.696C41.7904 102.583 41.6817 102.509 41.5621 102.513L38.1494 102.603C37.2346 101.23 36.1147 100.041 34.8491 99.0614L35.1645 95.6419C35.1755 95.5221 35.1098 95.4082 35.0007 95.3583L31.2666 93.6524C31.1574 93.6025 31.029 93.6277 30.9469 93.7151L28.6018 96.2072C27.0365 95.8935 25.4107 95.8284 23.7828 96.0397L21.6019 93.3935C21.5254 93.3007 21.3989 93.2668 21.2868 93.309L17.4529 94.7546C17.3409 94.7968 17.268 94.906 17.2715 95.0263L17.3698 98.4578C16.0064 99.3742 14.8262 100.497 13.8549 101.768L10.4531 101.442C10.334 101.431 10.2208 101.497 10.1715 101.606L8.48375 105.357C8.43438 105.466 8.45976 105.595 8.54682 105.678L11.0311 108.042C10.7228 109.615 10.6619 111.25 10.8761 112.887L8.24935 115.073C8.15723 115.15 8.12379 115.277 8.166 115.39L9.61298 119.248C9.65525 119.361 9.76392 119.434 9.88367 119.431L13.2964 119.34C14.2111 120.713 15.331 121.903 16.5967 122.882L16.2813 126.302C16.2701 126.422 16.336 126.535 16.4451 126.585L20.1792 128.291C20.2883 128.341 20.4167 128.316 20.4989 128.229L22.844 125.736C24.4093 126.05 26.0351 126.115 27.6629 125.904L29.8439 128.55C29.9203 128.643 30.0469 128.677 30.1589 128.635L33.9927 127.189C34.1048 127.147 34.1777 127.038 34.1742 126.917L34.0758 123.486C35.4392 122.569 36.6193 121.446 37.5907 120.176L40.9924 120.501C41.1117 120.513 41.2247 120.447 41.2741 120.337L42.962 116.587Z" fill="url(#paint15_linear_301_4583)"/>
<path opacity="0.7" d="M29.4118 109.137C30.3065 110.947 29.7721 113.193 28.0763 114.376C26.2121 115.676 23.6401 115.207 22.3423 113.33C21.7134 112.42 21.4742 111.32 21.6682 110.232C21.8621 109.143 22.4662 108.197 23.3693 107.567C25.2335 106.267 27.8055 106.736 29.1033 108.613C29.2202 108.783 29.3231 108.958 29.4118 109.137ZM22.892 112.374C22.9611 112.514 23.0407 112.649 23.1309 112.78C24.1258 114.219 26.0981 114.579 27.5272 113.582C28.9563 112.585 29.3104 110.603 28.3147 109.163C27.3199 107.724 25.3475 107.364 23.9184 108.361C23.226 108.844 22.7629 109.57 22.6141 110.404C22.4933 111.082 22.592 111.767 22.892 112.374Z" fill="white"/>
<path opacity="0.7" d="M34.7006 106.409C34.8542 106.72 34.9933 107.04 35.1168 107.369C35.1556 107.473 35.1928 107.577 35.2284 107.682C35.4035 108.199 35.5376 108.729 35.6285 109.263C35.6297 109.271 35.6309 109.278 35.6322 109.285C35.6357 109.306 35.639 109.327 35.6423 109.347C35.6489 109.388 35.655 109.428 35.661 109.469C35.6769 109.575 35.6215 109.675 35.5308 109.72C35.5088 109.731 35.4846 109.739 35.459 109.743C35.3278 109.762 35.2059 109.671 35.186 109.539C35.085 108.86 34.9104 108.187 34.6672 107.539C33.4606 104.32 30.726 102.118 27.6049 101.453C25.8689 101.083 24.0134 101.188 22.2344 101.859C21.9224 101.976 21.6187 102.109 21.3243 102.256C19.3427 103.243 17.7737 104.873 16.8498 106.926C15.7883 109.284 15.7049 111.919 16.6148 114.346C18.4945 119.356 24.0707 121.902 29.0475 120.026C29.3544 119.91 29.6543 119.779 29.9459 119.634C31.2099 119.004 32.3222 118.103 33.1996 116.991C33.2223 116.962 33.2501 116.94 33.2808 116.925C33.3615 116.885 33.4617 116.892 33.537 116.952C33.6408 117.036 33.6589 117.187 33.5761 117.292C32.6549 118.459 31.4872 119.406 30.1602 120.067C29.854 120.219 29.5393 120.357 29.2172 120.478C23.992 122.448 18.1365 119.772 16.1651 114.515C15.2098 111.968 15.2975 109.202 16.4119 106.726C17.3818 104.57 19.029 102.86 21.1092 101.823C21.4184 101.669 21.7372 101.53 22.0646 101.407C24.5958 100.452 27.3474 100.547 29.8126 101.673C31.9592 102.654 33.6649 104.315 34.7006 106.409Z" fill="white"/>
<g opacity="0.3">
<path d="M62.3048 141.911C62.3763 142.056 62.3484 142.236 62.2246 142.351C61.9936 142.565 61.753 142.776 61.5094 142.977C61.3512 143.107 61.1177 143.083 60.9874 142.924C60.8566 142.764 60.8805 142.529 61.0387 142.399C61.2708 142.208 61.5001 142.007 61.7206 141.802C61.8706 141.663 62.1054 141.672 62.2448 141.824C62.2695 141.851 62.2893 141.88 62.3048 141.911Z" fill="url(#paint16_linear_301_4583)"/>
<path d="M60.0428 143.654C60.1266 143.824 60.0709 144.032 59.9087 144.135C59.4503 144.425 58.9718 144.695 58.4867 144.936C58.3845 144.987 58.2815 145.037 58.1776 145.086C57.992 145.173 57.7732 145.08 57.6836 144.907C57.5962 144.72 57.6756 144.498 57.8607 144.411C57.96 144.364 58.0585 144.316 58.1561 144.268C58.6189 144.037 59.0753 143.78 59.5124 143.504C59.6857 143.394 59.9146 143.447 60.0242 143.621C60.0309 143.632 60.0373 143.643 60.0428 143.654ZM56.5593 145.298C56.5671 145.313 56.5742 145.33 56.5798 145.347C56.644 145.543 56.5383 145.754 56.3437 145.818C55.7197 146.024 55.0772 146.192 54.4345 146.319C54.2335 146.359 54.0384 146.226 53.9985 146.025C53.9587 145.822 54.089 145.627 54.29 145.587C54.9032 145.466 55.5159 145.305 56.1112 145.109C56.2885 145.051 56.4784 145.134 56.5593 145.298ZM52.7815 146.042C52.8025 146.084 52.8156 146.131 52.8194 146.181C52.8341 146.387 52.68 146.565 52.4757 146.579C51.8212 146.624 51.1563 146.629 50.5002 146.593C50.2953 146.581 50.1386 146.406 50.1494 146.2C50.1602 145.994 50.3348 145.836 50.5393 145.848C51.1651 145.883 51.7987 145.878 52.423 145.835C52.5774 145.824 52.7165 145.91 52.7815 146.042ZM48.935 145.829C48.9692 145.898 48.9823 145.978 48.9681 146.06C48.9321 146.262 48.7394 146.397 48.5377 146.361C47.8903 146.243 47.2447 146.084 46.6183 145.888C46.4227 145.827 46.3134 145.617 46.3737 145.421C46.434 145.224 46.6417 145.115 46.8376 145.176C47.4345 145.363 48.0506 145.515 48.6678 145.627C48.7881 145.648 48.8844 145.726 48.935 145.829ZM45.2548 144.678C45.3026 144.774 45.3085 144.891 45.2611 144.997C45.1773 145.184 44.9578 145.268 44.7708 145.183C44.1719 144.911 43.5838 144.599 43.0231 144.257C42.8473 144.15 42.7916 143.92 42.8978 143.744C43.004 143.568 43.2322 143.512 43.4072 143.619C43.9423 143.946 44.5032 144.244 45.0748 144.503C45.1561 144.54 45.2179 144.603 45.2548 144.678ZM41.9622 142.664C42.0241 142.79 42.0131 142.945 41.9214 143.062C41.7946 143.223 41.5615 143.25 41.4005 143.122C40.8849 142.712 40.3899 142.266 39.9295 141.796C39.7857 141.648 39.7873 141.413 39.933 141.268C40.0787 141.124 40.3137 141.126 40.4574 141.273C40.8966 141.721 41.3683 142.147 41.8598 142.538C41.9044 142.573 41.9385 142.617 41.9622 142.664ZM39.2579 139.905C39.3354 140.061 39.2946 140.256 39.1517 140.366C38.9893 140.491 38.7564 140.46 38.6315 140.296C38.2327 139.773 37.8615 139.219 37.5277 138.647C37.4266 138.468 37.4831 138.241 37.6597 138.137C37.8362 138.033 38.0635 138.093 38.1675 138.271C38.4855 138.816 38.8397 139.345 39.2199 139.843C39.2348 139.863 39.2474 139.883 39.2579 139.905ZM36.6496 134.736C36.6591 134.755 36.6672 134.776 36.6735 134.797C36.8261 135.319 37.0098 135.842 37.2196 136.351C37.251 136.429 37.2826 136.504 37.3152 136.579C37.3967 136.768 37.3108 136.988 37.1228 137.069C36.9347 137.151 36.7103 137.065 36.6347 136.875C36.6003 136.795 36.5664 136.715 36.5335 136.634C36.3145 136.101 36.1219 135.553 35.962 135.006C35.9042 134.808 36.0165 134.601 36.2131 134.544C36.3881 134.492 36.5709 134.577 36.6496 134.736Z" fill="url(#paint17_linear_301_4583)"/>
</g>
<g opacity="0.3">
<path d="M65.5782 123.167C65.6684 123.349 65.5963 123.571 65.4155 123.664C65.2335 123.758 65.0096 123.685 64.9161 123.502C64.6342 122.95 64.3164 122.41 63.9715 121.898C63.8588 121.727 63.9005 121.495 64.0703 121.38C64.24 121.265 64.4706 121.31 64.5856 121.481C64.947 122.018 65.2804 122.583 65.5759 123.162C65.5759 123.162 65.5774 123.165 65.5782 123.167ZM66.3427 124.915C66.3487 124.927 66.3539 124.939 66.3587 124.952C66.5832 125.562 66.7731 126.191 66.9232 126.822C66.9706 127.023 66.848 127.223 66.6488 127.271C66.4493 127.319 66.2494 127.193 66.2015 126.994C66.0583 126.391 65.8771 125.791 65.6631 125.21C65.5918 125.016 65.6899 124.802 65.8819 124.731C66.0616 124.664 66.2594 124.747 66.3427 124.915ZM63.4517 120.011C63.525 120.159 63.4934 120.343 63.3638 120.457C63.2099 120.592 62.9756 120.576 62.8405 120.421C62.4339 119.953 61.9959 119.506 61.538 119.093C61.3858 118.954 61.3727 118.719 61.5096 118.566C61.6461 118.413 61.8809 118.401 62.0335 118.538C62.5133 118.972 62.9726 119.44 63.3985 119.931C63.4202 119.956 63.4379 119.983 63.4517 120.011ZM67.2218 128.623C67.2405 128.661 67.2532 128.703 67.2583 128.748C67.3307 129.394 67.364 130.05 67.3573 130.7C67.3553 130.906 67.1874 131.07 66.9825 131.068C66.7782 131.065 66.6137 130.896 66.6155 130.69C66.6218 130.071 66.59 129.445 66.5211 128.83C66.4983 128.625 66.6447 128.441 66.8483 128.418C67.0073 128.4 67.1543 128.487 67.2218 128.623ZM60.631 117.463C60.6895 117.582 60.6836 117.728 60.6033 117.843C60.486 118.012 60.2548 118.053 60.0868 117.934C59.5821 117.579 59.0506 117.251 58.5064 116.96C58.325 116.863 58.2565 116.636 58.3526 116.455C58.4486 116.273 58.6733 116.204 58.8542 116.301C59.4246 116.607 59.9821 116.951 60.5114 117.323C60.5641 117.361 60.6042 117.409 60.631 117.463ZM57.2862 115.669C57.331 115.76 57.3392 115.868 57.3005 115.969C57.2269 116.161 57.0122 116.257 56.8211 116.182C56.2451 115.958 55.6507 115.767 55.0548 115.615C54.8559 115.564 54.7355 115.361 54.7857 115.161C54.8357 114.962 55.0372 114.841 55.2357 114.892C55.8607 115.052 56.4839 115.252 57.0874 115.487C57.1774 115.522 57.2463 115.588 57.2862 115.669ZM53.6118 114.731C53.6433 114.795 53.6573 114.868 53.6475 114.944C53.6221 115.148 53.4364 115.292 53.2331 115.266C52.6211 115.187 51.9989 115.145 51.3841 115.141C51.1796 115.139 51.0138 114.972 51.0147 114.766C51.0154 114.56 51.1819 114.394 51.387 114.395C52.0317 114.399 52.6843 114.443 53.3263 114.526C53.4541 114.543 53.5584 114.623 53.6118 114.731Z" fill="url(#paint18_linear_301_4583)"/>
<path d="M67.1816 132.45C67.2135 132.515 67.2272 132.589 67.217 132.666C67.175 132.982 67.1233 133.298 67.0638 133.606C67.0246 133.808 66.8299 133.94 66.6287 133.9C66.4282 133.86 66.2967 133.664 66.3354 133.462C66.3923 133.169 66.4414 132.867 66.4817 132.565C66.5089 132.361 66.6957 132.218 66.8986 132.246C67.0253 132.263 67.1286 132.343 67.1816 132.45Z" fill="url(#paint19_linear_301_4583)"/>
</g>
<path d="M62.7549 134.309C62.788 134.235 62.771 134.149 62.7127 134.094L61.0503 132.512C61.2566 131.459 61.2974 130.365 61.1541 129.27L62.9117 127.807C62.9734 127.756 62.9958 127.67 62.9675 127.595L61.9993 125.013C61.971 124.938 61.8983 124.889 61.8182 124.891L59.5346 124.951C58.9224 124.033 58.1731 123.237 57.3262 122.581L57.5373 120.293C57.5447 120.213 57.5006 120.137 57.4276 120.103L54.9289 118.962C54.8558 118.929 54.77 118.945 54.715 119.004L53.1457 120.672C52.0983 120.462 51.0104 120.418 49.9211 120.559L48.4617 118.789C48.4105 118.727 48.3259 118.704 48.2509 118.732L45.6855 119.7C45.6105 119.728 45.5617 119.801 45.5641 119.881L45.6299 122.178C44.7175 122.791 43.9278 123.542 43.2779 124.392L41.0016 124.175C40.9218 124.167 40.8461 124.211 40.8131 124.284L39.6837 126.794C39.6507 126.867 39.6677 126.954 39.726 127.009L41.3884 128.591C41.182 129.643 41.1413 130.737 41.2846 131.833L39.5268 133.296C39.4652 133.347 39.4428 133.432 39.4711 133.508L40.4393 136.089C40.4676 136.165 40.5403 136.214 40.6204 136.212L42.904 136.151C43.5162 137.07 44.2655 137.866 45.1124 138.521L44.9014 140.809C44.8939 140.89 44.938 140.966 45.011 140.999L47.5097 142.141C47.5827 142.174 47.6686 142.157 47.7236 142.099L49.2928 140.431C50.3403 140.641 51.4282 140.684 52.5175 140.543L53.9769 142.314C54.0281 142.376 54.1127 142.399 54.1877 142.37L56.7531 141.403C56.8281 141.375 56.8768 141.302 56.8745 141.221L56.8087 138.925C57.721 138.312 58.5107 137.56 59.1607 136.71L61.437 136.928C61.5168 136.936 61.5924 136.892 61.6255 136.818L62.7549 134.309Z" fill="url(#paint20_linear_301_4583)"/>
<path opacity="0.7" d="M53.7342 129.306C54.0008 129.845 54.0885 130.453 53.9812 131.056C53.849 131.797 53.4374 132.441 52.8222 132.87C51.553 133.756 49.801 133.436 48.9166 132.158C48.0338 130.876 48.3467 129.118 49.6163 128.232C50.2315 127.803 50.9765 127.641 51.714 127.776C52.4519 127.91 53.0941 128.326 53.5222 128.945C53.602 129.061 53.6729 129.182 53.7342 129.306ZM49.371 131.471C49.4155 131.56 49.4669 131.648 49.5255 131.733C50.176 132.674 51.4646 132.909 52.3986 132.257C52.8508 131.942 53.1539 131.467 53.2508 130.922C53.348 130.377 53.2276 129.826 52.9132 129.37C52.5982 128.914 52.1258 128.609 51.5833 128.51C51.0405 128.411 50.4925 128.53 50.0399 128.846C49.1905 129.438 48.9227 130.564 49.371 131.471Z" fill="white"/>
<path opacity="0.7" d="M57.4175 127.412C57.522 127.623 57.6167 127.842 57.7015 128.067C57.8696 128.515 57.9926 128.98 58.0671 129.452C58.0704 129.473 58.0735 129.494 58.0767 129.515C58.1012 129.679 58.0156 129.834 57.8756 129.904C57.8416 129.921 57.8042 129.933 57.7647 129.938C57.5621 129.968 57.3741 129.827 57.3431 129.624C57.2777 129.183 57.1646 128.748 57.0074 128.329L57.0073 128.329C56.9988 128.306 56.9898 128.283 56.981 128.26C56.6001 127.273 55.9891 126.419 55.2065 125.751C54.7817 125.389 54.3058 125.082 53.7879 124.84C53.7837 124.838 53.7795 124.836 53.7753 124.834C53.7622 124.828 53.7495 124.822 53.7366 124.816C52.2164 124.122 50.5195 124.063 48.9588 124.652C48.7567 124.728 48.5603 124.814 48.3696 124.909C47.0868 125.548 46.0711 126.603 45.4727 127.932C44.7857 129.459 44.7319 131.165 45.3209 132.735C45.9102 134.305 47.0716 135.553 48.5916 136.248C50.1118 136.942 51.8086 137.001 53.3694 136.412C53.568 136.338 53.7622 136.253 53.9509 136.159C54.7693 135.751 55.4892 135.168 56.0572 134.448C56.0923 134.404 56.1352 134.369 56.1826 134.346C56.3071 134.284 56.4619 134.295 56.5782 134.388C56.7385 134.517 56.766 134.751 56.6386 134.913C56.003 135.718 55.1974 136.371 54.2822 136.827C54.0707 136.932 53.8537 137.027 53.6316 137.111C51.8852 137.769 49.9869 137.704 48.286 136.927C46.5854 136.15 45.285 134.756 44.6268 132.997C43.9677 131.24 44.0279 129.331 44.7971 127.623C45.4662 126.136 46.6025 124.956 48.0378 124.241C48.2509 124.135 48.4708 124.038 48.6967 123.953C52.0777 122.679 55.8407 124.223 57.4175 127.412Z" fill="white"/>
<defs>
<linearGradient id="paint0_linear_301_4583" x1="175.097" y1="190.051" x2="45.6505" y2="22.1129" gradientUnits="userSpaceOnUse">
<stop stop-color="#DAE3FE"/>
<stop offset="1" stop-color="#E9EFFD"/>
</linearGradient>
<linearGradient id="paint1_linear_301_4583" x1="108.85" y1="144.09" x2="90.1855" y2="93.8978" gradientUnits="userSpaceOnUse">
<stop stop-color="#FEBBBA"/>
<stop offset="1" stop-color="#FF928E"/>
</linearGradient>
<linearGradient id="paint2_linear_301_4583" x1="109.156" y1="303.766" x2="48.1072" y2="-441.577" gradientUnits="userSpaceOnUse">
<stop stop-color="#FEBBBA"/>
<stop offset="1" stop-color="#FF928E"/>
</linearGradient>
<linearGradient id="paint3_linear_301_4583" x1="106.762" y1="65.5564" x2="98.2236" y2="65.5564" gradientUnits="userSpaceOnUse">
<stop stop-color="#FEBBBA"/>
<stop offset="1" stop-color="#FF928E"/>
</linearGradient>
<linearGradient id="paint4_linear_301_4583" x1="113.679" y1="63.814" x2="96.8634" y2="87.6009" gradientUnits="userSpaceOnUse">
<stop stop-color="#4F52FF"/>
<stop offset="1" stop-color="#4042E2"/>
</linearGradient>
<linearGradient id="paint5_linear_301_4583" x1="97.4373" y1="47.3191" x2="91.373" y2="47.3191" gradientUnits="userSpaceOnUse">
<stop stop-color="#FEBBBA"/>
<stop offset="1" stop-color="#FF928E"/>
</linearGradient>
<linearGradient id="paint6_linear_301_4583" x1="167.908" y1="39.1897" x2="143.27" y2="47.641" gradientUnits="userSpaceOnUse">
<stop stop-color="#FF928E"/>
<stop offset="1" stop-color="#FE7062"/>
</linearGradient>
<linearGradient id="paint7_linear_301_4583" x1="61.8576" y1="50.629" x2="113.149" y2="81.3244" gradientUnits="userSpaceOnUse">
<stop stop-color="#FEBBBA"/>
<stop offset="1" stop-color="#FF928E"/>
</linearGradient>
<linearGradient id="paint8_linear_301_4583" x1="56.6462" y1="59.3368" x2="107.938" y2="90.0321" gradientUnits="userSpaceOnUse">
<stop stop-color="#FEBBBA"/>
<stop offset="1" stop-color="#FF928E"/>
</linearGradient>
<linearGradient id="paint9_linear_301_4583" x1="87.3368" y1="47.3167" x2="98.4316" y2="30.3694" gradientUnits="userSpaceOnUse">
<stop stop-color="#FEBBBA"/>
<stop offset="1" stop-color="#FF928E"/>
</linearGradient>
<linearGradient id="paint10_linear_301_4583" x1="27.3342" y1="136.9" x2="12.7339" y2="106.163" gradientUnits="userSpaceOnUse">
<stop stop-color="#FF928E"/>
<stop offset="1" stop-color="#FE7062"/>
</linearGradient>
<linearGradient id="paint11_linear_301_4583" x1="3.15473" y1="108.829" x2="2.28753" y2="107.003" gradientUnits="userSpaceOnUse">
<stop stop-color="#FF928E"/>
<stop offset="1" stop-color="#FE7062"/>
</linearGradient>
<linearGradient id="paint12_linear_301_4583" x1="12.2099" y1="92.6599" x2="11.6101" y2="91.3972" gradientUnits="userSpaceOnUse">
<stop stop-color="#FF928E"/>
<stop offset="1" stop-color="#FE7062"/>
</linearGradient>
<linearGradient id="paint13_linear_301_4583" x1="41.4727" y1="115.645" x2="26.4195" y2="83.9552" gradientUnits="userSpaceOnUse">
<stop stop-color="#FF928E"/>
<stop offset="1" stop-color="#FE7062"/>
</linearGradient>
<linearGradient id="paint14_linear_301_4583" x1="49.3985" y1="115.841" x2="48.542" y2="114.038" gradientUnits="userSpaceOnUse">
<stop stop-color="#FF928E"/>
<stop offset="1" stop-color="#FE7062"/>
</linearGradient>
<linearGradient id="paint15_linear_301_4583" x1="30.1964" y1="95.3" x2="18.1425" y2="141.381" gradientUnits="userSpaceOnUse">
<stop stop-color="#FF928E"/>
<stop offset="1" stop-color="#FE7062"/>
</linearGradient>
<linearGradient id="paint16_linear_301_4583" x1="61.853" y1="142.826" x2="61.4247" y2="141.924" gradientUnits="userSpaceOnUse">
<stop stop-color="#FF928E"/>
<stop offset="1" stop-color="#FE7062"/>
</linearGradient>
<linearGradient id="paint17_linear_301_4583" x1="52.2777" y1="147.889" x2="44.1462" y2="130.77" gradientUnits="userSpaceOnUse">
<stop stop-color="#FF928E"/>
<stop offset="1" stop-color="#FE7062"/>
</linearGradient>
<linearGradient id="paint18_linear_301_4583" x1="65.0443" y1="132.03" x2="55.6795" y2="112.315" gradientUnits="userSpaceOnUse">
<stop stop-color="#FF928E"/>
<stop offset="1" stop-color="#FE7062"/>
</linearGradient>
<linearGradient id="paint19_linear_301_4583" x1="67.1227" y1="133.746" x2="66.474" y2="132.381" gradientUnits="userSpaceOnUse">
<stop stop-color="#FF928E"/>
<stop offset="1" stop-color="#FE7062"/>
</linearGradient>
<linearGradient id="paint20_linear_301_4583" x1="56.838" y1="112.47" x2="44.7721" y2="154.842" gradientUnits="userSpaceOnUse">
<stop stop-color="#FF928E"/>
<stop offset="1" stop-color="#FE7062"/>
</linearGradient>
</defs>
</svg>
